<?xml version="1.0" encoding="utf-8"?>
<svg version="1.1" xmlns:xlink="http://www.w3.org/1999/xlink" width="295px" height="213px" xmlns="http://www.w3.org/2000/svg">
  <defs>
    <mask fill="white" id="clip15">
      <path d="M 192.477666666667 21.9064583333335  C 187.010333333333 18.6720138888889  181.503666666667 15.4770138888889  175.711833333333 11.9960416666667  L 173.106 14.0274305555556  C 173.106 15.1910416666668  173.686166666667 17.8042361111112  174.5515 21.5810416666668  L 174.5515 21.8768750000001  L 174.836666666667 22.1727083333335  L 174.5515 22.1727083333335  L 171.3655 29.4304861111113  L 167.019166666667 31.1759027777779  L 166.144 31.4618750000001  L 165.858833333333 31.4618750000001  L 158.3265 27.9710416666668  L 158.041333333333 27.9710416666668  L 158.041333333333 27.6850694444445  L 143.842 14.6092361111112  L 138.335333333333 11.4142361111112  L 129.642666666667 8.2192361111112  L 129.642666666667 7.92340277777786  L 129.347666666667 7.92340277777786  L 125.296333333333 5.02423611111119  L 118.049166666667 2.69701388888896  L 113.997833333333 2.9928472222223  L 113.702833333333 2.9928472222223  L 104.439833333333 2.41104166666677  L 104.154666666667 2.41104166666677  L 97.4876666666666 0.961458333333412  L 93.4363333333333 0.961458333333412  L 90.2503333333332 3.28868055555565  C 88.5098333333333 4.15645833333342  86.1989999999999 4.45229166666677  83.2981666666666 5.0340972222223  L 77.2113333333333 6.18784722222231  L 71.9996666666666 7.93326388888896  L 71.7046666666666 8.2290972222223  L 71.7046666666666 8.51506944444455  L 71.7046666666666 8.2290972222223  L 65.3326666666666 8.81090277777784  L 58.6656666666666 11.4240972222223  L 57.8003333333332 11.4240972222223  L 52.2936666666666 10.8422916666667  L 43.8959999999999 12.0059027777778  L 36.9438333333332 12.0059027777778  L 34.0429999999999 14.9149305555556  L 33.7578333333332 14.9149305555556  L 30.2866666666666 15.7827083333334  L 31.7321666666666 19.2735416666667  L 31.7321666666666 24.795763888889  L 30.8569999999999 29.7361805555556  L 35.7834999999999 33.7989583333334  L 36.0784999999999 33.7989583333334  L 40.1298333333333 38.4534027777779  C 42.7356666666666 40.4847916666668  43.8959999999999 41.9343750000001  43.8959999999999 43.6797916666668  L 45.3415 48.0384027777779  L 47.3671666666666 52.397013888889  C 47.0721666666666 52.397013888889  47.0721666666666 52.6829861111113  46.787 52.6829861111113  L 41.2803333333333 56.7556250000002  L 37.5141666666666 61.6960416666668  L 38.3795 66.054652777778  L 40.9951666666667 72.1586805555557  L 41.2803333333333 72.7404861111113  L 41.2803333333333 73.0264583333335  L 40.7001666666667 75.3438194444446  C 40.1200000000001 76.793402777778  39.5398333333334 77.9570138888891  38.6745 78.5388194444447  C 36.9340000000001 79.988402777778  34.0331666666667 79.988402777778  29.4016666666667 78.5388194444447  L 22.1643333333334 77.0892361111113  L 21.8791666666667 77.0892361111113  L 21.5841666666667 77.0892361111113  L 16.3626666666667 74.4760416666669  L 7.95516666666664 74.1900694444446  L 8.25016666666665 74.4760416666669  L 7.38483333333332 88.9817361111112  C 7.08983333333331 91.0131250000001  5.64433333333334 91.8809027777778  3.61866666666667 92.1767361111112  C 2.75333333333334 92.4627083333334  2.16333333333332 93.6263194444445  2.45833333333333 95.9535416666667  L 2.45833333333333 96.239513888889  L 2.16333333333332 96.239513888889  L 1.58316666666668 100.016319444445  C 3.60883333333335 101.761736111111  5.05433333333332 103.221180555556  5.64433333333334 104.374930555556  L 7.08983333333337 111.346736111111  L 7.08983333333337 113.969791666667  C 6.80466666666668 115.419375  6.50966666666673 116.582986111111  5.92950000000003 117.746597222222  L 3.90383333333336 123.554791666667  L 0.137666666666709 130.812569444445  L 0.137666666666709 132.272013888889  L 0.717833333333351 135.762847222222  L 4.484 140.703263888889  C 5.64433333333334 142.152847222222  6.22449999999998 143.030486111111  6.50966666666667 143.898263888889  L 9.98083333333331 148.838680555556  L 15.1925 154.656736111111  C 17.228 156.688125  18.6735 157.565763888889  19.2536666666667 157.565763888889  L 24.7603333333333 154.074930555556  C 25.9206666666667 153.197291666667  26.786 152.615486111111  28.2315 152.615486111111  C 29.3918333333333 152.615486111111  31.1225 153.493125  33.7381666666667 155.228680555556  L 34.0233333333334 155.228680555556  L 34.0233333333334 155.524513888889  L 36.9241666666667 159.015347222222  L 38.3696666666667 162.496319444444  L 39.53 163.945902777778  L 40.4051666666667 164.527708333333  L 44.1615 167.140902777778  L 46.197 167.436736111111  C 47.3573333333334 167.722708333333  48.5078333333334 168.600347222222  49.383 169.763958333333  C 49.9631666666667 170.641597222222  53.1491666666667 171.795347222222  58.6558333333334 173.254791666667  L 58.9508333333334 173.254791666667  L 67.6435 176.449791666667  L 67.9286666666667 176.449791666667  L 68.2236666666667 176.449791666667  L 74.3105 179.358819444444  L 84.7338333333334 181.972013888889  L 85.0288333333334 182.257986111111  L 98.6480000000001 182.839791666667  L 104.734833333333 180.512569444444  L 110.2415 180.512569444444  L 110.2415 180.808402777778  L 110.526666666667 181.094375  L 115.158166666667 186.912430555555  L 115.158166666667 187.198402777778  L 118.049166666667 191.852847222222  L 120.369833333333 194.466041666666  L 123.555833333333 195.925486111111  L 123.841 196.221319444444  L 124.136 196.507291666666  L 126.741833333333 202.315486111111  L 126.741833333333 202.611319444444  L 127.036833333333 202.611319444444  L 127.036833333333 202.897291666666  L 128.492166666667 209.287291666666  L 132.5435 210.736875  L 132.8385 210.736875  L 133.123666666667 210.736875  L 136.309666666667 212.778125  L 140.656 211.900486111111  L 141.816333333334 207.541875  L 141.816333333334 207.255902777778  L 142.1015 206.969930555555  L 147.018166666667 202.029513888889  L 152.524833333334 203.479097222222  L 152.524833333334 204.060902777778  L 155.130666666667 209.869097222222  L 160.637333333334 207.837708333333  L 161.207666666667 202.315486111111  L 161.207666666667 202.029513888889  L 161.207666666667 201.733680555556  L 161.502666666667 201.447708333333  L 165.268833333334 199.416319444445  L 164.393666666667 191.280902777778  L 164.393666666667 190.699097222222  L 164.393666666667 190.413125  L 168.74 181.400069444445  L 173.086333333334 179.654652777778  L 171.345833333334 171.519236111111  L 175.692166666667 171.519236111111  L 175.397166666667 167.742430555556  L 173.0765 159.892986111111  L 173.0765 159.311180555556  L 173.656666666667 153.788958333333  L 173.656666666667 152.921180555556  L 174.236833333334 152.625347222222  L 177.127833333334 148.848541666667  L 177.708 148.266736111111  L 178.583166666667 148.266736111111  L 186.4105 149.726180555556  L 186.7055 149.726180555556  L 193.0775 151.461736111111  L 198.584166666667 149.726180555556  L 201.770166666667 156.116180555556  L 202.055333333334 156.402152777778  L 202.055333333334 161.046736111111  L 202.9305 165.405347222222  C 203.510666666667 167.150763888889  204.671 168.314375  205.831333333334 168.610208333333  L 206.4115 168.610208333333  C 209.017333333334 169.192013888889  210.472666666667 170.355625  210.757833333334 172.101041666667  C 211.043 173.550625  212.203333333334 175.582013888889  214.238833333334 177.909236111111  L 216.844666666667 181.686041666667  L 216.844666666667 181.981875  L 218.585166666667 185.176875  L 221.191 184.881041666667  L 226.1175 180.522430555556  L 229.3035 187.208263888889  L 235.6755 189.249513888889  L 235.9705 189.249513888889  L 236.255666666667 189.535486111111  L 239.441666666667 195.343680555556  L 240.887166666667 196.211458333333  L 241.172333333333 190.689236111111  L 241.172333333333 190.403263888889  L 241.172333333333 189.525625  L 253.926166666667 189.239652777778  L 254.211333333333 188.076041666667  C 254.506333333333 187.494236111111  254.506333333333 186.330625  253.926166666667 185.462847222222  C 253.051 183.717430555556  252.765833333333 182.267847222222  252.470833333333 180.226597222222  C 252.185666666667 177.899375  252.470833333333 176.153958333334  253.051 175.582013888889  C 253.926166666667 174.418402777778  254.4965 174.418402777778  255.951833333333 174.714236111111  L 261.1635 176.459652777778  L 261.743666666667 172.682847222222  L 252.185666666667 168.324236111111  L 251.6055 168.324236111111  L 251.3105 167.742430555556  L 251.3105 167.456458333334  L 251.3105 167.160625  L 249.865 155.544236111111  L 250.150166666667 148.276597222222  L 250.150166666667 147.408819444445  L 250.150166666667 146.827013888889  L 266.09 148.858402777778  L 270.141333333333 145.081597222222  C 271.0165 143.632013888889  270.7215 142.468402777778  270.141333333333 142.182430555556  C 266.09 140.732847222222  264.0545 138.987430555556  264.0545 137.242013888889  C 264.0545 136.364375  264.3495 135.210625  265.795 134.628819444445  L 272.462 127.942986111111  L 279.699333333333 127.647152777778  L 283.4655 121.257152777778  L 283.4655 115.153125  L 288.972166666667 113.999375  C 290.417666666667 109.640763888889  291.292833333333 107.313541666667  291.863166666667 106.445763888889  L 294.183833333334 101.505347222222  L 290.1325 94.2377083333335  L 290.1325 93.9517361111113  L 290.1325 93.665763888889  L 287.516833333334 83.7849305555557  L 287.516833333334 83.4890972222224  L 285.776333333334 73.3222916666668  L 282.305166666667 67.5140972222224  L 277.0935 62.2778472222224  L 277.0935 61.9918750000001  L 277.0935 61.7059027777779  L 276.808333333334 61.4199305555556  L 276.523166666667 55.9075694444445  L 266.955333333334 58.8067361111112  L 266.670166666667 58.520763888889  L 262.323833333334 53.5803472222223  L 249.284833333334 43.699513888889  L 248.999666666667 43.699513888889  L 244.073166666667 37.309513888889  L 240.887166666667 35.268263888889  L 238.861500000001 38.4731250000001  L 238.861500000001 39.0549305555556  L 238.566500000001 39.3409027777779  L 238.281333333334 39.3409027777779  L 237.701166666667 39.3409027777779  L 233.640000000001 39.6268750000001  L 233.059833333334 39.9227083333335  L 232.764833333334 39.9227083333335  L 223.206833333334 29.4600694444446  C 221.171333333334 28.5922916666668  219.145666666667 26.5510416666668  216.244833333334 23.6518750000001  L 211.898500000001 20.4568750000001  L 211.603500000001 20.1610416666668  L 206.677000000001 17.2618750000001  L 203.776166666667 19.5890972222223  L 203.481166666667 20.1610416666668  L 203.196000000001 19.8750694444445  L 202.910833333334 19.8750694444445  L 200.305000000001 19.293263888889  L 197.404166666667 20.7428472222224  L 197.109166666667 21.0386805555557  L 196.824000000001 21.3246527777779  L 196.529000000001 21.3246527777779  L 192.477666666667 21.9064583333335  Z " fill-rule="evenodd" />
    </mask>
  </defs>
  <g transform="matrix(1 0 0 1 -670 -461 )">
    <path d="M 192.477666666667 21.9064583333335  C 187.010333333333 18.6720138888889  181.503666666667 15.4770138888889  175.711833333333 11.9960416666667  L 173.106 14.0274305555556  C 173.106 15.1910416666668  173.686166666667 17.8042361111112  174.5515 21.5810416666668  L 174.5515 21.8768750000001  L 174.836666666667 22.1727083333335  L 174.5515 22.1727083333335  L 171.3655 29.4304861111113  L 167.019166666667 31.1759027777779  L 166.144 31.4618750000001  L 165.858833333333 31.4618750000001  L 158.3265 27.9710416666668  L 158.041333333333 27.9710416666668  L 158.041333333333 27.6850694444445  L 143.842 14.6092361111112  L 138.335333333333 11.4142361111112  L 129.642666666667 8.2192361111112  L 129.642666666667 7.92340277777786  L 129.347666666667 7.92340277777786  L 125.296333333333 5.02423611111119  L 118.049166666667 2.69701388888896  L 113.997833333333 2.9928472222223  L 113.702833333333 2.9928472222223  L 104.439833333333 2.41104166666677  L 104.154666666667 2.41104166666677  L 97.4876666666666 0.961458333333412  L 93.4363333333333 0.961458333333412  L 90.2503333333332 3.28868055555565  C 88.5098333333333 4.15645833333342  86.1989999999999 4.45229166666677  83.2981666666666 5.0340972222223  L 77.2113333333333 6.18784722222231  L 71.9996666666666 7.93326388888896  L 71.7046666666666 8.2290972222223  L 71.7046666666666 8.51506944444455  L 71.7046666666666 8.2290972222223  L 65.3326666666666 8.81090277777784  L 58.6656666666666 11.4240972222223  L 57.8003333333332 11.4240972222223  L 52.2936666666666 10.8422916666667  L 43.8959999999999 12.0059027777778  L 36.9438333333332 12.0059027777778  L 34.0429999999999 14.9149305555556  L 33.7578333333332 14.9149305555556  L 30.2866666666666 15.7827083333334  L 31.7321666666666 19.2735416666667  L 31.7321666666666 24.795763888889  L 30.8569999999999 29.7361805555556  L 35.7834999999999 33.7989583333334  L 36.0784999999999 33.7989583333334  L 40.1298333333333 38.4534027777779  C 42.7356666666666 40.4847916666668  43.8959999999999 41.9343750000001  43.8959999999999 43.6797916666668  L 45.3415 48.0384027777779  L 47.3671666666666 52.397013888889  C 47.0721666666666 52.397013888889  47.0721666666666 52.6829861111113  46.787 52.6829861111113  L 41.2803333333333 56.7556250000002  L 37.5141666666666 61.6960416666668  L 38.3795 66.054652777778  L 40.9951666666667 72.1586805555557  L 41.2803333333333 72.7404861111113  L 41.2803333333333 73.0264583333335  L 40.7001666666667 75.3438194444446  C 40.1200000000001 76.793402777778  39.5398333333334 77.9570138888891  38.6745 78.5388194444447  C 36.9340000000001 79.988402777778  34.0331666666667 79.988402777778  29.4016666666667 78.5388194444447  L 22.1643333333334 77.0892361111113  L 21.8791666666667 77.0892361111113  L 21.5841666666667 77.0892361111113  L 16.3626666666667 74.4760416666669  L 7.95516666666664 74.1900694444446  L 8.25016666666665 74.4760416666669  L 7.38483333333332 88.9817361111112  C 7.08983333333331 91.0131250000001  5.64433333333334 91.8809027777778  3.61866666666667 92.1767361111112  C 2.75333333333334 92.4627083333334  2.16333333333332 93.6263194444445  2.45833333333333 95.9535416666667  L 2.45833333333333 96.239513888889  L 2.16333333333332 96.239513888889  L 1.58316666666668 100.016319444445  C 3.60883333333335 101.761736111111  5.05433333333332 103.221180555556  5.64433333333334 104.374930555556  L 7.08983333333337 111.346736111111  L 7.08983333333337 113.969791666667  C 6.80466666666668 115.419375  6.50966666666673 116.582986111111  5.92950000000003 117.746597222222  L 3.90383333333336 123.554791666667  L 0.137666666666709 130.812569444445  L 0.137666666666709 132.272013888889  L 0.717833333333351 135.762847222222  L 4.484 140.703263888889  C 5.64433333333334 142.152847222222  6.22449999999998 143.030486111111  6.50966666666667 143.898263888889  L 9.98083333333331 148.838680555556  L 15.1925 154.656736111111  C 17.228 156.688125  18.6735 157.565763888889  19.2536666666667 157.565763888889  L 24.7603333333333 154.074930555556  C 25.9206666666667 153.197291666667  26.786 152.615486111111  28.2315 152.615486111111  C 29.3918333333333 152.615486111111  31.1225 153.493125  33.7381666666667 155.228680555556  L 34.0233333333334 155.228680555556  L 34.0233333333334 155.524513888889  L 36.9241666666667 159.015347222222  L 38.3696666666667 162.496319444444  L 39.53 163.945902777778  L 40.4051666666667 164.527708333333  L 44.1615 167.140902777778  L 46.197 167.436736111111  C 47.3573333333334 167.722708333333  48.5078333333334 168.600347222222  49.383 169.763958333333  C 49.9631666666667 170.641597222222  53.1491666666667 171.795347222222  58.6558333333334 173.254791666667  L 58.9508333333334 173.254791666667  L 67.6435 176.449791666667  L 67.9286666666667 176.449791666667  L 68.2236666666667 176.449791666667  L 74.3105 179.358819444444  L 84.7338333333334 181.972013888889  L 85.0288333333334 182.257986111111  L 98.6480000000001 182.839791666667  L 104.734833333333 180.512569444444  L 110.2415 180.512569444444  L 110.2415 180.808402777778  L 110.526666666667 181.094375  L 115.158166666667 186.912430555555  L 115.158166666667 187.198402777778  L 118.049166666667 191.852847222222  L 120.369833333333 194.466041666666  L 123.555833333333 195.925486111111  L 123.841 196.221319444444  L 124.136 196.507291666666  L 126.741833333333 202.315486111111  L 126.741833333333 202.611319444444  L 127.036833333333 202.611319444444  L 127.036833333333 202.897291666666  L 128.492166666667 209.287291666666  L 132.5435 210.736875  L 132.8385 210.736875  L 133.123666666667 210.736875  L 136.309666666667 212.778125  L 140.656 211.900486111111  L 141.816333333334 207.541875  L 141.816333333334 207.255902777778  L 142.1015 206.969930555555  L 147.018166666667 202.029513888889  L 152.524833333334 203.479097222222  L 152.524833333334 204.060902777778  L 155.130666666667 209.869097222222  L 160.637333333334 207.837708333333  L 161.207666666667 202.315486111111  L 161.207666666667 202.029513888889  L 161.207666666667 201.733680555556  L 161.502666666667 201.447708333333  L 165.268833333334 199.416319444445  L 164.393666666667 191.280902777778  L 164.393666666667 190.699097222222  L 164.393666666667 190.413125  L 168.74 181.400069444445  L 173.086333333334 179.654652777778  L 171.345833333334 171.519236111111  L 175.692166666667 171.519236111111  L 175.397166666667 167.742430555556  L 173.0765 159.892986111111  L 173.0765 159.311180555556  L 173.656666666667 153.788958333333  L 173.656666666667 152.921180555556  L 174.236833333334 152.625347222222  L 177.127833333334 148.848541666667  L 177.708 148.266736111111  L 178.583166666667 148.266736111111  L 186.4105 149.726180555556  L 186.7055 149.726180555556  L 193.0775 151.461736111111  L 198.584166666667 149.726180555556  L 201.770166666667 156.116180555556  L 202.055333333334 156.402152777778  L 202.055333333334 161.046736111111  L 202.9305 165.405347222222  C 203.510666666667 167.150763888889  204.671 168.314375  205.831333333334 168.610208333333  L 206.4115 168.610208333333  C 209.017333333334 169.192013888889  210.472666666667 170.355625  210.757833333334 172.101041666667  C 211.043 173.550625  212.203333333334 175.582013888889  214.238833333334 177.909236111111  L 216.844666666667 181.686041666667  L 216.844666666667 181.981875  L 218.585166666667 185.176875  L 221.191 184.881041666667  L 226.1175 180.522430555556  L 229.3035 187.208263888889  L 235.6755 189.249513888889  L 235.9705 189.249513888889  L 236.255666666667 189.535486111111  L 239.441666666667 195.343680555556  L 240.887166666667 196.211458333333  L 241.172333333333 190.689236111111  L 241.172333333333 190.403263888889  L 241.172333333333 189.525625  L 253.926166666667 189.239652777778  L 254.211333333333 188.076041666667  C 254.506333333333 187.494236111111  254.506333333333 186.330625  253.926166666667 185.462847222222  C 253.051 183.717430555556  252.765833333333 182.267847222222  252.470833333333 180.226597222222  C 252.185666666667 177.899375  252.470833333333 176.153958333334  253.051 175.582013888889  C 253.926166666667 174.418402777778  254.4965 174.418402777778  255.951833333333 174.714236111111  L 261.1635 176.459652777778  L 261.743666666667 172.682847222222  L 252.185666666667 168.324236111111  L 251.6055 168.324236111111  L 251.3105 167.742430555556  L 251.3105 167.456458333334  L 251.3105 167.160625  L 249.865 155.544236111111  L 250.150166666667 148.276597222222  L 250.150166666667 147.408819444445  L 250.150166666667 146.827013888889  L 266.09 148.858402777778  L 270.141333333333 145.081597222222  C 271.0165 143.632013888889  270.7215 142.468402777778  270.141333333333 142.182430555556  C 266.09 140.732847222222  264.0545 138.987430555556  264.0545 137.242013888889  C 264.0545 136.364375  264.3495 135.210625  265.795 134.628819444445  L 272.462 127.942986111111  L 279.699333333333 127.647152777778  L 283.4655 121.257152777778  L 283.4655 115.153125  L 288.972166666667 113.999375  C 290.417666666667 109.640763888889  291.292833333333 107.313541666667  291.863166666667 106.445763888889  L 294.183833333334 101.505347222222  L 290.1325 94.2377083333335  L 290.1325 93.9517361111113  L 290.1325 93.665763888889  L 287.516833333334 83.7849305555557  L 287.516833333334 83.4890972222224  L 285.776333333334 73.3222916666668  L 282.305166666667 67.5140972222224  L 277.0935 62.2778472222224  L 277.0935 61.9918750000001  L 277.0935 61.7059027777779  L 276.808333333334 61.4199305555556  L 276.523166666667 55.9075694444445  L 266.955333333334 58.8067361111112  L 266.670166666667 58.520763888889  L 262.323833333334 53.5803472222223  L 249.284833333334 43.699513888889  L 248.999666666667 43.699513888889  L 244.073166666667 37.309513888889  L 240.887166666667 35.268263888889  L 238.861500000001 38.4731250000001  L 238.861500000001 39.0549305555556  L 238.566500000001 39.3409027777779  L 238.281333333334 39.3409027777779  L 237.701166666667 39.3409027777779  L 233.640000000001 39.6268750000001  L 233.059833333334 39.9227083333335  L 232.764833333334 39.9227083333335  L 223.206833333334 29.4600694444446  C 221.171333333334 28.5922916666668  219.145666666667 26.5510416666668  216.244833333334 23.6518750000001  L 211.898500000001 20.4568750000001  L 211.603500000001 20.1610416666668  L 206.677000000001 17.2618750000001  L 203.776166666667 19.5890972222223  L 203.481166666667 20.1610416666668  L 203.196000000001 19.8750694444445  L 202.910833333334 19.8750694444445  L 200.305000000001 19.293263888889  L 197.404166666667 20.7428472222224  L 197.109166666667 21.0386805555557  L 196.824000000001 21.3246527777779  L 196.529000000001 21.3246527777779  L 192.477666666667 21.9064583333335  Z " fill-rule="nonzero" fill="#0533aa" stroke="none" fill-opacity="0.482352941176471" transform="matrix(1 0 0 1 670 461 )" />
    <path d="M 192.477666666667 21.9064583333335  C 187.010333333333 18.6720138888889  181.503666666667 15.4770138888889  175.711833333333 11.9960416666667  L 173.106 14.0274305555556  C 173.106 15.1910416666668  173.686166666667 17.8042361111112  174.5515 21.5810416666668  L 174.5515 21.8768750000001  L 174.836666666667 22.1727083333335  L 174.5515 22.1727083333335  L 171.3655 29.4304861111113  L 167.019166666667 31.1759027777779  L 166.144 31.4618750000001  L 165.858833333333 31.4618750000001  L 158.3265 27.9710416666668  L 158.041333333333 27.9710416666668  L 158.041333333333 27.6850694444445  L 143.842 14.6092361111112  L 138.335333333333 11.4142361111112  L 129.642666666667 8.2192361111112  L 129.642666666667 7.92340277777786  L 129.347666666667 7.92340277777786  L 125.296333333333 5.02423611111119  L 118.049166666667 2.69701388888896  L 113.997833333333 2.9928472222223  L 113.702833333333 2.9928472222223  L 104.439833333333 2.41104166666677  L 104.154666666667 2.41104166666677  L 97.4876666666666 0.961458333333412  L 93.4363333333333 0.961458333333412  L 90.2503333333332 3.28868055555565  C 88.5098333333333 4.15645833333342  86.1989999999999 4.45229166666677  83.2981666666666 5.0340972222223  L 77.2113333333333 6.18784722222231  L 71.9996666666666 7.93326388888896  L 71.7046666666666 8.2290972222223  L 71.7046666666666 8.51506944444455  L 71.7046666666666 8.2290972222223  L 65.3326666666666 8.81090277777784  L 58.6656666666666 11.4240972222223  L 57.8003333333332 11.4240972222223  L 52.2936666666666 10.8422916666667  L 43.8959999999999 12.0059027777778  L 36.9438333333332 12.0059027777778  L 34.0429999999999 14.9149305555556  L 33.7578333333332 14.9149305555556  L 30.2866666666666 15.7827083333334  L 31.7321666666666 19.2735416666667  L 31.7321666666666 24.795763888889  L 30.8569999999999 29.7361805555556  L 35.7834999999999 33.7989583333334  L 36.0784999999999 33.7989583333334  L 40.1298333333333 38.4534027777779  C 42.7356666666666 40.4847916666668  43.8959999999999 41.9343750000001  43.8959999999999 43.6797916666668  L 45.3415 48.0384027777779  L 47.3671666666666 52.397013888889  C 47.0721666666666 52.397013888889  47.0721666666666 52.6829861111113  46.787 52.6829861111113  L 41.2803333333333 56.7556250000002  L 37.5141666666666 61.6960416666668  L 38.3795 66.054652777778  L 40.9951666666667 72.1586805555557  L 41.2803333333333 72.7404861111113  L 41.2803333333333 73.0264583333335  L 40.7001666666667 75.3438194444446  C 40.1200000000001 76.793402777778  39.5398333333334 77.9570138888891  38.6745 78.5388194444447  C 36.9340000000001 79.988402777778  34.0331666666667 79.988402777778  29.4016666666667 78.5388194444447  L 22.1643333333334 77.0892361111113  L 21.8791666666667 77.0892361111113  L 21.5841666666667 77.0892361111113  L 16.3626666666667 74.4760416666669  L 7.95516666666664 74.1900694444446  L 8.25016666666665 74.4760416666669  L 7.38483333333332 88.9817361111112  C 7.08983333333331 91.0131250000001  5.64433333333334 91.8809027777778  3.61866666666667 92.1767361111112  C 2.75333333333334 92.4627083333334  2.16333333333332 93.6263194444445  2.45833333333333 95.9535416666667  L 2.45833333333333 96.239513888889  L 2.16333333333332 96.239513888889  L 1.58316666666668 100.016319444445  C 3.60883333333335 101.761736111111  5.05433333333332 103.221180555556  5.64433333333334 104.374930555556  L 7.08983333333337 111.346736111111  L 7.08983333333337 113.969791666667  C 6.80466666666668 115.419375  6.50966666666673 116.582986111111  5.92950000000003 117.746597222222  L 3.90383333333336 123.554791666667  L 0.137666666666709 130.812569444445  L 0.137666666666709 132.272013888889  L 0.717833333333351 135.762847222222  L 4.484 140.703263888889  C 5.64433333333334 142.152847222222  6.22449999999998 143.030486111111  6.50966666666667 143.898263888889  L 9.98083333333331 148.838680555556  L 15.1925 154.656736111111  C 17.228 156.688125  18.6735 157.565763888889  19.2536666666667 157.565763888889  L 24.7603333333333 154.074930555556  C 25.9206666666667 153.197291666667  26.786 152.615486111111  28.2315 152.615486111111  C 29.3918333333333 152.615486111111  31.1225 153.493125  33.7381666666667 155.228680555556  L 34.0233333333334 155.228680555556  L 34.0233333333334 155.524513888889  L 36.9241666666667 159.015347222222  L 38.3696666666667 162.496319444444  L 39.53 163.945902777778  L 40.4051666666667 164.527708333333  L 44.1615 167.140902777778  L 46.197 167.436736111111  C 47.3573333333334 167.722708333333  48.5078333333334 168.600347222222  49.383 169.763958333333  C 49.9631666666667 170.641597222222  53.1491666666667 171.795347222222  58.6558333333334 173.254791666667  L 58.9508333333334 173.254791666667  L 67.6435 176.449791666667  L 67.9286666666667 176.449791666667  L 68.2236666666667 176.449791666667  L 74.3105 179.358819444444  L 84.7338333333334 181.972013888889  L 85.0288333333334 182.257986111111  L 98.6480000000001 182.839791666667  L 104.734833333333 180.512569444444  L 110.2415 180.512569444444  L 110.2415 180.808402777778  L 110.526666666667 181.094375  L 115.158166666667 186.912430555555  L 115.158166666667 187.198402777778  L 118.049166666667 191.852847222222  L 120.369833333333 194.466041666666  L 123.555833333333 195.925486111111  L 123.841 196.221319444444  L 124.136 196.507291666666  L 126.741833333333 202.315486111111  L 126.741833333333 202.611319444444  L 127.036833333333 202.611319444444  L 127.036833333333 202.897291666666  L 128.492166666667 209.287291666666  L 132.5435 210.736875  L 132.8385 210.736875  L 133.123666666667 210.736875  L 136.309666666667 212.778125  L 140.656 211.900486111111  L 141.816333333334 207.541875  L 141.816333333334 207.255902777778  L 142.1015 206.969930555555  L 147.018166666667 202.029513888889  L 152.524833333334 203.479097222222  L 152.524833333334 204.060902777778  L 155.130666666667 209.869097222222  L 160.637333333334 207.837708333333  L 161.207666666667 202.315486111111  L 161.207666666667 202.029513888889  L 161.207666666667 201.733680555556  L 161.502666666667 201.447708333333  L 165.268833333334 199.416319444445  L 164.393666666667 191.280902777778  L 164.393666666667 190.699097222222  L 164.393666666667 190.413125  L 168.74 181.400069444445  L 173.086333333334 179.654652777778  L 171.345833333334 171.519236111111  L 175.692166666667 171.519236111111  L 175.397166666667 167.742430555556  L 173.0765 159.892986111111  L 173.0765 159.311180555556  L 173.656666666667 153.788958333333  L 173.656666666667 152.921180555556  L 174.236833333334 152.625347222222  L 177.127833333334 148.848541666667  L 177.708 148.266736111111  L 178.583166666667 148.266736111111  L 186.4105 149.726180555556  L 186.7055 149.726180555556  L 193.0775 151.461736111111  L 198.584166666667 149.726180555556  L 201.770166666667 156.116180555556  L 202.055333333334 156.402152777778  L 202.055333333334 161.046736111111  L 202.9305 165.405347222222  C 203.510666666667 167.150763888889  204.671 168.314375  205.831333333334 168.610208333333  L 206.4115 168.610208333333  C 209.017333333334 169.192013888889  210.472666666667 170.355625  210.757833333334 172.101041666667  C 211.043 173.550625  212.203333333334 175.582013888889  214.238833333334 177.909236111111  L 216.844666666667 181.686041666667  L 216.844666666667 181.981875  L 218.585166666667 185.176875  L 221.191 184.881041666667  L 226.1175 180.522430555556  L 229.3035 187.208263888889  L 235.6755 189.249513888889  L 235.9705 189.249513888889  L 236.255666666667 189.535486111111  L 239.441666666667 195.343680555556  L 240.887166666667 196.211458333333  L 241.172333333333 190.689236111111  L 241.172333333333 190.403263888889  L 241.172333333333 189.525625  L 253.926166666667 189.239652777778  L 254.211333333333 188.076041666667  C 254.506333333333 187.494236111111  254.506333333333 186.330625  253.926166666667 185.462847222222  C 253.051 183.717430555556  252.765833333333 182.267847222222  252.470833333333 180.226597222222  C 252.185666666667 177.899375  252.470833333333 176.153958333334  253.051 175.582013888889  C 253.926166666667 174.418402777778  254.4965 174.418402777778  255.951833333333 174.714236111111  L 261.1635 176.459652777778  L 261.743666666667 172.682847222222  L 252.185666666667 168.324236111111  L 251.6055 168.324236111111  L 251.3105 167.742430555556  L 251.3105 167.456458333334  L 251.3105 167.160625  L 249.865 155.544236111111  L 250.150166666667 148.276597222222  L 250.150166666667 147.408819444445  L 250.150166666667 146.827013888889  L 266.09 148.858402777778  L 270.141333333333 145.081597222222  C 271.0165 143.632013888889  270.7215 142.468402777778  270.141333333333 142.182430555556  C 266.09 140.732847222222  264.0545 138.987430555556  264.0545 137.242013888889  C 264.0545 136.364375  264.3495 135.210625  265.795 134.628819444445  L 272.462 127.942986111111  L 279.699333333333 127.647152777778  L 283.4655 121.257152777778  L 283.4655 115.153125  L 288.972166666667 113.999375  C 290.417666666667 109.640763888889  291.292833333333 107.313541666667  291.863166666667 106.445763888889  L 294.183833333334 101.505347222222  L 290.1325 94.2377083333335  L 290.1325 93.9517361111113  L 290.1325 93.665763888889  L 287.516833333334 83.7849305555557  L 287.516833333334 83.4890972222224  L 285.776333333334 73.3222916666668  L 282.305166666667 67.5140972222224  L 277.0935 62.2778472222224  L 277.0935 61.9918750000001  L 277.0935 61.7059027777779  L 276.808333333334 61.4199305555556  L 276.523166666667 55.9075694444445  L 266.955333333334 58.8067361111112  L 266.670166666667 58.520763888889  L 262.323833333334 53.5803472222223  L 249.284833333334 43.699513888889  L 248.999666666667 43.699513888889  L 244.073166666667 37.309513888889  L 240.887166666667 35.268263888889  L 238.861500000001 38.4731250000001  L 238.861500000001 39.0549305555556  L 238.566500000001 39.3409027777779  L 238.281333333334 39.3409027777779  L 237.701166666667 39.3409027777779  L 233.640000000001 39.6268750000001  L 233.059833333334 39.9227083333335  L 232.764833333334 39.9227083333335  L 223.206833333334 29.4600694444446  C 221.171333333334 28.5922916666668  219.145666666667 26.5510416666668  216.244833333334 23.6518750000001  L 211.898500000001 20.4568750000001  L 211.603500000001 20.1610416666668  L 206.677000000001 17.2618750000001  L 203.776166666667 19.5890972222223  L 203.481166666667 20.1610416666668  L 203.196000000001 19.8750694444445  L 202.910833333334 19.8750694444445  L 200.305000000001 19.293263888889  L 197.404166666667 20.7428472222224  L 197.109166666667 21.0386805555557  L 196.824000000001 21.3246527777779  L 196.529000000001 21.3246527777779  L 192.477666666667 21.9064583333335  Z " stroke-width="2" stroke="#797979" fill="none" transform="matrix(1 0 0 1 670 461 )" mask="url(#clip15)" />
  </g>
</svg>