<?xml version="1.0" encoding="utf-8"?>
<svg version="1.1" xmlns:xlink="http://www.w3.org/1999/xlink" width="255px" height="225px" xmlns="http://www.w3.org/2000/svg">
  <defs>
    <mask fill="white" id="clip18">
      <path d="M 24.5878846153846 5.71875000000041  L 24.5878846153846 5.75822368421056  L 17.9382692307693 3.71546052631578  L 11.0042307692308 2.8470394736842  L 8.69942307692308 5.46217105263155  L 8.12076923076926 10.40625  L 8.41500000000004 10.6924342105262  L 10.4353846153847 18.251644736842  L 10.7198076923078 24.0740131578946  L 10.7198076923078 25.8207236842104  L 7.2576923076924 25.8207236842104  L 8.70923076923088 32.797697368421  L 3.21692307692316 34.8404605263157  L 0.902307692307764 39.2023026315789  L 3.79557692307698 41.5312499999999  L 4.37423076923081 41.8174342105262  L 14.4859615384616 49.9588815789473  L 14.7801923076924 50.2450657894735  L 15.0646153846155 50.2450657894735  L 15.0646153846155 50.5411184210524  L 15.0646153846155 50.8371710526313  L 16.5161538461539 58.1101973684208  L 21.135576923077 64.7911184210524  C 22.2928846153847 66.5378289473682  23.7346153846154 68.2845394736839  26.3336538461539 70.6036184210524  L 26.6278846153847 70.6036184210524  L 26.9123076923078 70.8898026315786  L 26.9123076923078 71.1858552631575  L 26.6278846153847 71.7680921052629  L 26.6278846153847 78.1628289473681  C 27.4909615384616 79.9095394736839  27.7851923076924 83.6891447368418  27.7851923076924 89.2055921052629  C 30.3842307692309 92.9950657894735  31.5415384615385 95.6003289473682  31.5415384615385 97.347039473684  C 31.5415384615385 98.5115131578944  32.4046153846155 100.830592105263  33.8463461538463 104.037828947368  L 33.8463461538463 104.324013157894  C 34.4250000000001 108.399671052631  34.140576923077 111.88322368421  33.2676923076924 114.794407894737  C 32.3948076923078 116.827302631579  33.5521153846154 120.606907894737  36.7298076923077 125.847039473684  L 37.0240384615385 126.13322368421  L 37.3084615384615 126.715460526316  L 37.0240384615385 127.297697368421  L 32.3948076923077 137.472039473684  C 33.2676923076923 139.800986842105  33.5521153846153 141.537828947368  33.5521153846153 142.712171052631  L 32.3948076923077 152.304276315789  C 31.8161538461538 155.501644736842  31.8161538461538 157.248355263158  33.2676923076923 157.830592105263  L 35.0036538461538 158.995065789473  C 37.6026923076922 160.159539473684  38.4657692307691 161.610197368421  38.4657692307691 163.07072368421  L 38.1715384615384 168.014802631579  L 39.6132692307692 168.597039473684  L 39.9074999999999 168.88322368421  L 40.7705769230769 168.014802631579  C 41.6336538461538 167.136513157894  42.5065384615384 165.972039473684  42.7909615384614 164.521381578947  L 43.3696153846153 163.643092105263  L 43.663846153846 163.060855263158  C 44.8211538461537 162.478618421052  45.3998076923075 161.610197368421  46.2628846153845 160.44572368421  C 46.5571153846152 158.699013157894  46.5571153846152 156.962171052631  45.9784615384614 154.919407894737  L 45.3998076923075 153.46875  L 46.8415384615383 153.172697368421  C 51.4707692307691 152.00822368421  54.0698076923076 152.304276315789  54.9426923076922 154.337171052631  L 57.2474999999999 160.149671052631  L 57.2474999999999 160.435855263157  L 57.2474999999999 160.731907894736  L 58.4048076923075 170.324013157894  L 62.1611538461537 172.366776315789  L 62.4455769230768 172.366776315789  L 62.7398076923075 172.366776315789  L 65.0544230769229 174.399671052631  L 67.3690384615383 171.784539473684  L 69.9680769230767 169.741776315789  L 70.8409615384613 169.741776315789  C 72.8613461538459 170.324013157894  74.0186538461537 171.784539473684  74.5973076923075 173.817434210526  L 75.7546153846152 181.376644736842  L 76.0488461538459 182.541118421052  L 83.8459615384613 199.406249999999  L 87.0236538461537 202.603618421052  L 87.3080769230767 202.899671052631  L 87.3080769230767 203.185855263157  L 88.7596153846152 210.162828947368  L 89.338269230769 216.843749999999  L 89.6226923076921 217.425986842105  C 91.6430769230766 214.514802631578  93.3790384615383 213.064144736842  94.5363461538459 213.646381578947  C 95.6936538461536 213.942434210526  95.9780769230767 214.524671052631  95.9780769230767 215.679276315789  L 95.9780769230767 217.425986842105  L 95.9780769230767 222.656249999999  L 95.9780769230767 224.106907894736  C 97.4198076923075 224.402960526315  98.5771153846152 224.106907894736  98.871346153846 223.238486842105  L 101.754807692308 219.162828947368  L 104.942307692308 215.965460526315  C 106.962692307692 214.514802631578  108.983076923077 213.350328947368  111.297692307692 213.350328947368  L 111.582115384615 213.350328947368  L 117.653076923077 214.800986842105  L 119.389038461538 213.932565789473  L 122.566730769231 209.856907894736  L 121.988076923077 203.462171052631  C 119.967692307692 199.968749999999  119.094807692308 197.067434210526  119.683269230769 195.034539473684  L 120.546346153846 189.804276315789  L 120.546346153846 189.222039473684  L 120.840576923077 188.639802631578  L 126.332884615384 185.442434210526  L 126.627115384615 185.442434210526  L 130.667884615384 182.827302631578  L 135.297115384615 176.146381578947  L 135.875769230769 171.202302631578  L 130.667884615385 158.985197368421  L 142.231153846154 164.215460526315  L 142.231153846154 159.271381578947  L 142.231153846154 158.975328947368  L 146.566153846154 155.19572368421  L 154.951730769231 152.876644736842  L 155.530384615384 152.876644736842  L 160.444038461538 163.63322368421  L 160.444038461538 164.215460526315  L 159.865384615384 168.281249999999  L 160.444038461538 172.060855263157  C 161.022692307692 173.807565789473  162.18 174.685855263157  163.043076923077 174.685855263157  C 164.200384615384 174.685855263157  165.357692307692 173.807565789473  166.515 172.356907894736  L 166.799423076923 171.774671052631  L 167.093653846154 171.774671052631  L 174.027692307692 169.44572368421  L 174.312115384615 169.44572368421  C 178.068461538461 169.44572368421  179.804423076923 170.314144736841  180.6675 172.060855263157  L 181.246153846154 179.916118421052  L 181.246153846154 180.202302631578  L 182.697692307692 180.488486842105  L 185.581153846154 181.356907894736  L 189.916153846154 181.060855263157  L 197.134615384615 179.027960526315  L 201.469615384615 175.248355263157  L 201.754038461538 172.041118421052  L 199.733653846154 169.712171052631  L 192.220961538461 167.097039473684  L 191.642307692307 166.800986842105  L 191.642307692307 166.514802631578  L 182.972307692307 157.791118421052  L 183.845192307692 157.208881578947  L 188.180192307692 153.429276315789  L 188.464615384615 153.13322368421  L 192.799615384615 151.386513157894  L 193.6725 151.386513157894  L 199.44923076923 152.550986842105  L 199.743461538461 152.550986842105  L 200.027884615384 152.847039473684  L 200.027884615384 150.518092105262  L 197.428846153846 146.156249999999  L 193.388076923076 144.123355263157  L 187.895769230769 135.981907894736  L 187.601538461538 135.685855263157  L 187.601538461538 135.429276315789  L 185.0025 125.837171052632  L 185.0025 118.564144736842  L 189.621923076923 114.202302631579  L 196.555961538461 114.202302631579  L 212.738653846153 115.652960526316  L 220.251346153846 104.896381578947  L 220.251346153846 104.314144736842  L 220.83 104.314144736842  L 226.900961538461 101.11677631579  L 230.078653846154 94.7220394736842  L 230.363076923077 94.4358552631579  L 237.591346153846 88.3273026315789  L 241.053461538461 81.9325657894737  L 241.053461538461 81.6463815789474  L 241.337884615384 81.6463815789474  L 241.337884615384 81.3601973684211  L 244.231153846153 78.4490131578947  L 247.693269230769 72.6365131578948  L 248.850576923076 63.6167763157895  L 248.850576923076 62.7483552631579  L 249.135 62.4621710526317  L 253.754423076923 59.264802631579  L 254.91173076923 58.1003289473685  L 247.967884615384 56.9358552631581  L 236.414423076923 57.5180921052634  L 236.13 57.2319078947371  L 231.795 53.7384868421055  L 231.216346153846 53.7384868421055  L 231.216346153846 53.4424342105266  L 228.911538461538 49.9490131578951  L 228.332884615384 50.2351973684214  L 228.038653846153 50.8174342105267  C 227.46 51.6957236842109  226.018269230769 51.9819078947371  224.282307692307 51.9819078947371  L 222.546346153846 52.8503289473687  C 221.967692307692 53.1463815789476  221.683269230769 53.432565789474  220.810384615384 53.1463815789476  C 220.23173076923 53.1463815789476  219.947307692307 52.277960526316  219.368653846153 50.8174342105265  C 219.08423076923 49.3667763157897  218.505576923076 47.9062500000002  216.769615384615 46.4555921052634  L 216.485192307692 46.1595394736845  L 216.485192307692 45.8733552631582  L 216.200769230769 45.8733552631582  L 214.74923076923 42.0937500000003  L 213.591923076923 42.0937500000003  L 209.256923076923 44.995065789474  L 208.9725 45.2812500000003  L 208.678269230769 45.2812500000003  L 198.566538461538 47.3141447368424  L 197.987884615384 47.3141447368424  L 197.409230769231 47.0180921052635  L 190.769423076923 42.370065789474  L 190.475192307692 42.0838815789477  L 190.475192307692 41.7878289473688  L 190.190769230769 41.7878289473688  L 188.454807692308 38.2944078947372  L 183.541153846154 43.5246710526319  C 180.079038461538 47.5904605263162  177.470192307692 48.7648026315793  175.744038461538 47.5904605263162  L 169.094423076923 44.1069078947372  L 164.475 43.5246710526319  L 163.896346153846 43.8108552631582  L 159.561346153846 40.6134868421056  L 159.276923076923 40.3273026315793  L 158.413846153846 40.0312500000004  L 160.434230769231 32.1759868421056  L 160.434230769231 29.5608552631583  L 157.835192307692 28.3963815789478  L 157.550769230769 28.3963815789478  L 151.479807692308 21.7154605263162  L 151.764230769231 16.7713815789478  L 136.738846153846 15.320723684211  L 130.952307692307 12.1134868421057  C 129.510576923077 11.2450657894741  128.353269230769 9.49835526315835  127.480384615384 6.59703947368461  L 126.617307692307 4.56414473684255  L 125.46 0.202302631579437  L 123.429807692307 0.488486842105716  L 118.810384615384 4.26809210526365  L 113.318076923077 10.9490131578952  L 114.475384615384 15.8930921052636  L 116.201538461538 22.2878289473689  L 116.201538461538 22.5838815789478  L 116.495769230769 22.5838815789478  L 116.201538461538 22.8700657894741  L 116.201538461538 23.166118421053  C 115.622884615384 24.9029605263161  113.89673076923 25.7812500000003  111.287884615384 25.7812500000003  L 105.511153846154 25.7812500000003  L 102.039230769231 24.0345394736846  L 97.7042307692305 25.7812500000003  L 96.8313461538459 26.0773026315792  L 96.2526923076921 25.7812500000003  L 95.6740384615382 29.8569078947372  L 95.3896153846151 30.4391447368425  L 95.3896153846151 31.307565789474  L 94.5167307692305 31.307565789474  L 87.2884615384613 28.978618421053  C 87.2884615384613 31.307565789474  87.582692307692 33.0542763157898  88.7399999999998 35.087171052632  C 89.6030769230767 37.120065789474  89.8973076923074 38.5805921052635  89.0244230769228 40.3273026315793  L 88.1613461538459 42.6562500000004  C 87.2884615384613 43.5246710526319  84.6894230769229 43.8207236842108  80.9330769230767 43.5246710526319  L 76.0194230769228 43.5246710526319  L 75.7251923076921 51.666118421053  L 69.3698076923075 49.3371710526319  L 69.0755769230768 49.3371710526319  L 68.781346153846 49.041118421053  L 65.593846153846 42.9424342105267  L 58.6598076923075 40.6134868421057  L 56.923846153846 36.8338815789477  L 54.3248076923076 38.8667763157898  L 54.0305769230768 38.8667763157898  L 49.6955769230769 39.745065789474  L 48.5382692307692 39.745065789474  L 46.2236538461538 34.5148026315793  L 43.9090384615384 31.3174342105267  L 43.6246153846154 31.0213815789478  C 41.3198076923077 28.120065789474  40.1625 25.5049342105267  39.5838461538462 24.0444078947372  C 39.5838461538462 23.7483552631583  39.0051923076923 23.1759868421056  37.5634615384616 22.8799342105267  L 36.406153846154 22.5937500000004  C 34.3857692307694 21.7154605263162  32.9440384615386 19.9687500000005  32.071153846154 17.3536184210531  L 30.9138461538464 12.4095394736847  L 30.9138461538464 8.33388157894787  L 28.8934615384617 4.55427631578993  L 25.4313461538464 5.71875000000041  L 25.1371153846156 5.71875000000041  L 24.8526923076925 5.71875000000041  L 24.5878846153846 5.71875000000041  Z " fill-rule="evenodd" />
    </mask>
  </defs>
  <g transform="matrix(1 0 0 1 -838 -610 )">
    <path d="M 24.5878846153846 5.71875000000041  L 24.5878846153846 5.75822368421056  L 17.9382692307693 3.71546052631578  L 11.0042307692308 2.8470394736842  L 8.69942307692308 5.46217105263155  L 8.12076923076926 10.40625  L 8.41500000000004 10.6924342105262  L 10.4353846153847 18.251644736842  L 10.7198076923078 24.0740131578946  L 10.7198076923078 25.8207236842104  L 7.2576923076924 25.8207236842104  L 8.70923076923088 32.797697368421  L 3.21692307692316 34.8404605263157  L 0.902307692307764 39.2023026315789  L 3.79557692307698 41.5312499999999  L 4.37423076923081 41.8174342105262  L 14.4859615384616 49.9588815789473  L 14.7801923076924 50.2450657894735  L 15.0646153846155 50.2450657894735  L 15.0646153846155 50.5411184210524  L 15.0646153846155 50.8371710526313  L 16.5161538461539 58.1101973684208  L 21.135576923077 64.7911184210524  C 22.2928846153847 66.5378289473682  23.7346153846154 68.2845394736839  26.3336538461539 70.6036184210524  L 26.6278846153847 70.6036184210524  L 26.9123076923078 70.8898026315786  L 26.9123076923078 71.1858552631575  L 26.6278846153847 71.7680921052629  L 26.6278846153847 78.1628289473681  C 27.4909615384616 79.9095394736839  27.7851923076924 83.6891447368418  27.7851923076924 89.2055921052629  C 30.3842307692309 92.9950657894735  31.5415384615385 95.6003289473682  31.5415384615385 97.347039473684  C 31.5415384615385 98.5115131578944  32.4046153846155 100.830592105263  33.8463461538463 104.037828947368  L 33.8463461538463 104.324013157894  C 34.4250000000001 108.399671052631  34.140576923077 111.88322368421  33.2676923076924 114.794407894737  C 32.3948076923078 116.827302631579  33.5521153846154 120.606907894737  36.7298076923077 125.847039473684  L 37.0240384615385 126.13322368421  L 37.3084615384615 126.715460526316  L 37.0240384615385 127.297697368421  L 32.3948076923077 137.472039473684  C 33.2676923076923 139.800986842105  33.5521153846153 141.537828947368  33.5521153846153 142.712171052631  L 32.3948076923077 152.304276315789  C 31.8161538461538 155.501644736842  31.8161538461538 157.248355263158  33.2676923076923 157.830592105263  L 35.0036538461538 158.995065789473  C 37.6026923076922 160.159539473684  38.4657692307691 161.610197368421  38.4657692307691 163.07072368421  L 38.1715384615384 168.014802631579  L 39.6132692307692 168.597039473684  L 39.9074999999999 168.88322368421  L 40.7705769230769 168.014802631579  C 41.6336538461538 167.136513157894  42.5065384615384 165.972039473684  42.7909615384614 164.521381578947  L 43.3696153846153 163.643092105263  L 43.663846153846 163.060855263158  C 44.8211538461537 162.478618421052  45.3998076923075 161.610197368421  46.2628846153845 160.44572368421  C 46.5571153846152 158.699013157894  46.5571153846152 156.962171052631  45.9784615384614 154.919407894737  L 45.3998076923075 153.46875  L 46.8415384615383 153.172697368421  C 51.4707692307691 152.00822368421  54.0698076923076 152.304276315789  54.9426923076922 154.337171052631  L 57.2474999999999 160.149671052631  L 57.2474999999999 160.435855263157  L 57.2474999999999 160.731907894736  L 58.4048076923075 170.324013157894  L 62.1611538461537 172.366776315789  L 62.4455769230768 172.366776315789  L 62.7398076923075 172.366776315789  L 65.0544230769229 174.399671052631  L 67.3690384615383 171.784539473684  L 69.9680769230767 169.741776315789  L 70.8409615384613 169.741776315789  C 72.8613461538459 170.324013157894  74.0186538461537 171.784539473684  74.5973076923075 173.817434210526  L 75.7546153846152 181.376644736842  L 76.0488461538459 182.541118421052  L 83.8459615384613 199.406249999999  L 87.0236538461537 202.603618421052  L 87.3080769230767 202.899671052631  L 87.3080769230767 203.185855263157  L 88.7596153846152 210.162828947368  L 89.338269230769 216.843749999999  L 89.6226923076921 217.425986842105  C 91.6430769230766 214.514802631578  93.3790384615383 213.064144736842  94.5363461538459 213.646381578947  C 95.6936538461536 213.942434210526  95.9780769230767 214.524671052631  95.9780769230767 215.679276315789  L 95.9780769230767 217.425986842105  L 95.9780769230767 222.656249999999  L 95.9780769230767 224.106907894736  C 97.4198076923075 224.402960526315  98.5771153846152 224.106907894736  98.871346153846 223.238486842105  L 101.754807692308 219.162828947368  L 104.942307692308 215.965460526315  C 106.962692307692 214.514802631578  108.983076923077 213.350328947368  111.297692307692 213.350328947368  L 111.582115384615 213.350328947368  L 117.653076923077 214.800986842105  L 119.389038461538 213.932565789473  L 122.566730769231 209.856907894736  L 121.988076923077 203.462171052631  C 119.967692307692 199.968749999999  119.094807692308 197.067434210526  119.683269230769 195.034539473684  L 120.546346153846 189.804276315789  L 120.546346153846 189.222039473684  L 120.840576923077 188.639802631578  L 126.332884615384 185.442434210526  L 126.627115384615 185.442434210526  L 130.667884615384 182.827302631578  L 135.297115384615 176.146381578947  L 135.875769230769 171.202302631578  L 130.667884615385 158.985197368421  L 142.231153846154 164.215460526315  L 142.231153846154 159.271381578947  L 142.231153846154 158.975328947368  L 146.566153846154 155.19572368421  L 154.951730769231 152.876644736842  L 155.530384615384 152.876644736842  L 160.444038461538 163.63322368421  L 160.444038461538 164.215460526315  L 159.865384615384 168.281249999999  L 160.444038461538 172.060855263157  C 161.022692307692 173.807565789473  162.18 174.685855263157  163.043076923077 174.685855263157  C 164.200384615384 174.685855263157  165.357692307692 173.807565789473  166.515 172.356907894736  L 166.799423076923 171.774671052631  L 167.093653846154 171.774671052631  L 174.027692307692 169.44572368421  L 174.312115384615 169.44572368421  C 178.068461538461 169.44572368421  179.804423076923 170.314144736841  180.6675 172.060855263157  L 181.246153846154 179.916118421052  L 181.246153846154 180.202302631578  L 182.697692307692 180.488486842105  L 185.581153846154 181.356907894736  L 189.916153846154 181.060855263157  L 197.134615384615 179.027960526315  L 201.469615384615 175.248355263157  L 201.754038461538 172.041118421052  L 199.733653846154 169.712171052631  L 192.220961538461 167.097039473684  L 191.642307692307 166.800986842105  L 191.642307692307 166.514802631578  L 182.972307692307 157.791118421052  L 183.845192307692 157.208881578947  L 188.180192307692 153.429276315789  L 188.464615384615 153.13322368421  L 192.799615384615 151.386513157894  L 193.6725 151.386513157894  L 199.44923076923 152.550986842105  L 199.743461538461 152.550986842105  L 200.027884615384 152.847039473684  L 200.027884615384 150.518092105262  L 197.428846153846 146.156249999999  L 193.388076923076 144.123355263157  L 187.895769230769 135.981907894736  L 187.601538461538 135.685855263157  L 187.601538461538 135.429276315789  L 185.0025 125.837171052632  L 185.0025 118.564144736842  L 189.621923076923 114.202302631579  L 196.555961538461 114.202302631579  L 212.738653846153 115.652960526316  L 220.251346153846 104.896381578947  L 220.251346153846 104.314144736842  L 220.83 104.314144736842  L 226.900961538461 101.11677631579  L 230.078653846154 94.7220394736842  L 230.363076923077 94.4358552631579  L 237.591346153846 88.3273026315789  L 241.053461538461 81.9325657894737  L 241.053461538461 81.6463815789474  L 241.337884615384 81.6463815789474  L 241.337884615384 81.3601973684211  L 244.231153846153 78.4490131578947  L 247.693269230769 72.6365131578948  L 248.850576923076 63.6167763157895  L 248.850576923076 62.7483552631579  L 249.135 62.4621710526317  L 253.754423076923 59.264802631579  L 254.91173076923 58.1003289473685  L 247.967884615384 56.9358552631581  L 236.414423076923 57.5180921052634  L 236.13 57.2319078947371  L 231.795 53.7384868421055  L 231.216346153846 53.7384868421055  L 231.216346153846 53.4424342105266  L 228.911538461538 49.9490131578951  L 228.332884615384 50.2351973684214  L 228.038653846153 50.8174342105267  C 227.46 51.6957236842109  226.018269230769 51.9819078947371  224.282307692307 51.9819078947371  L 222.546346153846 52.8503289473687  C 221.967692307692 53.1463815789476  221.683269230769 53.432565789474  220.810384615384 53.1463815789476  C 220.23173076923 53.1463815789476  219.947307692307 52.277960526316  219.368653846153 50.8174342105265  C 219.08423076923 49.3667763157897  218.505576923076 47.9062500000002  216.769615384615 46.4555921052634  L 216.485192307692 46.1595394736845  L 216.485192307692 45.8733552631582  L 216.200769230769 45.8733552631582  L 214.74923076923 42.0937500000003  L 213.591923076923 42.0937500000003  L 209.256923076923 44.995065789474  L 208.9725 45.2812500000003  L 208.678269230769 45.2812500000003  L 198.566538461538 47.3141447368424  L 197.987884615384 47.3141447368424  L 197.409230769231 47.0180921052635  L 190.769423076923 42.370065789474  L 190.475192307692 42.0838815789477  L 190.475192307692 41.7878289473688  L 190.190769230769 41.7878289473688  L 188.454807692308 38.2944078947372  L 183.541153846154 43.5246710526319  C 180.079038461538 47.5904605263162  177.470192307692 48.7648026315793  175.744038461538 47.5904605263162  L 169.094423076923 44.1069078947372  L 164.475 43.5246710526319  L 163.896346153846 43.8108552631582  L 159.561346153846 40.6134868421056  L 159.276923076923 40.3273026315793  L 158.413846153846 40.0312500000004  L 160.434230769231 32.1759868421056  L 160.434230769231 29.5608552631583  L 157.835192307692 28.3963815789478  L 157.550769230769 28.3963815789478  L 151.479807692308 21.7154605263162  L 151.764230769231 16.7713815789478  L 136.738846153846 15.320723684211  L 130.952307692307 12.1134868421057  C 129.510576923077 11.2450657894741  128.353269230769 9.49835526315835  127.480384615384 6.59703947368461  L 126.617307692307 4.56414473684255  L 125.46 0.202302631579437  L 123.429807692307 0.488486842105716  L 118.810384615384 4.26809210526365  L 113.318076923077 10.9490131578952  L 114.475384615384 15.8930921052636  L 116.201538461538 22.2878289473689  L 116.201538461538 22.5838815789478  L 116.495769230769 22.5838815789478  L 116.201538461538 22.8700657894741  L 116.201538461538 23.166118421053  C 115.622884615384 24.9029605263161  113.89673076923 25.7812500000003  111.287884615384 25.7812500000003  L 105.511153846154 25.7812500000003  L 102.039230769231 24.0345394736846  L 97.7042307692305 25.7812500000003  L 96.8313461538459 26.0773026315792  L 96.2526923076921 25.7812500000003  L 95.6740384615382 29.8569078947372  L 95.3896153846151 30.4391447368425  L 95.3896153846151 31.307565789474  L 94.5167307692305 31.307565789474  L 87.2884615384613 28.978618421053  C 87.2884615384613 31.307565789474  87.582692307692 33.0542763157898  88.7399999999998 35.087171052632  C 89.6030769230767 37.120065789474  89.8973076923074 38.5805921052635  89.0244230769228 40.3273026315793  L 88.1613461538459 42.6562500000004  C 87.2884615384613 43.5246710526319  84.6894230769229 43.8207236842108  80.9330769230767 43.5246710526319  L 76.0194230769228 43.5246710526319  L 75.7251923076921 51.666118421053  L 69.3698076923075 49.3371710526319  L 69.0755769230768 49.3371710526319  L 68.781346153846 49.041118421053  L 65.593846153846 42.9424342105267  L 58.6598076923075 40.6134868421057  L 56.923846153846 36.8338815789477  L 54.3248076923076 38.8667763157898  L 54.0305769230768 38.8667763157898  L 49.6955769230769 39.745065789474  L 48.5382692307692 39.745065789474  L 46.2236538461538 34.5148026315793  L 43.9090384615384 31.3174342105267  L 43.6246153846154 31.0213815789478  C 41.3198076923077 28.120065789474  40.1625 25.5049342105267  39.5838461538462 24.0444078947372  C 39.5838461538462 23.7483552631583  39.0051923076923 23.1759868421056  37.5634615384616 22.8799342105267  L 36.406153846154 22.5937500000004  C 34.3857692307694 21.7154605263162  32.9440384615386 19.9687500000005  32.071153846154 17.3536184210531  L 30.9138461538464 12.4095394736847  L 30.9138461538464 8.33388157894787  L 28.8934615384617 4.55427631578993  L 25.4313461538464 5.71875000000041  L 25.1371153846156 5.71875000000041  L 24.8526923076925 5.71875000000041  L 24.5878846153846 5.71875000000041  Z " fill-rule="nonzero" fill="#20dbea" stroke="none" fill-opacity="0.4" transform="matrix(1 0 0 1 838 610 )" />
    <path d="M 24.5878846153846 5.71875000000041  L 24.5878846153846 5.75822368421056  L 17.9382692307693 3.71546052631578  L 11.0042307692308 2.8470394736842  L 8.69942307692308 5.46217105263155  L 8.12076923076926 10.40625  L 8.41500000000004 10.6924342105262  L 10.4353846153847 18.251644736842  L 10.7198076923078 24.0740131578946  L 10.7198076923078 25.8207236842104  L 7.2576923076924 25.8207236842104  L 8.70923076923088 32.797697368421  L 3.21692307692316 34.8404605263157  L 0.902307692307764 39.2023026315789  L 3.79557692307698 41.5312499999999  L 4.37423076923081 41.8174342105262  L 14.4859615384616 49.9588815789473  L 14.7801923076924 50.2450657894735  L 15.0646153846155 50.2450657894735  L 15.0646153846155 50.5411184210524  L 15.0646153846155 50.8371710526313  L 16.5161538461539 58.1101973684208  L 21.135576923077 64.7911184210524  C 22.2928846153847 66.5378289473682  23.7346153846154 68.2845394736839  26.3336538461539 70.6036184210524  L 26.6278846153847 70.6036184210524  L 26.9123076923078 70.8898026315786  L 26.9123076923078 71.1858552631575  L 26.6278846153847 71.7680921052629  L 26.6278846153847 78.1628289473681  C 27.4909615384616 79.9095394736839  27.7851923076924 83.6891447368418  27.7851923076924 89.2055921052629  C 30.3842307692309 92.9950657894735  31.5415384615385 95.6003289473682  31.5415384615385 97.347039473684  C 31.5415384615385 98.5115131578944  32.4046153846155 100.830592105263  33.8463461538463 104.037828947368  L 33.8463461538463 104.324013157894  C 34.4250000000001 108.399671052631  34.140576923077 111.88322368421  33.2676923076924 114.794407894737  C 32.3948076923078 116.827302631579  33.5521153846154 120.606907894737  36.7298076923077 125.847039473684  L 37.0240384615385 126.13322368421  L 37.3084615384615 126.715460526316  L 37.0240384615385 127.297697368421  L 32.3948076923077 137.472039473684  C 33.2676923076923 139.800986842105  33.5521153846153 141.537828947368  33.5521153846153 142.712171052631  L 32.3948076923077 152.304276315789  C 31.8161538461538 155.501644736842  31.8161538461538 157.248355263158  33.2676923076923 157.830592105263  L 35.0036538461538 158.995065789473  C 37.6026923076922 160.159539473684  38.4657692307691 161.610197368421  38.4657692307691 163.07072368421  L 38.1715384615384 168.014802631579  L 39.6132692307692 168.597039473684  L 39.9074999999999 168.88322368421  L 40.7705769230769 168.014802631579  C 41.6336538461538 167.136513157894  42.5065384615384 165.972039473684  42.7909615384614 164.521381578947  L 43.3696153846153 163.643092105263  L 43.663846153846 163.060855263158  C 44.8211538461537 162.478618421052  45.3998076923075 161.610197368421  46.2628846153845 160.44572368421  C 46.5571153846152 158.699013157894  46.5571153846152 156.962171052631  45.9784615384614 154.919407894737  L 45.3998076923075 153.46875  L 46.8415384615383 153.172697368421  C 51.4707692307691 152.00822368421  54.0698076923076 152.304276315789  54.9426923076922 154.337171052631  L 57.2474999999999 160.149671052631  L 57.2474999999999 160.435855263157  L 57.2474999999999 160.731907894736  L 58.4048076923075 170.324013157894  L 62.1611538461537 172.366776315789  L 62.4455769230768 172.366776315789  L 62.7398076923075 172.366776315789  L 65.0544230769229 174.399671052631  L 67.3690384615383 171.784539473684  L 69.9680769230767 169.741776315789  L 70.8409615384613 169.741776315789  C 72.8613461538459 170.324013157894  74.0186538461537 171.784539473684  74.5973076923075 173.817434210526  L 75.7546153846152 181.376644736842  L 76.0488461538459 182.541118421052  L 83.8459615384613 199.406249999999  L 87.0236538461537 202.603618421052  L 87.3080769230767 202.899671052631  L 87.3080769230767 203.185855263157  L 88.7596153846152 210.162828947368  L 89.338269230769 216.843749999999  L 89.6226923076921 217.425986842105  C 91.6430769230766 214.514802631578  93.3790384615383 213.064144736842  94.5363461538459 213.646381578947  C 95.6936538461536 213.942434210526  95.9780769230767 214.524671052631  95.9780769230767 215.679276315789  L 95.9780769230767 217.425986842105  L 95.9780769230767 222.656249999999  L 95.9780769230767 224.106907894736  C 97.4198076923075 224.402960526315  98.5771153846152 224.106907894736  98.871346153846 223.238486842105  L 101.754807692308 219.162828947368  L 104.942307692308 215.965460526315  C 106.962692307692 214.514802631578  108.983076923077 213.350328947368  111.297692307692 213.350328947368  L 111.582115384615 213.350328947368  L 117.653076923077 214.800986842105  L 119.389038461538 213.932565789473  L 122.566730769231 209.856907894736  L 121.988076923077 203.462171052631  C 119.967692307692 199.968749999999  119.094807692308 197.067434210526  119.683269230769 195.034539473684  L 120.546346153846 189.804276315789  L 120.546346153846 189.222039473684  L 120.840576923077 188.639802631578  L 126.332884615384 185.442434210526  L 126.627115384615 185.442434210526  L 130.667884615384 182.827302631578  L 135.297115384615 176.146381578947  L 135.875769230769 171.202302631578  L 130.667884615385 158.985197368421  L 142.231153846154 164.215460526315  L 142.231153846154 159.271381578947  L 142.231153846154 158.975328947368  L 146.566153846154 155.19572368421  L 154.951730769231 152.876644736842  L 155.530384615384 152.876644736842  L 160.444038461538 163.63322368421  L 160.444038461538 164.215460526315  L 159.865384615384 168.281249999999  L 160.444038461538 172.060855263157  C 161.022692307692 173.807565789473  162.18 174.685855263157  163.043076923077 174.685855263157  C 164.200384615384 174.685855263157  165.357692307692 173.807565789473  166.515 172.356907894736  L 166.799423076923 171.774671052631  L 167.093653846154 171.774671052631  L 174.027692307692 169.44572368421  L 174.312115384615 169.44572368421  C 178.068461538461 169.44572368421  179.804423076923 170.314144736841  180.6675 172.060855263157  L 181.246153846154 179.916118421052  L 181.246153846154 180.202302631578  L 182.697692307692 180.488486842105  L 185.581153846154 181.356907894736  L 189.916153846154 181.060855263157  L 197.134615384615 179.027960526315  L 201.469615384615 175.248355263157  L 201.754038461538 172.041118421052  L 199.733653846154 169.712171052631  L 192.220961538461 167.097039473684  L 191.642307692307 166.800986842105  L 191.642307692307 166.514802631578  L 182.972307692307 157.791118421052  L 183.845192307692 157.208881578947  L 188.180192307692 153.429276315789  L 188.464615384615 153.13322368421  L 192.799615384615 151.386513157894  L 193.6725 151.386513157894  L 199.44923076923 152.550986842105  L 199.743461538461 152.550986842105  L 200.027884615384 152.847039473684  L 200.027884615384 150.518092105262  L 197.428846153846 146.156249999999  L 193.388076923076 144.123355263157  L 187.895769230769 135.981907894736  L 187.601538461538 135.685855263157  L 187.601538461538 135.429276315789  L 185.0025 125.837171052632  L 185.0025 118.564144736842  L 189.621923076923 114.202302631579  L 196.555961538461 114.202302631579  L 212.738653846153 115.652960526316  L 220.251346153846 104.896381578947  L 220.251346153846 104.314144736842  L 220.83 104.314144736842  L 226.900961538461 101.11677631579  L 230.078653846154 94.7220394736842  L 230.363076923077 94.4358552631579  L 237.591346153846 88.3273026315789  L 241.053461538461 81.9325657894737  L 241.053461538461 81.6463815789474  L 241.337884615384 81.6463815789474  L 241.337884615384 81.3601973684211  L 244.231153846153 78.4490131578947  L 247.693269230769 72.6365131578948  L 248.850576923076 63.6167763157895  L 248.850576923076 62.7483552631579  L 249.135 62.4621710526317  L 253.754423076923 59.264802631579  L 254.91173076923 58.1003289473685  L 247.967884615384 56.9358552631581  L 236.414423076923 57.5180921052634  L 236.13 57.2319078947371  L 231.795 53.7384868421055  L 231.216346153846 53.7384868421055  L 231.216346153846 53.4424342105266  L 228.911538461538 49.9490131578951  L 228.332884615384 50.2351973684214  L 228.038653846153 50.8174342105267  C 227.46 51.6957236842109  226.018269230769 51.9819078947371  224.282307692307 51.9819078947371  L 222.546346153846 52.8503289473687  C 221.967692307692 53.1463815789476  221.683269230769 53.432565789474  220.810384615384 53.1463815789476  C 220.23173076923 53.1463815789476  219.947307692307 52.277960526316  219.368653846153 50.8174342105265  C 219.08423076923 49.3667763157897  218.505576923076 47.9062500000002  216.769615384615 46.4555921052634  L 216.485192307692 46.1595394736845  L 216.485192307692 45.8733552631582  L 216.200769230769 45.8733552631582  L 214.74923076923 42.0937500000003  L 213.591923076923 42.0937500000003  L 209.256923076923 44.995065789474  L 208.9725 45.2812500000003  L 208.678269230769 45.2812500000003  L 198.566538461538 47.3141447368424  L 197.987884615384 47.3141447368424  L 197.409230769231 47.0180921052635  L 190.769423076923 42.370065789474  L 190.475192307692 42.0838815789477  L 190.475192307692 41.7878289473688  L 190.190769230769 41.7878289473688  L 188.454807692308 38.2944078947372  L 183.541153846154 43.5246710526319  C 180.079038461538 47.5904605263162  177.470192307692 48.7648026315793  175.744038461538 47.5904605263162  L 169.094423076923 44.1069078947372  L 164.475 43.5246710526319  L 163.896346153846 43.8108552631582  L 159.561346153846 40.6134868421056  L 159.276923076923 40.3273026315793  L 158.413846153846 40.0312500000004  L 160.434230769231 32.1759868421056  L 160.434230769231 29.5608552631583  L 157.835192307692 28.3963815789478  L 157.550769230769 28.3963815789478  L 151.479807692308 21.7154605263162  L 151.764230769231 16.7713815789478  L 136.738846153846 15.320723684211  L 130.952307692307 12.1134868421057  C 129.510576923077 11.2450657894741  128.353269230769 9.49835526315835  127.480384615384 6.59703947368461  L 126.617307692307 4.56414473684255  L 125.46 0.202302631579437  L 123.429807692307 0.488486842105716  L 118.810384615384 4.26809210526365  L 113.318076923077 10.9490131578952  L 114.475384615384 15.8930921052636  L 116.201538461538 22.2878289473689  L 116.201538461538 22.5838815789478  L 116.495769230769 22.5838815789478  L 116.201538461538 22.8700657894741  L 116.201538461538 23.166118421053  C 115.622884615384 24.9029605263161  113.89673076923 25.7812500000003  111.287884615384 25.7812500000003  L 105.511153846154 25.7812500000003  L 102.039230769231 24.0345394736846  L 97.7042307692305 25.7812500000003  L 96.8313461538459 26.0773026315792  L 96.2526923076921 25.7812500000003  L 95.6740384615382 29.8569078947372  L 95.3896153846151 30.4391447368425  L 95.3896153846151 31.307565789474  L 94.5167307692305 31.307565789474  L 87.2884615384613 28.978618421053  C 87.2884615384613 31.307565789474  87.582692307692 33.0542763157898  88.7399999999998 35.087171052632  C 89.6030769230767 37.120065789474  89.8973076923074 38.5805921052635  89.0244230769228 40.3273026315793  L 88.1613461538459 42.6562500000004  C 87.2884615384613 43.5246710526319  84.6894230769229 43.8207236842108  80.9330769230767 43.5246710526319  L 76.0194230769228 43.5246710526319  L 75.7251923076921 51.666118421053  L 69.3698076923075 49.3371710526319  L 69.0755769230768 49.3371710526319  L 68.781346153846 49.041118421053  L 65.593846153846 42.9424342105267  L 58.6598076923075 40.6134868421057  L 56.923846153846 36.8338815789477  L 54.3248076923076 38.8667763157898  L 54.0305769230768 38.8667763157898  L 49.6955769230769 39.745065789474  L 48.5382692307692 39.745065789474  L 46.2236538461538 34.5148026315793  L 43.9090384615384 31.3174342105267  L 43.6246153846154 31.0213815789478  C 41.3198076923077 28.120065789474  40.1625 25.5049342105267  39.5838461538462 24.0444078947372  C 39.5838461538462 23.7483552631583  39.0051923076923 23.1759868421056  37.5634615384616 22.8799342105267  L 36.406153846154 22.5937500000004  C 34.3857692307694 21.7154605263162  32.9440384615386 19.9687500000005  32.071153846154 17.3536184210531  L 30.9138461538464 12.4095394736847  L 30.9138461538464 8.33388157894787  L 28.8934615384617 4.55427631578993  L 25.4313461538464 5.71875000000041  L 25.1371153846156 5.71875000000041  L 24.8526923076925 5.71875000000041  L 24.5878846153846 5.71875000000041  Z " stroke-width="2" stroke="#797979" fill="none" transform="matrix(1 0 0 1 838 610 )" mask="url(#clip18)" />
  </g>
</svg>