<?xml version="1.0" encoding="utf-8"?>
<svg version="1.1" xmlns:xlink="http://www.w3.org/1999/xlink" width="141px" height="121px" xmlns="http://www.w3.org/2000/svg">
  <defs>
    <mask fill="white" id="clip22">
      <path d="M 111.646363636363 4.65800813008176  L 110.443426573427 2.61182926829266  L 108.412237762238 1.74613821138209  L 106.095104895105 3.19223577235773  L 104.645664335664 5.7991463414634  C 103.482167832168 8.40605691056907  102.318671328671 9.86199186991868  100.287482517483 9.86199186991868  C 99.1239860139861 9.86199186991868  97.6745454545455 8.99630081300811  96.8068531468532 8.12077235772357  L 96.5110489510491 7.83548780487808  L 96.225104895105 7.55020325203259  L 95.3475524475526 4.64817073170734  L 95.3475524475526 4.35304878048787  L 95.0517482517485 0.585325203252059  L 93.3065034965037 0.290203252032592  L 93.0106993006996 0.585325203252059  L 92.1430069930073 3.47752032520333  L 92.1430069930073 7.54036585365861  L 91.8570629370632 7.82565040650411  L 91.5612587412591 8.1109349593496  L 88.0806293706298 12.75418699187  L 87.4988811188815 13.334593495935  L 86.9171328671332 13.334593495935  L 79.9460139860143 12.75418699187  L 79.364265734266 12.75418699187  L 79.364265734266 13.0394715447154  L 79.364265734266 13.3345934959349  L 77.0372727272729 16.5219105691057  L 77.9049650349652 18.5484146341462  L 78.2007692307694 18.5484146341462  L 76.1597202797204 21.735731707317  L 69.7703496503498 21.735731707317  L 69.7703496503498 20.574918699187  L 69.1886013986015 19.9945121951219  L 68.3209090909092 19.4141056910568  L 67.1574125874127 21.4406097560974  L 66.8714685314687 22.3161382113819  L 62.5132867132869 22.3161382113819  L 62.2174825174828 22.0210162601625  L 59.6045454545457 19.9945121951219  L 59.3186013986017 19.4141056910568  L 59.3186013986017 19.1288211382113  L 59.0227972027976 19.1288211382113  L 59.0227972027976 18.5484146341462  L 54.3786713286716 17.6827235772357  L 50.8980419580423 19.1288211382113  L 48.8569930069933 20.5847560975609  L 54.6744755244758 27.2446747967479  L 62.2273426573429 29.5663008130081  L 62.523146853147 29.8614227642275  L 62.8090909090911 30.156544715447  L 66.5855244755247 33.6291463414632  L 65.126223776224 39.4233739837397  L 65.126223776224 40.2890650406502  L 64.8304195804198 40.2890650406502  L 59.8904895104897 44.3420731707315  L 59.8904895104897 44.627357723577  L 59.5946853146856 44.627357723577  L 51.4600699300702 46.9489837398372  L 51.1741258741262 46.9489837398372  L 46.5300000000003 47.5293902439023  L 46.2440559440563 47.5293902439023  L 45.9581118881122 47.5293902439023  L 42.7535664335668 46.3685772357722  L 41.0181818181822 46.0832926829267  L 39.2729370629374 48.985325203252  L 38.9869930069934 48.985325203252  L 38.9869930069934 49.2706097560975  L 35.2105594405598 51.8775203252032  L 34.9246153846158 51.8775203252032  L 29.6987412587417 54.1893089430894  L 29.4029370629376 54.1893089430894  L 23.2995104895109 52.1628048780488  L 9.93902097902147 52.7432113821138  L 7.04013986014029 53.6089024390244  L 6.74433566433614 53.9040243902439  L 4.1313986013991 53.9040243902439  L 0.93671328671378 58.2521544715446  L 1.51846153846206 63.1806910569105  L 4.42720279720337 69.8504471544714  L 7.62188811188869 71.5916666666665  L 7.91769230769284 71.5916666666665  L 7.91769230769284 71.886788617886  L 9.0811888111893 72.7524796747966  L 11.1123776223781 69.8504471544713  L 11.4081818181822 69.5651626016258  L 11.6941258741262 69.2700406504064  L 11.9899300699304 69.2700406504064  L 16.3481118881122 68.6896341463413  L 16.9298601398604 68.6896341463413  L 16.9298601398604 68.9847560975607  L 21.2880419580422 70.1455691056908  L 25.646223776224 80.0026422764225  L 25.36027972028 80.0026422764225  L 25.36027972028 80.287926829268  L 23.6150349650352 85.7968699186989  L 22.1557342657345 89.2793089430891  L 22.1557342657345 89.5645934959346  L 20.1245454545458 94.4931300813004  L 20.1245454545458 100.582479674796  L 23.6051748251751 104.064918699187  L 23.8911188811191 104.064918699187  L 28.535244755245 108.127764227642  L 29.1169930069933 108.413048780487  L 29.4029370629373 108.698333333333  L 25.922307692308 116.814186991869  L 25.0447552447556 120.581910569105  L 26.208251748252 120.00150406504  L 26.5040559440562 120.00150406504  L 29.4029370629373 118.84069105691  L 34.6386713286715 115.938658536585  L 34.9246153846156 115.938658536585  L 40.7322377622379 116.814186991869  L 41.0280419580421 116.814186991869  L 49.7444055944057 120.286788617886  L 59.3284615384617 120.286788617886  L 61.9413986013988 116.814186991869  L 62.2273426573428 116.51906504065  L 62.5231468531469 116.233780487805  L 67.463076923077 113.912154471544  L 72.117062937063 109.859146341463  L 72.6988111888113 109.573861788618  L 76.1794405594407 108.413048780488  L 79.9558741258743 105.511016260162  L 84.3140559440561 99.7167886178859  L 90.4076223776224 102.038414634146  L 91.2851748251749 102.333536585366  L 91.2851748251749 102.618821138211  L 91.5711188811189 102.904105691056  C 92.4388111888112 105.225731707317  93.3163636363636 106.386544715447  94.1840559440559 106.671829268292  L 97.9604895104895 106.091422764227  L 98.838041958042 106.091422764227  L 100.869230769231 106.671829268292  L 101.165034965035 106.671829268292  L 101.165034965035 106.966951219512  L 106.104965034965 108.708170731707  L 107.554405594406 108.708170731707  L 107.85020979021 107.547357723577  L 108.431958041958 105.806138211382  L 108.431958041958 105.511016260162  L 108.717902097902 105.225731707317  L 109.003846153846 104.930609756097  L 109.003846153846 104.645325203252  L 110.749090909091 103.484512195122  L 111.035034965035 103.199227642276  L 114.22972027972 100.582479674797  L 114.525524475524 100.582479674797  L 114.811468531468 100.297195121951  L 115.393216783217 100.297195121951  L 118.301958041958 100.582479674797  C 118.301958041958 98.8412601626015  119.17951048951 97.1000406504064  120.924755244755 95.3686585365853  C 122.955944055944 93.9225609756097  124.405384615384 93.0470325203251  125.282937062937 93.3421544715447  L 127.028181818182 92.1813414634147  L 127.323986013986 92.1813414634147  L 127.323986013986 91.8862195121952  L 128.773426573426 90.4302845528456  L 128.773426573426 90.1450000000001  L 129.06923076923 90.1450000000001  L 129.355174825174 89.8498780487806  L 129.641118881118 89.8498780487806  L 134.295104895104 88.6989024390246  L 136.908041958042 88.6989024390246  L 138.071538461538 87.82337398374  L 138.93923076923 86.0821544715449  L 140.398531468531 83.1801219512197  L 139.816783216783 82.8948373983742  C 138.071538461538 80.8683333333336  136.908041958041 78.5467073170734  136.336153846153 75.3593902439027  L 136.040349650349 75.0741056910572  L 136.336153846153 75.0741056910572  L 136.336153846153 74.7888211382117  L 137.49965034965 68.4043495934962  C 137.49965034965 66.3778455284557  138.081398601398 64.921910569106  139.530839160839 63.4758130081304  L 138.94909090909 58.2619918699191  C 138.663146853146 57.681585365854  138.081398601398 57.101178861789  136.622097902097 56.8158943089434  L 127.323986013985 60.5836178861792  L 127.905734265734 51.021666666667  C 128.191678321678 49.5755691056914  131.100419580419 46.9588211382117  136.622097902097 43.771504065041  L 134.00916083916 33.6291463414638  C 133.427412587412 30.1565447154476  134.304965034965 27.5397967479678  136.622097902097 25.2280081300817  L 136.040349650349 23.4966260162606  L 133.141468531468 23.4966260162606  L 132.273776223776 23.7819105691061  L 130.824335664335 27.8349186991874  C 129.660839160839 29.281016260163  128.497342657342 30.1565447154476  127.333846153846 30.1565447154476  L 126.752097902097 30.1565447154476  L 123.843356643356 28.1202032520329  L 123.557412587412 28.1202032520329  L 123.271468531468 28.1202032520329  L 123.271468531468 27.8349186991874  L 123.271468531468 27.2545121951223  L 122.393916083916 25.2280081300817  L 122.107972027971 22.3358130081305  L 122.107972027971 22.040691056911  L 121.822027972027 22.6210975609761  L 121.526223776223 23.4966260162606  L 116.300349650349 23.4966260162606  L 115.718601398601 22.3358130081306  L 114.841048951049 19.1484959349598  L 114.841048951049 14.8003658536591  L 111.646363636363 9.29142276422814  L 111.646363636363 4.65800813008176  Z " fill-rule="evenodd" />
    </mask>
  </defs>
  <g transform="matrix(1 0 0 1 -978 -747 )">
    <path d="M 111.646363636363 4.65800813008176  L 110.443426573427 2.61182926829266  L 108.412237762238 1.74613821138209  L 106.095104895105 3.19223577235773  L 104.645664335664 5.7991463414634  C 103.482167832168 8.40605691056907  102.318671328671 9.86199186991868  100.287482517483 9.86199186991868  C 99.1239860139861 9.86199186991868  97.6745454545455 8.99630081300811  96.8068531468532 8.12077235772357  L 96.5110489510491 7.83548780487808  L 96.225104895105 7.55020325203259  L 95.3475524475526 4.64817073170734  L 95.3475524475526 4.35304878048787  L 95.0517482517485 0.585325203252059  L 93.3065034965037 0.290203252032592  L 93.0106993006996 0.585325203252059  L 92.1430069930073 3.47752032520333  L 92.1430069930073 7.54036585365861  L 91.8570629370632 7.82565040650411  L 91.5612587412591 8.1109349593496  L 88.0806293706298 12.75418699187  L 87.4988811188815 13.334593495935  L 86.9171328671332 13.334593495935  L 79.9460139860143 12.75418699187  L 79.364265734266 12.75418699187  L 79.364265734266 13.0394715447154  L 79.364265734266 13.3345934959349  L 77.0372727272729 16.5219105691057  L 77.9049650349652 18.5484146341462  L 78.2007692307694 18.5484146341462  L 76.1597202797204 21.735731707317  L 69.7703496503498 21.735731707317  L 69.7703496503498 20.574918699187  L 69.1886013986015 19.9945121951219  L 68.3209090909092 19.4141056910568  L 67.1574125874127 21.4406097560974  L 66.8714685314687 22.3161382113819  L 62.5132867132869 22.3161382113819  L 62.2174825174828 22.0210162601625  L 59.6045454545457 19.9945121951219  L 59.3186013986017 19.4141056910568  L 59.3186013986017 19.1288211382113  L 59.0227972027976 19.1288211382113  L 59.0227972027976 18.5484146341462  L 54.3786713286716 17.6827235772357  L 50.8980419580423 19.1288211382113  L 48.8569930069933 20.5847560975609  L 54.6744755244758 27.2446747967479  L 62.2273426573429 29.5663008130081  L 62.523146853147 29.8614227642275  L 62.8090909090911 30.156544715447  L 66.5855244755247 33.6291463414632  L 65.126223776224 39.4233739837397  L 65.126223776224 40.2890650406502  L 64.8304195804198 40.2890650406502  L 59.8904895104897 44.3420731707315  L 59.8904895104897 44.627357723577  L 59.5946853146856 44.627357723577  L 51.4600699300702 46.9489837398372  L 51.1741258741262 46.9489837398372  L 46.5300000000003 47.5293902439023  L 46.2440559440563 47.5293902439023  L 45.9581118881122 47.5293902439023  L 42.7535664335668 46.3685772357722  L 41.0181818181822 46.0832926829267  L 39.2729370629374 48.985325203252  L 38.9869930069934 48.985325203252  L 38.9869930069934 49.2706097560975  L 35.2105594405598 51.8775203252032  L 34.9246153846158 51.8775203252032  L 29.6987412587417 54.1893089430894  L 29.4029370629376 54.1893089430894  L 23.2995104895109 52.1628048780488  L 9.93902097902147 52.7432113821138  L 7.04013986014029 53.6089024390244  L 6.74433566433614 53.9040243902439  L 4.1313986013991 53.9040243902439  L 0.93671328671378 58.2521544715446  L 1.51846153846206 63.1806910569105  L 4.42720279720337 69.8504471544714  L 7.62188811188869 71.5916666666665  L 7.91769230769284 71.5916666666665  L 7.91769230769284 71.886788617886  L 9.0811888111893 72.7524796747966  L 11.1123776223781 69.8504471544713  L 11.4081818181822 69.5651626016258  L 11.6941258741262 69.2700406504064  L 11.9899300699304 69.2700406504064  L 16.3481118881122 68.6896341463413  L 16.9298601398604 68.6896341463413  L 16.9298601398604 68.9847560975607  L 21.2880419580422 70.1455691056908  L 25.646223776224 80.0026422764225  L 25.36027972028 80.0026422764225  L 25.36027972028 80.287926829268  L 23.6150349650352 85.7968699186989  L 22.1557342657345 89.2793089430891  L 22.1557342657345 89.5645934959346  L 20.1245454545458 94.4931300813004  L 20.1245454545458 100.582479674796  L 23.6051748251751 104.064918699187  L 23.8911188811191 104.064918699187  L 28.535244755245 108.127764227642  L 29.1169930069933 108.413048780487  L 29.4029370629373 108.698333333333  L 25.922307692308 116.814186991869  L 25.0447552447556 120.581910569105  L 26.208251748252 120.00150406504  L 26.5040559440562 120.00150406504  L 29.4029370629373 118.84069105691  L 34.6386713286715 115.938658536585  L 34.9246153846156 115.938658536585  L 40.7322377622379 116.814186991869  L 41.0280419580421 116.814186991869  L 49.7444055944057 120.286788617886  L 59.3284615384617 120.286788617886  L 61.9413986013988 116.814186991869  L 62.2273426573428 116.51906504065  L 62.5231468531469 116.233780487805  L 67.463076923077 113.912154471544  L 72.117062937063 109.859146341463  L 72.6988111888113 109.573861788618  L 76.1794405594407 108.413048780488  L 79.9558741258743 105.511016260162  L 84.3140559440561 99.7167886178859  L 90.4076223776224 102.038414634146  L 91.2851748251749 102.333536585366  L 91.2851748251749 102.618821138211  L 91.5711188811189 102.904105691056  C 92.4388111888112 105.225731707317  93.3163636363636 106.386544715447  94.1840559440559 106.671829268292  L 97.9604895104895 106.091422764227  L 98.838041958042 106.091422764227  L 100.869230769231 106.671829268292  L 101.165034965035 106.671829268292  L 101.165034965035 106.966951219512  L 106.104965034965 108.708170731707  L 107.554405594406 108.708170731707  L 107.85020979021 107.547357723577  L 108.431958041958 105.806138211382  L 108.431958041958 105.511016260162  L 108.717902097902 105.225731707317  L 109.003846153846 104.930609756097  L 109.003846153846 104.645325203252  L 110.749090909091 103.484512195122  L 111.035034965035 103.199227642276  L 114.22972027972 100.582479674797  L 114.525524475524 100.582479674797  L 114.811468531468 100.297195121951  L 115.393216783217 100.297195121951  L 118.301958041958 100.582479674797  C 118.301958041958 98.8412601626015  119.17951048951 97.1000406504064  120.924755244755 95.3686585365853  C 122.955944055944 93.9225609756097  124.405384615384 93.0470325203251  125.282937062937 93.3421544715447  L 127.028181818182 92.1813414634147  L 127.323986013986 92.1813414634147  L 127.323986013986 91.8862195121952  L 128.773426573426 90.4302845528456  L 128.773426573426 90.1450000000001  L 129.06923076923 90.1450000000001  L 129.355174825174 89.8498780487806  L 129.641118881118 89.8498780487806  L 134.295104895104 88.6989024390246  L 136.908041958042 88.6989024390246  L 138.071538461538 87.82337398374  L 138.93923076923 86.0821544715449  L 140.398531468531 83.1801219512197  L 139.816783216783 82.8948373983742  C 138.071538461538 80.8683333333336  136.908041958041 78.5467073170734  136.336153846153 75.3593902439027  L 136.040349650349 75.0741056910572  L 136.336153846153 75.0741056910572  L 136.336153846153 74.7888211382117  L 137.49965034965 68.4043495934962  C 137.49965034965 66.3778455284557  138.081398601398 64.921910569106  139.530839160839 63.4758130081304  L 138.94909090909 58.2619918699191  C 138.663146853146 57.681585365854  138.081398601398 57.101178861789  136.622097902097 56.8158943089434  L 127.323986013985 60.5836178861792  L 127.905734265734 51.021666666667  C 128.191678321678 49.5755691056914  131.100419580419 46.9588211382117  136.622097902097 43.771504065041  L 134.00916083916 33.6291463414638  C 133.427412587412 30.1565447154476  134.304965034965 27.5397967479678  136.622097902097 25.2280081300817  L 136.040349650349 23.4966260162606  L 133.141468531468 23.4966260162606  L 132.273776223776 23.7819105691061  L 130.824335664335 27.8349186991874  C 129.660839160839 29.281016260163  128.497342657342 30.1565447154476  127.333846153846 30.1565447154476  L 126.752097902097 30.1565447154476  L 123.843356643356 28.1202032520329  L 123.557412587412 28.1202032520329  L 123.271468531468 28.1202032520329  L 123.271468531468 27.8349186991874  L 123.271468531468 27.2545121951223  L 122.393916083916 25.2280081300817  L 122.107972027971 22.3358130081305  L 122.107972027971 22.040691056911  L 121.822027972027 22.6210975609761  L 121.526223776223 23.4966260162606  L 116.300349650349 23.4966260162606  L 115.718601398601 22.3358130081306  L 114.841048951049 19.1484959349598  L 114.841048951049 14.8003658536591  L 111.646363636363 9.29142276422814  L 111.646363636363 4.65800813008176  Z " fill-rule="nonzero" fill="#20dbea" stroke="none" fill-opacity="0.4" transform="matrix(1 0 0 1 978 747 )" />
    <path d="M 111.646363636363 4.65800813008176  L 110.443426573427 2.61182926829266  L 108.412237762238 1.74613821138209  L 106.095104895105 3.19223577235773  L 104.645664335664 5.7991463414634  C 103.482167832168 8.40605691056907  102.318671328671 9.86199186991868  100.287482517483 9.86199186991868  C 99.1239860139861 9.86199186991868  97.6745454545455 8.99630081300811  96.8068531468532 8.12077235772357  L 96.5110489510491 7.83548780487808  L 96.225104895105 7.55020325203259  L 95.3475524475526 4.64817073170734  L 95.3475524475526 4.35304878048787  L 95.0517482517485 0.585325203252059  L 93.3065034965037 0.290203252032592  L 93.0106993006996 0.585325203252059  L 92.1430069930073 3.47752032520333  L 92.1430069930073 7.54036585365861  L 91.8570629370632 7.82565040650411  L 91.5612587412591 8.1109349593496  L 88.0806293706298 12.75418699187  L 87.4988811188815 13.334593495935  L 86.9171328671332 13.334593495935  L 79.9460139860143 12.75418699187  L 79.364265734266 12.75418699187  L 79.364265734266 13.0394715447154  L 79.364265734266 13.3345934959349  L 77.0372727272729 16.5219105691057  L 77.9049650349652 18.5484146341462  L 78.2007692307694 18.5484146341462  L 76.1597202797204 21.735731707317  L 69.7703496503498 21.735731707317  L 69.7703496503498 20.574918699187  L 69.1886013986015 19.9945121951219  L 68.3209090909092 19.4141056910568  L 67.1574125874127 21.4406097560974  L 66.8714685314687 22.3161382113819  L 62.5132867132869 22.3161382113819  L 62.2174825174828 22.0210162601625  L 59.6045454545457 19.9945121951219  L 59.3186013986017 19.4141056910568  L 59.3186013986017 19.1288211382113  L 59.0227972027976 19.1288211382113  L 59.0227972027976 18.5484146341462  L 54.3786713286716 17.6827235772357  L 50.8980419580423 19.1288211382113  L 48.8569930069933 20.5847560975609  L 54.6744755244758 27.2446747967479  L 62.2273426573429 29.5663008130081  L 62.523146853147 29.8614227642275  L 62.8090909090911 30.156544715447  L 66.5855244755247 33.6291463414632  L 65.126223776224 39.4233739837397  L 65.126223776224 40.2890650406502  L 64.8304195804198 40.2890650406502  L 59.8904895104897 44.3420731707315  L 59.8904895104897 44.627357723577  L 59.5946853146856 44.627357723577  L 51.4600699300702 46.9489837398372  L 51.1741258741262 46.9489837398372  L 46.5300000000003 47.5293902439023  L 46.2440559440563 47.5293902439023  L 45.9581118881122 47.5293902439023  L 42.7535664335668 46.3685772357722  L 41.0181818181822 46.0832926829267  L 39.2729370629374 48.985325203252  L 38.9869930069934 48.985325203252  L 38.9869930069934 49.2706097560975  L 35.2105594405598 51.8775203252032  L 34.9246153846158 51.8775203252032  L 29.6987412587417 54.1893089430894  L 29.4029370629376 54.1893089430894  L 23.2995104895109 52.1628048780488  L 9.93902097902147 52.7432113821138  L 7.04013986014029 53.6089024390244  L 6.74433566433614 53.9040243902439  L 4.1313986013991 53.9040243902439  L 0.93671328671378 58.2521544715446  L 1.51846153846206 63.1806910569105  L 4.42720279720337 69.8504471544714  L 7.62188811188869 71.5916666666665  L 7.91769230769284 71.5916666666665  L 7.91769230769284 71.886788617886  L 9.0811888111893 72.7524796747966  L 11.1123776223781 69.8504471544713  L 11.4081818181822 69.5651626016258  L 11.6941258741262 69.2700406504064  L 11.9899300699304 69.2700406504064  L 16.3481118881122 68.6896341463413  L 16.9298601398604 68.6896341463413  L 16.9298601398604 68.9847560975607  L 21.2880419580422 70.1455691056908  L 25.646223776224 80.0026422764225  L 25.36027972028 80.0026422764225  L 25.36027972028 80.287926829268  L 23.6150349650352 85.7968699186989  L 22.1557342657345 89.2793089430891  L 22.1557342657345 89.5645934959346  L 20.1245454545458 94.4931300813004  L 20.1245454545458 100.582479674796  L 23.6051748251751 104.064918699187  L 23.8911188811191 104.064918699187  L 28.535244755245 108.127764227642  L 29.1169930069933 108.413048780487  L 29.4029370629373 108.698333333333  L 25.922307692308 116.814186991869  L 25.0447552447556 120.581910569105  L 26.208251748252 120.00150406504  L 26.5040559440562 120.00150406504  L 29.4029370629373 118.84069105691  L 34.6386713286715 115.938658536585  L 34.9246153846156 115.938658536585  L 40.7322377622379 116.814186991869  L 41.0280419580421 116.814186991869  L 49.7444055944057 120.286788617886  L 59.3284615384617 120.286788617886  L 61.9413986013988 116.814186991869  L 62.2273426573428 116.51906504065  L 62.5231468531469 116.233780487805  L 67.463076923077 113.912154471544  L 72.117062937063 109.859146341463  L 72.6988111888113 109.573861788618  L 76.1794405594407 108.413048780488  L 79.9558741258743 105.511016260162  L 84.3140559440561 99.7167886178859  L 90.4076223776224 102.038414634146  L 91.2851748251749 102.333536585366  L 91.2851748251749 102.618821138211  L 91.5711188811189 102.904105691056  C 92.4388111888112 105.225731707317  93.3163636363636 106.386544715447  94.1840559440559 106.671829268292  L 97.9604895104895 106.091422764227  L 98.838041958042 106.091422764227  L 100.869230769231 106.671829268292  L 101.165034965035 106.671829268292  L 101.165034965035 106.966951219512  L 106.104965034965 108.708170731707  L 107.554405594406 108.708170731707  L 107.85020979021 107.547357723577  L 108.431958041958 105.806138211382  L 108.431958041958 105.511016260162  L 108.717902097902 105.225731707317  L 109.003846153846 104.930609756097  L 109.003846153846 104.645325203252  L 110.749090909091 103.484512195122  L 111.035034965035 103.199227642276  L 114.22972027972 100.582479674797  L 114.525524475524 100.582479674797  L 114.811468531468 100.297195121951  L 115.393216783217 100.297195121951  L 118.301958041958 100.582479674797  C 118.301958041958 98.8412601626015  119.17951048951 97.1000406504064  120.924755244755 95.3686585365853  C 122.955944055944 93.9225609756097  124.405384615384 93.0470325203251  125.282937062937 93.3421544715447  L 127.028181818182 92.1813414634147  L 127.323986013986 92.1813414634147  L 127.323986013986 91.8862195121952  L 128.773426573426 90.4302845528456  L 128.773426573426 90.1450000000001  L 129.06923076923 90.1450000000001  L 129.355174825174 89.8498780487806  L 129.641118881118 89.8498780487806  L 134.295104895104 88.6989024390246  L 136.908041958042 88.6989024390246  L 138.071538461538 87.82337398374  L 138.93923076923 86.0821544715449  L 140.398531468531 83.1801219512197  L 139.816783216783 82.8948373983742  C 138.071538461538 80.8683333333336  136.908041958041 78.5467073170734  136.336153846153 75.3593902439027  L 136.040349650349 75.0741056910572  L 136.336153846153 75.0741056910572  L 136.336153846153 74.7888211382117  L 137.49965034965 68.4043495934962  C 137.49965034965 66.3778455284557  138.081398601398 64.921910569106  139.530839160839 63.4758130081304  L 138.94909090909 58.2619918699191  C 138.663146853146 57.681585365854  138.081398601398 57.101178861789  136.622097902097 56.8158943089434  L 127.323986013985 60.5836178861792  L 127.905734265734 51.021666666667  C 128.191678321678 49.5755691056914  131.100419580419 46.9588211382117  136.622097902097 43.771504065041  L 134.00916083916 33.6291463414638  C 133.427412587412 30.1565447154476  134.304965034965 27.5397967479678  136.622097902097 25.2280081300817  L 136.040349650349 23.4966260162606  L 133.141468531468 23.4966260162606  L 132.273776223776 23.7819105691061  L 130.824335664335 27.8349186991874  C 129.660839160839 29.281016260163  128.497342657342 30.1565447154476  127.333846153846 30.1565447154476  L 126.752097902097 30.1565447154476  L 123.843356643356 28.1202032520329  L 123.557412587412 28.1202032520329  L 123.271468531468 28.1202032520329  L 123.271468531468 27.8349186991874  L 123.271468531468 27.2545121951223  L 122.393916083916 25.2280081300817  L 122.107972027971 22.3358130081305  L 122.107972027971 22.040691056911  L 121.822027972027 22.6210975609761  L 121.526223776223 23.4966260162606  L 116.300349650349 23.4966260162606  L 115.718601398601 22.3358130081306  L 114.841048951049 19.1484959349598  L 114.841048951049 14.8003658536591  L 111.646363636363 9.29142276422814  L 111.646363636363 4.65800813008176  Z " stroke-width="2" stroke="#797979" fill="none" transform="matrix(1 0 0 1 978 747 )" mask="url(#clip22)" />
  </g>
</svg>