<?xml version="1.0" encoding="utf-8"?>
<svg version="1.1" xmlns:xlink="http://www.w3.org/1999/xlink" width="183px" height="140px" xmlns="http://www.w3.org/2000/svg">
  <defs>
    <mask fill="white" id="clip24">
      <path d="M 146.419677419355 3.9091549295775  L 146.714838709677 4.20492957746478  L 147.295322580645 4.78661971830988  L 143.527096774194 10.593661971831  C 142.070967741935 12.3387323943662  140.044193548387 13.5021126760564  137.722258064516 13.5021126760564  L 137.141774193548 13.5021126760564  L 134.249193548387 11.7570422535212  L 131.346774193548 12.0528169014085  L 125.541935483871 16.4105633802817  C 124.09564516129 16.9922535211268  122.354193548387 15.5429577464789  119.746935483871 12.0528169014085  L 118.015322580645 15.8288732394367  L 117.73 15.8288732394367  L 117.434838709677 16.1147887323944  L 115.398225806452 18.155633802817  L 111.63 18.155633802817  L 107.861774193548 19.3190140845071  L 103.217903225806 22.8091549295775  L 101.771612903226 22.8091549295775  L 100.030161290322 23.962676056338  C 98.5838709677417 25.4119718309859  98.0033870967741 26.5852112676056  98.869193548387 27.7387323943662  L 100.895967741935 30.637323943662  L 92.7790322580644 29.7697183098592  L 88.4303225806451 33.2598591549296  L 87.8498387096773 34.7091549295775  L 87.8498387096773 34.9950704225352  L 86.9840322580644 37.3218309859155  L 86.6888709677418 37.6077464788732  L 86.4035483870967 37.8936619718309  L 82.3499999999999 37.8936619718309  L 77.1354838709677 35.862676056338  L 75.3940322580645 35.5767605633803  L 71.3404838709677 36.1584507042254  C 69.5990322580645 36.1584507042254  67.5722580645161 34.1274647887325  65.8308064516129 30.9330985915494  L 62.3479032258065 29.4838028169015  L 59.4553225806451 33.8415492957747  L 59.1601612903226 33.8415492957747  L 55.1066129032258 37.3316901408451  L 54.8212903225807 37.3316901408451  L 54.8212903225807 37.6176056338028  L 54.2408064516129 37.6176056338028  L 51.053064516129 38.4852112676056  L 46.4091935483871 42.5570422535211  L 41.48 44.8838028169014  L 38.006935483871 50  L 26.416935483871 50  L 26.416935483871 49.5274647887324  L 17.4243548387097 46.0471830985916  L 12.4951612903226 45.4654929577465  L 8.14645161290331 47.7922535211268  L 7.85129032258078 47.7922535211268  L 4.94887096774202 48.9556338028169  C 3.50258064516135 49.537323943662  2.34161290322591 50.4049295774648  1.47580645161301 50.7007042253521  L 0.895322580645242 52.15  L 0.895322580645242 55.6302816901408  L 2.34161290322591 57.9570422535211  L 9.29758064516145 55.6302816901408  C 10.7537096774195 55.6302816901408  12.7706451612905 56.4978873239436  15.3877419354841 57.9570422535211  L 15.9682258064519 58.2429577464788  L 16.2633870967744 58.5387323943661  L 16.5487096774195 68.4176056338027  L 18.0048387096776 68.71338028169  L 24.0950000000002 68.71338028169  L 27.8632258064519 67.8457746478872  L 28.4437096774197 67.2640845070421  C 30.7656451612906 66.100704225352  32.792419354839 65.2330985915492  35.3996774193552 64.9373239436618  L 36.5606451612906 64.6415492957745  L 37.1411290322584 65.5091549295773  L 38.8825806451616 68.9992957746477  L 38.8825806451616 69.2852112676054  L 39.7582258064519 78.8683098591547  L 39.7582258064519 79.7359154929575  L 34.5338709677423 85.2570422535209  L 34.2387096774198 85.2570422535209  L 34.2387096774198 85.5429577464786  L 28.1583870967746 88.4415492957745  L 26.1217741935488 90.7683098591548  L 26.9875806451617 92.5133802816899  L 39.453225806452 93.6767605633801  L 39.7483870967745 93.9725352112673  L 40.0337096774196 94.2683098591546  L 44.9629032258067 97.1669014084504  L 55.972419354839 96.8809859154927  L 55.972419354839 98.3302816901406  L 56.5529032258068 103.851408450704  L 56.5529032258068 104.433098591549  L 56.8480645161293 104.433098591549  L 51.9188709677423 109.372535211267  C 51.3383870967745 115.761267605634  52.49935483871 119.537323943662  55.1066129032261 120.414788732394  L 64.3845161290325 125.354225352113  L 71.6258064516132 130.293661971831  L 77.7159677419358 127.385211267605  L 78.2964516129036 127.089436619718  L 78.8769354838714 126.793661971831  L 79.1622580645165 127.089436619718  L 88.4401612903229 134.059859154929  L 89.8864516129036 134.641549295775  L 92.2083870967746 131.733098591549  L 92.7888709677423 131.151408450704  L 93.0741935483875 130.855633802817  L 93.36935483871 130.855633802817  L 93.6546774193551 130.855633802817  L 99.16435483871 131.733098591549  L 100.325322580645 122.14014084507  L 107.281290322581 134.631690140845  L 113.076290322581 134.917605633803  L 113.951935483871 135.20352112676  L 114.532419354839 135.20352112676  L 114.532419354839 135.785211267605  L 114.532419354839 139.561267605634  L 116.85435483871 138.979577464789  L 126.417580645162 126.192253521127  L 130.471129032258 132.295070422535  L 130.471129032258 130.264084507042  L 130.471129032258 129.978169014084  L 130.471129032258 129.682394366197  L 133.373548387097 123.875352112676  L 135.980806451613 119.517605633803  L 143.222096774194 119.517605633803  L 144.383064516129 111.383802816901  L 145.25870967742 111.383802816901  L 145.839193548387 111.669718309859  L 151.348870967742 112.537323943662  L 151.919516129033 109.628873239437  L 149.892741935484 104.985211267606  L 149.892741935484 104.40352112676  L 151.05370967742 101.209154929577  L 151.05370967742 100.627464788732  L 151.348870967742 100.331690140845  L 151.634193548387 100.331690140845  L 151.634193548387 100.035915492958  L 166.707096774194 91.9021126760563  L 166.126612903226 84.0640845070421  L 166.126612903226 83.7683098591548  L 169.019193548388 77.9612676056337  L 169.599677419355 76.7978873239436  L 174.243548387097 66.0514084507042  L 174.528870967742 65.7654929577465  L 178.297096774194 61.9894366197183  L 180.619032258065 57.6316901408451  L 180.619032258065 57.05  L 182.655645161291 53.5697183098592  L 180.914193548388 49.211971830986  L 180.914193548388 48.9260563380283  L 180.619032258065 48.9260563380283  L 180.619032258065 44.2725352112677  L 178.297096774194 44.2725352112677  L 173.948387096775 46.3035211267606  C 171.921612903227 47.7528169014085  169.019193548388 47.1711267605634  165.250967741936 44.8542253521127  C 163.794838709678 43.6908450704226  163.794838709678 40.7823943661972  164.670483870968 36.4345070422536  L 162.348548387097 36.1485915492959  L 161.187580645162 37.5978873239438  C 158.580322580646 40.5063380281692  156.54370967742 42.2415492957748  155.97306451613 42.2415492957748  C 155.392580645162 42.2415492957748  155.107258064517 42.2415492957748  154.526774193549 41.9457746478875  C 154.241451612904 41.0781690140847  153.660967741936 39.6190140845072  153.660967741936 37.3021126760565  C 153.660967741936 34.6894366197185  153.660967741936 32.9443661971833  154.526774193549 32.3626760563382  C 155.107258064517 31.4950704225354  155.687741935484 31.1992957746481  156.268225806452 31.7809859154931  L 161.777903225807 21.6161971830988  L 163.224193548388 17.8401408450706  L 164.099838709678 13.4823943661974  L 160.912096774194 10.8697183098594  C 160.036451612904 9.99225352112698  159.751129032259 7.96126760563396  160.331612903226 5.05281690140867  L 160.331612903226 3.31760563380305  C 160.331612903226 2.44014084507067  159.751129032259 1.28661971831015  158.590161290323 0.419014084507222  L 158.009677419355 0.419014084507222  L 157.714516129033 1.28661971831003  C 156.84870967742 3.61338028169033  154.812096774194 4.76690140845085  151.634193548388 3.89929577464804  C 150.187903225806 3.33732394366196  148.446451612903 3.33732394366196  146.419677419355 3.9091549295775  Z " fill-rule="evenodd" />
    </mask>
  </defs>
  <g transform="matrix(1 0 0 1 -1000 -820 )">
    <path d="M 146.419677419355 3.9091549295775  L 146.714838709677 4.20492957746478  L 147.295322580645 4.78661971830988  L 143.527096774194 10.593661971831  C 142.070967741935 12.3387323943662  140.044193548387 13.5021126760564  137.722258064516 13.5021126760564  L 137.141774193548 13.5021126760564  L 134.249193548387 11.7570422535212  L 131.346774193548 12.0528169014085  L 125.541935483871 16.4105633802817  C 124.09564516129 16.9922535211268  122.354193548387 15.5429577464789  119.746935483871 12.0528169014085  L 118.015322580645 15.8288732394367  L 117.73 15.8288732394367  L 117.434838709677 16.1147887323944  L 115.398225806452 18.155633802817  L 111.63 18.155633802817  L 107.861774193548 19.3190140845071  L 103.217903225806 22.8091549295775  L 101.771612903226 22.8091549295775  L 100.030161290322 23.962676056338  C 98.5838709677417 25.4119718309859  98.0033870967741 26.5852112676056  98.869193548387 27.7387323943662  L 100.895967741935 30.637323943662  L 92.7790322580644 29.7697183098592  L 88.4303225806451 33.2598591549296  L 87.8498387096773 34.7091549295775  L 87.8498387096773 34.9950704225352  L 86.9840322580644 37.3218309859155  L 86.6888709677418 37.6077464788732  L 86.4035483870967 37.8936619718309  L 82.3499999999999 37.8936619718309  L 77.1354838709677 35.862676056338  L 75.3940322580645 35.5767605633803  L 71.3404838709677 36.1584507042254  C 69.5990322580645 36.1584507042254  67.5722580645161 34.1274647887325  65.8308064516129 30.9330985915494  L 62.3479032258065 29.4838028169015  L 59.4553225806451 33.8415492957747  L 59.1601612903226 33.8415492957747  L 55.1066129032258 37.3316901408451  L 54.8212903225807 37.3316901408451  L 54.8212903225807 37.6176056338028  L 54.2408064516129 37.6176056338028  L 51.053064516129 38.4852112676056  L 46.4091935483871 42.5570422535211  L 41.48 44.8838028169014  L 38.006935483871 50  L 26.416935483871 50  L 26.416935483871 49.5274647887324  L 17.4243548387097 46.0471830985916  L 12.4951612903226 45.4654929577465  L 8.14645161290331 47.7922535211268  L 7.85129032258078 47.7922535211268  L 4.94887096774202 48.9556338028169  C 3.50258064516135 49.537323943662  2.34161290322591 50.4049295774648  1.47580645161301 50.7007042253521  L 0.895322580645242 52.15  L 0.895322580645242 55.6302816901408  L 2.34161290322591 57.9570422535211  L 9.29758064516145 55.6302816901408  C 10.7537096774195 55.6302816901408  12.7706451612905 56.4978873239436  15.3877419354841 57.9570422535211  L 15.9682258064519 58.2429577464788  L 16.2633870967744 58.5387323943661  L 16.5487096774195 68.4176056338027  L 18.0048387096776 68.71338028169  L 24.0950000000002 68.71338028169  L 27.8632258064519 67.8457746478872  L 28.4437096774197 67.2640845070421  C 30.7656451612906 66.100704225352  32.792419354839 65.2330985915492  35.3996774193552 64.9373239436618  L 36.5606451612906 64.6415492957745  L 37.1411290322584 65.5091549295773  L 38.8825806451616 68.9992957746477  L 38.8825806451616 69.2852112676054  L 39.7582258064519 78.8683098591547  L 39.7582258064519 79.7359154929575  L 34.5338709677423 85.2570422535209  L 34.2387096774198 85.2570422535209  L 34.2387096774198 85.5429577464786  L 28.1583870967746 88.4415492957745  L 26.1217741935488 90.7683098591548  L 26.9875806451617 92.5133802816899  L 39.453225806452 93.6767605633801  L 39.7483870967745 93.9725352112673  L 40.0337096774196 94.2683098591546  L 44.9629032258067 97.1669014084504  L 55.972419354839 96.8809859154927  L 55.972419354839 98.3302816901406  L 56.5529032258068 103.851408450704  L 56.5529032258068 104.433098591549  L 56.8480645161293 104.433098591549  L 51.9188709677423 109.372535211267  C 51.3383870967745 115.761267605634  52.49935483871 119.537323943662  55.1066129032261 120.414788732394  L 64.3845161290325 125.354225352113  L 71.6258064516132 130.293661971831  L 77.7159677419358 127.385211267605  L 78.2964516129036 127.089436619718  L 78.8769354838714 126.793661971831  L 79.1622580645165 127.089436619718  L 88.4401612903229 134.059859154929  L 89.8864516129036 134.641549295775  L 92.2083870967746 131.733098591549  L 92.7888709677423 131.151408450704  L 93.0741935483875 130.855633802817  L 93.36935483871 130.855633802817  L 93.6546774193551 130.855633802817  L 99.16435483871 131.733098591549  L 100.325322580645 122.14014084507  L 107.281290322581 134.631690140845  L 113.076290322581 134.917605633803  L 113.951935483871 135.20352112676  L 114.532419354839 135.20352112676  L 114.532419354839 135.785211267605  L 114.532419354839 139.561267605634  L 116.85435483871 138.979577464789  L 126.417580645162 126.192253521127  L 130.471129032258 132.295070422535  L 130.471129032258 130.264084507042  L 130.471129032258 129.978169014084  L 130.471129032258 129.682394366197  L 133.373548387097 123.875352112676  L 135.980806451613 119.517605633803  L 143.222096774194 119.517605633803  L 144.383064516129 111.383802816901  L 145.25870967742 111.383802816901  L 145.839193548387 111.669718309859  L 151.348870967742 112.537323943662  L 151.919516129033 109.628873239437  L 149.892741935484 104.985211267606  L 149.892741935484 104.40352112676  L 151.05370967742 101.209154929577  L 151.05370967742 100.627464788732  L 151.348870967742 100.331690140845  L 151.634193548387 100.331690140845  L 151.634193548387 100.035915492958  L 166.707096774194 91.9021126760563  L 166.126612903226 84.0640845070421  L 166.126612903226 83.7683098591548  L 169.019193548388 77.9612676056337  L 169.599677419355 76.7978873239436  L 174.243548387097 66.0514084507042  L 174.528870967742 65.7654929577465  L 178.297096774194 61.9894366197183  L 180.619032258065 57.6316901408451  L 180.619032258065 57.05  L 182.655645161291 53.5697183098592  L 180.914193548388 49.211971830986  L 180.914193548388 48.9260563380283  L 180.619032258065 48.9260563380283  L 180.619032258065 44.2725352112677  L 178.297096774194 44.2725352112677  L 173.948387096775 46.3035211267606  C 171.921612903227 47.7528169014085  169.019193548388 47.1711267605634  165.250967741936 44.8542253521127  C 163.794838709678 43.6908450704226  163.794838709678 40.7823943661972  164.670483870968 36.4345070422536  L 162.348548387097 36.1485915492959  L 161.187580645162 37.5978873239438  C 158.580322580646 40.5063380281692  156.54370967742 42.2415492957748  155.97306451613 42.2415492957748  C 155.392580645162 42.2415492957748  155.107258064517 42.2415492957748  154.526774193549 41.9457746478875  C 154.241451612904 41.0781690140847  153.660967741936 39.6190140845072  153.660967741936 37.3021126760565  C 153.660967741936 34.6894366197185  153.660967741936 32.9443661971833  154.526774193549 32.3626760563382  C 155.107258064517 31.4950704225354  155.687741935484 31.1992957746481  156.268225806452 31.7809859154931  L 161.777903225807 21.6161971830988  L 163.224193548388 17.8401408450706  L 164.099838709678 13.4823943661974  L 160.912096774194 10.8697183098594  C 160.036451612904 9.99225352112698  159.751129032259 7.96126760563396  160.331612903226 5.05281690140867  L 160.331612903226 3.31760563380305  C 160.331612903226 2.44014084507067  159.751129032259 1.28661971831015  158.590161290323 0.419014084507222  L 158.009677419355 0.419014084507222  L 157.714516129033 1.28661971831003  C 156.84870967742 3.61338028169033  154.812096774194 4.76690140845085  151.634193548388 3.89929577464804  C 150.187903225806 3.33732394366196  148.446451612903 3.33732394366196  146.419677419355 3.9091549295775  Z " fill-rule="nonzero" fill="#20dbea" stroke="none" fill-opacity="0.4" transform="matrix(1 0 0 1 1000 820 )" />
    <path d="M 146.419677419355 3.9091549295775  L 146.714838709677 4.20492957746478  L 147.295322580645 4.78661971830988  L 143.527096774194 10.593661971831  C 142.070967741935 12.3387323943662  140.044193548387 13.5021126760564  137.722258064516 13.5021126760564  L 137.141774193548 13.5021126760564  L 134.249193548387 11.7570422535212  L 131.346774193548 12.0528169014085  L 125.541935483871 16.4105633802817  C 124.09564516129 16.9922535211268  122.354193548387 15.5429577464789  119.746935483871 12.0528169014085  L 118.015322580645 15.8288732394367  L 117.73 15.8288732394367  L 117.434838709677 16.1147887323944  L 115.398225806452 18.155633802817  L 111.63 18.155633802817  L 107.861774193548 19.3190140845071  L 103.217903225806 22.8091549295775  L 101.771612903226 22.8091549295775  L 100.030161290322 23.962676056338  C 98.5838709677417 25.4119718309859  98.0033870967741 26.5852112676056  98.869193548387 27.7387323943662  L 100.895967741935 30.637323943662  L 92.7790322580644 29.7697183098592  L 88.4303225806451 33.2598591549296  L 87.8498387096773 34.7091549295775  L 87.8498387096773 34.9950704225352  L 86.9840322580644 37.3218309859155  L 86.6888709677418 37.6077464788732  L 86.4035483870967 37.8936619718309  L 82.3499999999999 37.8936619718309  L 77.1354838709677 35.862676056338  L 75.3940322580645 35.5767605633803  L 71.3404838709677 36.1584507042254  C 69.5990322580645 36.1584507042254  67.5722580645161 34.1274647887325  65.8308064516129 30.9330985915494  L 62.3479032258065 29.4838028169015  L 59.4553225806451 33.8415492957747  L 59.1601612903226 33.8415492957747  L 55.1066129032258 37.3316901408451  L 54.8212903225807 37.3316901408451  L 54.8212903225807 37.6176056338028  L 54.2408064516129 37.6176056338028  L 51.053064516129 38.4852112676056  L 46.4091935483871 42.5570422535211  L 41.48 44.8838028169014  L 38.006935483871 50  L 26.416935483871 50  L 26.416935483871 49.5274647887324  L 17.4243548387097 46.0471830985916  L 12.4951612903226 45.4654929577465  L 8.14645161290331 47.7922535211268  L 7.85129032258078 47.7922535211268  L 4.94887096774202 48.9556338028169  C 3.50258064516135 49.537323943662  2.34161290322591 50.4049295774648  1.47580645161301 50.7007042253521  L 0.895322580645242 52.15  L 0.895322580645242 55.6302816901408  L 2.34161290322591 57.9570422535211  L 9.29758064516145 55.6302816901408  C 10.7537096774195 55.6302816901408  12.7706451612905 56.4978873239436  15.3877419354841 57.9570422535211  L 15.9682258064519 58.2429577464788  L 16.2633870967744 58.5387323943661  L 16.5487096774195 68.4176056338027  L 18.0048387096776 68.71338028169  L 24.0950000000002 68.71338028169  L 27.8632258064519 67.8457746478872  L 28.4437096774197 67.2640845070421  C 30.7656451612906 66.100704225352  32.792419354839 65.2330985915492  35.3996774193552 64.9373239436618  L 36.5606451612906 64.6415492957745  L 37.1411290322584 65.5091549295773  L 38.8825806451616 68.9992957746477  L 38.8825806451616 69.2852112676054  L 39.7582258064519 78.8683098591547  L 39.7582258064519 79.7359154929575  L 34.5338709677423 85.2570422535209  L 34.2387096774198 85.2570422535209  L 34.2387096774198 85.5429577464786  L 28.1583870967746 88.4415492957745  L 26.1217741935488 90.7683098591548  L 26.9875806451617 92.5133802816899  L 39.453225806452 93.6767605633801  L 39.7483870967745 93.9725352112673  L 40.0337096774196 94.2683098591546  L 44.9629032258067 97.1669014084504  L 55.972419354839 96.8809859154927  L 55.972419354839 98.3302816901406  L 56.5529032258068 103.851408450704  L 56.5529032258068 104.433098591549  L 56.8480645161293 104.433098591549  L 51.9188709677423 109.372535211267  C 51.3383870967745 115.761267605634  52.49935483871 119.537323943662  55.1066129032261 120.414788732394  L 64.3845161290325 125.354225352113  L 71.6258064516132 130.293661971831  L 77.7159677419358 127.385211267605  L 78.2964516129036 127.089436619718  L 78.8769354838714 126.793661971831  L 79.1622580645165 127.089436619718  L 88.4401612903229 134.059859154929  L 89.8864516129036 134.641549295775  L 92.2083870967746 131.733098591549  L 92.7888709677423 131.151408450704  L 93.0741935483875 130.855633802817  L 93.36935483871 130.855633802817  L 93.6546774193551 130.855633802817  L 99.16435483871 131.733098591549  L 100.325322580645 122.14014084507  L 107.281290322581 134.631690140845  L 113.076290322581 134.917605633803  L 113.951935483871 135.20352112676  L 114.532419354839 135.20352112676  L 114.532419354839 135.785211267605  L 114.532419354839 139.561267605634  L 116.85435483871 138.979577464789  L 126.417580645162 126.192253521127  L 130.471129032258 132.295070422535  L 130.471129032258 130.264084507042  L 130.471129032258 129.978169014084  L 130.471129032258 129.682394366197  L 133.373548387097 123.875352112676  L 135.980806451613 119.517605633803  L 143.222096774194 119.517605633803  L 144.383064516129 111.383802816901  L 145.25870967742 111.383802816901  L 145.839193548387 111.669718309859  L 151.348870967742 112.537323943662  L 151.919516129033 109.628873239437  L 149.892741935484 104.985211267606  L 149.892741935484 104.40352112676  L 151.05370967742 101.209154929577  L 151.05370967742 100.627464788732  L 151.348870967742 100.331690140845  L 151.634193548387 100.331690140845  L 151.634193548387 100.035915492958  L 166.707096774194 91.9021126760563  L 166.126612903226 84.0640845070421  L 166.126612903226 83.7683098591548  L 169.019193548388 77.9612676056337  L 169.599677419355 76.7978873239436  L 174.243548387097 66.0514084507042  L 174.528870967742 65.7654929577465  L 178.297096774194 61.9894366197183  L 180.619032258065 57.6316901408451  L 180.619032258065 57.05  L 182.655645161291 53.5697183098592  L 180.914193548388 49.211971830986  L 180.914193548388 48.9260563380283  L 180.619032258065 48.9260563380283  L 180.619032258065 44.2725352112677  L 178.297096774194 44.2725352112677  L 173.948387096775 46.3035211267606  C 171.921612903227 47.7528169014085  169.019193548388 47.1711267605634  165.250967741936 44.8542253521127  C 163.794838709678 43.6908450704226  163.794838709678 40.7823943661972  164.670483870968 36.4345070422536  L 162.348548387097 36.1485915492959  L 161.187580645162 37.5978873239438  C 158.580322580646 40.5063380281692  156.54370967742 42.2415492957748  155.97306451613 42.2415492957748  C 155.392580645162 42.2415492957748  155.107258064517 42.2415492957748  154.526774193549 41.9457746478875  C 154.241451612904 41.0781690140847  153.660967741936 39.6190140845072  153.660967741936 37.3021126760565  C 153.660967741936 34.6894366197185  153.660967741936 32.9443661971833  154.526774193549 32.3626760563382  C 155.107258064517 31.4950704225354  155.687741935484 31.1992957746481  156.268225806452 31.7809859154931  L 161.777903225807 21.6161971830988  L 163.224193548388 17.8401408450706  L 164.099838709678 13.4823943661974  L 160.912096774194 10.8697183098594  C 160.036451612904 9.99225352112698  159.751129032259 7.96126760563396  160.331612903226 5.05281690140867  L 160.331612903226 3.31760563380305  C 160.331612903226 2.44014084507067  159.751129032259 1.28661971831015  158.590161290323 0.419014084507222  L 158.009677419355 0.419014084507222  L 157.714516129033 1.28661971831003  C 156.84870967742 3.61338028169033  154.812096774194 4.76690140845085  151.634193548388 3.89929577464804  C 150.187903225806 3.33732394366196  148.446451612903 3.33732394366196  146.419677419355 3.9091549295775  Z " stroke-width="2" stroke="#797979" fill="none" transform="matrix(1 0 0 1 1000 820 )" mask="url(#clip24)" />
  </g>
</svg>