<?xml version="1.0" encoding="utf-8"?>
<svg version="1.1" xmlns:xlink="http://www.w3.org/1999/xlink" width="104px" height="106px" xmlns="http://www.w3.org/2000/svg">
  <defs>
    <mask fill="white" id="clip25">
      <path d="M 101.71396226415 28.2126851851852  C 102.577358490566 26.7600925925926  103.156226415094 24.7382407407408  103.156226415094 21.8428703703704  L 101.135094339623 17.2200925925926  L 97.9562264150944 12.5874999999999  L 94.4830188679246 11.7237962962962  L 94.188679245283 11.7237962962962  L 94.188679245283 11.4391666666666  L 93.9041509433963 11.4391666666666  L 91.0196226415094 9.99638888888883  L 90.4407547169811 9.99638888888883  L 89.2830188679245 10.2810185185184  L 85.5252830188679 10.8600925925925  L 85.2309433962264 10.8600925925925  L 84.6520754716981 10.5754629629629  L 80.8943396226415 9.12287037037033  L 80.8943396226415 8.83824074074074  L 80.6098113207547 8.83824074074074  L 80.6098113207547 8.55361111111114  L 77.7252830188678 5.65824074074073  L 74.5464150943395 2.47824074074072  L 71.652075471698 0.75083333333332  L 68.4732075471697 3.63638888888893  L 64.4211320754716 6.53175925925934  L 63.263396226415 15.2080555555557  L 63.263396226415 15.4926851851853  L 59.5056603773584 21.8526851851853  L 59.5056603773584 22.4317592592594  L 59.2211320754716 22.4317592592594  L 56.32679245283 25.3271296296298  L 52.863396226415 31.9815740740742  L 52.5788679245282 32.5606481481483  C 49.9788679245282 34.592314814815  47.663396226415 36.6141666666668  45.3479245283018 38.3415740740742  L 42.4535849056602 43.543425925926  C 41.8747169811319 44.9862037037039  39.5690566037734 46.7234259259261  35.2324528301885 48.4606481481483  L 32.338113207547 53.3778703703705  L 27.4226415094338 60.0323148148149  L 27.138113207547 60.0323148148149  L 27.138113207547 60.3169444444445  L 26.5592452830187 60.3169444444445  L 3.43396226415072 58.8741666666667  L 0.833962264150743 61.4750925925926  L 0.833962264150743 66.3923148148148  L 3.13962264150926 75.9323148148148  L 8.05509433962246 82.8713888888889  L 12.0973584905659 85.1876851851853  L 12.0973584905659 85.4723148148149  L 12.3916981132073 85.4723148148149  C 14.6973584905658 88.3578703703705  15.8550943396224 90.3895370370371  15.8550943396224 91.8323148148149  L 15.8550943396224 95.591388888889  L 14.412830188679 97.0341666666668  L 15.2860377358488 97.6132407407409  L 16.4437735849053 97.6132407407409  L 18.1803773584902 94.1486111111113  L 18.7592452830185 94.1486111111113  L 23.3803773584903 95.5913888888891  L 23.6747169811317 97.0341666666669  L 25.9803773584902 97.0341666666669  L 25.4113207547166 95.3067592592595  L 25.1169811320752 94.7276851851854  L 28.2958490566035 89.8104629629632  C 28.8747169811318 88.3676851851854  30.3169811320751 87.7886111111114  32.3381132075469 88.3676851851854  L 37.5479245283015 88.652314814815  L 40.4422641509431 84.8932407407409  L 40.4422641509431 81.4187962962964  L 41.5999999999996 77.6597222222223  L 41.5999999999996 77.3750925925927  L 41.8845283018864 77.0806481481483  L 42.1690566037732 76.7960185185188  L 44.1999999999996 75.6378703703706  L 44.1999999999996 75.3434259259262  L 44.4845283018864 75.3434259259262  L 44.7788679245278 75.6378703703706  L 49.1154716981127 76.2169444444447  L 49.1154716981127 76.7862037037037  L 49.9886792452825 80.2606481481481  L 49.9886792452825 81.9880555555555  L 50.5675471698108 84.5987962962962  L 51.7252830188674 84.8834259259258  L 53.1773584905655 82.861574074074  L 53.1773584905655 82.5769444444444  L 55.4928301886787 79.3969444444444  L 55.7871698113202 78.8178703703703  L 58.9660377358485 77.3750925925925  L 59.26037735849 77.3750925925925  L 59.5449056603767 77.0806481481481  L 63.3026415094334 78.2387962962962  L 63.5871698113201 78.2387962962962  L 64.1660377358485 78.5332407407406  L 66.1871698113201 82.5769444444443  L 66.1871698113201 86.620648148148  L 69.0815094339617 92.1169444444443  L 69.0815094339617 92.6960185185185  L 69.0815094339617 96.749537037037  L 69.9547169811315 98.4867592592592  L 70.8181132075466 98.4867592592592  L 71.9758490566031 97.0341666666666  L 72.2603773584899 96.4550925925925  L 75.7237735849049 98.4867592592592  L 76.0181132075464 98.4867592592592  L 76.3026415094332 98.4867592592592  L 76.3026415094332 99.0658333333333  L 76.3026415094332 99.3504629629629  L 77.4603773584897 104.267685185185  L 78.9026415094331 105.131388888889  L 79.1969811320746 104.552314814815  L 80.639245283018 100.793240740741  L 80.639245283018 100.498796296296  L 80.9237735849048 99.9197222222221  L 81.2083018867915 99.9197222222221  L 81.502641509433 99.9197222222221  L 83.5237735849046 98.761574074074  L 83.8083018867914 98.761574074074  L 83.8083018867914 98.4769444444444  L 86.4083018867914 98.4769444444444  L 85.8294339622631 97.0243518518518  L 85.8294339622631 96.4452777777776  L 84.3871698113196 82.8517592592591  L 78.8928301886781 73.8908333333332  L 68.4830188679234 61.7499074074073  L 68.1886792452819 61.4652777777777  L 67.6098113207536 53.652685185185  L 64.1366037735838 47.5773148148146  L 64.1366037735838 47.2828703703702  L 63.8422641509423 46.9982407407406  L 64.1366037735838 46.4191666666665  L 65.8732075471687 38.9010185185184  L 66.452075471697 38.9010185185184  L 67.0309433962254 38.9010185185184  L 85.24075471698 37.7428703703703  L 95.0716981132064 32.5410185185185  L 95.3562264150932 32.2563888888889  C 98.8294339622629 31.0982407407408  101.144905660376 29.655462962963  101.71396226415 28.2126851851852  Z " fill-rule="evenodd" />
    </mask>
  </defs>
  <g transform="matrix(1 0 0 1 -1026 -668 )">
    <path d="M 101.71396226415 28.2126851851852  C 102.577358490566 26.7600925925926  103.156226415094 24.7382407407408  103.156226415094 21.8428703703704  L 101.135094339623 17.2200925925926  L 97.9562264150944 12.5874999999999  L 94.4830188679246 11.7237962962962  L 94.188679245283 11.7237962962962  L 94.188679245283 11.4391666666666  L 93.9041509433963 11.4391666666666  L 91.0196226415094 9.99638888888883  L 90.4407547169811 9.99638888888883  L 89.2830188679245 10.2810185185184  L 85.5252830188679 10.8600925925925  L 85.2309433962264 10.8600925925925  L 84.6520754716981 10.5754629629629  L 80.8943396226415 9.12287037037033  L 80.8943396226415 8.83824074074074  L 80.6098113207547 8.83824074074074  L 80.6098113207547 8.55361111111114  L 77.7252830188678 5.65824074074073  L 74.5464150943395 2.47824074074072  L 71.652075471698 0.75083333333332  L 68.4732075471697 3.63638888888893  L 64.4211320754716 6.53175925925934  L 63.263396226415 15.2080555555557  L 63.263396226415 15.4926851851853  L 59.5056603773584 21.8526851851853  L 59.5056603773584 22.4317592592594  L 59.2211320754716 22.4317592592594  L 56.32679245283 25.3271296296298  L 52.863396226415 31.9815740740742  L 52.5788679245282 32.5606481481483  C 49.9788679245282 34.592314814815  47.663396226415 36.6141666666668  45.3479245283018 38.3415740740742  L 42.4535849056602 43.543425925926  C 41.8747169811319 44.9862037037039  39.5690566037734 46.7234259259261  35.2324528301885 48.4606481481483  L 32.338113207547 53.3778703703705  L 27.4226415094338 60.0323148148149  L 27.138113207547 60.0323148148149  L 27.138113207547 60.3169444444445  L 26.5592452830187 60.3169444444445  L 3.43396226415072 58.8741666666667  L 0.833962264150743 61.4750925925926  L 0.833962264150743 66.3923148148148  L 3.13962264150926 75.9323148148148  L 8.05509433962246 82.8713888888889  L 12.0973584905659 85.1876851851853  L 12.0973584905659 85.4723148148149  L 12.3916981132073 85.4723148148149  C 14.6973584905658 88.3578703703705  15.8550943396224 90.3895370370371  15.8550943396224 91.8323148148149  L 15.8550943396224 95.591388888889  L 14.412830188679 97.0341666666668  L 15.2860377358488 97.6132407407409  L 16.4437735849053 97.6132407407409  L 18.1803773584902 94.1486111111113  L 18.7592452830185 94.1486111111113  L 23.3803773584903 95.5913888888891  L 23.6747169811317 97.0341666666669  L 25.9803773584902 97.0341666666669  L 25.4113207547166 95.3067592592595  L 25.1169811320752 94.7276851851854  L 28.2958490566035 89.8104629629632  C 28.8747169811318 88.3676851851854  30.3169811320751 87.7886111111114  32.3381132075469 88.3676851851854  L 37.5479245283015 88.652314814815  L 40.4422641509431 84.8932407407409  L 40.4422641509431 81.4187962962964  L 41.5999999999996 77.6597222222223  L 41.5999999999996 77.3750925925927  L 41.8845283018864 77.0806481481483  L 42.1690566037732 76.7960185185188  L 44.1999999999996 75.6378703703706  L 44.1999999999996 75.3434259259262  L 44.4845283018864 75.3434259259262  L 44.7788679245278 75.6378703703706  L 49.1154716981127 76.2169444444447  L 49.1154716981127 76.7862037037037  L 49.9886792452825 80.2606481481481  L 49.9886792452825 81.9880555555555  L 50.5675471698108 84.5987962962962  L 51.7252830188674 84.8834259259258  L 53.1773584905655 82.861574074074  L 53.1773584905655 82.5769444444444  L 55.4928301886787 79.3969444444444  L 55.7871698113202 78.8178703703703  L 58.9660377358485 77.3750925925925  L 59.26037735849 77.3750925925925  L 59.5449056603767 77.0806481481481  L 63.3026415094334 78.2387962962962  L 63.5871698113201 78.2387962962962  L 64.1660377358485 78.5332407407406  L 66.1871698113201 82.5769444444443  L 66.1871698113201 86.620648148148  L 69.0815094339617 92.1169444444443  L 69.0815094339617 92.6960185185185  L 69.0815094339617 96.749537037037  L 69.9547169811315 98.4867592592592  L 70.8181132075466 98.4867592592592  L 71.9758490566031 97.0341666666666  L 72.2603773584899 96.4550925925925  L 75.7237735849049 98.4867592592592  L 76.0181132075464 98.4867592592592  L 76.3026415094332 98.4867592592592  L 76.3026415094332 99.0658333333333  L 76.3026415094332 99.3504629629629  L 77.4603773584897 104.267685185185  L 78.9026415094331 105.131388888889  L 79.1969811320746 104.552314814815  L 80.639245283018 100.793240740741  L 80.639245283018 100.498796296296  L 80.9237735849048 99.9197222222221  L 81.2083018867915 99.9197222222221  L 81.502641509433 99.9197222222221  L 83.5237735849046 98.761574074074  L 83.8083018867914 98.761574074074  L 83.8083018867914 98.4769444444444  L 86.4083018867914 98.4769444444444  L 85.8294339622631 97.0243518518518  L 85.8294339622631 96.4452777777776  L 84.3871698113196 82.8517592592591  L 78.8928301886781 73.8908333333332  L 68.4830188679234 61.7499074074073  L 68.1886792452819 61.4652777777777  L 67.6098113207536 53.652685185185  L 64.1366037735838 47.5773148148146  L 64.1366037735838 47.2828703703702  L 63.8422641509423 46.9982407407406  L 64.1366037735838 46.4191666666665  L 65.8732075471687 38.9010185185184  L 66.452075471697 38.9010185185184  L 67.0309433962254 38.9010185185184  L 85.24075471698 37.7428703703703  L 95.0716981132064 32.5410185185185  L 95.3562264150932 32.2563888888889  C 98.8294339622629 31.0982407407408  101.144905660376 29.655462962963  101.71396226415 28.2126851851852  Z " fill-rule="nonzero" fill="#0533aa" stroke="none" fill-opacity="0.482352941176471" transform="matrix(1 0 0 1 1026 668 )" />
    <path d="M 101.71396226415 28.2126851851852  C 102.577358490566 26.7600925925926  103.156226415094 24.7382407407408  103.156226415094 21.8428703703704  L 101.135094339623 17.2200925925926  L 97.9562264150944 12.5874999999999  L 94.4830188679246 11.7237962962962  L 94.188679245283 11.7237962962962  L 94.188679245283 11.4391666666666  L 93.9041509433963 11.4391666666666  L 91.0196226415094 9.99638888888883  L 90.4407547169811 9.99638888888883  L 89.2830188679245 10.2810185185184  L 85.5252830188679 10.8600925925925  L 85.2309433962264 10.8600925925925  L 84.6520754716981 10.5754629629629  L 80.8943396226415 9.12287037037033  L 80.8943396226415 8.83824074074074  L 80.6098113207547 8.83824074074074  L 80.6098113207547 8.55361111111114  L 77.7252830188678 5.65824074074073  L 74.5464150943395 2.47824074074072  L 71.652075471698 0.75083333333332  L 68.4732075471697 3.63638888888893  L 64.4211320754716 6.53175925925934  L 63.263396226415 15.2080555555557  L 63.263396226415 15.4926851851853  L 59.5056603773584 21.8526851851853  L 59.5056603773584 22.4317592592594  L 59.2211320754716 22.4317592592594  L 56.32679245283 25.3271296296298  L 52.863396226415 31.9815740740742  L 52.5788679245282 32.5606481481483  C 49.9788679245282 34.592314814815  47.663396226415 36.6141666666668  45.3479245283018 38.3415740740742  L 42.4535849056602 43.543425925926  C 41.8747169811319 44.9862037037039  39.5690566037734 46.7234259259261  35.2324528301885 48.4606481481483  L 32.338113207547 53.3778703703705  L 27.4226415094338 60.0323148148149  L 27.138113207547 60.0323148148149  L 27.138113207547 60.3169444444445  L 26.5592452830187 60.3169444444445  L 3.43396226415072 58.8741666666667  L 0.833962264150743 61.4750925925926  L 0.833962264150743 66.3923148148148  L 3.13962264150926 75.9323148148148  L 8.05509433962246 82.8713888888889  L 12.0973584905659 85.1876851851853  L 12.0973584905659 85.4723148148149  L 12.3916981132073 85.4723148148149  C 14.6973584905658 88.3578703703705  15.8550943396224 90.3895370370371  15.8550943396224 91.8323148148149  L 15.8550943396224 95.591388888889  L 14.412830188679 97.0341666666668  L 15.2860377358488 97.6132407407409  L 16.4437735849053 97.6132407407409  L 18.1803773584902 94.1486111111113  L 18.7592452830185 94.1486111111113  L 23.3803773584903 95.5913888888891  L 23.6747169811317 97.0341666666669  L 25.9803773584902 97.0341666666669  L 25.4113207547166 95.3067592592595  L 25.1169811320752 94.7276851851854  L 28.2958490566035 89.8104629629632  C 28.8747169811318 88.3676851851854  30.3169811320751 87.7886111111114  32.3381132075469 88.3676851851854  L 37.5479245283015 88.652314814815  L 40.4422641509431 84.8932407407409  L 40.4422641509431 81.4187962962964  L 41.5999999999996 77.6597222222223  L 41.5999999999996 77.3750925925927  L 41.8845283018864 77.0806481481483  L 42.1690566037732 76.7960185185188  L 44.1999999999996 75.6378703703706  L 44.1999999999996 75.3434259259262  L 44.4845283018864 75.3434259259262  L 44.7788679245278 75.6378703703706  L 49.1154716981127 76.2169444444447  L 49.1154716981127 76.7862037037037  L 49.9886792452825 80.2606481481481  L 49.9886792452825 81.9880555555555  L 50.5675471698108 84.5987962962962  L 51.7252830188674 84.8834259259258  L 53.1773584905655 82.861574074074  L 53.1773584905655 82.5769444444444  L 55.4928301886787 79.3969444444444  L 55.7871698113202 78.8178703703703  L 58.9660377358485 77.3750925925925  L 59.26037735849 77.3750925925925  L 59.5449056603767 77.0806481481481  L 63.3026415094334 78.2387962962962  L 63.5871698113201 78.2387962962962  L 64.1660377358485 78.5332407407406  L 66.1871698113201 82.5769444444443  L 66.1871698113201 86.620648148148  L 69.0815094339617 92.1169444444443  L 69.0815094339617 92.6960185185185  L 69.0815094339617 96.749537037037  L 69.9547169811315 98.4867592592592  L 70.8181132075466 98.4867592592592  L 71.9758490566031 97.0341666666666  L 72.2603773584899 96.4550925925925  L 75.7237735849049 98.4867592592592  L 76.0181132075464 98.4867592592592  L 76.3026415094332 98.4867592592592  L 76.3026415094332 99.0658333333333  L 76.3026415094332 99.3504629629629  L 77.4603773584897 104.267685185185  L 78.9026415094331 105.131388888889  L 79.1969811320746 104.552314814815  L 80.639245283018 100.793240740741  L 80.639245283018 100.498796296296  L 80.9237735849048 99.9197222222221  L 81.2083018867915 99.9197222222221  L 81.502641509433 99.9197222222221  L 83.5237735849046 98.761574074074  L 83.8083018867914 98.761574074074  L 83.8083018867914 98.4769444444444  L 86.4083018867914 98.4769444444444  L 85.8294339622631 97.0243518518518  L 85.8294339622631 96.4452777777776  L 84.3871698113196 82.8517592592591  L 78.8928301886781 73.8908333333332  L 68.4830188679234 61.7499074074073  L 68.1886792452819 61.4652777777777  L 67.6098113207536 53.652685185185  L 64.1366037735838 47.5773148148146  L 64.1366037735838 47.2828703703702  L 63.8422641509423 46.9982407407406  L 64.1366037735838 46.4191666666665  L 65.8732075471687 38.9010185185184  L 66.452075471697 38.9010185185184  L 67.0309433962254 38.9010185185184  L 85.24075471698 37.7428703703703  L 95.0716981132064 32.5410185185185  L 95.3562264150932 32.2563888888889  C 98.8294339622629 31.0982407407408  101.144905660376 29.655462962963  101.71396226415 28.2126851851852  Z " stroke-width="2" stroke="#797979" fill="none" transform="matrix(1 0 0 1 1026 668 )" mask="url(#clip25)" />
  </g>
</svg>