<?xml version="1.0" encoding="utf-8"?>
<svg version="1.1" xmlns:xlink="http://www.w3.org/1999/xlink" width="126px" height="146px" xmlns="http://www.w3.org/2000/svg">
  <defs>
    <mask fill="white" id="clip32">
      <path d="M 111.6871875 26.1369594594595  L 109.09828125 25.2984459459459  L 109.38375 25.0123648648649  L 108.80296875 25.0123648648649  L 108.80296875 24.4303378378378  L 106.47984375 20.0700675675676  L 106.18453125 19.7839864864866  L 106.18453125 19.2019594594595  L 106.7653125 12.2275  C 106.7653125 11.3593918918919  105.88921875 10.4814189189189  104.146875 9.3173648648648  L 102.40453125 9.3173648648648  L 99.51046875 12.8095270270269  L 99.2151562500001 12.8095270270269  L 91.9701562500001 16.3016891891891  L 90.8085937500001 11.3593918918918  L 90.8085937500001 10.7773648648647  L 91.3893750000001 8.44925675675659  L 90.8085937500001 5.53912162162141  L 89.9423437500001 5.25304054054036  L 88.7807812500002 7.58114864864848  L 88.4854687500002 7.58114864864848  L 88.4854687500002 7.86722972972953  L 79.4981250000002 15.719662162162  L 79.2028125000003 16.3016891891891  L 78.9173437500003 16.3016891891891  L 78.3365625000003 16.3016891891891  L 77.7557812500002 16.3016891891891  L 75.1373437500003 15.137635135135  L 74.8518750000003 14.851554054054  L 71.9479687500003 12.2275  L 67.3115625000002 10.4814189189189  L 67.0260937500003 10.185472972973  L 64.1221875000002 8.15331081081091  L 54.5540625000002 6.11128378378383  L 54.2685937500002 6.11128378378383  L 47.8800000000002 2.91506756756761  L 47.8800000000002 3.20114864864865  L 42.9482812500002 0.882905405405388  L 36.5695312500002 0.300878378378329  L 34.2464062500002 0.586959459459374  L 36.2742187500001 11.3396621621621  L 35.3981250000001 11.3396621621621  L 29.0193750000001 11.9216891891891  L 25.5445312500002 11.9216891891891  L 25.2590625000002 11.9216891891891  L 21.7743750000002 9.59358108108099  L 15.9764062500002 12.2077702702702  L 10.7592187500003 19.1822297297297  L 6.12281250000025 31.6810135135134  L 7.56984375000028 45.3438513513513  L 9.59765625000022 53.1864189189189  C 9.88312500000019 54.054527027027  9.88312500000019 54.3504729729729  9.59765625000022 54.636554054054  L 8.72156250000024 54.9324999999999  C 7.27453125000021 55.800608108108  6.69375000000029 57.8426351351351  6.97921875000026 60.7429054054053  L 9.8831250000003 72.6596621621621  L 9.0168750000003 73.2416891891892  C 3.78984375000036 76.1518243243244  1.18125000000027 78.4700675675675  0.885937500000313 79.6341216216216  L 0.305156250000282 83.698445945946  L 5.23687500000027 81.6662837837839  L 5.52234375000024 81.370337837838  L 5.81765625000019 81.370337837838  C 9.30234375000016 81.370337837838  11.3301562500002 82.534391891892  11.6156250000002 85.4445270270271  L 12.4917187500002 91.8369594594596  L 12.2062500000002 92.7050675675677  L 11.6254687500002 93.2870945945948  C 10.7592187500002 94.1552027027029  10.1784375000001 95.0331756756758  10.1784375000001 96.1972297297299  L 9.31218750000015 102.885608108108  C 9.59765625000011 105.213716216216  10.4737500000001 106.959797297297  11.6254687500002 107.827905405406  L 17.7187500000002 115.098310810811  L 23.2312500000002 110.738040540541  L 27.5821875000002 110.156013513514  L 27.8775000000002 110.156013513514  L 28.1629687500001 110.738040540541  L 31.0668750000002 111.606148648649  C 31.9331250000002 111.606148648649  32.8092187500002 111.320067567568  33.6754687500001 110.442094594595  L 36.2840625000001 106.663851351352  L 35.7032812500001 104.345608108108  C 36.2840625000001 103.4775  37.1503125000001 102.895472972973  38.3118750000001 102.313445945946  L 45.2812500000001 102.313445945946  C 46.4329687500001 102.895472972973  47.3090625000001 102.609391891892  47.3090625000001 102.027364864865  C 48.18515625 99.9952027027031  49.05140625 99.11722972973  49.91765625 98.535202702703  C 50.79375 98.535202702703  52.24078125 98.8212837837841  53.10703125 99.699256756757  C 55.13484375 101.445337837838  56.581875 102.895472972973  56.581875 104.927635135135  L 56.00109375 110.156013513514  L 57.1626562499999 111.024121621622  C 58.9049999999999 112.484121621622  60.0665625 113.934256756757  60.0665625 115.098310810811  L 58.905 120.326689189189  C 58.03875 123.22695945946  57.16265625 125.268986486487  56.00109375 125.851013513514  L 56.00109375 125.555067567568  L 51.65015625 134.857635135135  L 53.10703125 135.439662162162  L 60.0665625000001 135.725743243243  L 61.5135937500001 136.30777027027  L 60.9328125000001 137.471824324324  C 60.0665625000001 140.372094594595  59.7712500000001 142.404256756757  60.0665625000001 143.864256756757  C 62.3798437500001 145.314391891892  63.8367187500001 146.192364864865  64.7029687500001 145.314391891892  L 68.7684375000001 143.568310810811  L 70.7962500000001 142.700202702703  L 74.5664062500001 142.700202702703  L 78.3365625000002 138.635878378379  L 78.3365625000002 133.693581081081  C 78.0510937500002 131.9475  78.3365625000002 130.783445945946  78.9173437500002 129.915337837838  C 80.0789062500001 129.04722972973  82.3921875000002 129.04722972973  85.8867187500002 131.079391891892  L 92.8462500000003 135.439662162162  C 95.1693750000003 137.185743243243  96.9018750000003 137.76777027027  98.0634375000002 137.76777027027  L 98.0634375000002 137.481689189189  C 98.6442187500003 136.317635135135  98.0634375000002 133.989527027027  96.6164062500002 131.089256756757  L 92.8462500000002 125.268986486487  L 92.8462500000002 124.68695945946  L 93.1415625000001 124.68695945946  L 93.4270312500001 124.104932432433  C 97.1971875000001 118.876554054054  101.2528125 117.130472972973  105.8990625 118.876554054054  L 116.62875 123.818851351351  L 120.9796875 120.908716216216  L 121.26515625 120.908716216216  L 121.26515625 120.61277027027  L 121.26515625 120.326689189189  L 120.684375 119.744662162162  L 120.9796875 119.448716216216  L 121.26515625 118.866689189189  C 124.74 113.056283783784  125.9015625 108.696013513514  124.74 106.367905405406  C 123.86390625 104.335743243243  122.416875 103.467635135135  121.26515625 103.467635135135  L 120.39890625 103.467635135135  L 119.818125 100.5575  L 120.39890625 100.5575  C 122.42671875 99.689391891892  123.58828125 98.811418918919  123.87375 97.6473648648649  L 122.99765625 96.1972297297297  L 118.36125 91.8369594594595  L 118.36125 91.5410135135136  L 116.038125 85.1485810810811  C 115.16203125 80.2062837837839  114.58125 75.8460135135136  115.16203125 71.7718243243244  L 115.16203125 68.8715540540541  L 112.26796875 71.4857432432433  L 109.64953125 74.3958783783784  L 108.78328125 62.1831756756758  L 108.78328125 61.6011486486487  L 109.07859375 61.6011486486487  C 115.45734375 52.2985810810812  119.80828125 46.7742567567568  121.2553125 45.3241216216217  L 118.35140625 36.6035810810811  C 117.4753125 32.2433108108109  116.904375 29.6291216216216  116.904375 28.4650675675676  L 111.6871875 26.1369594594595  Z " fill-rule="evenodd" />
    </mask>
  </defs>
  <g transform="matrix(1 0 0 1 -1108 -719 )">
    <path d="M 111.6871875 26.1369594594595  L 109.09828125 25.2984459459459  L 109.38375 25.0123648648649  L 108.80296875 25.0123648648649  L 108.80296875 24.4303378378378  L 106.47984375 20.0700675675676  L 106.18453125 19.7839864864866  L 106.18453125 19.2019594594595  L 106.7653125 12.2275  C 106.7653125 11.3593918918919  105.88921875 10.4814189189189  104.146875 9.3173648648648  L 102.40453125 9.3173648648648  L 99.51046875 12.8095270270269  L 99.2151562500001 12.8095270270269  L 91.9701562500001 16.3016891891891  L 90.8085937500001 11.3593918918918  L 90.8085937500001 10.7773648648647  L 91.3893750000001 8.44925675675659  L 90.8085937500001 5.53912162162141  L 89.9423437500001 5.25304054054036  L 88.7807812500002 7.58114864864848  L 88.4854687500002 7.58114864864848  L 88.4854687500002 7.86722972972953  L 79.4981250000002 15.719662162162  L 79.2028125000003 16.3016891891891  L 78.9173437500003 16.3016891891891  L 78.3365625000003 16.3016891891891  L 77.7557812500002 16.3016891891891  L 75.1373437500003 15.137635135135  L 74.8518750000003 14.851554054054  L 71.9479687500003 12.2275  L 67.3115625000002 10.4814189189189  L 67.0260937500003 10.185472972973  L 64.1221875000002 8.15331081081091  L 54.5540625000002 6.11128378378383  L 54.2685937500002 6.11128378378383  L 47.8800000000002 2.91506756756761  L 47.8800000000002 3.20114864864865  L 42.9482812500002 0.882905405405388  L 36.5695312500002 0.300878378378329  L 34.2464062500002 0.586959459459374  L 36.2742187500001 11.3396621621621  L 35.3981250000001 11.3396621621621  L 29.0193750000001 11.9216891891891  L 25.5445312500002 11.9216891891891  L 25.2590625000002 11.9216891891891  L 21.7743750000002 9.59358108108099  L 15.9764062500002 12.2077702702702  L 10.7592187500003 19.1822297297297  L 6.12281250000025 31.6810135135134  L 7.56984375000028 45.3438513513513  L 9.59765625000022 53.1864189189189  C 9.88312500000019 54.054527027027  9.88312500000019 54.3504729729729  9.59765625000022 54.636554054054  L 8.72156250000024 54.9324999999999  C 7.27453125000021 55.800608108108  6.69375000000029 57.8426351351351  6.97921875000026 60.7429054054053  L 9.8831250000003 72.6596621621621  L 9.0168750000003 73.2416891891892  C 3.78984375000036 76.1518243243244  1.18125000000027 78.4700675675675  0.885937500000313 79.6341216216216  L 0.305156250000282 83.698445945946  L 5.23687500000027 81.6662837837839  L 5.52234375000024 81.370337837838  L 5.81765625000019 81.370337837838  C 9.30234375000016 81.370337837838  11.3301562500002 82.534391891892  11.6156250000002 85.4445270270271  L 12.4917187500002 91.8369594594596  L 12.2062500000002 92.7050675675677  L 11.6254687500002 93.2870945945948  C 10.7592187500002 94.1552027027029  10.1784375000001 95.0331756756758  10.1784375000001 96.1972297297299  L 9.31218750000015 102.885608108108  C 9.59765625000011 105.213716216216  10.4737500000001 106.959797297297  11.6254687500002 107.827905405406  L 17.7187500000002 115.098310810811  L 23.2312500000002 110.738040540541  L 27.5821875000002 110.156013513514  L 27.8775000000002 110.156013513514  L 28.1629687500001 110.738040540541  L 31.0668750000002 111.606148648649  C 31.9331250000002 111.606148648649  32.8092187500002 111.320067567568  33.6754687500001 110.442094594595  L 36.2840625000001 106.663851351352  L 35.7032812500001 104.345608108108  C 36.2840625000001 103.4775  37.1503125000001 102.895472972973  38.3118750000001 102.313445945946  L 45.2812500000001 102.313445945946  C 46.4329687500001 102.895472972973  47.3090625000001 102.609391891892  47.3090625000001 102.027364864865  C 48.18515625 99.9952027027031  49.05140625 99.11722972973  49.91765625 98.535202702703  C 50.79375 98.535202702703  52.24078125 98.8212837837841  53.10703125 99.699256756757  C 55.13484375 101.445337837838  56.581875 102.895472972973  56.581875 104.927635135135  L 56.00109375 110.156013513514  L 57.1626562499999 111.024121621622  C 58.9049999999999 112.484121621622  60.0665625 113.934256756757  60.0665625 115.098310810811  L 58.905 120.326689189189  C 58.03875 123.22695945946  57.16265625 125.268986486487  56.00109375 125.851013513514  L 56.00109375 125.555067567568  L 51.65015625 134.857635135135  L 53.10703125 135.439662162162  L 60.0665625000001 135.725743243243  L 61.5135937500001 136.30777027027  L 60.9328125000001 137.471824324324  C 60.0665625000001 140.372094594595  59.7712500000001 142.404256756757  60.0665625000001 143.864256756757  C 62.3798437500001 145.314391891892  63.8367187500001 146.192364864865  64.7029687500001 145.314391891892  L 68.7684375000001 143.568310810811  L 70.7962500000001 142.700202702703  L 74.5664062500001 142.700202702703  L 78.3365625000002 138.635878378379  L 78.3365625000002 133.693581081081  C 78.0510937500002 131.9475  78.3365625000002 130.783445945946  78.9173437500002 129.915337837838  C 80.0789062500001 129.04722972973  82.3921875000002 129.04722972973  85.8867187500002 131.079391891892  L 92.8462500000003 135.439662162162  C 95.1693750000003 137.185743243243  96.9018750000003 137.76777027027  98.0634375000002 137.76777027027  L 98.0634375000002 137.481689189189  C 98.6442187500003 136.317635135135  98.0634375000002 133.989527027027  96.6164062500002 131.089256756757  L 92.8462500000002 125.268986486487  L 92.8462500000002 124.68695945946  L 93.1415625000001 124.68695945946  L 93.4270312500001 124.104932432433  C 97.1971875000001 118.876554054054  101.2528125 117.130472972973  105.8990625 118.876554054054  L 116.62875 123.818851351351  L 120.9796875 120.908716216216  L 121.26515625 120.908716216216  L 121.26515625 120.61277027027  L 121.26515625 120.326689189189  L 120.684375 119.744662162162  L 120.9796875 119.448716216216  L 121.26515625 118.866689189189  C 124.74 113.056283783784  125.9015625 108.696013513514  124.74 106.367905405406  C 123.86390625 104.335743243243  122.416875 103.467635135135  121.26515625 103.467635135135  L 120.39890625 103.467635135135  L 119.818125 100.5575  L 120.39890625 100.5575  C 122.42671875 99.689391891892  123.58828125 98.811418918919  123.87375 97.6473648648649  L 122.99765625 96.1972297297297  L 118.36125 91.8369594594595  L 118.36125 91.5410135135136  L 116.038125 85.1485810810811  C 115.16203125 80.2062837837839  114.58125 75.8460135135136  115.16203125 71.7718243243244  L 115.16203125 68.8715540540541  L 112.26796875 71.4857432432433  L 109.64953125 74.3958783783784  L 108.78328125 62.1831756756758  L 108.78328125 61.6011486486487  L 109.07859375 61.6011486486487  C 115.45734375 52.2985810810812  119.80828125 46.7742567567568  121.2553125 45.3241216216217  L 118.35140625 36.6035810810811  C 117.4753125 32.2433108108109  116.904375 29.6291216216216  116.904375 28.4650675675676  L 111.6871875 26.1369594594595  Z " fill-rule="nonzero" fill="#20dbea" stroke="none" fill-opacity="0.4" transform="matrix(1 0 0 1 1108 719 )" />
    <path d="M 111.6871875 26.1369594594595  L 109.09828125 25.2984459459459  L 109.38375 25.0123648648649  L 108.80296875 25.0123648648649  L 108.80296875 24.4303378378378  L 106.47984375 20.0700675675676  L 106.18453125 19.7839864864866  L 106.18453125 19.2019594594595  L 106.7653125 12.2275  C 106.7653125 11.3593918918919  105.88921875 10.4814189189189  104.146875 9.3173648648648  L 102.40453125 9.3173648648648  L 99.51046875 12.8095270270269  L 99.2151562500001 12.8095270270269  L 91.9701562500001 16.3016891891891  L 90.8085937500001 11.3593918918918  L 90.8085937500001 10.7773648648647  L 91.3893750000001 8.44925675675659  L 90.8085937500001 5.53912162162141  L 89.9423437500001 5.25304054054036  L 88.7807812500002 7.58114864864848  L 88.4854687500002 7.58114864864848  L 88.4854687500002 7.86722972972953  L 79.4981250000002 15.719662162162  L 79.2028125000003 16.3016891891891  L 78.9173437500003 16.3016891891891  L 78.3365625000003 16.3016891891891  L 77.7557812500002 16.3016891891891  L 75.1373437500003 15.137635135135  L 74.8518750000003 14.851554054054  L 71.9479687500003 12.2275  L 67.3115625000002 10.4814189189189  L 67.0260937500003 10.185472972973  L 64.1221875000002 8.15331081081091  L 54.5540625000002 6.11128378378383  L 54.2685937500002 6.11128378378383  L 47.8800000000002 2.91506756756761  L 47.8800000000002 3.20114864864865  L 42.9482812500002 0.882905405405388  L 36.5695312500002 0.300878378378329  L 34.2464062500002 0.586959459459374  L 36.2742187500001 11.3396621621621  L 35.3981250000001 11.3396621621621  L 29.0193750000001 11.9216891891891  L 25.5445312500002 11.9216891891891  L 25.2590625000002 11.9216891891891  L 21.7743750000002 9.59358108108099  L 15.9764062500002 12.2077702702702  L 10.7592187500003 19.1822297297297  L 6.12281250000025 31.6810135135134  L 7.56984375000028 45.3438513513513  L 9.59765625000022 53.1864189189189  C 9.88312500000019 54.054527027027  9.88312500000019 54.3504729729729  9.59765625000022 54.636554054054  L 8.72156250000024 54.9324999999999  C 7.27453125000021 55.800608108108  6.69375000000029 57.8426351351351  6.97921875000026 60.7429054054053  L 9.8831250000003 72.6596621621621  L 9.0168750000003 73.2416891891892  C 3.78984375000036 76.1518243243244  1.18125000000027 78.4700675675675  0.885937500000313 79.6341216216216  L 0.305156250000282 83.698445945946  L 5.23687500000027 81.6662837837839  L 5.52234375000024 81.370337837838  L 5.81765625000019 81.370337837838  C 9.30234375000016 81.370337837838  11.3301562500002 82.534391891892  11.6156250000002 85.4445270270271  L 12.4917187500002 91.8369594594596  L 12.2062500000002 92.7050675675677  L 11.6254687500002 93.2870945945948  C 10.7592187500002 94.1552027027029  10.1784375000001 95.0331756756758  10.1784375000001 96.1972297297299  L 9.31218750000015 102.885608108108  C 9.59765625000011 105.213716216216  10.4737500000001 106.959797297297  11.6254687500002 107.827905405406  L 17.7187500000002 115.098310810811  L 23.2312500000002 110.738040540541  L 27.5821875000002 110.156013513514  L 27.8775000000002 110.156013513514  L 28.1629687500001 110.738040540541  L 31.0668750000002 111.606148648649  C 31.9331250000002 111.606148648649  32.8092187500002 111.320067567568  33.6754687500001 110.442094594595  L 36.2840625000001 106.663851351352  L 35.7032812500001 104.345608108108  C 36.2840625000001 103.4775  37.1503125000001 102.895472972973  38.3118750000001 102.313445945946  L 45.2812500000001 102.313445945946  C 46.4329687500001 102.895472972973  47.3090625000001 102.609391891892  47.3090625000001 102.027364864865  C 48.18515625 99.9952027027031  49.05140625 99.11722972973  49.91765625 98.535202702703  C 50.79375 98.535202702703  52.24078125 98.8212837837841  53.10703125 99.699256756757  C 55.13484375 101.445337837838  56.581875 102.895472972973  56.581875 104.927635135135  L 56.00109375 110.156013513514  L 57.1626562499999 111.024121621622  C 58.9049999999999 112.484121621622  60.0665625 113.934256756757  60.0665625 115.098310810811  L 58.905 120.326689189189  C 58.03875 123.22695945946  57.16265625 125.268986486487  56.00109375 125.851013513514  L 56.00109375 125.555067567568  L 51.65015625 134.857635135135  L 53.10703125 135.439662162162  L 60.0665625000001 135.725743243243  L 61.5135937500001 136.30777027027  L 60.9328125000001 137.471824324324  C 60.0665625000001 140.372094594595  59.7712500000001 142.404256756757  60.0665625000001 143.864256756757  C 62.3798437500001 145.314391891892  63.8367187500001 146.192364864865  64.7029687500001 145.314391891892  L 68.7684375000001 143.568310810811  L 70.7962500000001 142.700202702703  L 74.5664062500001 142.700202702703  L 78.3365625000002 138.635878378379  L 78.3365625000002 133.693581081081  C 78.0510937500002 131.9475  78.3365625000002 130.783445945946  78.9173437500002 129.915337837838  C 80.0789062500001 129.04722972973  82.3921875000002 129.04722972973  85.8867187500002 131.079391891892  L 92.8462500000003 135.439662162162  C 95.1693750000003 137.185743243243  96.9018750000003 137.76777027027  98.0634375000002 137.76777027027  L 98.0634375000002 137.481689189189  C 98.6442187500003 136.317635135135  98.0634375000002 133.989527027027  96.6164062500002 131.089256756757  L 92.8462500000002 125.268986486487  L 92.8462500000002 124.68695945946  L 93.1415625000001 124.68695945946  L 93.4270312500001 124.104932432433  C 97.1971875000001 118.876554054054  101.2528125 117.130472972973  105.8990625 118.876554054054  L 116.62875 123.818851351351  L 120.9796875 120.908716216216  L 121.26515625 120.908716216216  L 121.26515625 120.61277027027  L 121.26515625 120.326689189189  L 120.684375 119.744662162162  L 120.9796875 119.448716216216  L 121.26515625 118.866689189189  C 124.74 113.056283783784  125.9015625 108.696013513514  124.74 106.367905405406  C 123.86390625 104.335743243243  122.416875 103.467635135135  121.26515625 103.467635135135  L 120.39890625 103.467635135135  L 119.818125 100.5575  L 120.39890625 100.5575  C 122.42671875 99.689391891892  123.58828125 98.811418918919  123.87375 97.6473648648649  L 122.99765625 96.1972297297297  L 118.36125 91.8369594594595  L 118.36125 91.5410135135136  L 116.038125 85.1485810810811  C 115.16203125 80.2062837837839  114.58125 75.8460135135136  115.16203125 71.7718243243244  L 115.16203125 68.8715540540541  L 112.26796875 71.4857432432433  L 109.64953125 74.3958783783784  L 108.78328125 62.1831756756758  L 108.78328125 61.6011486486487  L 109.07859375 61.6011486486487  C 115.45734375 52.2985810810812  119.80828125 46.7742567567568  121.2553125 45.3241216216217  L 118.35140625 36.6035810810811  C 117.4753125 32.2433108108109  116.904375 29.6291216216216  116.904375 28.4650675675676  L 111.6871875 26.1369594594595  Z " stroke-width="2" stroke="#797979" fill="none" transform="matrix(1 0 0 1 1108 719 )" mask="url(#clip32)" />
  </g>
</svg>