<?xml version="1.0" encoding="utf-8"?>
<svg version="1.1" xmlns:xlink="http://www.w3.org/1999/xlink" width="112px" height="150px" xmlns="http://www.w3.org/2000/svg">
  <defs>
    <mask fill="white" id="clip37">
      <path d="M 96.5754385964915 6.66176470588209  L 87.3108771929825 5.78921568627448  L 87.0259649122807 5.4950980392157  L 80.659649122807 0.00490196078430927  L 77.1915789473685 1.74019607843135  C 74.8729824561404 6.93627450980385  71.6898245614035 10.1127450980392  67.6322807017544 11.563725490196  C 66.4729824561404 12.1421568627451  65.0287719298246 11.8578431372548  64.1642105263159 10.985294117647  C 63.0049122807019 9.54411764705873  63.5845614035088 6.3578431372548  65.6182456140352 1.45588235294108  L 56.0589473684211 7.52450980392152  L 55.7740350877194 8.10294117647057  L 55.4792982456142 8.10294117647057  L 47.0891228070177 8.10294117647057  L 39.56350877193 11.8578431372549  L 39.56350877193 12.436274509804  L 31.4582456140353 12.7205882352941  L 27.1157894736845 15.0343137254902  L 25.0919298245617 19.0833333333334  L 24.5122807017547 19.6617647058824  L 14.9628070175441 19.6617647058824  C 13.2238596491231 19.6617647058824  9.46105263157917 22.5441176470589  3.37964912280729 28.6127450980393  C 6.27789473684243 29.7696078431373  7.72210526315813 30.9264705882354  8.30175438596518 31.7990196078432  L 8.5866666666669 33.5343137254902  L 8.5866666666669 33.2500000000001  L 12.9291228070177 49.4264705882354  L 13.2140350877195 50.2892156862746  L 13.2140350877195 51.4460784313726  L 12.9291228070177 51.4460784313726  L 12.3494736842107 51.7303921568627  L 12.064561403509 51.7303921568627  L 0.491228070175662 67.6127450980392  L 1.07087719298271 71.6617647058824  C 2.80000000000025 70.2205882352941  4.25403508771956 69.9264705882353  5.41333333333355 70.5049019607844  C 6.85754385964936 71.0833333333334  7.4371929824563 73.3970588235295  6.85754385964936 76.857843137255  C 6.27789473684232 82.3480392156864  7.15228070175458 88.4166666666667  9.7557894736845 94.1911764705883  L 13.8133333333336 98.5245098039216  C 15.2575438596494 99.9656862745098  15.8371929824564 101.406862745098  15.5424561403512 102.857843137255  L 13.5185964912284 105.75  L 16.1221052631582 109.210784313725  C 17.566315789474 112.102941176471  16.4168421052634 117.004901960784  12.9389473684213 123.946078431373  L 16.7017543859652 130.299019607843  L 17.2814035087723 131.75  L 19.5901754385969 130.299019607843  C 23.3529824561408 126.838235294118  26.5361403508776 125.96568627451  29.1396491228074 126.838235294118  C 30.8785964912285 127.416666666667  31.7529824561407 128.857843137255  32.0378947368426 130.299019607843  C 32.3326315789478 132.328431372549  30.0140350877198 135.789215686275  24.7971929824566 140.985294117647  L 20.749473684211 146.18137254902  L 22.7733333333337 149.357843137255  C 25.6617543859654 146.759803921569  27.9803508771933 145.897058823529  29.4343859649127 146.46568627451  C 31.1733333333337 146.46568627451  36.0856140350881 144.730392156863  44.4856140350881 140.406862745098  C 47.0989473684214 138.96568627451  50.5670175438601 140.406862745098  54.909473684211 144.740196078431  L 56.648421052632 143.877450980392  L 56.3536842105268 140.416666666667  L 55.489122807018 139.838235294118  C 54.909473684211 138.975490196078  55.489122807018 138.10294117647  56.3536842105268 137.240196078431  L 54.909473684211 131.75  C 54.6147368421057 130.877450980392  54.6147368421057 129.720588235294  54.909473684211 128.857843137255  C 55.7838596491232 127.995098039216  56.9333333333337 127.416666666666  58.0926315789478 126.838235294118  L 60.7059649122811 124.524509803921  L 59.2519298245618 121.053921568627  L 59.2519298245618 120.769607843137  L 59.5368421052635 120.769607843137  L 59.5368421052635 120.475490196078  C 60.6961403508775 118.740196078431  60.6961403508775 117.299019607843  60.4014035087723 116.426470588235  C 59.2421052631583 114.406862745098  60.1164912280706 112.96568627451  62.425263157895 110.936274509804  L 65.6182456140354 108.053921568627  L 65.0385964912283 107.475490196078  L 64.1642105263161 106.612745098039  L 67.92701754386 104.877450980392  L 67.92701754386 100.25  C 67.92701754386 98.5245098039215  69.3712280701758 96.2107843137254  73.4189473684214 93.3186274509802  L 75.1578947368424 91.877450980392  L 70.8154385964916 86.9656862745096  C 69.3712280701758 84.9460784313724  69.9508771929828 82.3480392156861  72.5445614035092 79.7401960784312  L 72.5445614035092 79.1617647058821  L 81.5242105263161 71.6519607843135  L 81.8189473684214 69.6323529411763  C 80.0800000000003 69.0539215686273  79.5003508771933 65.877450980392  80.3747368421055 60.9656862745096  C 81.5340350877195 53.1617647058822  85.0021052631582 49.4166666666665  91.0835087719301 48.5441176470587  L 91.6631578947371 48.5441176470587  L 95.425964912281 50.5637254901959  L 99.4835087719301 50.5637254901959  L 103.246315789474 45.9362745098037  L 103.531228070176 45.6519607843136  L 108.158596491228 42.7598039215684  L 107.578947368421 38.7205882352939  L 107.578947368421 37.8578431372547  L 108.158596491228 37.2794117647056  L 109.317894736842 36.7009803921566  L 110.762105263158 34.9656862745095  L 111.04701754386 34.6813725490194  L 108.148771929825 29.769607843137  C 105.25052631579 26.0147058823527  102.64701754386 22.5441176470586  100.917894736842 18.5049019607841  C 99.4736842105265 15.9068627450978  99.7585964912284 13.0147058823527  101.792280701755 9.83823529411739  L 96.5754385964915 6.66176470588209  Z " fill-rule="evenodd" />
    </mask>
  </defs>
  <g transform="matrix(1 0 0 1 -1219 -714 )">
    <path d="M 96.5754385964915 6.66176470588209  L 87.3108771929825 5.78921568627448  L 87.0259649122807 5.4950980392157  L 80.659649122807 0.00490196078430927  L 77.1915789473685 1.74019607843135  C 74.8729824561404 6.93627450980385  71.6898245614035 10.1127450980392  67.6322807017544 11.563725490196  C 66.4729824561404 12.1421568627451  65.0287719298246 11.8578431372548  64.1642105263159 10.985294117647  C 63.0049122807019 9.54411764705873  63.5845614035088 6.3578431372548  65.6182456140352 1.45588235294108  L 56.0589473684211 7.52450980392152  L 55.7740350877194 8.10294117647057  L 55.4792982456142 8.10294117647057  L 47.0891228070177 8.10294117647057  L 39.56350877193 11.8578431372549  L 39.56350877193 12.436274509804  L 31.4582456140353 12.7205882352941  L 27.1157894736845 15.0343137254902  L 25.0919298245617 19.0833333333334  L 24.5122807017547 19.6617647058824  L 14.9628070175441 19.6617647058824  C 13.2238596491231 19.6617647058824  9.46105263157917 22.5441176470589  3.37964912280729 28.6127450980393  C 6.27789473684243 29.7696078431373  7.72210526315813 30.9264705882354  8.30175438596518 31.7990196078432  L 8.5866666666669 33.5343137254902  L 8.5866666666669 33.2500000000001  L 12.9291228070177 49.4264705882354  L 13.2140350877195 50.2892156862746  L 13.2140350877195 51.4460784313726  L 12.9291228070177 51.4460784313726  L 12.3494736842107 51.7303921568627  L 12.064561403509 51.7303921568627  L 0.491228070175662 67.6127450980392  L 1.07087719298271 71.6617647058824  C 2.80000000000025 70.2205882352941  4.25403508771956 69.9264705882353  5.41333333333355 70.5049019607844  C 6.85754385964936 71.0833333333334  7.4371929824563 73.3970588235295  6.85754385964936 76.857843137255  C 6.27789473684232 82.3480392156864  7.15228070175458 88.4166666666667  9.7557894736845 94.1911764705883  L 13.8133333333336 98.5245098039216  C 15.2575438596494 99.9656862745098  15.8371929824564 101.406862745098  15.5424561403512 102.857843137255  L 13.5185964912284 105.75  L 16.1221052631582 109.210784313725  C 17.566315789474 112.102941176471  16.4168421052634 117.004901960784  12.9389473684213 123.946078431373  L 16.7017543859652 130.299019607843  L 17.2814035087723 131.75  L 19.5901754385969 130.299019607843  C 23.3529824561408 126.838235294118  26.5361403508776 125.96568627451  29.1396491228074 126.838235294118  C 30.8785964912285 127.416666666667  31.7529824561407 128.857843137255  32.0378947368426 130.299019607843  C 32.3326315789478 132.328431372549  30.0140350877198 135.789215686275  24.7971929824566 140.985294117647  L 20.749473684211 146.18137254902  L 22.7733333333337 149.357843137255  C 25.6617543859654 146.759803921569  27.9803508771933 145.897058823529  29.4343859649127 146.46568627451  C 31.1733333333337 146.46568627451  36.0856140350881 144.730392156863  44.4856140350881 140.406862745098  C 47.0989473684214 138.96568627451  50.5670175438601 140.406862745098  54.909473684211 144.740196078431  L 56.648421052632 143.877450980392  L 56.3536842105268 140.416666666667  L 55.489122807018 139.838235294118  C 54.909473684211 138.975490196078  55.489122807018 138.10294117647  56.3536842105268 137.240196078431  L 54.909473684211 131.75  C 54.6147368421057 130.877450980392  54.6147368421057 129.720588235294  54.909473684211 128.857843137255  C 55.7838596491232 127.995098039216  56.9333333333337 127.416666666666  58.0926315789478 126.838235294118  L 60.7059649122811 124.524509803921  L 59.2519298245618 121.053921568627  L 59.2519298245618 120.769607843137  L 59.5368421052635 120.769607843137  L 59.5368421052635 120.475490196078  C 60.6961403508775 118.740196078431  60.6961403508775 117.299019607843  60.4014035087723 116.426470588235  C 59.2421052631583 114.406862745098  60.1164912280706 112.96568627451  62.425263157895 110.936274509804  L 65.6182456140354 108.053921568627  L 65.0385964912283 107.475490196078  L 64.1642105263161 106.612745098039  L 67.92701754386 104.877450980392  L 67.92701754386 100.25  C 67.92701754386 98.5245098039215  69.3712280701758 96.2107843137254  73.4189473684214 93.3186274509802  L 75.1578947368424 91.877450980392  L 70.8154385964916 86.9656862745096  C 69.3712280701758 84.9460784313724  69.9508771929828 82.3480392156861  72.5445614035092 79.7401960784312  L 72.5445614035092 79.1617647058821  L 81.5242105263161 71.6519607843135  L 81.8189473684214 69.6323529411763  C 80.0800000000003 69.0539215686273  79.5003508771933 65.877450980392  80.3747368421055 60.9656862745096  C 81.5340350877195 53.1617647058822  85.0021052631582 49.4166666666665  91.0835087719301 48.5441176470587  L 91.6631578947371 48.5441176470587  L 95.425964912281 50.5637254901959  L 99.4835087719301 50.5637254901959  L 103.246315789474 45.9362745098037  L 103.531228070176 45.6519607843136  L 108.158596491228 42.7598039215684  L 107.578947368421 38.7205882352939  L 107.578947368421 37.8578431372547  L 108.158596491228 37.2794117647056  L 109.317894736842 36.7009803921566  L 110.762105263158 34.9656862745095  L 111.04701754386 34.6813725490194  L 108.148771929825 29.769607843137  C 105.25052631579 26.0147058823527  102.64701754386 22.5441176470586  100.917894736842 18.5049019607841  C 99.4736842105265 15.9068627450978  99.7585964912284 13.0147058823527  101.792280701755 9.83823529411739  L 96.5754385964915 6.66176470588209  Z " fill-rule="nonzero" fill="#0533aa" stroke="none" fill-opacity="0.482352941176471" transform="matrix(1 0 0 1 1219 714 )" />
    <path d="M 96.5754385964915 6.66176470588209  L 87.3108771929825 5.78921568627448  L 87.0259649122807 5.4950980392157  L 80.659649122807 0.00490196078430927  L 77.1915789473685 1.74019607843135  C 74.8729824561404 6.93627450980385  71.6898245614035 10.1127450980392  67.6322807017544 11.563725490196  C 66.4729824561404 12.1421568627451  65.0287719298246 11.8578431372548  64.1642105263159 10.985294117647  C 63.0049122807019 9.54411764705873  63.5845614035088 6.3578431372548  65.6182456140352 1.45588235294108  L 56.0589473684211 7.52450980392152  L 55.7740350877194 8.10294117647057  L 55.4792982456142 8.10294117647057  L 47.0891228070177 8.10294117647057  L 39.56350877193 11.8578431372549  L 39.56350877193 12.436274509804  L 31.4582456140353 12.7205882352941  L 27.1157894736845 15.0343137254902  L 25.0919298245617 19.0833333333334  L 24.5122807017547 19.6617647058824  L 14.9628070175441 19.6617647058824  C 13.2238596491231 19.6617647058824  9.46105263157917 22.5441176470589  3.37964912280729 28.6127450980393  C 6.27789473684243 29.7696078431373  7.72210526315813 30.9264705882354  8.30175438596518 31.7990196078432  L 8.5866666666669 33.5343137254902  L 8.5866666666669 33.2500000000001  L 12.9291228070177 49.4264705882354  L 13.2140350877195 50.2892156862746  L 13.2140350877195 51.4460784313726  L 12.9291228070177 51.4460784313726  L 12.3494736842107 51.7303921568627  L 12.064561403509 51.7303921568627  L 0.491228070175662 67.6127450980392  L 1.07087719298271 71.6617647058824  C 2.80000000000025 70.2205882352941  4.25403508771956 69.9264705882353  5.41333333333355 70.5049019607844  C 6.85754385964936 71.0833333333334  7.4371929824563 73.3970588235295  6.85754385964936 76.857843137255  C 6.27789473684232 82.3480392156864  7.15228070175458 88.4166666666667  9.7557894736845 94.1911764705883  L 13.8133333333336 98.5245098039216  C 15.2575438596494 99.9656862745098  15.8371929824564 101.406862745098  15.5424561403512 102.857843137255  L 13.5185964912284 105.75  L 16.1221052631582 109.210784313725  C 17.566315789474 112.102941176471  16.4168421052634 117.004901960784  12.9389473684213 123.946078431373  L 16.7017543859652 130.299019607843  L 17.2814035087723 131.75  L 19.5901754385969 130.299019607843  C 23.3529824561408 126.838235294118  26.5361403508776 125.96568627451  29.1396491228074 126.838235294118  C 30.8785964912285 127.416666666667  31.7529824561407 128.857843137255  32.0378947368426 130.299019607843  C 32.3326315789478 132.328431372549  30.0140350877198 135.789215686275  24.7971929824566 140.985294117647  L 20.749473684211 146.18137254902  L 22.7733333333337 149.357843137255  C 25.6617543859654 146.759803921569  27.9803508771933 145.897058823529  29.4343859649127 146.46568627451  C 31.1733333333337 146.46568627451  36.0856140350881 144.730392156863  44.4856140350881 140.406862745098  C 47.0989473684214 138.96568627451  50.5670175438601 140.406862745098  54.909473684211 144.740196078431  L 56.648421052632 143.877450980392  L 56.3536842105268 140.416666666667  L 55.489122807018 139.838235294118  C 54.909473684211 138.975490196078  55.489122807018 138.10294117647  56.3536842105268 137.240196078431  L 54.909473684211 131.75  C 54.6147368421057 130.877450980392  54.6147368421057 129.720588235294  54.909473684211 128.857843137255  C 55.7838596491232 127.995098039216  56.9333333333337 127.416666666666  58.0926315789478 126.838235294118  L 60.7059649122811 124.524509803921  L 59.2519298245618 121.053921568627  L 59.2519298245618 120.769607843137  L 59.5368421052635 120.769607843137  L 59.5368421052635 120.475490196078  C 60.6961403508775 118.740196078431  60.6961403508775 117.299019607843  60.4014035087723 116.426470588235  C 59.2421052631583 114.406862745098  60.1164912280706 112.96568627451  62.425263157895 110.936274509804  L 65.6182456140354 108.053921568627  L 65.0385964912283 107.475490196078  L 64.1642105263161 106.612745098039  L 67.92701754386 104.877450980392  L 67.92701754386 100.25  C 67.92701754386 98.5245098039215  69.3712280701758 96.2107843137254  73.4189473684214 93.3186274509802  L 75.1578947368424 91.877450980392  L 70.8154385964916 86.9656862745096  C 69.3712280701758 84.9460784313724  69.9508771929828 82.3480392156861  72.5445614035092 79.7401960784312  L 72.5445614035092 79.1617647058821  L 81.5242105263161 71.6519607843135  L 81.8189473684214 69.6323529411763  C 80.0800000000003 69.0539215686273  79.5003508771933 65.877450980392  80.3747368421055 60.9656862745096  C 81.5340350877195 53.1617647058822  85.0021052631582 49.4166666666665  91.0835087719301 48.5441176470587  L 91.6631578947371 48.5441176470587  L 95.425964912281 50.5637254901959  L 99.4835087719301 50.5637254901959  L 103.246315789474 45.9362745098037  L 103.531228070176 45.6519607843136  L 108.158596491228 42.7598039215684  L 107.578947368421 38.7205882352939  L 107.578947368421 37.8578431372547  L 108.158596491228 37.2794117647056  L 109.317894736842 36.7009803921566  L 110.762105263158 34.9656862745095  L 111.04701754386 34.6813725490194  L 108.148771929825 29.769607843137  C 105.25052631579 26.0147058823527  102.64701754386 22.5441176470586  100.917894736842 18.5049019607841  C 99.4736842105265 15.9068627450978  99.7585964912284 13.0147058823527  101.792280701755 9.83823529411739  L 96.5754385964915 6.66176470588209  Z " stroke-width="2" stroke="#797979" fill="none" transform="matrix(1 0 0 1 1219 714 )" mask="url(#clip37)" />
  </g>
</svg>