<?xml version="1.0" encoding="utf-8"?>
<svg version="1.1" xmlns:xlink="http://www.w3.org/1999/xlink" width="88px" height="103px" xmlns="http://www.w3.org/2000/svg">
  <defs>
    <mask fill="white" id="clip42">
      <path d="M 58.5297777777772 0.632714285714491  L 53.367111111111 2.07471428571429  C 50.199111111111 3.51671428571432  47.6079999999999 4.67423809523808  45.5937777777777 4.95871428571435  C 43.863111111111 4.95871428571435  40.9786666666665 4.37995238095241  36.9502222222221 2.9379523809525  L 30.3306666666665 2.07471428571441  C 28.3066666666665 2.9379523809525  26.0088888888888 5.83176190476207  22.831111111111 10.7463333333335  L 27.1528888888888 19.9967142857144  L 19.9466666666665 24.0382380952382  L 19.663111111111 24.0382380952382  L 13.9039999999999 22.3019523809525  C 16.2115555555555 26.637761904762  16.7786666666666 29.2372857142859  15.928 30.3948095238096  L 15.351111111111 32.7098571428573  C 13.9039999999999 36.1824285714287  12.7502222222222 38.2031904761906  11.6062222222221 39.3607142857144  L 1.52533333333328 48.3168095238096  L 4.11644444444437 49.7686190476192  L 2.38577777777772 51.2106190476192  C 0.0782222222221511 53.2411904761907  -0.498666666666769 55.5464285714287  0.655111111111071 57.2827142857145  L 7.56800000000001 67.9750952380954  L 7.85155555555553 67.9750952380954  L 7.85155555555553 68.2595714285716  L 11.0195555555555 74.0471904761906  L 11.0195555555555 74.3414761904763  L 11.3128888888888 74.6259523809524  L 11.0195555555555 75.2047142857144  L 11.0195555555555 75.7834761904763  L 11.0195555555555 76.0679523809525  L 10.4426666666666 76.6467142857144  C 11.88 76.6467142857144  13.0337777777777 77.2254761904763  14.4711111111111 78.0985238095239  C 16.7688888888889 79.540523809524  18.4995555555555 83.5918571428573  19.36 89.6541428571429  L 20.5137777777777 95.4319523809525  C 21.0906666666666 96.8739523809525  21.6675555555554 97.7470000000001  23.1048888888888 98.325761904762  C 25.4026666666666 99.4832857142858  28.287111111111 99.1890000000001  30.8782222222222 97.4625238095239  C 32.3155555555555 96.5992857142859  33.1857777777777 95.7262380952382  32.9022222222222 94.8630000000002  L 32.6088888888889 94.5687142857145  L 32.6088888888889 93.9899523809525  L 37.5075555555556 90.5173809523811  L 38.0746666666667 91.0961428571431  L 41.8293333333334 97.462523809524  C 43.2666666666668 98.6200476190478  44.7137777777779 99.1890000000002  47.0115555555556 99.1890000000002  L 48.4586666666667 98.8947142857146  L 47.304888888889 95.4319523809527  L 52.7804444444445 97.7470000000003  L 54.2177777777778 97.7470000000003  L 54.5013333333333 97.7470000000003  L 54.7946666666666 98.3257619047623  L 59.9768888888888 102.367285714286  L 61.4142222222222 100.052238095238  L 61.1306666666666 90.2329047619051  L 61.4142222222222 89.9386190476194  L 64.8755555555555 85.60280952381  C 65.1688888888888 85.024047619048  64.8755555555555 83.8665238095243  63.4382222222221 82.4245238095242  L 62.5679999999998 81.5612857142861  L 63.1448888888886 80.9825238095242  L 63.4382222222219 80.4037619047623  L 64.2986666666664 80.1192857142861  L 71.4951111111108 68.2595714285718  L 72.0719999999996 68.5538571428575  L 73.5191111111107 68.8383333333336  L 74.0862222222218 69.1326190476193  L 74.0862222222218 69.7113809523812  L 73.5191111111107 74.3414761904765  L 74.0862222222218 74.3414761904765  L 82.1626666666662 67.1118571428574  L 81.5857777777774 63.3548095238098  L 80.148444444444 63.3548095238098  L 77.2639999999995 63.6490952380955  L 82.1626666666662 50.3473809523812  L 77.8408888888883 49.7686190476193  L 77.2639999999995 49.7686190476193  L 77.2639999999995 49.1898571428573  L 75.8168888888884 47.4535714285716  C 74.9564444444439 45.717285714286  74.9564444444439 44.2752857142859  76.1102222222217 42.8332857142859  L 83.0231111111105 42.5488095238097  L 87.3448888888884 42.5488095238097  C 87.3448888888884 41.1068095238097  86.4746666666661 38.4974761904764  83.8933333333328 34.1616666666669  L 77.8408888888883 32.1310952380955  L 84.1768888888884 26.0688095238098  L 84.1768888888884 24.6268095238098  L 81.0088888888884 25.2055714285717  L 79.8551111111105 25.2055714285717  L 79.8551111111105 24.911285714286  L 79.571555555555 24.6268095238099  L 79.2782222222217 24.0480476190479  C 78.4079999999994 21.1542380952384  76.6871111111105 18.8490000000004  74.0862222222218 17.9759523809526  L 62.5679999999996 18.2604285714288  L 57.6693333333329 24.0382380952383  L 57.6693333333329 24.332523809524  L 56.2319999999995 24.0382380952383  L 38.0746666666662 18.2604285714288  L 55.6551111111105 13.6401428571431  C 56.8088888888883 13.6401428571431  59.6835555555549 10.756142857143  64.5822222222217 4.96852380952398  L 58.5297777777772 0.632714285714491  Z " fill-rule="evenodd" />
    </mask>
  </defs>
  <g transform="matrix(1 0 0 1 -1322 -674 )">
    <path d="M 58.5297777777772 0.632714285714491  L 53.367111111111 2.07471428571429  C 50.199111111111 3.51671428571432  47.6079999999999 4.67423809523808  45.5937777777777 4.95871428571435  C 43.863111111111 4.95871428571435  40.9786666666665 4.37995238095241  36.9502222222221 2.9379523809525  L 30.3306666666665 2.07471428571441  C 28.3066666666665 2.9379523809525  26.0088888888888 5.83176190476207  22.831111111111 10.7463333333335  L 27.1528888888888 19.9967142857144  L 19.9466666666665 24.0382380952382  L 19.663111111111 24.0382380952382  L 13.9039999999999 22.3019523809525  C 16.2115555555555 26.637761904762  16.7786666666666 29.2372857142859  15.928 30.3948095238096  L 15.351111111111 32.7098571428573  C 13.9039999999999 36.1824285714287  12.7502222222222 38.2031904761906  11.6062222222221 39.3607142857144  L 1.52533333333328 48.3168095238096  L 4.11644444444437 49.7686190476192  L 2.38577777777772 51.2106190476192  C 0.0782222222221511 53.2411904761907  -0.498666666666769 55.5464285714287  0.655111111111071 57.2827142857145  L 7.56800000000001 67.9750952380954  L 7.85155555555553 67.9750952380954  L 7.85155555555553 68.2595714285716  L 11.0195555555555 74.0471904761906  L 11.0195555555555 74.3414761904763  L 11.3128888888888 74.6259523809524  L 11.0195555555555 75.2047142857144  L 11.0195555555555 75.7834761904763  L 11.0195555555555 76.0679523809525  L 10.4426666666666 76.6467142857144  C 11.88 76.6467142857144  13.0337777777777 77.2254761904763  14.4711111111111 78.0985238095239  C 16.7688888888889 79.540523809524  18.4995555555555 83.5918571428573  19.36 89.6541428571429  L 20.5137777777777 95.4319523809525  C 21.0906666666666 96.8739523809525  21.6675555555554 97.7470000000001  23.1048888888888 98.325761904762  C 25.4026666666666 99.4832857142858  28.287111111111 99.1890000000001  30.8782222222222 97.4625238095239  C 32.3155555555555 96.5992857142859  33.1857777777777 95.7262380952382  32.9022222222222 94.8630000000002  L 32.6088888888889 94.5687142857145  L 32.6088888888889 93.9899523809525  L 37.5075555555556 90.5173809523811  L 38.0746666666667 91.0961428571431  L 41.8293333333334 97.462523809524  C 43.2666666666668 98.6200476190478  44.7137777777779 99.1890000000002  47.0115555555556 99.1890000000002  L 48.4586666666667 98.8947142857146  L 47.304888888889 95.4319523809527  L 52.7804444444445 97.7470000000003  L 54.2177777777778 97.7470000000003  L 54.5013333333333 97.7470000000003  L 54.7946666666666 98.3257619047623  L 59.9768888888888 102.367285714286  L 61.4142222222222 100.052238095238  L 61.1306666666666 90.2329047619051  L 61.4142222222222 89.9386190476194  L 64.8755555555555 85.60280952381  C 65.1688888888888 85.024047619048  64.8755555555555 83.8665238095243  63.4382222222221 82.4245238095242  L 62.5679999999998 81.5612857142861  L 63.1448888888886 80.9825238095242  L 63.4382222222219 80.4037619047623  L 64.2986666666664 80.1192857142861  L 71.4951111111108 68.2595714285718  L 72.0719999999996 68.5538571428575  L 73.5191111111107 68.8383333333336  L 74.0862222222218 69.1326190476193  L 74.0862222222218 69.7113809523812  L 73.5191111111107 74.3414761904765  L 74.0862222222218 74.3414761904765  L 82.1626666666662 67.1118571428574  L 81.5857777777774 63.3548095238098  L 80.148444444444 63.3548095238098  L 77.2639999999995 63.6490952380955  L 82.1626666666662 50.3473809523812  L 77.8408888888883 49.7686190476193  L 77.2639999999995 49.7686190476193  L 77.2639999999995 49.1898571428573  L 75.8168888888884 47.4535714285716  C 74.9564444444439 45.717285714286  74.9564444444439 44.2752857142859  76.1102222222217 42.8332857142859  L 83.0231111111105 42.5488095238097  L 87.3448888888884 42.5488095238097  C 87.3448888888884 41.1068095238097  86.4746666666661 38.4974761904764  83.8933333333328 34.1616666666669  L 77.8408888888883 32.1310952380955  L 84.1768888888884 26.0688095238098  L 84.1768888888884 24.6268095238098  L 81.0088888888884 25.2055714285717  L 79.8551111111105 25.2055714285717  L 79.8551111111105 24.911285714286  L 79.571555555555 24.6268095238099  L 79.2782222222217 24.0480476190479  C 78.4079999999994 21.1542380952384  76.6871111111105 18.8490000000004  74.0862222222218 17.9759523809526  L 62.5679999999996 18.2604285714288  L 57.6693333333329 24.0382380952383  L 57.6693333333329 24.332523809524  L 56.2319999999995 24.0382380952383  L 38.0746666666662 18.2604285714288  L 55.6551111111105 13.6401428571431  C 56.8088888888883 13.6401428571431  59.6835555555549 10.756142857143  64.5822222222217 4.96852380952398  L 58.5297777777772 0.632714285714491  Z " fill-rule="nonzero" fill="#20dbea" stroke="none" fill-opacity="0.4" transform="matrix(1 0 0 1 1322 674 )" />
    <path d="M 58.5297777777772 0.632714285714491  L 53.367111111111 2.07471428571429  C 50.199111111111 3.51671428571432  47.6079999999999 4.67423809523808  45.5937777777777 4.95871428571435  C 43.863111111111 4.95871428571435  40.9786666666665 4.37995238095241  36.9502222222221 2.9379523809525  L 30.3306666666665 2.07471428571441  C 28.3066666666665 2.9379523809525  26.0088888888888 5.83176190476207  22.831111111111 10.7463333333335  L 27.1528888888888 19.9967142857144  L 19.9466666666665 24.0382380952382  L 19.663111111111 24.0382380952382  L 13.9039999999999 22.3019523809525  C 16.2115555555555 26.637761904762  16.7786666666666 29.2372857142859  15.928 30.3948095238096  L 15.351111111111 32.7098571428573  C 13.9039999999999 36.1824285714287  12.7502222222222 38.2031904761906  11.6062222222221 39.3607142857144  L 1.52533333333328 48.3168095238096  L 4.11644444444437 49.7686190476192  L 2.38577777777772 51.2106190476192  C 0.0782222222221511 53.2411904761907  -0.498666666666769 55.5464285714287  0.655111111111071 57.2827142857145  L 7.56800000000001 67.9750952380954  L 7.85155555555553 67.9750952380954  L 7.85155555555553 68.2595714285716  L 11.0195555555555 74.0471904761906  L 11.0195555555555 74.3414761904763  L 11.3128888888888 74.6259523809524  L 11.0195555555555 75.2047142857144  L 11.0195555555555 75.7834761904763  L 11.0195555555555 76.0679523809525  L 10.4426666666666 76.6467142857144  C 11.88 76.6467142857144  13.0337777777777 77.2254761904763  14.4711111111111 78.0985238095239  C 16.7688888888889 79.540523809524  18.4995555555555 83.5918571428573  19.36 89.6541428571429  L 20.5137777777777 95.4319523809525  C 21.0906666666666 96.8739523809525  21.6675555555554 97.7470000000001  23.1048888888888 98.325761904762  C 25.4026666666666 99.4832857142858  28.287111111111 99.1890000000001  30.8782222222222 97.4625238095239  C 32.3155555555555 96.5992857142859  33.1857777777777 95.7262380952382  32.9022222222222 94.8630000000002  L 32.6088888888889 94.5687142857145  L 32.6088888888889 93.9899523809525  L 37.5075555555556 90.5173809523811  L 38.0746666666667 91.0961428571431  L 41.8293333333334 97.462523809524  C 43.2666666666668 98.6200476190478  44.7137777777779 99.1890000000002  47.0115555555556 99.1890000000002  L 48.4586666666667 98.8947142857146  L 47.304888888889 95.4319523809527  L 52.7804444444445 97.7470000000003  L 54.2177777777778 97.7470000000003  L 54.5013333333333 97.7470000000003  L 54.7946666666666 98.3257619047623  L 59.9768888888888 102.367285714286  L 61.4142222222222 100.052238095238  L 61.1306666666666 90.2329047619051  L 61.4142222222222 89.9386190476194  L 64.8755555555555 85.60280952381  C 65.1688888888888 85.024047619048  64.8755555555555 83.8665238095243  63.4382222222221 82.4245238095242  L 62.5679999999998 81.5612857142861  L 63.1448888888886 80.9825238095242  L 63.4382222222219 80.4037619047623  L 64.2986666666664 80.1192857142861  L 71.4951111111108 68.2595714285718  L 72.0719999999996 68.5538571428575  L 73.5191111111107 68.8383333333336  L 74.0862222222218 69.1326190476193  L 74.0862222222218 69.7113809523812  L 73.5191111111107 74.3414761904765  L 74.0862222222218 74.3414761904765  L 82.1626666666662 67.1118571428574  L 81.5857777777774 63.3548095238098  L 80.148444444444 63.3548095238098  L 77.2639999999995 63.6490952380955  L 82.1626666666662 50.3473809523812  L 77.8408888888883 49.7686190476193  L 77.2639999999995 49.7686190476193  L 77.2639999999995 49.1898571428573  L 75.8168888888884 47.4535714285716  C 74.9564444444439 45.717285714286  74.9564444444439 44.2752857142859  76.1102222222217 42.8332857142859  L 83.0231111111105 42.5488095238097  L 87.3448888888884 42.5488095238097  C 87.3448888888884 41.1068095238097  86.4746666666661 38.4974761904764  83.8933333333328 34.1616666666669  L 77.8408888888883 32.1310952380955  L 84.1768888888884 26.0688095238098  L 84.1768888888884 24.6268095238098  L 81.0088888888884 25.2055714285717  L 79.8551111111105 25.2055714285717  L 79.8551111111105 24.911285714286  L 79.571555555555 24.6268095238099  L 79.2782222222217 24.0480476190479  C 78.4079999999994 21.1542380952384  76.6871111111105 18.8490000000004  74.0862222222218 17.9759523809526  L 62.5679999999996 18.2604285714288  L 57.6693333333329 24.0382380952383  L 57.6693333333329 24.332523809524  L 56.2319999999995 24.0382380952383  L 38.0746666666662 18.2604285714288  L 55.6551111111105 13.6401428571431  C 56.8088888888883 13.6401428571431  59.6835555555549 10.756142857143  64.5822222222217 4.96852380952398  L 58.5297777777772 0.632714285714491  Z " stroke-width="2" stroke="#797979" fill="none" transform="matrix(1 0 0 1 1322 674 )" mask="url(#clip42)" />
  </g>
</svg>