<?xml version="1.0" encoding="utf-8"?>
<svg version="1.1" xmlns:xlink="http://www.w3.org/1999/xlink" width="41px" height="43px" xmlns="http://www.w3.org/2000/svg">
  <defs>
    <mask fill="white" id="clip47">
      <path d="M 19.3299999999997 4.5449999999999  C 20.83 5.7050000000001  21.42 7.17500000000007  20.53 9.24500000000006  L 19.9399999999999 10.1250000000001  L 19.05 9.83500000000004  L 15.2199999999999 9.24500000000006  L 14.93 11.015  L 14.93 11.905  L 14.05 11.905  L 7.8599999999999 14.2550000000001  L 7.56999999999994 15.145  C 6.68999999999994 17.205  7.56999999999994 18.975  9.62999999999988 21.335  L 10.2199999999999 21.925  L 9.62999999999988 22.805  C 7.8599999999999 25.745  5.20999999999992 28.695  2.26999999999987 30.755  C 1.08999999999992 31.645  0.78999999999985 32.525  0.78999999999985 33.415  L 2.8499999999998 36.065  L 6.0899999999998 37.245  L 8.73999999999978 37.535  C 12.2699999999998 37.535  14.6299999999998 37.835  15.5199999999998 39.305  L 18.4599999999998 41.375  C 20.5199999999998 42.255  22.2899999999999 42.845  23.7599999999998 42.845  C 24.9399999999997 42.845  26.4099999999997 41.955  27.5899999999998 39.605  L 29.9399999999998 36.955  L 31.7099999999998 31.355  L 30.2399999999998 24.875  L 32.5899999999998 25.465  L 36.4199999999998 25.755  L 38.1799999999998 24.575  L 38.7699999999999 23.105  L 35.8299999999998 14.5649999999999  L 36.7099999999998 11.615  C 37.5999999999998 9.84499999999997  38.7699999999998 9.25499999999994  39.9499999999998 8.96499999999998  L 40.2499999999998 8.96499999999998  L 39.6599999999997 6.89499999999998  L 32.5899999999997 7.19499999999999  L 32.5899999999997 6.89499999999998  L 26.1099999999997 2.47499999999997  C 23.4499999999997 0.704999999999984  20.7999999999997 0.414999999999964  18.4399999999997 1.00499999999994  L 17.5599999999997 1.59499999999991  C 16.9699999999997 2.77499999999992  17.5599999999997 3.95499999999993  19.3299999999997 4.5449999999999  Z " fill-rule="evenodd" />
    </mask>
  </defs>
  <g transform="matrix(1 0 0 1 -1229 -411 )">
    <path d="M 19.3299999999997 4.5449999999999  C 20.83 5.7050000000001  21.42 7.17500000000007  20.53 9.24500000000006  L 19.9399999999999 10.1250000000001  L 19.05 9.83500000000004  L 15.2199999999999 9.24500000000006  L 14.93 11.015  L 14.93 11.905  L 14.05 11.905  L 7.8599999999999 14.2550000000001  L 7.56999999999994 15.145  C 6.68999999999994 17.205  7.56999999999994 18.975  9.62999999999988 21.335  L 10.2199999999999 21.925  L 9.62999999999988 22.805  C 7.8599999999999 25.745  5.20999999999992 28.695  2.26999999999987 30.755  C 1.08999999999992 31.645  0.78999999999985 32.525  0.78999999999985 33.415  L 2.8499999999998 36.065  L 6.0899999999998 37.245  L 8.73999999999978 37.535  C 12.2699999999998 37.535  14.6299999999998 37.835  15.5199999999998 39.305  L 18.4599999999998 41.375  C 20.5199999999998 42.255  22.2899999999999 42.845  23.7599999999998 42.845  C 24.9399999999997 42.845  26.4099999999997 41.955  27.5899999999998 39.605  L 29.9399999999998 36.955  L 31.7099999999998 31.355  L 30.2399999999998 24.875  L 32.5899999999998 25.465  L 36.4199999999998 25.755  L 38.1799999999998 24.575  L 38.7699999999999 23.105  L 35.8299999999998 14.5649999999999  L 36.7099999999998 11.615  C 37.5999999999998 9.84499999999997  38.7699999999998 9.25499999999994  39.9499999999998 8.96499999999998  L 40.2499999999998 8.96499999999998  L 39.6599999999997 6.89499999999998  L 32.5899999999997 7.19499999999999  L 32.5899999999997 6.89499999999998  L 26.1099999999997 2.47499999999997  C 23.4499999999997 0.704999999999984  20.7999999999997 0.414999999999964  18.4399999999997 1.00499999999994  L 17.5599999999997 1.59499999999991  C 16.9699999999997 2.77499999999992  17.5599999999997 3.95499999999993  19.3299999999997 4.5449999999999  Z " fill-rule="nonzero" fill="#0533aa" stroke="none" fill-opacity="0.482352941176471" transform="matrix(1 0 0 1 1229 411 )" />
    <path d="M 19.3299999999997 4.5449999999999  C 20.83 5.7050000000001  21.42 7.17500000000007  20.53 9.24500000000006  L 19.9399999999999 10.1250000000001  L 19.05 9.83500000000004  L 15.2199999999999 9.24500000000006  L 14.93 11.015  L 14.93 11.905  L 14.05 11.905  L 7.8599999999999 14.2550000000001  L 7.56999999999994 15.145  C 6.68999999999994 17.205  7.56999999999994 18.975  9.62999999999988 21.335  L 10.2199999999999 21.925  L 9.62999999999988 22.805  C 7.8599999999999 25.745  5.20999999999992 28.695  2.26999999999987 30.755  C 1.08999999999992 31.645  0.78999999999985 32.525  0.78999999999985 33.415  L 2.8499999999998 36.065  L 6.0899999999998 37.245  L 8.73999999999978 37.535  C 12.2699999999998 37.535  14.6299999999998 37.835  15.5199999999998 39.305  L 18.4599999999998 41.375  C 20.5199999999998 42.255  22.2899999999999 42.845  23.7599999999998 42.845  C 24.9399999999997 42.845  26.4099999999997 41.955  27.5899999999998 39.605  L 29.9399999999998 36.955  L 31.7099999999998 31.355  L 30.2399999999998 24.875  L 32.5899999999998 25.465  L 36.4199999999998 25.755  L 38.1799999999998 24.575  L 38.7699999999999 23.105  L 35.8299999999998 14.5649999999999  L 36.7099999999998 11.615  C 37.5999999999998 9.84499999999997  38.7699999999998 9.25499999999994  39.9499999999998 8.96499999999998  L 40.2499999999998 8.96499999999998  L 39.6599999999997 6.89499999999998  L 32.5899999999997 7.19499999999999  L 32.5899999999997 6.89499999999998  L 26.1099999999997 2.47499999999997  C 23.4499999999997 0.704999999999984  20.7999999999997 0.414999999999964  18.4399999999997 1.00499999999994  L 17.5599999999997 1.59499999999991  C 16.9699999999997 2.77499999999992  17.5599999999997 3.95499999999993  19.3299999999997 4.5449999999999  Z " stroke-width="2" stroke="#797979" fill="none" transform="matrix(1 0 0 1 1229 411 )" mask="url(#clip47)" />
  </g>
</svg>