<?xml version="1.0" encoding="utf-8"?>
<svg version="1.1" xmlns:xlink="http://www.w3.org/1999/xlink" width="137px" height="131px" xmlns="http://www.w3.org/2000/svg">
  <defs>
    <mask fill="white" id="clip49">
      <path d="M 68.0367625899275 18.6108646616544  L 62.5173381294964 17.1432706766918  L 59.0381294964029 21.7922932330828  C 58.4566187050359 22.659060150376  58.1707913669065 24.4024436090226  58.7424460431655 27.308082706767  L 58.7424460431655 29.0514661654137  L 51.7741726618705 29.0514661654137  L 51.4784892086331 29.0514661654137  L 46.5405755395684 27.6035714285715  L 42.7656834532374 33.4050000000001  L 42.1841726618705 33.9861278195489  L 37.5320863309352 36.8819172932331  L 33.4713669064747 41.2354511278196  L 32.8898561151078 42.112067669173  L 25.6357553956833 50.5236466165414  L 25.6357553956833 50.8191353383459  L 25.340071942446 50.8191353383459  L 19.8206474820143 53.7149248120302  L 15.4642446043165 50.8191353383459  L 15.4642446043165 50.5236466165414  L 11.4035251798561 46.1701127819549  L 8.79165467625895 44.7222180451128  L 10.8220143884891 56.6205639097744  L 12.5665467625898 63.0031203007519  L 8.21014388489201 67.0611654135339  L 2.1092086330934 76.0538721804512  L 2.1092086330934 79.8262781954887  L 1.82338129496394 80.1119172932331  L 1.53755395683448 80.1119172932331  L 0.0887050359711423 82.4364285714286  L 1.241870503597 84.4753007518797  L 3.56791366906464 84.4753007518797  L 11.9948920863308 86.7899624060151  L 12.2807194244602 86.7899624060151  L 12.5665467625897 86.7899624060151  L 12.5665467625897 87.0854511278196  L 12.8622302158271 87.0854511278196  L 14.6067625899278 88.8288345864662  L 16.9229496402875 89.991090225564  L 17.5044604316544 89.991090225564  L 17.5044604316544 90.2767293233083  C 18.3816546762587 91.4389849624061  18.9631654676257 92.6012406015039  18.9631654676257 93.7634962406016  L 19.8305035971221 96.3736466165414  L 28.8389928057552 98.9837969924813  L 31.4508633093523 98.4026691729324  L 34.0627338129494 94.9257518796994  L 41.0310071942444 81.5795112781956  L 41.3168345323738 81.5795112781956  L 41.3168345323738 81.2840225563911  L 44.5102158273379 76.9304887218046  L 44.8058992805752 76.6350000000001  L 50.3253237410069 74.0248496240602  L 54.1002158273379 73.7392105263159  C 55.5490647482012 71.4146992481204  56.712086330935 70.2524436090226  58.1609352517983 70.2524436090226  C 59.0282733812947 70.2524436090226  60.4771223021581 70.8335714285714  62.8031654676257 71.9958270676692  L 63.3846762589926 72.2814661654136  L 63.3846762589926 72.5769548872181  L 68.3225899280574 80.1217669172933  L 68.3225899280574 80.4172556390978  L 68.6182733812947 80.4172556390978  L 68.6182733812947 80.9983834586467  L 69.1997841726617 86.5141729323309  L 68.9041007194243 92.611090225564  L 67.455251798561 97.8412406015039  L 67.455251798561 98.4223684210527  L 67.1694244604315 98.4223684210527  L 63.3945323741005 103.061541353384  L 61.6499999999998 106.833947368421  L 61.9456834532372 113.216503759399  L 62.5271942446041 113.216503759399  L 64.5575539568343 112.349736842105  L 66.883597122302 110.310864661654  L 67.4651079136689 109.729736842105  L 67.7607913669062 109.148609022556  L 70.6683453237408 111.768609022557  L 70.6683453237408 112.054248120301  L 70.6683453237408 116.703270676692  L 70.3726618705035 116.703270676692  L 67.7607913669064 117.86552631579  L 66.89345323741 119.027781954887  L 66.89345323741 121.637932330827  L 66.5977697841726 121.923571428572  L 64.8630935251798 125.11484962406  L 64.5674100719424 125.11484962406  L 63.9858992805755 125.410338345865  L 61.6598561151079 125.695977443609  L 59.3338129496402 126.277105263158  L 57.5991366906474 129.468383458647  L 57.8849640287769 130.049511278196  L 67.465107913669 128.887255639098  L 69.2096402877697 127.439360902256  L 72.4030215827337 119.027781954887  L 93.8992086330935 96.9646240601505  L 94.4807194244603 96.9646240601505  L 99.1229496402877 94.640112781955  L 99.4087769784172 94.3544736842107  L 99.4087769784172 94.640112781955  L 103.183669064748 94.640112781955  L 106.958561151079 93.7733458646618  L 111.019280575539 92.0299624060152  L 113.926834532374 88.8386842105265  L 118.569064748201 76.0735714285716  L 118.569064748201 75.7780827067671  L 136.576187050359 56.9160526315791  L 136.576187050359 56.6304135338348  L 135.413165467626 46.4754511278197  C 134.535971223021 46.1799624060152  133.372949640287 45.5988345864664  132.79143884892 44.7320676691731  L 132.209928057554 44.1509398496243  L 132.209928057554 44.4365789473687  L 129.302374100719 44.7320676691732  C 127.853525179856 44.1509398496243  126.976330935251 43.5698120300754  125.823165467626 42.1219172932334  L 124.955827338129 40.3785338345867  L 124.955827338129 40.0830451127822  L 124 39.7974060150379  L 124 24.1266541353386  C 122.925467625899 23.5455263157897  121.180935251798 22.383270676692  119.14071942446 20.354248120301  L 115.365827338129 16.296203007519  L 111.886618705036 11.3615413533837  C 111.305107913669 10.199285714286  111.305107913669 8.45590225563936  111.590935251798 5.84575187969948  L 111.886618705036 4.3880075187972  L 109.856258992806 1.77785714285737  L 109.560575539568 4.10236842105288  L 106.948705035971 9.0370300751882  L 106.081366906474 9.0370300751882  C 104.041151079136 9.0370300751882  101.724964028777 8.75139097744382  99.9804316546759 7.87477443609045  C 98.2358992805752 7.29364661654161  97.3685611510787 5.84575187969948  97.3685611510787 4.10236842105288  L 97.3685611510787 2.94011278195512  L 95.9197122302153 2.94011278195512  L 90.4101438848917 4.38800751879726  L 86.3395683453232 0.329962406015297  L 84.8907194244599 0.0443233082709163  L 83.4320143884886 1.49221804511305  L 85.1765467625893 4.38800751879726  L 85.7580575539562 5.26462406015063  L 82.8505035971216 11.3615413533837  L 82.5548201438842 11.3615413533837  L 82.5548201438842 11.6471804511281  L 82.2689928057547 11.6471804511281  L 77.0452517985605 17.4584586466168  L 76.7495683453232 17.7440977443612  L 76.1680575539562 17.7440977443612  L 68.0367625899275 18.6108646616544  Z " fill-rule="evenodd" />
    </mask>
  </defs>
  <g transform="matrix(1 0 0 1 -1295 -329 )">
    <path d="M 68.0367625899275 18.6108646616544  L 62.5173381294964 17.1432706766918  L 59.0381294964029 21.7922932330828  C 58.4566187050359 22.659060150376  58.1707913669065 24.4024436090226  58.7424460431655 27.308082706767  L 58.7424460431655 29.0514661654137  L 51.7741726618705 29.0514661654137  L 51.4784892086331 29.0514661654137  L 46.5405755395684 27.6035714285715  L 42.7656834532374 33.4050000000001  L 42.1841726618705 33.9861278195489  L 37.5320863309352 36.8819172932331  L 33.4713669064747 41.2354511278196  L 32.8898561151078 42.112067669173  L 25.6357553956833 50.5236466165414  L 25.6357553956833 50.8191353383459  L 25.340071942446 50.8191353383459  L 19.8206474820143 53.7149248120302  L 15.4642446043165 50.8191353383459  L 15.4642446043165 50.5236466165414  L 11.4035251798561 46.1701127819549  L 8.79165467625895 44.7222180451128  L 10.8220143884891 56.6205639097744  L 12.5665467625898 63.0031203007519  L 8.21014388489201 67.0611654135339  L 2.1092086330934 76.0538721804512  L 2.1092086330934 79.8262781954887  L 1.82338129496394 80.1119172932331  L 1.53755395683448 80.1119172932331  L 0.0887050359711423 82.4364285714286  L 1.241870503597 84.4753007518797  L 3.56791366906464 84.4753007518797  L 11.9948920863308 86.7899624060151  L 12.2807194244602 86.7899624060151  L 12.5665467625897 86.7899624060151  L 12.5665467625897 87.0854511278196  L 12.8622302158271 87.0854511278196  L 14.6067625899278 88.8288345864662  L 16.9229496402875 89.991090225564  L 17.5044604316544 89.991090225564  L 17.5044604316544 90.2767293233083  C 18.3816546762587 91.4389849624061  18.9631654676257 92.6012406015039  18.9631654676257 93.7634962406016  L 19.8305035971221 96.3736466165414  L 28.8389928057552 98.9837969924813  L 31.4508633093523 98.4026691729324  L 34.0627338129494 94.9257518796994  L 41.0310071942444 81.5795112781956  L 41.3168345323738 81.5795112781956  L 41.3168345323738 81.2840225563911  L 44.5102158273379 76.9304887218046  L 44.8058992805752 76.6350000000001  L 50.3253237410069 74.0248496240602  L 54.1002158273379 73.7392105263159  C 55.5490647482012 71.4146992481204  56.712086330935 70.2524436090226  58.1609352517983 70.2524436090226  C 59.0282733812947 70.2524436090226  60.4771223021581 70.8335714285714  62.8031654676257 71.9958270676692  L 63.3846762589926 72.2814661654136  L 63.3846762589926 72.5769548872181  L 68.3225899280574 80.1217669172933  L 68.3225899280574 80.4172556390978  L 68.6182733812947 80.4172556390978  L 68.6182733812947 80.9983834586467  L 69.1997841726617 86.5141729323309  L 68.9041007194243 92.611090225564  L 67.455251798561 97.8412406015039  L 67.455251798561 98.4223684210527  L 67.1694244604315 98.4223684210527  L 63.3945323741005 103.061541353384  L 61.6499999999998 106.833947368421  L 61.9456834532372 113.216503759399  L 62.5271942446041 113.216503759399  L 64.5575539568343 112.349736842105  L 66.883597122302 110.310864661654  L 67.4651079136689 109.729736842105  L 67.7607913669062 109.148609022556  L 70.6683453237408 111.768609022557  L 70.6683453237408 112.054248120301  L 70.6683453237408 116.703270676692  L 70.3726618705035 116.703270676692  L 67.7607913669064 117.86552631579  L 66.89345323741 119.027781954887  L 66.89345323741 121.637932330827  L 66.5977697841726 121.923571428572  L 64.8630935251798 125.11484962406  L 64.5674100719424 125.11484962406  L 63.9858992805755 125.410338345865  L 61.6598561151079 125.695977443609  L 59.3338129496402 126.277105263158  L 57.5991366906474 129.468383458647  L 57.8849640287769 130.049511278196  L 67.465107913669 128.887255639098  L 69.2096402877697 127.439360902256  L 72.4030215827337 119.027781954887  L 93.8992086330935 96.9646240601505  L 94.4807194244603 96.9646240601505  L 99.1229496402877 94.640112781955  L 99.4087769784172 94.3544736842107  L 99.4087769784172 94.640112781955  L 103.183669064748 94.640112781955  L 106.958561151079 93.7733458646618  L 111.019280575539 92.0299624060152  L 113.926834532374 88.8386842105265  L 118.569064748201 76.0735714285716  L 118.569064748201 75.7780827067671  L 136.576187050359 56.9160526315791  L 136.576187050359 56.6304135338348  L 135.413165467626 46.4754511278197  C 134.535971223021 46.1799624060152  133.372949640287 45.5988345864664  132.79143884892 44.7320676691731  L 132.209928057554 44.1509398496243  L 132.209928057554 44.4365789473687  L 129.302374100719 44.7320676691732  C 127.853525179856 44.1509398496243  126.976330935251 43.5698120300754  125.823165467626 42.1219172932334  L 124.955827338129 40.3785338345867  L 124.955827338129 40.0830451127822  L 124 39.7974060150379  L 124 24.1266541353386  C 122.925467625899 23.5455263157897  121.180935251798 22.383270676692  119.14071942446 20.354248120301  L 115.365827338129 16.296203007519  L 111.886618705036 11.3615413533837  C 111.305107913669 10.199285714286  111.305107913669 8.45590225563936  111.590935251798 5.84575187969948  L 111.886618705036 4.3880075187972  L 109.856258992806 1.77785714285737  L 109.560575539568 4.10236842105288  L 106.948705035971 9.0370300751882  L 106.081366906474 9.0370300751882  C 104.041151079136 9.0370300751882  101.724964028777 8.75139097744382  99.9804316546759 7.87477443609045  C 98.2358992805752 7.29364661654161  97.3685611510787 5.84575187969948  97.3685611510787 4.10236842105288  L 97.3685611510787 2.94011278195512  L 95.9197122302153 2.94011278195512  L 90.4101438848917 4.38800751879726  L 86.3395683453232 0.329962406015297  L 84.8907194244599 0.0443233082709163  L 83.4320143884886 1.49221804511305  L 85.1765467625893 4.38800751879726  L 85.7580575539562 5.26462406015063  L 82.8505035971216 11.3615413533837  L 82.5548201438842 11.3615413533837  L 82.5548201438842 11.6471804511281  L 82.2689928057547 11.6471804511281  L 77.0452517985605 17.4584586466168  L 76.7495683453232 17.7440977443612  L 76.1680575539562 17.7440977443612  L 68.0367625899275 18.6108646616544  Z " fill-rule="nonzero" fill="#0533aa" stroke="none" fill-opacity="0.482352941176471" transform="matrix(1 0 0 1 1295 329 )" />
    <path d="M 68.0367625899275 18.6108646616544  L 62.5173381294964 17.1432706766918  L 59.0381294964029 21.7922932330828  C 58.4566187050359 22.659060150376  58.1707913669065 24.4024436090226  58.7424460431655 27.308082706767  L 58.7424460431655 29.0514661654137  L 51.7741726618705 29.0514661654137  L 51.4784892086331 29.0514661654137  L 46.5405755395684 27.6035714285715  L 42.7656834532374 33.4050000000001  L 42.1841726618705 33.9861278195489  L 37.5320863309352 36.8819172932331  L 33.4713669064747 41.2354511278196  L 32.8898561151078 42.112067669173  L 25.6357553956833 50.5236466165414  L 25.6357553956833 50.8191353383459  L 25.340071942446 50.8191353383459  L 19.8206474820143 53.7149248120302  L 15.4642446043165 50.8191353383459  L 15.4642446043165 50.5236466165414  L 11.4035251798561 46.1701127819549  L 8.79165467625895 44.7222180451128  L 10.8220143884891 56.6205639097744  L 12.5665467625898 63.0031203007519  L 8.21014388489201 67.0611654135339  L 2.1092086330934 76.0538721804512  L 2.1092086330934 79.8262781954887  L 1.82338129496394 80.1119172932331  L 1.53755395683448 80.1119172932331  L 0.0887050359711423 82.4364285714286  L 1.241870503597 84.4753007518797  L 3.56791366906464 84.4753007518797  L 11.9948920863308 86.7899624060151  L 12.2807194244602 86.7899624060151  L 12.5665467625897 86.7899624060151  L 12.5665467625897 87.0854511278196  L 12.8622302158271 87.0854511278196  L 14.6067625899278 88.8288345864662  L 16.9229496402875 89.991090225564  L 17.5044604316544 89.991090225564  L 17.5044604316544 90.2767293233083  C 18.3816546762587 91.4389849624061  18.9631654676257 92.6012406015039  18.9631654676257 93.7634962406016  L 19.8305035971221 96.3736466165414  L 28.8389928057552 98.9837969924813  L 31.4508633093523 98.4026691729324  L 34.0627338129494 94.9257518796994  L 41.0310071942444 81.5795112781956  L 41.3168345323738 81.5795112781956  L 41.3168345323738 81.2840225563911  L 44.5102158273379 76.9304887218046  L 44.8058992805752 76.6350000000001  L 50.3253237410069 74.0248496240602  L 54.1002158273379 73.7392105263159  C 55.5490647482012 71.4146992481204  56.712086330935 70.2524436090226  58.1609352517983 70.2524436090226  C 59.0282733812947 70.2524436090226  60.4771223021581 70.8335714285714  62.8031654676257 71.9958270676692  L 63.3846762589926 72.2814661654136  L 63.3846762589926 72.5769548872181  L 68.3225899280574 80.1217669172933  L 68.3225899280574 80.4172556390978  L 68.6182733812947 80.4172556390978  L 68.6182733812947 80.9983834586467  L 69.1997841726617 86.5141729323309  L 68.9041007194243 92.611090225564  L 67.455251798561 97.8412406015039  L 67.455251798561 98.4223684210527  L 67.1694244604315 98.4223684210527  L 63.3945323741005 103.061541353384  L 61.6499999999998 106.833947368421  L 61.9456834532372 113.216503759399  L 62.5271942446041 113.216503759399  L 64.5575539568343 112.349736842105  L 66.883597122302 110.310864661654  L 67.4651079136689 109.729736842105  L 67.7607913669062 109.148609022556  L 70.6683453237408 111.768609022557  L 70.6683453237408 112.054248120301  L 70.6683453237408 116.703270676692  L 70.3726618705035 116.703270676692  L 67.7607913669064 117.86552631579  L 66.89345323741 119.027781954887  L 66.89345323741 121.637932330827  L 66.5977697841726 121.923571428572  L 64.8630935251798 125.11484962406  L 64.5674100719424 125.11484962406  L 63.9858992805755 125.410338345865  L 61.6598561151079 125.695977443609  L 59.3338129496402 126.277105263158  L 57.5991366906474 129.468383458647  L 57.8849640287769 130.049511278196  L 67.465107913669 128.887255639098  L 69.2096402877697 127.439360902256  L 72.4030215827337 119.027781954887  L 93.8992086330935 96.9646240601505  L 94.4807194244603 96.9646240601505  L 99.1229496402877 94.640112781955  L 99.4087769784172 94.3544736842107  L 99.4087769784172 94.640112781955  L 103.183669064748 94.640112781955  L 106.958561151079 93.7733458646618  L 111.019280575539 92.0299624060152  L 113.926834532374 88.8386842105265  L 118.569064748201 76.0735714285716  L 118.569064748201 75.7780827067671  L 136.576187050359 56.9160526315791  L 136.576187050359 56.6304135338348  L 135.413165467626 46.4754511278197  C 134.535971223021 46.1799624060152  133.372949640287 45.5988345864664  132.79143884892 44.7320676691731  L 132.209928057554 44.1509398496243  L 132.209928057554 44.4365789473687  L 129.302374100719 44.7320676691732  C 127.853525179856 44.1509398496243  126.976330935251 43.5698120300754  125.823165467626 42.1219172932334  L 124.955827338129 40.3785338345867  L 124.955827338129 40.0830451127822  L 124 39.7974060150379  L 124 24.1266541353386  C 122.925467625899 23.5455263157897  121.180935251798 22.383270676692  119.14071942446 20.354248120301  L 115.365827338129 16.296203007519  L 111.886618705036 11.3615413533837  C 111.305107913669 10.199285714286  111.305107913669 8.45590225563936  111.590935251798 5.84575187969948  L 111.886618705036 4.3880075187972  L 109.856258992806 1.77785714285737  L 109.560575539568 4.10236842105288  L 106.948705035971 9.0370300751882  L 106.081366906474 9.0370300751882  C 104.041151079136 9.0370300751882  101.724964028777 8.75139097744382  99.9804316546759 7.87477443609045  C 98.2358992805752 7.29364661654161  97.3685611510787 5.84575187969948  97.3685611510787 4.10236842105288  L 97.3685611510787 2.94011278195512  L 95.9197122302153 2.94011278195512  L 90.4101438848917 4.38800751879726  L 86.3395683453232 0.329962406015297  L 84.8907194244599 0.0443233082709163  L 83.4320143884886 1.49221804511305  L 85.1765467625893 4.38800751879726  L 85.7580575539562 5.26462406015063  L 82.8505035971216 11.3615413533837  L 82.5548201438842 11.3615413533837  L 82.5548201438842 11.6471804511281  L 82.2689928057547 11.6471804511281  L 77.0452517985605 17.4584586466168  L 76.7495683453232 17.7440977443612  L 76.1680575539562 17.7440977443612  L 68.0367625899275 18.6108646616544  Z " stroke-width="2" stroke="#797979" fill="none" transform="matrix(1 0 0 1 1295 329 )" mask="url(#clip49)" />
  </g>
</svg>