<?xml version="1.0" encoding="utf-8"?>
<svg version="1.1" xmlns:xlink="http://www.w3.org/1999/xlink" width="195px" height="133px" xmlns="http://www.w3.org/2000/svg">
  <defs>
    <mask fill="white" id="clip52">
      <path d="M 44.1310606060608 15.2063333333335  L 38.3204545454545 6.15248148148151  L 37.1583333333334 0.0541851851852199  L 34.2628787878788 1.79796296296301  L 33.9674242424243 1.79796296296301  L 27.0045454545454 4.40870370370375  L 26.7090909090909 3.82744444444449  L 25.5469696969698 3.53188888888892  L 25.5469696969698 6.72388888888893  L 25.2515151515153 7.0194444444445  L 21.7750000000001 12.240925925926  L 21.4795454545456 12.240925925926  L 21.4795454545456 12.5364814814816  L 21.1939393939396 12.5364814814816  L 15.9643939393942 16.8910000000001  L 15.3833333333336 16.8910000000001  L 15.3833333333336 17.4722592592593  L 14.5068181818184 16.8910000000001  C 11.0303030303033 15.4427777777778  8.70606060606086 13.6990000000001  8.12500000000022 12.240925925926  C 7.54393939393959 11.6596666666667  7.25833333333356 11.6596666666667  6.67727272727292 11.373962962963  L 2.90530303030319 11.9552222222223  L 0.581060606060749 14.2802592592593  L 6.67727272727292 19.5017407407408  L 11.6113636363638 21.5410740740742  L 11.8969696969698 21.8366296296297  L 12.1825757575759 21.8366296296297  L 12.4780303030304 22.417888888889  L 12.4780303030304 22.7134444444446  L 13.3545454545455 28.5161851851853  L 13.6401515151515 28.5161851851853  L 13.6401515151515 37.510925925926  L 14.8022727272727 42.7324074074075  L 18.2787878787878 50.8601851851853  L 22.3363636363636 54.6334444444446  L 25.5272727272727 52.3084074074075  L 27.8515151515151 49.4021111111112  L 27.8515151515151 49.1065555555557  L 28.1371212121212 49.1065555555557  L 32.2045454545454 44.1707777777779  L 35.6810606060605 47.3627777777779  L 35.6810606060605 47.6484814814816  L 35.6810606060605 47.9341851851853  L 39.1674242424241 54.6137407407409  L 43.5204545454544 56.3476666666668  L 45.8446969696968 63.312925925926  L 45.8446969696968 63.6084814814816  L 45.8446969696968 63.9040370370372  L 45.5492424242423 70.2880370370372  L 45.5492424242423 70.5835925925927  L 45.2636363636363 70.5835925925927  L 43.5204545454545 76.3961851851853  L 46.7113636363635 79.2926296296298  L 50.1878787878786 77.548851851852  L 53.6742424242422 74.0711481481483  L 54.540909090909 74.6524074074076  L 57.446212121212 75.5193703703705  L 60.9325757575756 78.7113703703705  L 64.7045454545453 77.8444074074076  C 67.6098484848484 76.9675925925928  69.0575757575756 77.8444074074076  69.9242424242422 79.873888888889  L 69.9242424242422 82.4846296296298  L 70.5053030303027 82.7801851851853  L 74.5628787878784 83.9427037037039  L 76.3060606060602 80.1694444444446  L 76.3060606060602 78.7212222222224  C 76.3060606060602 77.5587037037038  76.6015151515147 76.4060370370372  77.4681818181814 76.1104814814816  L 79.7924242424238 76.4060370370372  C 82.9833333333329 77.8542592592595  84.4310606060602 79.8837407407409  84.4310606060602 82.2087777777779  L 84.1356060606057 84.2382592592594  L 84.1356060606057 87.7159629629631  L 87.3265151515148 92.3660370370372  L 91.0984848484844 96.4250000000002  C 92.2606060606057 97.8732222222224  93.708333333333 98.4544814814817  95.1659090909087 99.0357407407409  L 95.7469696969693 99.0357407407409  C 96.6234848484845 99.6170000000001  97.2045454545451 101.065222222222  97 104.267074074074  L 97 117.33062962963  C 97.7856060606056 118.493148148148  98.6522727272723 119.360111111111  99.5189393939389 119.655666666667  L 100.099999999999 119.655666666667  C 101.843181818181 118.788703703704  102.995454545454 119.074407407408  104.45303030303 120.532481481482  L 105.319696969697 121.113740740741  C 106.767424242424 121.409296296296  107.929545454545 122.571814814815  108.225 124.887  L 108.80606060606 132.147814814815  L 115.473484848484 118.503  C 117.502272727272 111.242185185185  119.826515151515 106.897518518519  123.017424242424 106.316259259259  C 125.637121212121 105.449296296296  129.694696969697 106.897518518519  134.914393939394 109.803814814815  L 153.774242424242 111.252037037037  L 154.355303030303 107.183222222222  L 145.649242424242 98.759888888889  C 141.591666666666 96.434851851852  139.848484848484 94.700925925926  140.429545454545 93.5384074074075  L 147.106818181818 93.8339629629631  C 153.20303030303 95.8732962962964  159.003787878787 92.3857407407408  164.518939393939 82.5141851851853  L 164.814393939394 82.5141851851853  L 171.196212121212 76.4257407407408  L 172.072727272727 63.0666296296297  L 172.072727272727 61.6184074074075  L 172.939393939394 61.6184074074075  L 173.520454545454 61.6184074074075  L 178.454545454545 60.455888888889  L 179.321212121212 60.455888888889  L 179.902272727273 60.7514444444445  L 179.902272727273 61.0470000000001  L 190.05606060606 71.7855185185186  L 192.961363636363 70.6230000000001  L 193.542424242424 68.8792222222224  L 188.027272727273 63.6577407407408  L 187.160606060606 63.0764814814816  L 186.579545454545 62.2095185185186  L 194.990151515151 57.2737407407408  L 194.418939393939 45.0870000000001  L 190.932575757576 45.6584074074075  L 190.637121212121 45.6584074074075  L 185.998484848485 43.3432222222223  C 184.255303030303 43.0476666666668  181.940909090909 41.8851481481483  178.454545454545 39.8556666666668  C 176.711363636363 38.9887037037038  175.549242424242 38.111888888889  175.549242424242 36.9493703703705  L 175.549242424242 37.2449259259261  C 175.549242424242 38.4074444444446  175.253787878788 38.9887037037039  174.672727272727 39.2744074074076  C 173.796212121212 39.8556666666668  172.643939393939 40.1413703703705  170.615151515151 40.1413703703705  L 170.319696969697 40.1413703703705  L 170.034090909091 39.8458148148149  L 169.738636363636 39.8458148148149  L 165.681060606061 36.9395185185187  L 162.194696969697 39.8458148148149  C 160.451515151515 41.2940370370372  159.289393939394 42.4565555555557  159.289393939394 43.6190740740742  L 161.032575757576 47.3923333333335  C 161.909090909091 48.5450000000001  161.909090909091 49.1262592592594  161.613636363636 50.0030740740742  C 161.032575757576 50.8700370370372  159.584848484848 51.746851851852  157.556060606061 52.0325555555557  L 155.812878787879 52.9093703703705  C 153.784090909091 53.4906296296298  152.040909090909 53.1950740740742  150.878787878788 51.746851851852  L 150.297727272727 50.879888888889  L 142.753787878788 43.0476666666668  C 139.267424242424 41.8851481481483  137.238636363637 40.4369259259261  136.37196969697 38.6931481481483  C 135.790909090909 37.8261851851854  135.495454545454 36.9493703703705  135.790909090909 36.3681111111113  C 135.495454545455 33.7573703703705  134.914393939394 32.0135925925928  134.333333333333 31.1466296296298  L 132.885606060606 32.0135925925927  L 132.6 32.594851851852  C 132.6 33.461814814815  132.885606060606 34.3386296296298  133.762121212121 35.5011481481483  L 134.057575757576 36.0824074074076  L 134.343181818182 36.3681111111112  L 134.057575757576 36.9493703703705  L 130 43.6289259259261  L 123.322727272728 42.1807037037038  L 121.875 41.303888888889  L 121.875 40.4369259259261  C 122.446212121212 39.2744074074076  122.446212121212 37.8261851851853  121.875 36.3779629629631  L 120.998484848485 34.0529259259261  L 115.483333333334 29.9939629629631  L 115.197727272728 29.6984074074075  C 114.626515151515 30.5653703703705  114.045454545455 30.5653703703705  113.464393939394 30.8609259259261  L 108.244696969697 30.2796666666668  C 106.501515151515 29.9939629629631  105.339393939394 29.6984074074075  104.768181818182 28.5457407407409  C 104.472727272728 27.9644814814816  104.472727272728 26.8019629629631  105.053787878788 25.3537407407409  L 105.349242424243 24.4867777777779  L 103.025 20.4179629629631  L 92.8712121212125 20.9992222222224  C 93.1568181818186 22.4474444444446  92.8712121212125 23.3242592592594  92.290151515152 24.4867777777779  C 91.9946969696975 25.3537407407409  90.8325757575762 25.6492962962964  89.9659090909097 25.6492962962964  C 88.5083333333339 26.2305555555557  86.7651515151521 25.6492962962964  85.3174242424248 24.1912222222224  L 85.3174242424248 23.9055185185187  L 85.0318181818188 23.9055185185187  C 82.7075757575765 21.2947777777779  81.8409090909097 19.2554444444446  81.8409090909097 17.5215185185187  L 79.8121212121219 14.6152222222224  L 76.9068181818188 16.6447037037039  C 74.2969696969702 18.0929259259261  72.5537878787884 18.0929259259261  71.6772727272734 16.9402592592594  L 70.5250000000006 16.6447037037039  L 67.6196969696975 16.9402592592594  L 59.790151515152 19.5510000000002  C 58.0469696969702 20.7135185185187  56.5992424242429 21.0090740740743  55.4371212121216 21.0090740740743  L 54.5704545454549 21.0090740740743  C 51.6651515151518 21.0090740740743  49.92196969697 20.1322592592595  48.7696969696972 18.9795925925928  L 44.1310606060608 15.2063333333335  Z " fill-rule="evenodd" />
    </mask>
  </defs>
  <g transform="matrix(1 0 0 1 -1325 -252 )">
    <path d="M 44.1310606060608 15.2063333333335  L 38.3204545454545 6.15248148148151  L 37.1583333333334 0.0541851851852199  L 34.2628787878788 1.79796296296301  L 33.9674242424243 1.79796296296301  L 27.0045454545454 4.40870370370375  L 26.7090909090909 3.82744444444449  L 25.5469696969698 3.53188888888892  L 25.5469696969698 6.72388888888893  L 25.2515151515153 7.0194444444445  L 21.7750000000001 12.240925925926  L 21.4795454545456 12.240925925926  L 21.4795454545456 12.5364814814816  L 21.1939393939396 12.5364814814816  L 15.9643939393942 16.8910000000001  L 15.3833333333336 16.8910000000001  L 15.3833333333336 17.4722592592593  L 14.5068181818184 16.8910000000001  C 11.0303030303033 15.4427777777778  8.70606060606086 13.6990000000001  8.12500000000022 12.240925925926  C 7.54393939393959 11.6596666666667  7.25833333333356 11.6596666666667  6.67727272727292 11.373962962963  L 2.90530303030319 11.9552222222223  L 0.581060606060749 14.2802592592593  L 6.67727272727292 19.5017407407408  L 11.6113636363638 21.5410740740742  L 11.8969696969698 21.8366296296297  L 12.1825757575759 21.8366296296297  L 12.4780303030304 22.417888888889  L 12.4780303030304 22.7134444444446  L 13.3545454545455 28.5161851851853  L 13.6401515151515 28.5161851851853  L 13.6401515151515 37.510925925926  L 14.8022727272727 42.7324074074075  L 18.2787878787878 50.8601851851853  L 22.3363636363636 54.6334444444446  L 25.5272727272727 52.3084074074075  L 27.8515151515151 49.4021111111112  L 27.8515151515151 49.1065555555557  L 28.1371212121212 49.1065555555557  L 32.2045454545454 44.1707777777779  L 35.6810606060605 47.3627777777779  L 35.6810606060605 47.6484814814816  L 35.6810606060605 47.9341851851853  L 39.1674242424241 54.6137407407409  L 43.5204545454544 56.3476666666668  L 45.8446969696968 63.312925925926  L 45.8446969696968 63.6084814814816  L 45.8446969696968 63.9040370370372  L 45.5492424242423 70.2880370370372  L 45.5492424242423 70.5835925925927  L 45.2636363636363 70.5835925925927  L 43.5204545454545 76.3961851851853  L 46.7113636363635 79.2926296296298  L 50.1878787878786 77.548851851852  L 53.6742424242422 74.0711481481483  L 54.540909090909 74.6524074074076  L 57.446212121212 75.5193703703705  L 60.9325757575756 78.7113703703705  L 64.7045454545453 77.8444074074076  C 67.6098484848484 76.9675925925928  69.0575757575756 77.8444074074076  69.9242424242422 79.873888888889  L 69.9242424242422 82.4846296296298  L 70.5053030303027 82.7801851851853  L 74.5628787878784 83.9427037037039  L 76.3060606060602 80.1694444444446  L 76.3060606060602 78.7212222222224  C 76.3060606060602 77.5587037037038  76.6015151515147 76.4060370370372  77.4681818181814 76.1104814814816  L 79.7924242424238 76.4060370370372  C 82.9833333333329 77.8542592592595  84.4310606060602 79.8837407407409  84.4310606060602 82.2087777777779  L 84.1356060606057 84.2382592592594  L 84.1356060606057 87.7159629629631  L 87.3265151515148 92.3660370370372  L 91.0984848484844 96.4250000000002  C 92.2606060606057 97.8732222222224  93.708333333333 98.4544814814817  95.1659090909087 99.0357407407409  L 95.7469696969693 99.0357407407409  C 96.6234848484845 99.6170000000001  97.2045454545451 101.065222222222  97 104.267074074074  L 97 117.33062962963  C 97.7856060606056 118.493148148148  98.6522727272723 119.360111111111  99.5189393939389 119.655666666667  L 100.099999999999 119.655666666667  C 101.843181818181 118.788703703704  102.995454545454 119.074407407408  104.45303030303 120.532481481482  L 105.319696969697 121.113740740741  C 106.767424242424 121.409296296296  107.929545454545 122.571814814815  108.225 124.887  L 108.80606060606 132.147814814815  L 115.473484848484 118.503  C 117.502272727272 111.242185185185  119.826515151515 106.897518518519  123.017424242424 106.316259259259  C 125.637121212121 105.449296296296  129.694696969697 106.897518518519  134.914393939394 109.803814814815  L 153.774242424242 111.252037037037  L 154.355303030303 107.183222222222  L 145.649242424242 98.759888888889  C 141.591666666666 96.434851851852  139.848484848484 94.700925925926  140.429545454545 93.5384074074075  L 147.106818181818 93.8339629629631  C 153.20303030303 95.8732962962964  159.003787878787 92.3857407407408  164.518939393939 82.5141851851853  L 164.814393939394 82.5141851851853  L 171.196212121212 76.4257407407408  L 172.072727272727 63.0666296296297  L 172.072727272727 61.6184074074075  L 172.939393939394 61.6184074074075  L 173.520454545454 61.6184074074075  L 178.454545454545 60.455888888889  L 179.321212121212 60.455888888889  L 179.902272727273 60.7514444444445  L 179.902272727273 61.0470000000001  L 190.05606060606 71.7855185185186  L 192.961363636363 70.6230000000001  L 193.542424242424 68.8792222222224  L 188.027272727273 63.6577407407408  L 187.160606060606 63.0764814814816  L 186.579545454545 62.2095185185186  L 194.990151515151 57.2737407407408  L 194.418939393939 45.0870000000001  L 190.932575757576 45.6584074074075  L 190.637121212121 45.6584074074075  L 185.998484848485 43.3432222222223  C 184.255303030303 43.0476666666668  181.940909090909 41.8851481481483  178.454545454545 39.8556666666668  C 176.711363636363 38.9887037037038  175.549242424242 38.111888888889  175.549242424242 36.9493703703705  L 175.549242424242 37.2449259259261  C 175.549242424242 38.4074444444446  175.253787878788 38.9887037037039  174.672727272727 39.2744074074076  C 173.796212121212 39.8556666666668  172.643939393939 40.1413703703705  170.615151515151 40.1413703703705  L 170.319696969697 40.1413703703705  L 170.034090909091 39.8458148148149  L 169.738636363636 39.8458148148149  L 165.681060606061 36.9395185185187  L 162.194696969697 39.8458148148149  C 160.451515151515 41.2940370370372  159.289393939394 42.4565555555557  159.289393939394 43.6190740740742  L 161.032575757576 47.3923333333335  C 161.909090909091 48.5450000000001  161.909090909091 49.1262592592594  161.613636363636 50.0030740740742  C 161.032575757576 50.8700370370372  159.584848484848 51.746851851852  157.556060606061 52.0325555555557  L 155.812878787879 52.9093703703705  C 153.784090909091 53.4906296296298  152.040909090909 53.1950740740742  150.878787878788 51.746851851852  L 150.297727272727 50.879888888889  L 142.753787878788 43.0476666666668  C 139.267424242424 41.8851481481483  137.238636363637 40.4369259259261  136.37196969697 38.6931481481483  C 135.790909090909 37.8261851851854  135.495454545454 36.9493703703705  135.790909090909 36.3681111111113  C 135.495454545455 33.7573703703705  134.914393939394 32.0135925925928  134.333333333333 31.1466296296298  L 132.885606060606 32.0135925925927  L 132.6 32.594851851852  C 132.6 33.461814814815  132.885606060606 34.3386296296298  133.762121212121 35.5011481481483  L 134.057575757576 36.0824074074076  L 134.343181818182 36.3681111111112  L 134.057575757576 36.9493703703705  L 130 43.6289259259261  L 123.322727272728 42.1807037037038  L 121.875 41.303888888889  L 121.875 40.4369259259261  C 122.446212121212 39.2744074074076  122.446212121212 37.8261851851853  121.875 36.3779629629631  L 120.998484848485 34.0529259259261  L 115.483333333334 29.9939629629631  L 115.197727272728 29.6984074074075  C 114.626515151515 30.5653703703705  114.045454545455 30.5653703703705  113.464393939394 30.8609259259261  L 108.244696969697 30.2796666666668  C 106.501515151515 29.9939629629631  105.339393939394 29.6984074074075  104.768181818182 28.5457407407409  C 104.472727272728 27.9644814814816  104.472727272728 26.8019629629631  105.053787878788 25.3537407407409  L 105.349242424243 24.4867777777779  L 103.025 20.4179629629631  L 92.8712121212125 20.9992222222224  C 93.1568181818186 22.4474444444446  92.8712121212125 23.3242592592594  92.290151515152 24.4867777777779  C 91.9946969696975 25.3537407407409  90.8325757575762 25.6492962962964  89.9659090909097 25.6492962962964  C 88.5083333333339 26.2305555555557  86.7651515151521 25.6492962962964  85.3174242424248 24.1912222222224  L 85.3174242424248 23.9055185185187  L 85.0318181818188 23.9055185185187  C 82.7075757575765 21.2947777777779  81.8409090909097 19.2554444444446  81.8409090909097 17.5215185185187  L 79.8121212121219 14.6152222222224  L 76.9068181818188 16.6447037037039  C 74.2969696969702 18.0929259259261  72.5537878787884 18.0929259259261  71.6772727272734 16.9402592592594  L 70.5250000000006 16.6447037037039  L 67.6196969696975 16.9402592592594  L 59.790151515152 19.5510000000002  C 58.0469696969702 20.7135185185187  56.5992424242429 21.0090740740743  55.4371212121216 21.0090740740743  L 54.5704545454549 21.0090740740743  C 51.6651515151518 21.0090740740743  49.92196969697 20.1322592592595  48.7696969696972 18.9795925925928  L 44.1310606060608 15.2063333333335  Z " fill-rule="nonzero" fill="#20dbea" stroke="none" fill-opacity="0.4" transform="matrix(1 0 0 1 1325 252 )" />
    <path d="M 44.1310606060608 15.2063333333335  L 38.3204545454545 6.15248148148151  L 37.1583333333334 0.0541851851852199  L 34.2628787878788 1.79796296296301  L 33.9674242424243 1.79796296296301  L 27.0045454545454 4.40870370370375  L 26.7090909090909 3.82744444444449  L 25.5469696969698 3.53188888888892  L 25.5469696969698 6.72388888888893  L 25.2515151515153 7.0194444444445  L 21.7750000000001 12.240925925926  L 21.4795454545456 12.240925925926  L 21.4795454545456 12.5364814814816  L 21.1939393939396 12.5364814814816  L 15.9643939393942 16.8910000000001  L 15.3833333333336 16.8910000000001  L 15.3833333333336 17.4722592592593  L 14.5068181818184 16.8910000000001  C 11.0303030303033 15.4427777777778  8.70606060606086 13.6990000000001  8.12500000000022 12.240925925926  C 7.54393939393959 11.6596666666667  7.25833333333356 11.6596666666667  6.67727272727292 11.373962962963  L 2.90530303030319 11.9552222222223  L 0.581060606060749 14.2802592592593  L 6.67727272727292 19.5017407407408  L 11.6113636363638 21.5410740740742  L 11.8969696969698 21.8366296296297  L 12.1825757575759 21.8366296296297  L 12.4780303030304 22.417888888889  L 12.4780303030304 22.7134444444446  L 13.3545454545455 28.5161851851853  L 13.6401515151515 28.5161851851853  L 13.6401515151515 37.510925925926  L 14.8022727272727 42.7324074074075  L 18.2787878787878 50.8601851851853  L 22.3363636363636 54.6334444444446  L 25.5272727272727 52.3084074074075  L 27.8515151515151 49.4021111111112  L 27.8515151515151 49.1065555555557  L 28.1371212121212 49.1065555555557  L 32.2045454545454 44.1707777777779  L 35.6810606060605 47.3627777777779  L 35.6810606060605 47.6484814814816  L 35.6810606060605 47.9341851851853  L 39.1674242424241 54.6137407407409  L 43.5204545454544 56.3476666666668  L 45.8446969696968 63.312925925926  L 45.8446969696968 63.6084814814816  L 45.8446969696968 63.9040370370372  L 45.5492424242423 70.2880370370372  L 45.5492424242423 70.5835925925927  L 45.2636363636363 70.5835925925927  L 43.5204545454545 76.3961851851853  L 46.7113636363635 79.2926296296298  L 50.1878787878786 77.548851851852  L 53.6742424242422 74.0711481481483  L 54.540909090909 74.6524074074076  L 57.446212121212 75.5193703703705  L 60.9325757575756 78.7113703703705  L 64.7045454545453 77.8444074074076  C 67.6098484848484 76.9675925925928  69.0575757575756 77.8444074074076  69.9242424242422 79.873888888889  L 69.9242424242422 82.4846296296298  L 70.5053030303027 82.7801851851853  L 74.5628787878784 83.9427037037039  L 76.3060606060602 80.1694444444446  L 76.3060606060602 78.7212222222224  C 76.3060606060602 77.5587037037038  76.6015151515147 76.4060370370372  77.4681818181814 76.1104814814816  L 79.7924242424238 76.4060370370372  C 82.9833333333329 77.8542592592595  84.4310606060602 79.8837407407409  84.4310606060602 82.2087777777779  L 84.1356060606057 84.2382592592594  L 84.1356060606057 87.7159629629631  L 87.3265151515148 92.3660370370372  L 91.0984848484844 96.4250000000002  C 92.2606060606057 97.8732222222224  93.708333333333 98.4544814814817  95.1659090909087 99.0357407407409  L 95.7469696969693 99.0357407407409  C 96.6234848484845 99.6170000000001  97.2045454545451 101.065222222222  97 104.267074074074  L 97 117.33062962963  C 97.7856060606056 118.493148148148  98.6522727272723 119.360111111111  99.5189393939389 119.655666666667  L 100.099999999999 119.655666666667  C 101.843181818181 118.788703703704  102.995454545454 119.074407407408  104.45303030303 120.532481481482  L 105.319696969697 121.113740740741  C 106.767424242424 121.409296296296  107.929545454545 122.571814814815  108.225 124.887  L 108.80606060606 132.147814814815  L 115.473484848484 118.503  C 117.502272727272 111.242185185185  119.826515151515 106.897518518519  123.017424242424 106.316259259259  C 125.637121212121 105.449296296296  129.694696969697 106.897518518519  134.914393939394 109.803814814815  L 153.774242424242 111.252037037037  L 154.355303030303 107.183222222222  L 145.649242424242 98.759888888889  C 141.591666666666 96.434851851852  139.848484848484 94.700925925926  140.429545454545 93.5384074074075  L 147.106818181818 93.8339629629631  C 153.20303030303 95.8732962962964  159.003787878787 92.3857407407408  164.518939393939 82.5141851851853  L 164.814393939394 82.5141851851853  L 171.196212121212 76.4257407407408  L 172.072727272727 63.0666296296297  L 172.072727272727 61.6184074074075  L 172.939393939394 61.6184074074075  L 173.520454545454 61.6184074074075  L 178.454545454545 60.455888888889  L 179.321212121212 60.455888888889  L 179.902272727273 60.7514444444445  L 179.902272727273 61.0470000000001  L 190.05606060606 71.7855185185186  L 192.961363636363 70.6230000000001  L 193.542424242424 68.8792222222224  L 188.027272727273 63.6577407407408  L 187.160606060606 63.0764814814816  L 186.579545454545 62.2095185185186  L 194.990151515151 57.2737407407408  L 194.418939393939 45.0870000000001  L 190.932575757576 45.6584074074075  L 190.637121212121 45.6584074074075  L 185.998484848485 43.3432222222223  C 184.255303030303 43.0476666666668  181.940909090909 41.8851481481483  178.454545454545 39.8556666666668  C 176.711363636363 38.9887037037038  175.549242424242 38.111888888889  175.549242424242 36.9493703703705  L 175.549242424242 37.2449259259261  C 175.549242424242 38.4074444444446  175.253787878788 38.9887037037039  174.672727272727 39.2744074074076  C 173.796212121212 39.8556666666668  172.643939393939 40.1413703703705  170.615151515151 40.1413703703705  L 170.319696969697 40.1413703703705  L 170.034090909091 39.8458148148149  L 169.738636363636 39.8458148148149  L 165.681060606061 36.9395185185187  L 162.194696969697 39.8458148148149  C 160.451515151515 41.2940370370372  159.289393939394 42.4565555555557  159.289393939394 43.6190740740742  L 161.032575757576 47.3923333333335  C 161.909090909091 48.5450000000001  161.909090909091 49.1262592592594  161.613636363636 50.0030740740742  C 161.032575757576 50.8700370370372  159.584848484848 51.746851851852  157.556060606061 52.0325555555557  L 155.812878787879 52.9093703703705  C 153.784090909091 53.4906296296298  152.040909090909 53.1950740740742  150.878787878788 51.746851851852  L 150.297727272727 50.879888888889  L 142.753787878788 43.0476666666668  C 139.267424242424 41.8851481481483  137.238636363637 40.4369259259261  136.37196969697 38.6931481481483  C 135.790909090909 37.8261851851854  135.495454545454 36.9493703703705  135.790909090909 36.3681111111113  C 135.495454545455 33.7573703703705  134.914393939394 32.0135925925928  134.333333333333 31.1466296296298  L 132.885606060606 32.0135925925927  L 132.6 32.594851851852  C 132.6 33.461814814815  132.885606060606 34.3386296296298  133.762121212121 35.5011481481483  L 134.057575757576 36.0824074074076  L 134.343181818182 36.3681111111112  L 134.057575757576 36.9493703703705  L 130 43.6289259259261  L 123.322727272728 42.1807037037038  L 121.875 41.303888888889  L 121.875 40.4369259259261  C 122.446212121212 39.2744074074076  122.446212121212 37.8261851851853  121.875 36.3779629629631  L 120.998484848485 34.0529259259261  L 115.483333333334 29.9939629629631  L 115.197727272728 29.6984074074075  C 114.626515151515 30.5653703703705  114.045454545455 30.5653703703705  113.464393939394 30.8609259259261  L 108.244696969697 30.2796666666668  C 106.501515151515 29.9939629629631  105.339393939394 29.6984074074075  104.768181818182 28.5457407407409  C 104.472727272728 27.9644814814816  104.472727272728 26.8019629629631  105.053787878788 25.3537407407409  L 105.349242424243 24.4867777777779  L 103.025 20.4179629629631  L 92.8712121212125 20.9992222222224  C 93.1568181818186 22.4474444444446  92.8712121212125 23.3242592592594  92.290151515152 24.4867777777779  C 91.9946969696975 25.3537407407409  90.8325757575762 25.6492962962964  89.9659090909097 25.6492962962964  C 88.5083333333339 26.2305555555557  86.7651515151521 25.6492962962964  85.3174242424248 24.1912222222224  L 85.3174242424248 23.9055185185187  L 85.0318181818188 23.9055185185187  C 82.7075757575765 21.2947777777779  81.8409090909097 19.2554444444446  81.8409090909097 17.5215185185187  L 79.8121212121219 14.6152222222224  L 76.9068181818188 16.6447037037039  C 74.2969696969702 18.0929259259261  72.5537878787884 18.0929259259261  71.6772727272734 16.9402592592594  L 70.5250000000006 16.6447037037039  L 67.6196969696975 16.9402592592594  L 59.790151515152 19.5510000000002  C 58.0469696969702 20.7135185185187  56.5992424242429 21.0090740740743  55.4371212121216 21.0090740740743  L 54.5704545454549 21.0090740740743  C 51.6651515151518 21.0090740740743  49.92196969697 20.1322592592595  48.7696969696972 18.9795925925928  L 44.1310606060608 15.2063333333335  Z " stroke-width="2" stroke="#797979" fill="none" transform="matrix(1 0 0 1 1325 252 )" mask="url(#clip52)" />
  </g>
</svg>