<?xml version="1.0" encoding="utf-8"?>
<svg version="1.1" xmlns:xlink="http://www.w3.org/1999/xlink" width="261px" height="238px" xmlns="http://www.w3.org/2000/svg">
  <defs>
    <mask fill="white" id="clip54">
      <path d="M 258.625488721805 164.698962655602  C 260.372030075188 160.630248962656  260.372030075188 152.196556016598  259.214210526316 139.101618257261  L 254.877293233083 110.590995850622  L 255.161842105263 110.008340248963  L 255.456203007519 110.008340248963  C 257.477481203007 106.80867219917  258.63530075188 104.191659751037  258.056390977444 102.147427385892  L 256.908383458647 100.399460580913  C 253.729285714286 98.3651037344399  252.277105263158 93.7038589211619  253.15037593985 85.8528215767635  L 250.54037593985 85.8528215767635  C 248.519097744361 85.5664315352698  246.203458646616 86.4354771784233  243.897631578947 87.8871784232366  C 241.581992481203 89.6351452282158  240.13962406015 91.6695020746889  239.85507518797 93.1212033195021  C 238.697255639098 96.6072614107884  234.939248120301 98.9378838174274  228.581052631579 100.9722406639  L 227.138684210526 109.998464730291  L 227.138684210526 110.294730290456  L 226.844323308271 110.590995850622  L 223.675037593985 116.407676348548  L 223.380676691729 116.990331950208  L 223.086315789474 116.990331950208  L 222.791954887218 116.990331950208  L 194.170263157895 122.234232365145  L 193.875902255639 122.234232365145  L 193.012443609023 122.234232365145  L 193.012443609023 121.651576763486  L 184.632969924812 112.635228215768  L 187.233157894737 110.018215767635  L 184.054060150376 105.653236514523  L 180.001691729323 102.739958506224  L 179.717142857143 102.45356846473  L 179.422781954887 102.45356846473  L 179.422781954887 102.167178423237  L 179.422781954887 101.880788381743  L 177.980413533835 94.0297510373444  L 170.464398496241 94.6124066390042  L 169.89530075188 94.0297510373444  L 163.527293233083 90.2474273858922  L 140.684887218045 86.1787136929461  L 121.600488721805 85.2997925311204  L 121.021578947369 85.8824481327801  C 120.148308270677 85.8824481327801  119.579210526316 85.5960580912863  119.28484962406 85.0035269709544  L 108.29537593985 59.9888381742739  C 107.147368421053 57.9446058091287  102.516090225564 51.5452697095436  93.2633458646618 40.4945643153527  C 84.5895112781956 29.7302489626556  79.6736842105265 23.9135684647303  78.2313157894738 22.7482572614108  L 62.0414661654137 6.74991701244817  L 59.4412781954889 5.28834024896269  L 39.2088721804513 4.99207468879672  L 38.9243233082709 4.99207468879672  L 38.3454135338347 4.40941908713696  C 36.3241353383461 2.95771784232369  33.4295864661656 1.49614107883821  29.0926691729325 0.627095435684682  C 25.3346616541355 -0.834481327800795  16.6608270676694 2.07879668049796  3.07116541353405 9.35705394190875  L 2.49225563909793 9.64344398340253  L 3.07116541353405 13.7121576763486  L 3.35571428571447 13.7121576763486  L 3.35571428571447 14.0084232365146  L 3.07116541353405 14.0084232365146  L 3.07116541353405 14.5910788381743  L 0.755526315789679 19.2424481327801  L 0.755526315789679 19.5387136929461  L 0.461165413534084 19.5387136929461  L 0.176616541353669 22.7383817427386  C 0.176616541353669 25.3553941908714  0.75552631578979 28.2686721991702  1.61898496240633 30.589419087137  L 3.65007518797029 32.0411203319502  L 7.98699248120333 31.7448547717843  L 11.7450000000004 32.6139004149378  L 13.187368421053 31.4485892116183  C 13.187368421053 28.8315767634855  14.0606390977447 26.7972199170125  15.2086466165417 26.2145643153527  L 18.1031954887222 26.2145643153527  L 28.2193984962409 29.1278423236515  L 30.5350375939853 29.4142323651453  L 27.3559398496244 34.9445228215768  L 27.3559398496244 41.6401244813278  C 27.3559398496244 43.1017012448133  29.9659398496244 46.5877593360996  35.1663157894741 51.5353941908714  C 38.345413533835 53.8660165975104  40.3666917293236 55.0214522821577  42.103421052632 55.3177178423237  L 43.5556015037598 55.0214522821577  L 44.9979699248125 54.438796680498  L 49.9137969924817 49.4911618257262  L 53.6718045112787 47.1605394190872  L 53.6718045112787 46.8642738589212  L 61.4723684210532 45.6989626556017  L 63.7781954887224 40.7513278008299  L 70.7153007518803 36.6727385892117  L 76.7889473684217 40.1686721991702  L 76.7889473684217 40.4550622406639  L 77.3678571428578 40.7513278008299  L 83.1569548872187 50.6367219917013  L 85.4627819548879 57.3323236514523  L 85.4627819548879 58.211244813278  L 84.3049624060158 66.3585477178424  L 86.6206015037602 71.8888381742739  L 86.6206015037602 72.7677593360996  L 84.8936842105271 79.1670954356847  L 84.8936842105271 84.98377593361  C 86.6206015037602 90.2276763485478  87.4938721804519 93.7137344398341  87.4938721804519 94.5926556016598  L 86.9149624060157 99.5304149377594  L 86.9149624060157 99.8266804979254  L 84.0204135338353 103.895394190871  L 84.0204135338353 104.191659751037  L 81.1258646616547 107.677717842324  L 80.8315037593992 114.077053941909  L 82.5682330827074 120.77265560166  L 82.8527819548878 121.059045643154  L 82.5682330827074 121.345435684647  L 80.8315037593992 131.527095435685  L 79.3793233082713 132.978796680498  C 78.2215037593992 133.857717842324  76.7791353383465 133.857717842324  75.0424060150383 132.978796680498  L 74.4634962406022 132.978796680498  L 71.8633082706774 130.075394190871  L 68.9687593984969 130.954315352697  L 65.2107518796998 135.023029045643  L 61.1583834586472 146.95265560166  L 61.1583834586472 147.248921161826  L 60.8738345864668 147.53531120332  L 56.8214661654142 151.021369294606  L 56.2425563909781 151.021369294606  L 53.9269172932337 151.317634854772  L 49.2956390977449 158.013236514523  L 51.6112781954893 162.378215767635  L 52.1901879699254 162.960871369295  L 57.9694736842111 170.229253112033  L 57.9694736842111 170.525518672199  L 57.9694736842111 172.856141078838  L 64.3276691729329 173.725186721992  L 65.4854887218051 179.551742738589  L 65.4854887218051 179.838132780083  L 66.3489473684216 186.820124481328  L 68.0856766917299 188.271825726141  L 73.8649624060156 186.523858921162  L 79.3596992481209 183.324190871369  L 80.2329699248126 182.74153526971  L 82.2542481203012 192.636804979253  L 84.8642481203012 196.429004149378  L 85.4431578947373 196.715394190871  L 87.4742481203013 200.79398340249  L 91.8111654135344 204.280041493776  C 92.3900751879705 205.158962655602  93.8324436090231 205.158962655602  95.2748120300758 205.158962655602  L 96.7171804511284 205.455228215768  L 99.3271804511285 204.289917012448  C 101.348458646617 203.420871369295  103.369736842106 202.541950207469  105.68537593985 202.255560165975  L 107.422105263159 201.376639004149  L 111.464661654136 201.080373443983  C 112.907030075189 201.080373443983  113.485939849625 201.376639004149  114.349398496241 202.245684647303  L 120.138496240602 198.463360995851  L 120.717406015038 198.463360995851  L 121.296315789474 198.759626556017  L 121.59067669173 198.463360995851  L 122.169586466166 199.04601659751  C 124.475413533835 201.663029045643  125.633233082707 203.993651452282  125.633233082707 205.158962655602  L 128.243233082707 209.523941908714  L 130.264511278196 210.106597510373  L 130.549060150376 210.106597510373  L 130.843421052632 210.106597510373  L 130.264511278196 209.523941908714  C 129.97015037594 208.0722406639  129.97015037594 207.193319502075  130.264511278196 206.610663900415  C 130.843421052632 205.731742738589  132.001240601504 205.158962655602  133.737969924812 205.158962655602  L 144.433082706767 204.872572614108  L 144.727443609023 204.586182572614  L 145.306353383459 204.586182572614  L 145.306353383459 205.168838174274  L 145.885263157895 205.168838174274  L 149.064360902256 211.281784232365  L 148.77 214.481452282158  L 148.48545112782 214.481452282158  L 152.528007518797 215.360373443983  L 152.812556390978 215.360373443983  C 152.528007518797 214.481452282158  152.528007518797 213.898796680498  153.097105263158 213.32601659751  L 154.539473684211 213.029751037344  L 164.076766917293 219.725352697095  C 164.94022556391 220.604273858921  165.519135338346 221.759709543569  165.813496240602 223.211410788382  L 166.098045112782 227.29  L 169.286954887218 227.87265560166  L 171.308233082707 224.376721991701  C 170.434962406015 222.628755186722  169.865864661654 220.880788381743  170.150413533835 219.715477178423  C 170.434962406015 218.550165975104  170.729323308271 217.68112033195  171.877330827068 217.09846473029  L 172.75060150376 216.229419087137  C 172.75060150376 215.646763485477  173.044962406015 215.360373443983  173.614060150376 215.064107883817  L 176.214248120301 215.360373443983  C 177.656616541354 216.229419087137  178.824248120301 219.142697095436  179.393345864662 224.090331950208  L 179.393345864662 224.672987551867  L 179.972255639098 224.969253112033  C 180.266616541354 226.134564315353  181.993533834587 227.003609958506  184.603533834587 227.882531120332  L 184.888082706767 227.882531120332  L 185.182443609023 228.168921161826  L 194.435187969925 237.767925311203  L 198.772105263158 236.306348547718  L 198.193195488722 234.854647302905  C 197.03537593985 233.402946058091  196.741015037594 231.951244813278  196.741015037594 231.072323651452  C 196.741015037594 229.028091286307  198.193195488722 226.993734439834  201.077932330828 224.959377593361  L 205.993759398497 220.594398340249  L 211.773045112783 224.663112033195  L 212.930864661655 224.663112033195  L 214.088684210527 218.26377593361  L 214.088684210527 217.098464730291  L 215.246503759399 216.802199170125  L 219.877781954888 217.384854771784  C 220.75105263158 218.253900414938  221.320150375941 219.132821576764  221.320150375941 220.584522821577  C 221.320150375941 221.739958506224  220.456691729324 223.20153526971  219.583421052632 224.366846473029  L 220.456691729324 224.949502074689  C 223.34142857143 226.401203319502  225.657067669174 227.566514522822  227.393796992482 227.862780082988  L 227.688157894738 227.862780082988  L 231.446165413535 229.897136929461  L 234.340714285715 229.600871369295  L 230.003796992482 208.358630705394  C 227.119060150377 206.610663900415  224.509060150377 203.124605809129  221.908872180452 199.04601659751  C 219.887593984963 195.550082987552  221.03560150376 190.612323651452  225.666879699249 184.785767634855  C 228.267067669174 181.882365145228  231.446165413535 178.96908713693  234.919624060151 176.055809128631  L 235.213984962407 175.473153526971  L 239.256541353384 175.473153526971  L 239.55090225564 176.055809128631  L 243.014548872181 177.507510373444  L 250.246015037594 177.507510373444  C 253.140563909775 176.055809128631  255.7407518797 171.690829875519  258.625488721805 164.698962655602  Z " fill-rule="evenodd" />
    </mask>
  </defs>
  <g transform="matrix(1 0 0 1 -1285 -65 )">
    <path d="M 258.625488721805 164.698962655602  C 260.372030075188 160.630248962656  260.372030075188 152.196556016598  259.214210526316 139.101618257261  L 254.877293233083 110.590995850622  L 255.161842105263 110.008340248963  L 255.456203007519 110.008340248963  C 257.477481203007 106.80867219917  258.63530075188 104.191659751037  258.056390977444 102.147427385892  L 256.908383458647 100.399460580913  C 253.729285714286 98.3651037344399  252.277105263158 93.7038589211619  253.15037593985 85.8528215767635  L 250.54037593985 85.8528215767635  C 248.519097744361 85.5664315352698  246.203458646616 86.4354771784233  243.897631578947 87.8871784232366  C 241.581992481203 89.6351452282158  240.13962406015 91.6695020746889  239.85507518797 93.1212033195021  C 238.697255639098 96.6072614107884  234.939248120301 98.9378838174274  228.581052631579 100.9722406639  L 227.138684210526 109.998464730291  L 227.138684210526 110.294730290456  L 226.844323308271 110.590995850622  L 223.675037593985 116.407676348548  L 223.380676691729 116.990331950208  L 223.086315789474 116.990331950208  L 222.791954887218 116.990331950208  L 194.170263157895 122.234232365145  L 193.875902255639 122.234232365145  L 193.012443609023 122.234232365145  L 193.012443609023 121.651576763486  L 184.632969924812 112.635228215768  L 187.233157894737 110.018215767635  L 184.054060150376 105.653236514523  L 180.001691729323 102.739958506224  L 179.717142857143 102.45356846473  L 179.422781954887 102.45356846473  L 179.422781954887 102.167178423237  L 179.422781954887 101.880788381743  L 177.980413533835 94.0297510373444  L 170.464398496241 94.6124066390042  L 169.89530075188 94.0297510373444  L 163.527293233083 90.2474273858922  L 140.684887218045 86.1787136929461  L 121.600488721805 85.2997925311204  L 121.021578947369 85.8824481327801  C 120.148308270677 85.8824481327801  119.579210526316 85.5960580912863  119.28484962406 85.0035269709544  L 108.29537593985 59.9888381742739  C 107.147368421053 57.9446058091287  102.516090225564 51.5452697095436  93.2633458646618 40.4945643153527  C 84.5895112781956 29.7302489626556  79.6736842105265 23.9135684647303  78.2313157894738 22.7482572614108  L 62.0414661654137 6.74991701244817  L 59.4412781954889 5.28834024896269  L 39.2088721804513 4.99207468879672  L 38.9243233082709 4.99207468879672  L 38.3454135338347 4.40941908713696  C 36.3241353383461 2.95771784232369  33.4295864661656 1.49614107883821  29.0926691729325 0.627095435684682  C 25.3346616541355 -0.834481327800795  16.6608270676694 2.07879668049796  3.07116541353405 9.35705394190875  L 2.49225563909793 9.64344398340253  L 3.07116541353405 13.7121576763486  L 3.35571428571447 13.7121576763486  L 3.35571428571447 14.0084232365146  L 3.07116541353405 14.0084232365146  L 3.07116541353405 14.5910788381743  L 0.755526315789679 19.2424481327801  L 0.755526315789679 19.5387136929461  L 0.461165413534084 19.5387136929461  L 0.176616541353669 22.7383817427386  C 0.176616541353669 25.3553941908714  0.75552631578979 28.2686721991702  1.61898496240633 30.589419087137  L 3.65007518797029 32.0411203319502  L 7.98699248120333 31.7448547717843  L 11.7450000000004 32.6139004149378  L 13.187368421053 31.4485892116183  C 13.187368421053 28.8315767634855  14.0606390977447 26.7972199170125  15.2086466165417 26.2145643153527  L 18.1031954887222 26.2145643153527  L 28.2193984962409 29.1278423236515  L 30.5350375939853 29.4142323651453  L 27.3559398496244 34.9445228215768  L 27.3559398496244 41.6401244813278  C 27.3559398496244 43.1017012448133  29.9659398496244 46.5877593360996  35.1663157894741 51.5353941908714  C 38.345413533835 53.8660165975104  40.3666917293236 55.0214522821577  42.103421052632 55.3177178423237  L 43.5556015037598 55.0214522821577  L 44.9979699248125 54.438796680498  L 49.9137969924817 49.4911618257262  L 53.6718045112787 47.1605394190872  L 53.6718045112787 46.8642738589212  L 61.4723684210532 45.6989626556017  L 63.7781954887224 40.7513278008299  L 70.7153007518803 36.6727385892117  L 76.7889473684217 40.1686721991702  L 76.7889473684217 40.4550622406639  L 77.3678571428578 40.7513278008299  L 83.1569548872187 50.6367219917013  L 85.4627819548879 57.3323236514523  L 85.4627819548879 58.211244813278  L 84.3049624060158 66.3585477178424  L 86.6206015037602 71.8888381742739  L 86.6206015037602 72.7677593360996  L 84.8936842105271 79.1670954356847  L 84.8936842105271 84.98377593361  C 86.6206015037602 90.2276763485478  87.4938721804519 93.7137344398341  87.4938721804519 94.5926556016598  L 86.9149624060157 99.5304149377594  L 86.9149624060157 99.8266804979254  L 84.0204135338353 103.895394190871  L 84.0204135338353 104.191659751037  L 81.1258646616547 107.677717842324  L 80.8315037593992 114.077053941909  L 82.5682330827074 120.77265560166  L 82.8527819548878 121.059045643154  L 82.5682330827074 121.345435684647  L 80.8315037593992 131.527095435685  L 79.3793233082713 132.978796680498  C 78.2215037593992 133.857717842324  76.7791353383465 133.857717842324  75.0424060150383 132.978796680498  L 74.4634962406022 132.978796680498  L 71.8633082706774 130.075394190871  L 68.9687593984969 130.954315352697  L 65.2107518796998 135.023029045643  L 61.1583834586472 146.95265560166  L 61.1583834586472 147.248921161826  L 60.8738345864668 147.53531120332  L 56.8214661654142 151.021369294606  L 56.2425563909781 151.021369294606  L 53.9269172932337 151.317634854772  L 49.2956390977449 158.013236514523  L 51.6112781954893 162.378215767635  L 52.1901879699254 162.960871369295  L 57.9694736842111 170.229253112033  L 57.9694736842111 170.525518672199  L 57.9694736842111 172.856141078838  L 64.3276691729329 173.725186721992  L 65.4854887218051 179.551742738589  L 65.4854887218051 179.838132780083  L 66.3489473684216 186.820124481328  L 68.0856766917299 188.271825726141  L 73.8649624060156 186.523858921162  L 79.3596992481209 183.324190871369  L 80.2329699248126 182.74153526971  L 82.2542481203012 192.636804979253  L 84.8642481203012 196.429004149378  L 85.4431578947373 196.715394190871  L 87.4742481203013 200.79398340249  L 91.8111654135344 204.280041493776  C 92.3900751879705 205.158962655602  93.8324436090231 205.158962655602  95.2748120300758 205.158962655602  L 96.7171804511284 205.455228215768  L 99.3271804511285 204.289917012448  C 101.348458646617 203.420871369295  103.369736842106 202.541950207469  105.68537593985 202.255560165975  L 107.422105263159 201.376639004149  L 111.464661654136 201.080373443983  C 112.907030075189 201.080373443983  113.485939849625 201.376639004149  114.349398496241 202.245684647303  L 120.138496240602 198.463360995851  L 120.717406015038 198.463360995851  L 121.296315789474 198.759626556017  L 121.59067669173 198.463360995851  L 122.169586466166 199.04601659751  C 124.475413533835 201.663029045643  125.633233082707 203.993651452282  125.633233082707 205.158962655602  L 128.243233082707 209.523941908714  L 130.264511278196 210.106597510373  L 130.549060150376 210.106597510373  L 130.843421052632 210.106597510373  L 130.264511278196 209.523941908714  C 129.97015037594 208.0722406639  129.97015037594 207.193319502075  130.264511278196 206.610663900415  C 130.843421052632 205.731742738589  132.001240601504 205.158962655602  133.737969924812 205.158962655602  L 144.433082706767 204.872572614108  L 144.727443609023 204.586182572614  L 145.306353383459 204.586182572614  L 145.306353383459 205.168838174274  L 145.885263157895 205.168838174274  L 149.064360902256 211.281784232365  L 148.77 214.481452282158  L 148.48545112782 214.481452282158  L 152.528007518797 215.360373443983  L 152.812556390978 215.360373443983  C 152.528007518797 214.481452282158  152.528007518797 213.898796680498  153.097105263158 213.32601659751  L 154.539473684211 213.029751037344  L 164.076766917293 219.725352697095  C 164.94022556391 220.604273858921  165.519135338346 221.759709543569  165.813496240602 223.211410788382  L 166.098045112782 227.29  L 169.286954887218 227.87265560166  L 171.308233082707 224.376721991701  C 170.434962406015 222.628755186722  169.865864661654 220.880788381743  170.150413533835 219.715477178423  C 170.434962406015 218.550165975104  170.729323308271 217.68112033195  171.877330827068 217.09846473029  L 172.75060150376 216.229419087137  C 172.75060150376 215.646763485477  173.044962406015 215.360373443983  173.614060150376 215.064107883817  L 176.214248120301 215.360373443983  C 177.656616541354 216.229419087137  178.824248120301 219.142697095436  179.393345864662 224.090331950208  L 179.393345864662 224.672987551867  L 179.972255639098 224.969253112033  C 180.266616541354 226.134564315353  181.993533834587 227.003609958506  184.603533834587 227.882531120332  L 184.888082706767 227.882531120332  L 185.182443609023 228.168921161826  L 194.435187969925 237.767925311203  L 198.772105263158 236.306348547718  L 198.193195488722 234.854647302905  C 197.03537593985 233.402946058091  196.741015037594 231.951244813278  196.741015037594 231.072323651452  C 196.741015037594 229.028091286307  198.193195488722 226.993734439834  201.077932330828 224.959377593361  L 205.993759398497 220.594398340249  L 211.773045112783 224.663112033195  L 212.930864661655 224.663112033195  L 214.088684210527 218.26377593361  L 214.088684210527 217.098464730291  L 215.246503759399 216.802199170125  L 219.877781954888 217.384854771784  C 220.75105263158 218.253900414938  221.320150375941 219.132821576764  221.320150375941 220.584522821577  C 221.320150375941 221.739958506224  220.456691729324 223.20153526971  219.583421052632 224.366846473029  L 220.456691729324 224.949502074689  C 223.34142857143 226.401203319502  225.657067669174 227.566514522822  227.393796992482 227.862780082988  L 227.688157894738 227.862780082988  L 231.446165413535 229.897136929461  L 234.340714285715 229.600871369295  L 230.003796992482 208.358630705394  C 227.119060150377 206.610663900415  224.509060150377 203.124605809129  221.908872180452 199.04601659751  C 219.887593984963 195.550082987552  221.03560150376 190.612323651452  225.666879699249 184.785767634855  C 228.267067669174 181.882365145228  231.446165413535 178.96908713693  234.919624060151 176.055809128631  L 235.213984962407 175.473153526971  L 239.256541353384 175.473153526971  L 239.55090225564 176.055809128631  L 243.014548872181 177.507510373444  L 250.246015037594 177.507510373444  C 253.140563909775 176.055809128631  255.7407518797 171.690829875519  258.625488721805 164.698962655602  Z " fill-rule="nonzero" fill="#20dbea" stroke="none" fill-opacity="0.4" transform="matrix(1 0 0 1 1285 65 )" />
    <path d="M 258.625488721805 164.698962655602  C 260.372030075188 160.630248962656  260.372030075188 152.196556016598  259.214210526316 139.101618257261  L 254.877293233083 110.590995850622  L 255.161842105263 110.008340248963  L 255.456203007519 110.008340248963  C 257.477481203007 106.80867219917  258.63530075188 104.191659751037  258.056390977444 102.147427385892  L 256.908383458647 100.399460580913  C 253.729285714286 98.3651037344399  252.277105263158 93.7038589211619  253.15037593985 85.8528215767635  L 250.54037593985 85.8528215767635  C 248.519097744361 85.5664315352698  246.203458646616 86.4354771784233  243.897631578947 87.8871784232366  C 241.581992481203 89.6351452282158  240.13962406015 91.6695020746889  239.85507518797 93.1212033195021  C 238.697255639098 96.6072614107884  234.939248120301 98.9378838174274  228.581052631579 100.9722406639  L 227.138684210526 109.998464730291  L 227.138684210526 110.294730290456  L 226.844323308271 110.590995850622  L 223.675037593985 116.407676348548  L 223.380676691729 116.990331950208  L 223.086315789474 116.990331950208  L 222.791954887218 116.990331950208  L 194.170263157895 122.234232365145  L 193.875902255639 122.234232365145  L 193.012443609023 122.234232365145  L 193.012443609023 121.651576763486  L 184.632969924812 112.635228215768  L 187.233157894737 110.018215767635  L 184.054060150376 105.653236514523  L 180.001691729323 102.739958506224  L 179.717142857143 102.45356846473  L 179.422781954887 102.45356846473  L 179.422781954887 102.167178423237  L 179.422781954887 101.880788381743  L 177.980413533835 94.0297510373444  L 170.464398496241 94.6124066390042  L 169.89530075188 94.0297510373444  L 163.527293233083 90.2474273858922  L 140.684887218045 86.1787136929461  L 121.600488721805 85.2997925311204  L 121.021578947369 85.8824481327801  C 120.148308270677 85.8824481327801  119.579210526316 85.5960580912863  119.28484962406 85.0035269709544  L 108.29537593985 59.9888381742739  C 107.147368421053 57.9446058091287  102.516090225564 51.5452697095436  93.2633458646618 40.4945643153527  C 84.5895112781956 29.7302489626556  79.6736842105265 23.9135684647303  78.2313157894738 22.7482572614108  L 62.0414661654137 6.74991701244817  L 59.4412781954889 5.28834024896269  L 39.2088721804513 4.99207468879672  L 38.9243233082709 4.99207468879672  L 38.3454135338347 4.40941908713696  C 36.3241353383461 2.95771784232369  33.4295864661656 1.49614107883821  29.0926691729325 0.627095435684682  C 25.3346616541355 -0.834481327800795  16.6608270676694 2.07879668049796  3.07116541353405 9.35705394190875  L 2.49225563909793 9.64344398340253  L 3.07116541353405 13.7121576763486  L 3.35571428571447 13.7121576763486  L 3.35571428571447 14.0084232365146  L 3.07116541353405 14.0084232365146  L 3.07116541353405 14.5910788381743  L 0.755526315789679 19.2424481327801  L 0.755526315789679 19.5387136929461  L 0.461165413534084 19.5387136929461  L 0.176616541353669 22.7383817427386  C 0.176616541353669 25.3553941908714  0.75552631578979 28.2686721991702  1.61898496240633 30.589419087137  L 3.65007518797029 32.0411203319502  L 7.98699248120333 31.7448547717843  L 11.7450000000004 32.6139004149378  L 13.187368421053 31.4485892116183  C 13.187368421053 28.8315767634855  14.0606390977447 26.7972199170125  15.2086466165417 26.2145643153527  L 18.1031954887222 26.2145643153527  L 28.2193984962409 29.1278423236515  L 30.5350375939853 29.4142323651453  L 27.3559398496244 34.9445228215768  L 27.3559398496244 41.6401244813278  C 27.3559398496244 43.1017012448133  29.9659398496244 46.5877593360996  35.1663157894741 51.5353941908714  C 38.345413533835 53.8660165975104  40.3666917293236 55.0214522821577  42.103421052632 55.3177178423237  L 43.5556015037598 55.0214522821577  L 44.9979699248125 54.438796680498  L 49.9137969924817 49.4911618257262  L 53.6718045112787 47.1605394190872  L 53.6718045112787 46.8642738589212  L 61.4723684210532 45.6989626556017  L 63.7781954887224 40.7513278008299  L 70.7153007518803 36.6727385892117  L 76.7889473684217 40.1686721991702  L 76.7889473684217 40.4550622406639  L 77.3678571428578 40.7513278008299  L 83.1569548872187 50.6367219917013  L 85.4627819548879 57.3323236514523  L 85.4627819548879 58.211244813278  L 84.3049624060158 66.3585477178424  L 86.6206015037602 71.8888381742739  L 86.6206015037602 72.7677593360996  L 84.8936842105271 79.1670954356847  L 84.8936842105271 84.98377593361  C 86.6206015037602 90.2276763485478  87.4938721804519 93.7137344398341  87.4938721804519 94.5926556016598  L 86.9149624060157 99.5304149377594  L 86.9149624060157 99.8266804979254  L 84.0204135338353 103.895394190871  L 84.0204135338353 104.191659751037  L 81.1258646616547 107.677717842324  L 80.8315037593992 114.077053941909  L 82.5682330827074 120.77265560166  L 82.8527819548878 121.059045643154  L 82.5682330827074 121.345435684647  L 80.8315037593992 131.527095435685  L 79.3793233082713 132.978796680498  C 78.2215037593992 133.857717842324  76.7791353383465 133.857717842324  75.0424060150383 132.978796680498  L 74.4634962406022 132.978796680498  L 71.8633082706774 130.075394190871  L 68.9687593984969 130.954315352697  L 65.2107518796998 135.023029045643  L 61.1583834586472 146.95265560166  L 61.1583834586472 147.248921161826  L 60.8738345864668 147.53531120332  L 56.8214661654142 151.021369294606  L 56.2425563909781 151.021369294606  L 53.9269172932337 151.317634854772  L 49.2956390977449 158.013236514523  L 51.6112781954893 162.378215767635  L 52.1901879699254 162.960871369295  L 57.9694736842111 170.229253112033  L 57.9694736842111 170.525518672199  L 57.9694736842111 172.856141078838  L 64.3276691729329 173.725186721992  L 65.4854887218051 179.551742738589  L 65.4854887218051 179.838132780083  L 66.3489473684216 186.820124481328  L 68.0856766917299 188.271825726141  L 73.8649624060156 186.523858921162  L 79.3596992481209 183.324190871369  L 80.2329699248126 182.74153526971  L 82.2542481203012 192.636804979253  L 84.8642481203012 196.429004149378  L 85.4431578947373 196.715394190871  L 87.4742481203013 200.79398340249  L 91.8111654135344 204.280041493776  C 92.3900751879705 205.158962655602  93.8324436090231 205.158962655602  95.2748120300758 205.158962655602  L 96.7171804511284 205.455228215768  L 99.3271804511285 204.289917012448  C 101.348458646617 203.420871369295  103.369736842106 202.541950207469  105.68537593985 202.255560165975  L 107.422105263159 201.376639004149  L 111.464661654136 201.080373443983  C 112.907030075189 201.080373443983  113.485939849625 201.376639004149  114.349398496241 202.245684647303  L 120.138496240602 198.463360995851  L 120.717406015038 198.463360995851  L 121.296315789474 198.759626556017  L 121.59067669173 198.463360995851  L 122.169586466166 199.04601659751  C 124.475413533835 201.663029045643  125.633233082707 203.993651452282  125.633233082707 205.158962655602  L 128.243233082707 209.523941908714  L 130.264511278196 210.106597510373  L 130.549060150376 210.106597510373  L 130.843421052632 210.106597510373  L 130.264511278196 209.523941908714  C 129.97015037594 208.0722406639  129.97015037594 207.193319502075  130.264511278196 206.610663900415  C 130.843421052632 205.731742738589  132.001240601504 205.158962655602  133.737969924812 205.158962655602  L 144.433082706767 204.872572614108  L 144.727443609023 204.586182572614  L 145.306353383459 204.586182572614  L 145.306353383459 205.168838174274  L 145.885263157895 205.168838174274  L 149.064360902256 211.281784232365  L 148.77 214.481452282158  L 148.48545112782 214.481452282158  L 152.528007518797 215.360373443983  L 152.812556390978 215.360373443983  C 152.528007518797 214.481452282158  152.528007518797 213.898796680498  153.097105263158 213.32601659751  L 154.539473684211 213.029751037344  L 164.076766917293 219.725352697095  C 164.94022556391 220.604273858921  165.519135338346 221.759709543569  165.813496240602 223.211410788382  L 166.098045112782 227.29  L 169.286954887218 227.87265560166  L 171.308233082707 224.376721991701  C 170.434962406015 222.628755186722  169.865864661654 220.880788381743  170.150413533835 219.715477178423  C 170.434962406015 218.550165975104  170.729323308271 217.68112033195  171.877330827068 217.09846473029  L 172.75060150376 216.229419087137  C 172.75060150376 215.646763485477  173.044962406015 215.360373443983  173.614060150376 215.064107883817  L 176.214248120301 215.360373443983  C 177.656616541354 216.229419087137  178.824248120301 219.142697095436  179.393345864662 224.090331950208  L 179.393345864662 224.672987551867  L 179.972255639098 224.969253112033  C 180.266616541354 226.134564315353  181.993533834587 227.003609958506  184.603533834587 227.882531120332  L 184.888082706767 227.882531120332  L 185.182443609023 228.168921161826  L 194.435187969925 237.767925311203  L 198.772105263158 236.306348547718  L 198.193195488722 234.854647302905  C 197.03537593985 233.402946058091  196.741015037594 231.951244813278  196.741015037594 231.072323651452  C 196.741015037594 229.028091286307  198.193195488722 226.993734439834  201.077932330828 224.959377593361  L 205.993759398497 220.594398340249  L 211.773045112783 224.663112033195  L 212.930864661655 224.663112033195  L 214.088684210527 218.26377593361  L 214.088684210527 217.098464730291  L 215.246503759399 216.802199170125  L 219.877781954888 217.384854771784  C 220.75105263158 218.253900414938  221.320150375941 219.132821576764  221.320150375941 220.584522821577  C 221.320150375941 221.739958506224  220.456691729324 223.20153526971  219.583421052632 224.366846473029  L 220.456691729324 224.949502074689  C 223.34142857143 226.401203319502  225.657067669174 227.566514522822  227.393796992482 227.862780082988  L 227.688157894738 227.862780082988  L 231.446165413535 229.897136929461  L 234.340714285715 229.600871369295  L 230.003796992482 208.358630705394  C 227.119060150377 206.610663900415  224.509060150377 203.124605809129  221.908872180452 199.04601659751  C 219.887593984963 195.550082987552  221.03560150376 190.612323651452  225.666879699249 184.785767634855  C 228.267067669174 181.882365145228  231.446165413535 178.96908713693  234.919624060151 176.055809128631  L 235.213984962407 175.473153526971  L 239.256541353384 175.473153526971  L 239.55090225564 176.055809128631  L 243.014548872181 177.507510373444  L 250.246015037594 177.507510373444  C 253.140563909775 176.055809128631  255.7407518797 171.690829875519  258.625488721805 164.698962655602  Z " stroke-width="2" stroke="#797979" fill="none" transform="matrix(1 0 0 1 1285 65 )" mask="url(#clip54)" />
  </g>
</svg>