<?xml version="1.0" encoding="utf-8"?>
<svg version="1.1" xmlns:xlink="http://www.w3.org/1999/xlink" width="158px" height="99px" xmlns="http://www.w3.org/2000/svg">
  <defs>
    <mask fill="white" id="clip56">
      <path d="M 144.427701863354 2.90628712871296  L 144.427701863354 2.95529702970301  L 143.848695652174 3.23955445544561  C 143.848695652174 4.69024752475256  142.975279503106 5.55282178217829  141.532670807454 5.55282178217829  L 130.256770186336 4.39618811881195  C 122.454906832298 2.95529702970301  117.597142857143 -0.0245049504949715  114.643229813665 0.347970297029777  C 109.216273291926 1.03410891089115  98.7450931677021 15.3646039603961  98.7450931677021 15.3646039603961  L 99.3240993788823 21.716287128713  L 99.3240993788823 22.2946039603961  L 97.8716770186338 22.5788613861387  C 85.4377639751556 24.3138118811882  78.7840993788822 23.1571782178218  77.9204968944101 19.1089603960397  L 76.4778881987579 1.2007425742575  L 62.0223602484474 0.328366336633755  L 55.9575155279505 13.0415346534655  L 55.3785093167704 7.55242574257435  C 55.0939130434785 3.21995049504959  54.2204968944102 0.62242574257436  53.3568944099381 0.0441089108911604  L 46.997639751553 3.21995049504959  L 44.1026086956523 6.97410891089115  L 43.8180124223604 7.26816831683176  L 43.5236024844723 7.26816831683176  L 37.7433540372673 9.28737623762384  C 31.3840993788822 14.4824257425743  25.8786335403729 19.9715346534654  20.9718012422363 25.7449009900991  L 5.64285714285737 46.5349009900991  L 8.82248447204992 53.7491584158417  L 8.82248447204992 54.905792079208  L 8.52807453416177 55.1998514851486  C 7.37987577639783 56.9348019801981  7.94906832298161 59.5323267326734  9.68608695652197 62.4141089108912  C 11.7077018633542 66.1682673267328  13.1503105590064 70.216485148515  13.1503105590064 74.8332178217823  L 13.1503105590064 75.7055940594061  L 0.716397515528191 82.9198514851485  L 0.716397515528191 85.8114356435644  L 6.49664596273315 88.4089603960396  C 7.0756521739133 88.7030198019802  7.36024844720519 89.2715346534654  7.36024844720519 89.5655940594059  L 7.36024844720519 90.1439108910891  C 7.0756521739133 91.5848019801981  9.38186335403744 93.6040099009901  13.7195031055903 95.6330198019803  L 24.4163975155282 98.5148019801981  L 27.5960248447207 96.4955940594061  L 31.0700621118014 91.5848019801982  L 33.9650931677021 83.2041089108913  L 42.3459627329195 86.3799504950497  L 43.5039751552796 87.2523267326735  L 43.5039751552796 87.8306435643567  L 43.5039751552796 88.1149009900992  C 42.0613664596275 91.5848019801982  42.9249689440995 93.8980693069309  45.5354037267083 95.3389603960398  L 54.7896894409939 95.6232178217823  C 57.9693167701865 95.0449009900992  60.5699378881989 93.8882673267329  62.3069565217393 92.4473762376239  C 63.4551552795032 90.996683168317  65.1921739130436 90.7124257425744  67.8026086956523 90.996683168317  C 70.9822360248449 91.5750000000002  73.8772670807455 92.7316336633665  75.8988819875778 95.3291584158417  L 77.92049689441 90.4183663366338  L 78.4995031055902 89.555792079208  L 78.7939130434783 89.555792079208  C 80.2365217391305 88.6932178217823  81.1099378881988 87.2425247524754  82.2581366459628 85.2233168316833  C 83.1217391304348 83.1943069306932  84.5741614906833 81.1750990099011  86.8803726708075 79.7342079207922  L 90.9334161490684 77.4307425742576  L 91.2180124223603 77.136683168317  L 91.5124223602484 77.4307425742576  L 91.7970186335403 77.4307425742576  L 94.1032298136646 78.0090594059407  L 94.6822360248447 78.2933168316833  L 97.8618633540373 63.8550000000001  L 97.8618633540373 63.5707425742576  L 102.484099378882 62.7081683168318  C 107.106335403727 59.5323267326734  109.432173913044 56.9348019801982  109.137763975155 54.6215346534655  L 108.274161490683 50.2890594059407  C 107.116149068323 47.4072772277229  107.116149068323 45.3782673267328  107.695155279503 44.5156930693071  C 108.568571428571 43.6531188118813  109.137763975155 43.3590594059407  110.011180124224 43.3590594059407  C 112.032795031056 43.3590594059407  114.348819875776 43.9373762376239  116.664844720497 45.0940099009902  L 117.243850931677 40.4674752475248  L 117.243850931677 39.8891584158417  L 117.528447204969 39.6049009900991  L 122.445093167702 37.2916336633664  L 123.024099378882 34.6941089108912  L 120.138881987578 34.6941089108912  L 119.559875776397 34.4000495049506  L 119.844472049689 32.9591584158416  L 119.844472049689 32.0867821782179  L 120.138881987577 31.5084653465347  L 121.00248447205 31.5084653465347  L 121.58149068323 31.5084653465347  C 123.603105590062 31.5084653465347  125.919130434782 30.3518316831684  128.519751552795 28.0483663366338  L 146.743726708074 15.0509405940595  L 147.322732919255 15.0509405940595  L 153.10298136646 17.6484653465348  L 155.41900621118 17.3642079207922  L 153.976397515528 11.2967821782179  L 153.976397515528 10.7184653465348  L 154.270807453416 10.4244059405942  L 154.555403726708 10.1401485148516  L 157.7350310559 4.93529702970305  L 156.871428571428 4.35698019801991  L 154.84 4.93529702970305  L 154.84 5.21955445544564  L 154.555403726708 5.21955445544564  L 148.765341614907 6.08212871287138  L 147.322732919254 6.08212871287138  L 147.038136645962 6.08212871287138  L 147.038136645962 5.79787128712879  L 146.753540372671 4.92549504950504  L 145.59552795031 2.90628712871296  L 144.427701863354 2.90628712871296  Z " fill-rule="evenodd" />
    </mask>
  </defs>
  <g transform="matrix(1 0 0 1 -1232 -489 )">
    <path d="M 144.427701863354 2.90628712871296  L 144.427701863354 2.95529702970301  L 143.848695652174 3.23955445544561  C 143.848695652174 4.69024752475256  142.975279503106 5.55282178217829  141.532670807454 5.55282178217829  L 130.256770186336 4.39618811881195  C 122.454906832298 2.95529702970301  117.597142857143 -0.0245049504949715  114.643229813665 0.347970297029777  C 109.216273291926 1.03410891089115  98.7450931677021 15.3646039603961  98.7450931677021 15.3646039603961  L 99.3240993788823 21.716287128713  L 99.3240993788823 22.2946039603961  L 97.8716770186338 22.5788613861387  C 85.4377639751556 24.3138118811882  78.7840993788822 23.1571782178218  77.9204968944101 19.1089603960397  L 76.4778881987579 1.2007425742575  L 62.0223602484474 0.328366336633755  L 55.9575155279505 13.0415346534655  L 55.3785093167704 7.55242574257435  C 55.0939130434785 3.21995049504959  54.2204968944102 0.62242574257436  53.3568944099381 0.0441089108911604  L 46.997639751553 3.21995049504959  L 44.1026086956523 6.97410891089115  L 43.8180124223604 7.26816831683176  L 43.5236024844723 7.26816831683176  L 37.7433540372673 9.28737623762384  C 31.3840993788822 14.4824257425743  25.8786335403729 19.9715346534654  20.9718012422363 25.7449009900991  L 5.64285714285737 46.5349009900991  L 8.82248447204992 53.7491584158417  L 8.82248447204992 54.905792079208  L 8.52807453416177 55.1998514851486  C 7.37987577639783 56.9348019801981  7.94906832298161 59.5323267326734  9.68608695652197 62.4141089108912  C 11.7077018633542 66.1682673267328  13.1503105590064 70.216485148515  13.1503105590064 74.8332178217823  L 13.1503105590064 75.7055940594061  L 0.716397515528191 82.9198514851485  L 0.716397515528191 85.8114356435644  L 6.49664596273315 88.4089603960396  C 7.0756521739133 88.7030198019802  7.36024844720519 89.2715346534654  7.36024844720519 89.5655940594059  L 7.36024844720519 90.1439108910891  C 7.0756521739133 91.5848019801981  9.38186335403744 93.6040099009901  13.7195031055903 95.6330198019803  L 24.4163975155282 98.5148019801981  L 27.5960248447207 96.4955940594061  L 31.0700621118014 91.5848019801982  L 33.9650931677021 83.2041089108913  L 42.3459627329195 86.3799504950497  L 43.5039751552796 87.2523267326735  L 43.5039751552796 87.8306435643567  L 43.5039751552796 88.1149009900992  C 42.0613664596275 91.5848019801982  42.9249689440995 93.8980693069309  45.5354037267083 95.3389603960398  L 54.7896894409939 95.6232178217823  C 57.9693167701865 95.0449009900992  60.5699378881989 93.8882673267329  62.3069565217393 92.4473762376239  C 63.4551552795032 90.996683168317  65.1921739130436 90.7124257425744  67.8026086956523 90.996683168317  C 70.9822360248449 91.5750000000002  73.8772670807455 92.7316336633665  75.8988819875778 95.3291584158417  L 77.92049689441 90.4183663366338  L 78.4995031055902 89.555792079208  L 78.7939130434783 89.555792079208  C 80.2365217391305 88.6932178217823  81.1099378881988 87.2425247524754  82.2581366459628 85.2233168316833  C 83.1217391304348 83.1943069306932  84.5741614906833 81.1750990099011  86.8803726708075 79.7342079207922  L 90.9334161490684 77.4307425742576  L 91.2180124223603 77.136683168317  L 91.5124223602484 77.4307425742576  L 91.7970186335403 77.4307425742576  L 94.1032298136646 78.0090594059407  L 94.6822360248447 78.2933168316833  L 97.8618633540373 63.8550000000001  L 97.8618633540373 63.5707425742576  L 102.484099378882 62.7081683168318  C 107.106335403727 59.5323267326734  109.432173913044 56.9348019801982  109.137763975155 54.6215346534655  L 108.274161490683 50.2890594059407  C 107.116149068323 47.4072772277229  107.116149068323 45.3782673267328  107.695155279503 44.5156930693071  C 108.568571428571 43.6531188118813  109.137763975155 43.3590594059407  110.011180124224 43.3590594059407  C 112.032795031056 43.3590594059407  114.348819875776 43.9373762376239  116.664844720497 45.0940099009902  L 117.243850931677 40.4674752475248  L 117.243850931677 39.8891584158417  L 117.528447204969 39.6049009900991  L 122.445093167702 37.2916336633664  L 123.024099378882 34.6941089108912  L 120.138881987578 34.6941089108912  L 119.559875776397 34.4000495049506  L 119.844472049689 32.9591584158416  L 119.844472049689 32.0867821782179  L 120.138881987577 31.5084653465347  L 121.00248447205 31.5084653465347  L 121.58149068323 31.5084653465347  C 123.603105590062 31.5084653465347  125.919130434782 30.3518316831684  128.519751552795 28.0483663366338  L 146.743726708074 15.0509405940595  L 147.322732919255 15.0509405940595  L 153.10298136646 17.6484653465348  L 155.41900621118 17.3642079207922  L 153.976397515528 11.2967821782179  L 153.976397515528 10.7184653465348  L 154.270807453416 10.4244059405942  L 154.555403726708 10.1401485148516  L 157.7350310559 4.93529702970305  L 156.871428571428 4.35698019801991  L 154.84 4.93529702970305  L 154.84 5.21955445544564  L 154.555403726708 5.21955445544564  L 148.765341614907 6.08212871287138  L 147.322732919254 6.08212871287138  L 147.038136645962 6.08212871287138  L 147.038136645962 5.79787128712879  L 146.753540372671 4.92549504950504  L 145.59552795031 2.90628712871296  L 144.427701863354 2.90628712871296  Z " fill-rule="nonzero" fill="#20dbea" stroke="none" fill-opacity="0.4" transform="matrix(1 0 0 1 1232 489 )" />
    <path d="M 144.427701863354 2.90628712871296  L 144.427701863354 2.95529702970301  L 143.848695652174 3.23955445544561  C 143.848695652174 4.69024752475256  142.975279503106 5.55282178217829  141.532670807454 5.55282178217829  L 130.256770186336 4.39618811881195  C 122.454906832298 2.95529702970301  117.597142857143 -0.0245049504949715  114.643229813665 0.347970297029777  C 109.216273291926 1.03410891089115  98.7450931677021 15.3646039603961  98.7450931677021 15.3646039603961  L 99.3240993788823 21.716287128713  L 99.3240993788823 22.2946039603961  L 97.8716770186338 22.5788613861387  C 85.4377639751556 24.3138118811882  78.7840993788822 23.1571782178218  77.9204968944101 19.1089603960397  L 76.4778881987579 1.2007425742575  L 62.0223602484474 0.328366336633755  L 55.9575155279505 13.0415346534655  L 55.3785093167704 7.55242574257435  C 55.0939130434785 3.21995049504959  54.2204968944102 0.62242574257436  53.3568944099381 0.0441089108911604  L 46.997639751553 3.21995049504959  L 44.1026086956523 6.97410891089115  L 43.8180124223604 7.26816831683176  L 43.5236024844723 7.26816831683176  L 37.7433540372673 9.28737623762384  C 31.3840993788822 14.4824257425743  25.8786335403729 19.9715346534654  20.9718012422363 25.7449009900991  L 5.64285714285737 46.5349009900991  L 8.82248447204992 53.7491584158417  L 8.82248447204992 54.905792079208  L 8.52807453416177 55.1998514851486  C 7.37987577639783 56.9348019801981  7.94906832298161 59.5323267326734  9.68608695652197 62.4141089108912  C 11.7077018633542 66.1682673267328  13.1503105590064 70.216485148515  13.1503105590064 74.8332178217823  L 13.1503105590064 75.7055940594061  L 0.716397515528191 82.9198514851485  L 0.716397515528191 85.8114356435644  L 6.49664596273315 88.4089603960396  C 7.0756521739133 88.7030198019802  7.36024844720519 89.2715346534654  7.36024844720519 89.5655940594059  L 7.36024844720519 90.1439108910891  C 7.0756521739133 91.5848019801981  9.38186335403744 93.6040099009901  13.7195031055903 95.6330198019803  L 24.4163975155282 98.5148019801981  L 27.5960248447207 96.4955940594061  L 31.0700621118014 91.5848019801982  L 33.9650931677021 83.2041089108913  L 42.3459627329195 86.3799504950497  L 43.5039751552796 87.2523267326735  L 43.5039751552796 87.8306435643567  L 43.5039751552796 88.1149009900992  C 42.0613664596275 91.5848019801982  42.9249689440995 93.8980693069309  45.5354037267083 95.3389603960398  L 54.7896894409939 95.6232178217823  C 57.9693167701865 95.0449009900992  60.5699378881989 93.8882673267329  62.3069565217393 92.4473762376239  C 63.4551552795032 90.996683168317  65.1921739130436 90.7124257425744  67.8026086956523 90.996683168317  C 70.9822360248449 91.5750000000002  73.8772670807455 92.7316336633665  75.8988819875778 95.3291584158417  L 77.92049689441 90.4183663366338  L 78.4995031055902 89.555792079208  L 78.7939130434783 89.555792079208  C 80.2365217391305 88.6932178217823  81.1099378881988 87.2425247524754  82.2581366459628 85.2233168316833  C 83.1217391304348 83.1943069306932  84.5741614906833 81.1750990099011  86.8803726708075 79.7342079207922  L 90.9334161490684 77.4307425742576  L 91.2180124223603 77.136683168317  L 91.5124223602484 77.4307425742576  L 91.7970186335403 77.4307425742576  L 94.1032298136646 78.0090594059407  L 94.6822360248447 78.2933168316833  L 97.8618633540373 63.8550000000001  L 97.8618633540373 63.5707425742576  L 102.484099378882 62.7081683168318  C 107.106335403727 59.5323267326734  109.432173913044 56.9348019801982  109.137763975155 54.6215346534655  L 108.274161490683 50.2890594059407  C 107.116149068323 47.4072772277229  107.116149068323 45.3782673267328  107.695155279503 44.5156930693071  C 108.568571428571 43.6531188118813  109.137763975155 43.3590594059407  110.011180124224 43.3590594059407  C 112.032795031056 43.3590594059407  114.348819875776 43.9373762376239  116.664844720497 45.0940099009902  L 117.243850931677 40.4674752475248  L 117.243850931677 39.8891584158417  L 117.528447204969 39.6049009900991  L 122.445093167702 37.2916336633664  L 123.024099378882 34.6941089108912  L 120.138881987578 34.6941089108912  L 119.559875776397 34.4000495049506  L 119.844472049689 32.9591584158416  L 119.844472049689 32.0867821782179  L 120.138881987577 31.5084653465347  L 121.00248447205 31.5084653465347  L 121.58149068323 31.5084653465347  C 123.603105590062 31.5084653465347  125.919130434782 30.3518316831684  128.519751552795 28.0483663366338  L 146.743726708074 15.0509405940595  L 147.322732919255 15.0509405940595  L 153.10298136646 17.6484653465348  L 155.41900621118 17.3642079207922  L 153.976397515528 11.2967821782179  L 153.976397515528 10.7184653465348  L 154.270807453416 10.4244059405942  L 154.555403726708 10.1401485148516  L 157.7350310559 4.93529702970305  L 156.871428571428 4.35698019801991  L 154.84 4.93529702970305  L 154.84 5.21955445544564  L 154.555403726708 5.21955445544564  L 148.765341614907 6.08212871287138  L 147.322732919254 6.08212871287138  L 147.038136645962 6.08212871287138  L 147.038136645962 5.79787128712879  L 146.753540372671 4.92549504950504  L 145.59552795031 2.90628712871296  L 144.427701863354 2.90628712871296  Z " stroke-width="2" stroke="#797979" fill="none" transform="matrix(1 0 0 1 1232 489 )" mask="url(#clip56)" />
  </g>
</svg>