<?xml version="1.0" encoding="utf-8"?>
<svg version="1.1" xmlns:xlink="http://www.w3.org/1999/xlink" width="136px" height="134px" xmlns="http://www.w3.org/2000/svg">
  <defs>
    <mask fill="white" id="clip59">
      <path d="M 30.0579710144928 44.786544117647  L 30.0579710144928 44.8161029411765  L 29.7623188405798 44.8161029411765  L 7.69681159420296 53.8216911764706  L 1.0150724637682 60.2063970588235  C -0.137971014492628 70.0691911764706  1.0150724637682 75.8824264705882  4.50376811594208 77.6263970588235  L 10.8898550724638 81.6858088235294  L 11.1756521739131 81.6858088235294  L 11.1756521739131 81.9813970588235  L 12.92 92.7211029411764  C 18.4289855072464 99.9827205882352  22.2133333333333 103.756397058823  24.2434782608696 104.623455882353  L 30.6295652173913 106.071838235294  L 31.5066666666667 106.357573529412  L 31.5066666666667 106.653161764706  C 32.3739130434783 107.805955882353  34.4139130434783 108.968602941176  38.1785507246377 110.13125  L 55.6023188405797 111.008161764706  C 68.3843478260869 111.008161764706  75.6376811594203 111.875220588235  77.0863768115941 113.333455882353  C 78.5449275362318 114.48625  78.830724637681 117.392867647059  78.5449275362318 121.747867647059  C 78.2591304347826 124.654485294118  78.5449275362318 126.398455882353  78.830724637681 126.68419117647  L 85.2266666666666 125.225955882353  C 90.1640579710144 123.481985294117  93.0614492753623 123.481985294117  94.5199999999999 124.940220588235  L 96.8457971014491 127.846838235294  C 100.324637681159 132.201838235294  102.650434782609 133.935955882353  103.231884057971 133.650220588235  C 104.976231884058 133.068897058823  107.006376811594 131.324926470588  109.03652173913 128.428161764706  L 109.617971014493 127.55125  L 114.84115942029 130.743602941176  L 118.034202898551 128.132573529412  C 118.911304347826 124.063308823529  120.931594202898 122.033602941176  124.420289855072 121.738014705882  L 125.868985507246 121.166544117647  L 125.287536231884 120.003897058823  L 124.706086956522 119.422573529412  L 124.991884057971 119.126985294118  L 125.287536231884 111.875220588235  C 122.961739130435 108.387279411765  120.064347826087 107.224632352941  116.871304347826 107.805955882353  C 113.678260869565 108.682867647059  111.352463768116 108.682867647059  110.47536231884 107.520220588235  C 109.903768115942 106.653161764706  109.903768115942 106.071838235294  109.903768115942 104.909191176471  C 107.863768115942 101.42125  105.843478260869 98.5244852941177  103.222028985507 95.913455882353  C 99.7431884057969 93.0166911764706  98.8660869565216 90.3958088235294  99.7431884057969 87.7847794117647  L 100.324637681159 86.9177205882353  L 108.455072463768 88.3661029411765  L 107.873623188406 83.4297794117648  C 107.587826086956 80.5231617647059  107.873623188406 78.493455882353  109.32231884058 77.0450735294118  C 109.903768115942 75.8824264705883  111.352463768116 75.3011029411765  112.80115942029 75.0055147058823  L 116.28 73.8428676470589  L 116.28 72.3944852941177  C 113.668405797101 66.8768382352941  112.80115942029 62.8075735294118  113.954202898551 61.073455882353  L 115.698550724637 59.6250735294118  C 116.575652173913 59.3294852941177  119.473043478261 59.9108088235294  123.533333333333 61.3591911764706  L 123.828985507246 61.6547794117646  L 123.828985507246 62.2361029411764  C 127.022028985507 66.0097794117647  128.766376811594 68.3350735294118  129.633623188406 68.9163970588235  L 135.152463768116 59.9108088235294  C 130.215072463768 53.811838235294  127.603478260869 49.4568382352941  126.736231884058 47.7128676470588  L 122.380289855072 50.6194852941176  L 121.79884057971 50.0381617647059  L 110.189565217391 47.131544117647  L 109.893913043478 47.131544117647  L 109.893913043478 46.8359558823529  C 104.95652173913 44.5106617647058  102.059130434782 41.8996323529412  101.763478260869 39.2886029411765  L 94.7959420289853 36.09625  L 94.7959420289853 29.415955882353  L 107.568115942029 21.8686029411765  C 106.986666666666 18.3905147058824  106.109565217391 14.9025735294118  104.670724637681 11.995955882353  L 102.640579710145 7.93654411764712  L 93.9286956521737 8.80360294117653  C 89.8585507246375 10.5377205882353  86.0840579710143 11.4146323529412  82.3194202898549 11.4146323529412  L 73.3118840579709 9.38492647058827  L 73.3118840579709 6.18272058823533  L 71.863188405797 5.89698529411766  L 69.2515942028984 5.02992647058825  L 68.6701449275361 3.28595588235298  L 68.6701449275361 2.99036764705885  L 68.3843478260868 2.12330882352944  L 68.3843478260868 1.82772058823531  L 68.3843478260868 0.960661764705905  L 67.8028985507245 1.24639705882357  L 67.2214492753621 8.80360294117653  L 66.9257971014491 11.4146323529412  C 66.3443478260868 12.8630147058824  65.7628985507245 13.7399264705883  66.3443478260868 14.3113970588236  C 67.8028985507245 16.3411029411765  67.5072463768114 18.6663970588236  66.0486956521738 20.6961029411765  L 67.2115942028984 25.6324264705883  L 66.9159420289854 25.9181617647059  L 66.334492753623 26.2137500000001  L 62.8556521739129 29.4061029411765  L 62.8556521739129 36.0863970588235  L 61.9785507246376 36.3721323529411  C 55.5924637681158 39.27875  51.2365217391303 40.7271323529411  48.6249275362318 40.7271323529411  L 35.8527536231883 39.8502205882352  L 30.3437681159419 44.786544117647  L 30.0579710144928 44.786544117647  Z " fill-rule="evenodd" />
    </mask>
  </defs>
  <g transform="matrix(1 0 0 1 -1134 -541 )">
    <path d="M 30.0579710144928 44.786544117647  L 30.0579710144928 44.8161029411765  L 29.7623188405798 44.8161029411765  L 7.69681159420296 53.8216911764706  L 1.0150724637682 60.2063970588235  C -0.137971014492628 70.0691911764706  1.0150724637682 75.8824264705882  4.50376811594208 77.6263970588235  L 10.8898550724638 81.6858088235294  L 11.1756521739131 81.6858088235294  L 11.1756521739131 81.9813970588235  L 12.92 92.7211029411764  C 18.4289855072464 99.9827205882352  22.2133333333333 103.756397058823  24.2434782608696 104.623455882353  L 30.6295652173913 106.071838235294  L 31.5066666666667 106.357573529412  L 31.5066666666667 106.653161764706  C 32.3739130434783 107.805955882353  34.4139130434783 108.968602941176  38.1785507246377 110.13125  L 55.6023188405797 111.008161764706  C 68.3843478260869 111.008161764706  75.6376811594203 111.875220588235  77.0863768115941 113.333455882353  C 78.5449275362318 114.48625  78.830724637681 117.392867647059  78.5449275362318 121.747867647059  C 78.2591304347826 124.654485294118  78.5449275362318 126.398455882353  78.830724637681 126.68419117647  L 85.2266666666666 125.225955882353  C 90.1640579710144 123.481985294117  93.0614492753623 123.481985294117  94.5199999999999 124.940220588235  L 96.8457971014491 127.846838235294  C 100.324637681159 132.201838235294  102.650434782609 133.935955882353  103.231884057971 133.650220588235  C 104.976231884058 133.068897058823  107.006376811594 131.324926470588  109.03652173913 128.428161764706  L 109.617971014493 127.55125  L 114.84115942029 130.743602941176  L 118.034202898551 128.132573529412  C 118.911304347826 124.063308823529  120.931594202898 122.033602941176  124.420289855072 121.738014705882  L 125.868985507246 121.166544117647  L 125.287536231884 120.003897058823  L 124.706086956522 119.422573529412  L 124.991884057971 119.126985294118  L 125.287536231884 111.875220588235  C 122.961739130435 108.387279411765  120.064347826087 107.224632352941  116.871304347826 107.805955882353  C 113.678260869565 108.682867647059  111.352463768116 108.682867647059  110.47536231884 107.520220588235  C 109.903768115942 106.653161764706  109.903768115942 106.071838235294  109.903768115942 104.909191176471  C 107.863768115942 101.42125  105.843478260869 98.5244852941177  103.222028985507 95.913455882353  C 99.7431884057969 93.0166911764706  98.8660869565216 90.3958088235294  99.7431884057969 87.7847794117647  L 100.324637681159 86.9177205882353  L 108.455072463768 88.3661029411765  L 107.873623188406 83.4297794117648  C 107.587826086956 80.5231617647059  107.873623188406 78.493455882353  109.32231884058 77.0450735294118  C 109.903768115942 75.8824264705883  111.352463768116 75.3011029411765  112.80115942029 75.0055147058823  L 116.28 73.8428676470589  L 116.28 72.3944852941177  C 113.668405797101 66.8768382352941  112.80115942029 62.8075735294118  113.954202898551 61.073455882353  L 115.698550724637 59.6250735294118  C 116.575652173913 59.3294852941177  119.473043478261 59.9108088235294  123.533333333333 61.3591911764706  L 123.828985507246 61.6547794117646  L 123.828985507246 62.2361029411764  C 127.022028985507 66.0097794117647  128.766376811594 68.3350735294118  129.633623188406 68.9163970588235  L 135.152463768116 59.9108088235294  C 130.215072463768 53.811838235294  127.603478260869 49.4568382352941  126.736231884058 47.7128676470588  L 122.380289855072 50.6194852941176  L 121.79884057971 50.0381617647059  L 110.189565217391 47.131544117647  L 109.893913043478 47.131544117647  L 109.893913043478 46.8359558823529  C 104.95652173913 44.5106617647058  102.059130434782 41.8996323529412  101.763478260869 39.2886029411765  L 94.7959420289853 36.09625  L 94.7959420289853 29.415955882353  L 107.568115942029 21.8686029411765  C 106.986666666666 18.3905147058824  106.109565217391 14.9025735294118  104.670724637681 11.995955882353  L 102.640579710145 7.93654411764712  L 93.9286956521737 8.80360294117653  C 89.8585507246375 10.5377205882353  86.0840579710143 11.4146323529412  82.3194202898549 11.4146323529412  L 73.3118840579709 9.38492647058827  L 73.3118840579709 6.18272058823533  L 71.863188405797 5.89698529411766  L 69.2515942028984 5.02992647058825  L 68.6701449275361 3.28595588235298  L 68.6701449275361 2.99036764705885  L 68.3843478260868 2.12330882352944  L 68.3843478260868 1.82772058823531  L 68.3843478260868 0.960661764705905  L 67.8028985507245 1.24639705882357  L 67.2214492753621 8.80360294117653  L 66.9257971014491 11.4146323529412  C 66.3443478260868 12.8630147058824  65.7628985507245 13.7399264705883  66.3443478260868 14.3113970588236  C 67.8028985507245 16.3411029411765  67.5072463768114 18.6663970588236  66.0486956521738 20.6961029411765  L 67.2115942028984 25.6324264705883  L 66.9159420289854 25.9181617647059  L 66.334492753623 26.2137500000001  L 62.8556521739129 29.4061029411765  L 62.8556521739129 36.0863970588235  L 61.9785507246376 36.3721323529411  C 55.5924637681158 39.27875  51.2365217391303 40.7271323529411  48.6249275362318 40.7271323529411  L 35.8527536231883 39.8502205882352  L 30.3437681159419 44.786544117647  L 30.0579710144928 44.786544117647  Z " fill-rule="nonzero" fill="#0533aa" stroke="none" fill-opacity="0.482352941176471" transform="matrix(1 0 0 1 1134 541 )" />
    <path d="M 30.0579710144928 44.786544117647  L 30.0579710144928 44.8161029411765  L 29.7623188405798 44.8161029411765  L 7.69681159420296 53.8216911764706  L 1.0150724637682 60.2063970588235  C -0.137971014492628 70.0691911764706  1.0150724637682 75.8824264705882  4.50376811594208 77.6263970588235  L 10.8898550724638 81.6858088235294  L 11.1756521739131 81.6858088235294  L 11.1756521739131 81.9813970588235  L 12.92 92.7211029411764  C 18.4289855072464 99.9827205882352  22.2133333333333 103.756397058823  24.2434782608696 104.623455882353  L 30.6295652173913 106.071838235294  L 31.5066666666667 106.357573529412  L 31.5066666666667 106.653161764706  C 32.3739130434783 107.805955882353  34.4139130434783 108.968602941176  38.1785507246377 110.13125  L 55.6023188405797 111.008161764706  C 68.3843478260869 111.008161764706  75.6376811594203 111.875220588235  77.0863768115941 113.333455882353  C 78.5449275362318 114.48625  78.830724637681 117.392867647059  78.5449275362318 121.747867647059  C 78.2591304347826 124.654485294118  78.5449275362318 126.398455882353  78.830724637681 126.68419117647  L 85.2266666666666 125.225955882353  C 90.1640579710144 123.481985294117  93.0614492753623 123.481985294117  94.5199999999999 124.940220588235  L 96.8457971014491 127.846838235294  C 100.324637681159 132.201838235294  102.650434782609 133.935955882353  103.231884057971 133.650220588235  C 104.976231884058 133.068897058823  107.006376811594 131.324926470588  109.03652173913 128.428161764706  L 109.617971014493 127.55125  L 114.84115942029 130.743602941176  L 118.034202898551 128.132573529412  C 118.911304347826 124.063308823529  120.931594202898 122.033602941176  124.420289855072 121.738014705882  L 125.868985507246 121.166544117647  L 125.287536231884 120.003897058823  L 124.706086956522 119.422573529412  L 124.991884057971 119.126985294118  L 125.287536231884 111.875220588235  C 122.961739130435 108.387279411765  120.064347826087 107.224632352941  116.871304347826 107.805955882353  C 113.678260869565 108.682867647059  111.352463768116 108.682867647059  110.47536231884 107.520220588235  C 109.903768115942 106.653161764706  109.903768115942 106.071838235294  109.903768115942 104.909191176471  C 107.863768115942 101.42125  105.843478260869 98.5244852941177  103.222028985507 95.913455882353  C 99.7431884057969 93.0166911764706  98.8660869565216 90.3958088235294  99.7431884057969 87.7847794117647  L 100.324637681159 86.9177205882353  L 108.455072463768 88.3661029411765  L 107.873623188406 83.4297794117648  C 107.587826086956 80.5231617647059  107.873623188406 78.493455882353  109.32231884058 77.0450735294118  C 109.903768115942 75.8824264705883  111.352463768116 75.3011029411765  112.80115942029 75.0055147058823  L 116.28 73.8428676470589  L 116.28 72.3944852941177  C 113.668405797101 66.8768382352941  112.80115942029 62.8075735294118  113.954202898551 61.073455882353  L 115.698550724637 59.6250735294118  C 116.575652173913 59.3294852941177  119.473043478261 59.9108088235294  123.533333333333 61.3591911764706  L 123.828985507246 61.6547794117646  L 123.828985507246 62.2361029411764  C 127.022028985507 66.0097794117647  128.766376811594 68.3350735294118  129.633623188406 68.9163970588235  L 135.152463768116 59.9108088235294  C 130.215072463768 53.811838235294  127.603478260869 49.4568382352941  126.736231884058 47.7128676470588  L 122.380289855072 50.6194852941176  L 121.79884057971 50.0381617647059  L 110.189565217391 47.131544117647  L 109.893913043478 47.131544117647  L 109.893913043478 46.8359558823529  C 104.95652173913 44.5106617647058  102.059130434782 41.8996323529412  101.763478260869 39.2886029411765  L 94.7959420289853 36.09625  L 94.7959420289853 29.415955882353  L 107.568115942029 21.8686029411765  C 106.986666666666 18.3905147058824  106.109565217391 14.9025735294118  104.670724637681 11.995955882353  L 102.640579710145 7.93654411764712  L 93.9286956521737 8.80360294117653  C 89.8585507246375 10.5377205882353  86.0840579710143 11.4146323529412  82.3194202898549 11.4146323529412  L 73.3118840579709 9.38492647058827  L 73.3118840579709 6.18272058823533  L 71.863188405797 5.89698529411766  L 69.2515942028984 5.02992647058825  L 68.6701449275361 3.28595588235298  L 68.6701449275361 2.99036764705885  L 68.3843478260868 2.12330882352944  L 68.3843478260868 1.82772058823531  L 68.3843478260868 0.960661764705905  L 67.8028985507245 1.24639705882357  L 67.2214492753621 8.80360294117653  L 66.9257971014491 11.4146323529412  C 66.3443478260868 12.8630147058824  65.7628985507245 13.7399264705883  66.3443478260868 14.3113970588236  C 67.8028985507245 16.3411029411765  67.5072463768114 18.6663970588236  66.0486956521738 20.6961029411765  L 67.2115942028984 25.6324264705883  L 66.9159420289854 25.9181617647059  L 66.334492753623 26.2137500000001  L 62.8556521739129 29.4061029411765  L 62.8556521739129 36.0863970588235  L 61.9785507246376 36.3721323529411  C 55.5924637681158 39.27875  51.2365217391303 40.7271323529411  48.6249275362318 40.7271323529411  L 35.8527536231883 39.8502205882352  L 30.3437681159419 44.786544117647  L 30.0579710144928 44.786544117647  Z " stroke-width="2" stroke="#797979" fill="none" transform="matrix(1 0 0 1 1134 541 )" mask="url(#clip59)" />
  </g>
</svg>