<?xml version="1.0" encoding="utf-8"?>
<svg version="1.1" xmlns:xlink="http://www.w3.org/1999/xlink" width="40px" height="93px" xmlns="http://www.w3.org/2000/svg">
  <defs>
    <mask fill="white" id="clip62">
      <path d="M 39.6900000000003 4.18500000000031  L 30.24 0.141947368421035  C 20.8199999999999 6.77921052631575  14.04 15.1394210526316  9.62000000000012 25.2421578947368  C 5.79000000000019 33.8960526315789  2.85000000000014 38.223  0.7800000000002 39.3781578947369  L 2.85000000000014 55.237105263158  L 2.85000000000014 55.521  L 1.38000000000011 66.4852105263159  C 0.790000000000191 69.9506842105264  1.38000000000011 72.2512105263159  2.27000000000021 72.8287894736843  L 14.3500000000001 80.6212105263159  L 14.6500000000001 80.6212105263159  L 14.95 81.4826842105264  C 15.54 84.0768947368422  17.3 86.3872105263159  19.6600000000001 89.2751052631581  C 20.8400000000001 91.0078421052633  22.3100000000002 91.8693157894738  23.49 92.4468947368423  L 25.26 73.4063684210527  L 25.26 72.8287894736843  L 33.8 52.6428947368422  L 36.75 28.7076315789474  L 36.75 28.4139473684211  L 37.04 28.1300526315791  L 39.6900000000001 21.7766842105264  L 37.6300000000001 16.2945789473685  L 37.6300000000001 16.0106842105264  L 37.3400000000001 16.0106842105264  L 36.7500000000002 8.51194736842121  L 37.0400000000002 8.22805263157914  L 37.3300000000002 7.93436842105287  L 38.8000000000002 6.20163157894763  L 39.6900000000003 4.18500000000031  Z " fill-rule="evenodd" />
    </mask>
  </defs>
  <g transform="matrix(1 0 0 1 -1387 -825 )">
    <path d="M 39.6900000000003 4.18500000000031  L 30.24 0.141947368421035  C 20.8199999999999 6.77921052631575  14.04 15.1394210526316  9.62000000000012 25.2421578947368  C 5.79000000000019 33.8960526315789  2.85000000000014 38.223  0.7800000000002 39.3781578947369  L 2.85000000000014 55.237105263158  L 2.85000000000014 55.521  L 1.38000000000011 66.4852105263159  C 0.790000000000191 69.9506842105264  1.38000000000011 72.2512105263159  2.27000000000021 72.8287894736843  L 14.3500000000001 80.6212105263159  L 14.6500000000001 80.6212105263159  L 14.95 81.4826842105264  C 15.54 84.0768947368422  17.3 86.3872105263159  19.6600000000001 89.2751052631581  C 20.8400000000001 91.0078421052633  22.3100000000002 91.8693157894738  23.49 92.4468947368423  L 25.26 73.4063684210527  L 25.26 72.8287894736843  L 33.8 52.6428947368422  L 36.75 28.7076315789474  L 36.75 28.4139473684211  L 37.04 28.1300526315791  L 39.6900000000001 21.7766842105264  L 37.6300000000001 16.2945789473685  L 37.6300000000001 16.0106842105264  L 37.3400000000001 16.0106842105264  L 36.7500000000002 8.51194736842121  L 37.0400000000002 8.22805263157914  L 37.3300000000002 7.93436842105287  L 38.8000000000002 6.20163157894763  L 39.6900000000003 4.18500000000031  Z " fill-rule="nonzero" fill="#20dbea" stroke="none" fill-opacity="0.4" transform="matrix(1 0 0 1 1387 825 )" />
    <path d="M 39.6900000000003 4.18500000000031  L 30.24 0.141947368421035  C 20.8199999999999 6.77921052631575  14.04 15.1394210526316  9.62000000000012 25.2421578947368  C 5.79000000000019 33.8960526315789  2.85000000000014 38.223  0.7800000000002 39.3781578947369  L 2.85000000000014 55.237105263158  L 2.85000000000014 55.521  L 1.38000000000011 66.4852105263159  C 0.790000000000191 69.9506842105264  1.38000000000011 72.2512105263159  2.27000000000021 72.8287894736843  L 14.3500000000001 80.6212105263159  L 14.6500000000001 80.6212105263159  L 14.95 81.4826842105264  C 15.54 84.0768947368422  17.3 86.3872105263159  19.6600000000001 89.2751052631581  C 20.8400000000001 91.0078421052633  22.3100000000002 91.8693157894738  23.49 92.4468947368423  L 25.26 73.4063684210527  L 25.26 72.8287894736843  L 33.8 52.6428947368422  L 36.75 28.7076315789474  L 36.75 28.4139473684211  L 37.04 28.1300526315791  L 39.6900000000001 21.7766842105264  L 37.6300000000001 16.2945789473685  L 37.6300000000001 16.0106842105264  L 37.3400000000001 16.0106842105264  L 36.7500000000002 8.51194736842121  L 37.0400000000002 8.22805263157914  L 37.3300000000002 7.93436842105287  L 38.8000000000002 6.20163157894763  L 39.6900000000003 4.18500000000031  Z " stroke-width="2" stroke="#797979" fill="none" transform="matrix(1 0 0 1 1387 825 )" mask="url(#clip62)" />
  </g>
</svg>