<?xml version="1.0" encoding="utf-8"?>
<svg version="1.1" xmlns:xlink="http://www.w3.org/1999/xlink" width="59px" height="51px" xmlns="http://www.w3.org/2000/svg">
  <defs>
    <mask fill="white" id="clip64">
      <path d="M 26.5696666666666 6  L 26.5696666666666 5.39913461538461  L 25.7043333333333 6.84086538461541  L 25.7043333333333 7.13509615384613  L 25.4093333333334 7.71375000000001  L 13.5306666666667 10.6070192307693  L 14.1108333333334 12.0487500000001  L 17.8770000000001 16.38375  C 17.5918333333334 16.38375  17.0018333333334 16.6779807692308  16.7166666666668 16.6779807692308  L 11.2198333333334 19.5614423076924  L 2.52716666666672 26.2110576923077  C -0.363833333333338 29.6829807692308  0.21633333333336 36.0383653846154  4.56266666666677 45.5714423076923  L 13.2553333333335 46.4345192307693  L 13.5405000000001 46.4345192307693  L 13.5405000000001 46.7189423076923  L 22.2331666666668 50.7695192307692  L 31.5060000000001 49.3277884615384  C 35.2721666666668 48.4647115384615  39.6185000000001 44.9927884615385  45.1251666666668 38.343173076923  L 45.4201666666667 38.343173076923  L 46.0003333333334 37.7645192307691  L 50.0516666666668 36.6072115384615  L 48.8913333333335 24.4750961538461  L 48.8913333333335 23.8964423076922  L 54.1030000000001 16.3837499999999  L 54.1030000000001 16.0993269230769  L 54.3881666666667 16.0993269230769  L 58.4493333333334 12.9216346153846  C 59.0295000000001 9.44971153846153  58.7345 6.27201923076921  57.2890000000001 3.67298076923077  C 56.1286666666668 1.36817307692306  54.6831666666668 0.495288461538457  53.2376666666668 0.495288461538457  L 53.8178333333335 4.83028846153842  L 46.0003333333334 3.38855769230762  L 42.5291666666668 5.40894230769218  L 42.2440000000001 5.40894230769218  L 42.2440000000001 6  L 26.5696666666666 6  Z " fill-rule="evenodd" />
    </mask>
  </defs>
  <g transform="matrix(1 0 0 1 -1104 -990 )">
    <path d="M 26.5696666666666 6  L 26.5696666666666 5.39913461538461  L 25.7043333333333 6.84086538461541  L 25.7043333333333 7.13509615384613  L 25.4093333333334 7.71375000000001  L 13.5306666666667 10.6070192307693  L 14.1108333333334 12.0487500000001  L 17.8770000000001 16.38375  C 17.5918333333334 16.38375  17.0018333333334 16.6779807692308  16.7166666666668 16.6779807692308  L 11.2198333333334 19.5614423076924  L 2.52716666666672 26.2110576923077  C -0.363833333333338 29.6829807692308  0.21633333333336 36.0383653846154  4.56266666666677 45.5714423076923  L 13.2553333333335 46.4345192307693  L 13.5405000000001 46.4345192307693  L 13.5405000000001 46.7189423076923  L 22.2331666666668 50.7695192307692  L 31.5060000000001 49.3277884615384  C 35.2721666666668 48.4647115384615  39.6185000000001 44.9927884615385  45.1251666666668 38.343173076923  L 45.4201666666667 38.343173076923  L 46.0003333333334 37.7645192307691  L 50.0516666666668 36.6072115384615  L 48.8913333333335 24.4750961538461  L 48.8913333333335 23.8964423076922  L 54.1030000000001 16.3837499999999  L 54.1030000000001 16.0993269230769  L 54.3881666666667 16.0993269230769  L 58.4493333333334 12.9216346153846  C 59.0295000000001 9.44971153846153  58.7345 6.27201923076921  57.2890000000001 3.67298076923077  C 56.1286666666668 1.36817307692306  54.6831666666668 0.495288461538457  53.2376666666668 0.495288461538457  L 53.8178333333335 4.83028846153842  L 46.0003333333334 3.38855769230762  L 42.5291666666668 5.40894230769218  L 42.2440000000001 5.40894230769218  L 42.2440000000001 6  L 26.5696666666666 6  Z " fill-rule="nonzero" fill="#20dbea" stroke="none" fill-opacity="0.4" transform="matrix(1 0 0 1 1104 990 )" />
    <path d="M 26.5696666666666 6  L 26.5696666666666 5.39913461538461  L 25.7043333333333 6.84086538461541  L 25.7043333333333 7.13509615384613  L 25.4093333333334 7.71375000000001  L 13.5306666666667 10.6070192307693  L 14.1108333333334 12.0487500000001  L 17.8770000000001 16.38375  C 17.5918333333334 16.38375  17.0018333333334 16.6779807692308  16.7166666666668 16.6779807692308  L 11.2198333333334 19.5614423076924  L 2.52716666666672 26.2110576923077  C -0.363833333333338 29.6829807692308  0.21633333333336 36.0383653846154  4.56266666666677 45.5714423076923  L 13.2553333333335 46.4345192307693  L 13.5405000000001 46.4345192307693  L 13.5405000000001 46.7189423076923  L 22.2331666666668 50.7695192307692  L 31.5060000000001 49.3277884615384  C 35.2721666666668 48.4647115384615  39.6185000000001 44.9927884615385  45.1251666666668 38.343173076923  L 45.4201666666667 38.343173076923  L 46.0003333333334 37.7645192307691  L 50.0516666666668 36.6072115384615  L 48.8913333333335 24.4750961538461  L 48.8913333333335 23.8964423076922  L 54.1030000000001 16.3837499999999  L 54.1030000000001 16.0993269230769  L 54.3881666666667 16.0993269230769  L 58.4493333333334 12.9216346153846  C 59.0295000000001 9.44971153846153  58.7345 6.27201923076921  57.2890000000001 3.67298076923077  C 56.1286666666668 1.36817307692306  54.6831666666668 0.495288461538457  53.2376666666668 0.495288461538457  L 53.8178333333335 4.83028846153842  L 46.0003333333334 3.38855769230762  L 42.5291666666668 5.40894230769218  L 42.2440000000001 5.40894230769218  L 42.2440000000001 6  L 26.5696666666666 6  Z " stroke-width="2" stroke="#797979" fill="none" transform="matrix(1 0 0 1 1104 990 )" mask="url(#clip64)" />
  </g>
</svg>