<?xml version="1.0" encoding="utf-8"?>
<svg version="1.1" xmlns:xlink="http://www.w3.org/1999/xlink" width="138px" height="106px" xmlns="http://www.w3.org/2000/svg">
  <defs>
    <mask fill="white" id="clip6">
      <path d="M 106.733142857143 53.1913888888891  C 102.376285714286 41.050462962963  98.8868571428572 33.5225  96.2747142857143 30.9313888888889  C 93.0809999999999 28.3206481481482  90.4688571428571 23.6978703703703  87.8468571428571 16.4741666666666  C 79.4288571428572 16.4741666666666  74.4904285714286 15.0313888888888  72.1641428571429 12.1360185185185  C 70.4194285714286 9.52527777777782  66.9398571428572 7.79787037037042  61.9915714285714 6.34527777777781  L 60.5425714285714 6.05083333333341  L 61.9915714285714 1.1336111111112  L 61.1241428571428 0.554537037037091  L 59.6751428571428 0.269907407407497  C 56.1955714285714 2.0071296296297  53.8692857142857 3.74435185185191  52.992 6.05083333333341  C 51.8387142857143 8.36712962962972  50.3798571428572 10.3889814814815  48.6351428571429 11.8415740740741  C 47.1861428571429 16.4741666666667  45.7272857142857 18.7806481481483  44.2782857142858 18.7806481481483  C 43.4108571428572 19.0652777777778  42.8292857142858 18.4862037037039  42.2477142857144 17.6225000000002  L 39.9214285714287 15.6006481481484  C 38.1865714285715 14.7271296296298  36.4418571428573 13.8634259259261  34.9830000000001 13.8634259259261  L 32.0751428571429 14.4425000000003  C 30.0445714285716 16.4643518518521  27.1367142857144 17.9169444444447  22.7798571428573 18.4960185185188  L 11.7398571428572 17.9169444444447  C 8.26028571428582 16.1797222222225  6.80142857142866 12.7150925925929  7.67871428571436 8.37694444444464  L 3.6175714285715 6.93416666666683  L 1.58700000000013 12.7150925925927  L 1.58700000000013 12.9997222222223  L 1.29128571428588 13.2843518518519  L 0.423857142857318 14.4425  L 3.03600000000015 15.0215740740741  L 3.61757142857161 15.0215740740741  L 3.90342857142872 15.3062037037037  L 3.90342857142872 15.6006481481481  C 8.84185714285728 22.2452777777777  12.617142857143 26.5932407407408  14.6477142857144 27.7415740740741  C 15.8108571428572 28.3206481481482  19.3002857142859 29.4787962962963  25.3920000000001 31.2160185185185  L 35.8504285714287 34.9750925925926  C 39.044142857143 36.4178703703704  42.2378571428573 42.7876851851852  45.7174285714287 54.0649074074074  C 50.3700000000001 57.2449074074075  53.2778571428572 58.6876851851853  55.3084285714287 58.4030555555556  C 57.3390000000001 57.5393518518519  60.8185714285716 55.5174999999999  65.7668571428573 52.3276851851851  L 66.0527142857144 52.0430555555555  L 66.3484285714286 51.7584259259259  L 66.9300000000001 52.0430555555555  L 72.1542857142857 53.2012037037036  L 72.7358571428572 53.2012037037036  L 72.7358571428572 54.0649074074073  L 72.4500000000001 54.928611111111  C 70.7052857142859 61.8676851851852  69.2562857142858 65.9212037037037  68.093142857143 67.069537037037  L 61.124142857143 67.3541666666666  L 61.124142857143 67.648611111111  C 61.124142857143 70.5439814814814  59.0935714285716 74.8821296296295  55.3182857142858 80.368611111111  C 54.155142857143 82.1058333333332  53.8692857142858 83.548611111111  53.8692857142858 84.4123148148147  L 60.5425714285715 89.0350925925925  C 62.2872857142858 91.0667592592592  63.4504285714287 91.6458333333332  64.8994285714286 91.6458333333332  L 66.3582857142858 91.6458333333332  L 67.8072857142858 96.5630555555554  L 71.0010000000001 97.7212037037035  L 72.7457142857143 95.9839814814813  C 73.6230000000001 95.1104629629628  74.7762857142857 94.5313888888887  75.6437142857144 94.8258333333332  C 78.5515714285716 94.8258333333332  80.8778571428572 96.5630555555554  83.7758571428573 100.32212962963  L 86.3880000000001 103.796574074074  L 86.6837142857143 103.50212962963  C 88.4284285714286 102.343981481481  91.6221428571429 102.638425925926  96.2648571428572 104.081203703704  L 103.815428571429 105.818425925926  L 110.794285714286 103.50212962963  L 113.702142857143 102.059351851852  L 115.732714285714 100.616574074074  L 113.988 98.5947222222221  C 113.406428571429 97.436574074074  113.988 95.9937962962963  115.446857142857 94.5412037037036  C 117.191571428572 93.0984259259258  118.344857142857 91.655648148148  118.344857142857 89.9184259259258  L 118.344857142857 86.4439814814814  C 117.773142857143 84.7067592592592  118.059 83.548611111111  118.640571428572 82.9793518518518  C 119.222142857143 81.8212037037037  121.252714285715 81.2421296296296  123.579 80.6630555555555  C 127.354285714286 80.0839814814814  131.997 81.8212037037036  137.517 86.4439814814814  L 135.486428571429 80.6630555555555  L 132.292714285715 76.3249074074074  L 131.711142857143 71.1132407407408  L 126.772714285715 70.2495370370371  L 126.486857142858 70.2495370370371  L 126.486857142858 69.9649074074075  L 113.416285714286 62.4467592592594  L 107.028857142858 61.2886111111113  L 107.028857142858 59.8458333333335  L 106.733142857143 53.1913888888891  Z " fill-rule="evenodd" />
    </mask>
  </defs>
  <g transform="matrix(1 0 0 1 -1265 -570 )">
    <path d="M 106.733142857143 53.1913888888891  C 102.376285714286 41.050462962963  98.8868571428572 33.5225  96.2747142857143 30.9313888888889  C 93.0809999999999 28.3206481481482  90.4688571428571 23.6978703703703  87.8468571428571 16.4741666666666  C 79.4288571428572 16.4741666666666  74.4904285714286 15.0313888888888  72.1641428571429 12.1360185185185  C 70.4194285714286 9.52527777777782  66.9398571428572 7.79787037037042  61.9915714285714 6.34527777777781  L 60.5425714285714 6.05083333333341  L 61.9915714285714 1.1336111111112  L 61.1241428571428 0.554537037037091  L 59.6751428571428 0.269907407407497  C 56.1955714285714 2.0071296296297  53.8692857142857 3.74435185185191  52.992 6.05083333333341  C 51.8387142857143 8.36712962962972  50.3798571428572 10.3889814814815  48.6351428571429 11.8415740740741  C 47.1861428571429 16.4741666666667  45.7272857142857 18.7806481481483  44.2782857142858 18.7806481481483  C 43.4108571428572 19.0652777777778  42.8292857142858 18.4862037037039  42.2477142857144 17.6225000000002  L 39.9214285714287 15.6006481481484  C 38.1865714285715 14.7271296296298  36.4418571428573 13.8634259259261  34.9830000000001 13.8634259259261  L 32.0751428571429 14.4425000000003  C 30.0445714285716 16.4643518518521  27.1367142857144 17.9169444444447  22.7798571428573 18.4960185185188  L 11.7398571428572 17.9169444444447  C 8.26028571428582 16.1797222222225  6.80142857142866 12.7150925925929  7.67871428571436 8.37694444444464  L 3.6175714285715 6.93416666666683  L 1.58700000000013 12.7150925925927  L 1.58700000000013 12.9997222222223  L 1.29128571428588 13.2843518518519  L 0.423857142857318 14.4425  L 3.03600000000015 15.0215740740741  L 3.61757142857161 15.0215740740741  L 3.90342857142872 15.3062037037037  L 3.90342857142872 15.6006481481481  C 8.84185714285728 22.2452777777777  12.617142857143 26.5932407407408  14.6477142857144 27.7415740740741  C 15.8108571428572 28.3206481481482  19.3002857142859 29.4787962962963  25.3920000000001 31.2160185185185  L 35.8504285714287 34.9750925925926  C 39.044142857143 36.4178703703704  42.2378571428573 42.7876851851852  45.7174285714287 54.0649074074074  C 50.3700000000001 57.2449074074075  53.2778571428572 58.6876851851853  55.3084285714287 58.4030555555556  C 57.3390000000001 57.5393518518519  60.8185714285716 55.5174999999999  65.7668571428573 52.3276851851851  L 66.0527142857144 52.0430555555555  L 66.3484285714286 51.7584259259259  L 66.9300000000001 52.0430555555555  L 72.1542857142857 53.2012037037036  L 72.7358571428572 53.2012037037036  L 72.7358571428572 54.0649074074073  L 72.4500000000001 54.928611111111  C 70.7052857142859 61.8676851851852  69.2562857142858 65.9212037037037  68.093142857143 67.069537037037  L 61.124142857143 67.3541666666666  L 61.124142857143 67.648611111111  C 61.124142857143 70.5439814814814  59.0935714285716 74.8821296296295  55.3182857142858 80.368611111111  C 54.155142857143 82.1058333333332  53.8692857142858 83.548611111111  53.8692857142858 84.4123148148147  L 60.5425714285715 89.0350925925925  C 62.2872857142858 91.0667592592592  63.4504285714287 91.6458333333332  64.8994285714286 91.6458333333332  L 66.3582857142858 91.6458333333332  L 67.8072857142858 96.5630555555554  L 71.0010000000001 97.7212037037035  L 72.7457142857143 95.9839814814813  C 73.6230000000001 95.1104629629628  74.7762857142857 94.5313888888887  75.6437142857144 94.8258333333332  C 78.5515714285716 94.8258333333332  80.8778571428572 96.5630555555554  83.7758571428573 100.32212962963  L 86.3880000000001 103.796574074074  L 86.6837142857143 103.50212962963  C 88.4284285714286 102.343981481481  91.6221428571429 102.638425925926  96.2648571428572 104.081203703704  L 103.815428571429 105.818425925926  L 110.794285714286 103.50212962963  L 113.702142857143 102.059351851852  L 115.732714285714 100.616574074074  L 113.988 98.5947222222221  C 113.406428571429 97.436574074074  113.988 95.9937962962963  115.446857142857 94.5412037037036  C 117.191571428572 93.0984259259258  118.344857142857 91.655648148148  118.344857142857 89.9184259259258  L 118.344857142857 86.4439814814814  C 117.773142857143 84.7067592592592  118.059 83.548611111111  118.640571428572 82.9793518518518  C 119.222142857143 81.8212037037037  121.252714285715 81.2421296296296  123.579 80.6630555555555  C 127.354285714286 80.0839814814814  131.997 81.8212037037036  137.517 86.4439814814814  L 135.486428571429 80.6630555555555  L 132.292714285715 76.3249074074074  L 131.711142857143 71.1132407407408  L 126.772714285715 70.2495370370371  L 126.486857142858 70.2495370370371  L 126.486857142858 69.9649074074075  L 113.416285714286 62.4467592592594  L 107.028857142858 61.2886111111113  L 107.028857142858 59.8458333333335  L 106.733142857143 53.1913888888891  Z " fill-rule="nonzero" fill="#20dbea" stroke="none" fill-opacity="0.4" transform="matrix(1 0 0 1 1265 570 )" />
    <path d="M 106.733142857143 53.1913888888891  C 102.376285714286 41.050462962963  98.8868571428572 33.5225  96.2747142857143 30.9313888888889  C 93.0809999999999 28.3206481481482  90.4688571428571 23.6978703703703  87.8468571428571 16.4741666666666  C 79.4288571428572 16.4741666666666  74.4904285714286 15.0313888888888  72.1641428571429 12.1360185185185  C 70.4194285714286 9.52527777777782  66.9398571428572 7.79787037037042  61.9915714285714 6.34527777777781  L 60.5425714285714 6.05083333333341  L 61.9915714285714 1.1336111111112  L 61.1241428571428 0.554537037037091  L 59.6751428571428 0.269907407407497  C 56.1955714285714 2.0071296296297  53.8692857142857 3.74435185185191  52.992 6.05083333333341  C 51.8387142857143 8.36712962962972  50.3798571428572 10.3889814814815  48.6351428571429 11.8415740740741  C 47.1861428571429 16.4741666666667  45.7272857142857 18.7806481481483  44.2782857142858 18.7806481481483  C 43.4108571428572 19.0652777777778  42.8292857142858 18.4862037037039  42.2477142857144 17.6225000000002  L 39.9214285714287 15.6006481481484  C 38.1865714285715 14.7271296296298  36.4418571428573 13.8634259259261  34.9830000000001 13.8634259259261  L 32.0751428571429 14.4425000000003  C 30.0445714285716 16.4643518518521  27.1367142857144 17.9169444444447  22.7798571428573 18.4960185185188  L 11.7398571428572 17.9169444444447  C 8.26028571428582 16.1797222222225  6.80142857142866 12.7150925925929  7.67871428571436 8.37694444444464  L 3.6175714285715 6.93416666666683  L 1.58700000000013 12.7150925925927  L 1.58700000000013 12.9997222222223  L 1.29128571428588 13.2843518518519  L 0.423857142857318 14.4425  L 3.03600000000015 15.0215740740741  L 3.61757142857161 15.0215740740741  L 3.90342857142872 15.3062037037037  L 3.90342857142872 15.6006481481481  C 8.84185714285728 22.2452777777777  12.617142857143 26.5932407407408  14.6477142857144 27.7415740740741  C 15.8108571428572 28.3206481481482  19.3002857142859 29.4787962962963  25.3920000000001 31.2160185185185  L 35.8504285714287 34.9750925925926  C 39.044142857143 36.4178703703704  42.2378571428573 42.7876851851852  45.7174285714287 54.0649074074074  C 50.3700000000001 57.2449074074075  53.2778571428572 58.6876851851853  55.3084285714287 58.4030555555556  C 57.3390000000001 57.5393518518519  60.8185714285716 55.5174999999999  65.7668571428573 52.3276851851851  L 66.0527142857144 52.0430555555555  L 66.3484285714286 51.7584259259259  L 66.9300000000001 52.0430555555555  L 72.1542857142857 53.2012037037036  L 72.7358571428572 53.2012037037036  L 72.7358571428572 54.0649074074073  L 72.4500000000001 54.928611111111  C 70.7052857142859 61.8676851851852  69.2562857142858 65.9212037037037  68.093142857143 67.069537037037  L 61.124142857143 67.3541666666666  L 61.124142857143 67.648611111111  C 61.124142857143 70.5439814814814  59.0935714285716 74.8821296296295  55.3182857142858 80.368611111111  C 54.155142857143 82.1058333333332  53.8692857142858 83.548611111111  53.8692857142858 84.4123148148147  L 60.5425714285715 89.0350925925925  C 62.2872857142858 91.0667592592592  63.4504285714287 91.6458333333332  64.8994285714286 91.6458333333332  L 66.3582857142858 91.6458333333332  L 67.8072857142858 96.5630555555554  L 71.0010000000001 97.7212037037035  L 72.7457142857143 95.9839814814813  C 73.6230000000001 95.1104629629628  74.7762857142857 94.5313888888887  75.6437142857144 94.8258333333332  C 78.5515714285716 94.8258333333332  80.8778571428572 96.5630555555554  83.7758571428573 100.32212962963  L 86.3880000000001 103.796574074074  L 86.6837142857143 103.50212962963  C 88.4284285714286 102.343981481481  91.6221428571429 102.638425925926  96.2648571428572 104.081203703704  L 103.815428571429 105.818425925926  L 110.794285714286 103.50212962963  L 113.702142857143 102.059351851852  L 115.732714285714 100.616574074074  L 113.988 98.5947222222221  C 113.406428571429 97.436574074074  113.988 95.9937962962963  115.446857142857 94.5412037037036  C 117.191571428572 93.0984259259258  118.344857142857 91.655648148148  118.344857142857 89.9184259259258  L 118.344857142857 86.4439814814814  C 117.773142857143 84.7067592592592  118.059 83.548611111111  118.640571428572 82.9793518518518  C 119.222142857143 81.8212037037037  121.252714285715 81.2421296296296  123.579 80.6630555555555  C 127.354285714286 80.0839814814814  131.997 81.8212037037036  137.517 86.4439814814814  L 135.486428571429 80.6630555555555  L 132.292714285715 76.3249074074074  L 131.711142857143 71.1132407407408  L 126.772714285715 70.2495370370371  L 126.486857142858 70.2495370370371  L 126.486857142858 69.9649074074075  L 113.416285714286 62.4467592592594  L 107.028857142858 61.2886111111113  L 107.028857142858 59.8458333333335  L 106.733142857143 53.1913888888891  Z " stroke-width="2" stroke="#797979" fill="none" transform="matrix(1 0 0 1 1265 570 )" mask="url(#clip6)" />
  </g>
</svg>