<?xml version="1.0" encoding="utf-8"?>
<svg version="1.1" xmlns:xlink="http://www.w3.org/1999/xlink" width="128px" height="183px" xmlns="http://www.w3.org/2000/svg">
  <defs>
    <mask fill="white" id="clip8">
      <path d="M 118.409846153846 56.8333064516129  L 117.858461538462 55.3968548387097  L 115.534769230769 54.2358870967742  L 115.239384615385 54.2358870967742  L 113.496615384615 52.494435483871  L 105.373538461539 50.1725000000001  L 103.345230769231 50.1725000000001  L 101.897846153846 50.7529838709678  L 98.6978461538463 44.6726612903226  L 98.9932307692308 44.3775  L 101.316923076923 41.4849193548387  L 101.316923076923 38.0020161290323  L 101.602461538462 37.4215322580645  L 103.049846153846 35.0995967741936  L 101.897846153846 34.5191129032258  L 97.5458461538463 33.6533064516129  L 90.0036923076925 32.4923387096775  L 89.4227692307694 32.4923387096775  L 85.0707692307694 28.1436290322581  L 85.0707692307694 27.8583064516129  L 83.6135384615386 24.9558870967742  L 83.3280000000002 24.0900806451613  L 85.6516923076925 17.9999193548387  L 85.6516923076925 13.6512096774194  L 85.3661538461541 12.4902419354839  L 83.0424615384618 14.8121774193548  L 82.7569230769234 15.0975  L 82.1760000000003 15.9731451612903  L 81.5950769230772 15.0975  L 80.7286153846156 14.8121774193548  L 76.3766153846157 11.3391129032258  L 75.7956923076925 10.7586290322581  L 75.7956923076925 10.1781451612904  L 74.929230769231 3.80266129032265  L 72.9009230769234 0.614919354838766  L 68.5489230769234 0.900241935483947  L 65.9396923076927 5.54411290322591  L 65.6541538461542 6.12459677419363  L 65.3587692307697 6.40991935483881  L 58.3975384615389 4.96362903225814  L 57.2356923076928 11.3489516129033  L 57.2356923076928 17.7244354838711  L 56.9403076923082 18.0195967741937  L 53.1692307692312 23.8145967741936  L 53.1692307692312 24.3950806451614  L 52.5883076923081 24.690241935484  L 52.2929230769235 24.690241935484  L 47.9409230769236 24.9755645161291  L 43.5889230769236 28.4584677419356  L 43.0080000000005 29.0389516129033  L 42.4270769230774 29.0389516129033  L 42.141538461539 28.7437903225807  L 34.0184615384621 26.1365322580646  L 32.8566153846159 29.0389516129033  L 32.8566153846159 29.3341129032259  L 29.3809230769237 35.1291129032259  C 28.8000000000006 36.2900806451614  27.9236923076929 36.8705645161291  27.0670769230775 37.1558870967743  L 23.5815384615391 36.5754032258066  L 18.9341538461544 34.5486290322582  L 18.0676923076929 33.9681451612905  L 17.7723076923083 33.6828225806453  L 17.7723076923083 33.3876612903227  L 16.9058461538468 26.4316935483872  L 15.448615384616 21.2073387096775  L 14.5821538461545 19.7512096774195  L 12.5538461538468 23.8047580645162  L 9.07815384615454 28.4486290322582  L 6.17353846153912 35.1094354838711  L 6.17353846153912 35.3947580645163  L 6.17353846153912 35.6899193548389  L 5.88800000000069 35.6899193548389  L 3.2689230769238 39.4581451612905  C 3.2689230769238 40.6191129032259  2.40246153846226 42.3605645161292  0.659692307693051 44.9678225806453  L 2.40246153846226 51.6384677419356  L 11.1064615384623 61.2115322580647  L 14.0110769230777 67.2918548387098  L 14.0110769230777 67.8723387096776  L 13.7255384615393 68.4528225806453  L 13.4301538461547 68.4528225806453  L 11.1064615384624 71.355241935484  L 10.5255384615393 71.9357258064517  L 4.7261538461547 73.0966935483872  L 5.3070769230778 77.7405645161291  L 9.65907692307776 80.0625000000001  L 16.0393846153855 81.5087903225808  L 17.7821538461547 87.3037903225808  L 17.7821538461547 87.5989516129034  L 17.7821538461547 87.894112903226  L 16.33476923077 97.7525000000001  L 16.33476923077 98.0378225806453  L 14.0110769230777 102.386532258065  L 14.0110769230777 103.262177419355  L 13.4301538461546 103.262177419355  L 6.18338461538537 104.42314516129  L 6.18338461538537 107.315725806452  L 4.15507692307773 113.69120967742  L 3.27876923077005 120.942338709678  L 4.73600000000084 125.005725806452  L 13.7255384615393 130.515403225807  L 14.0110769230777 130.810564516129  L 17.7821538461547 137.186048387097  L 17.7821538461547 137.471370967742  L 18.0775384615393 137.756693548387  L 17.7821538461547 138.05185483871  L 13.1446153846162 148.205403225807  L 11.9827692307701 151.097983870968  L 9.0880000000008 157.768629032258  L 7.9261538461547 162.992983870968  L 7.64061538461627 163.573467741936  L 7.64061538461627 163.858790322581  C 6.18338461538548 165.019758064516  5.31692307692395 166.180725806452  4.73600000000084 167.912338709678  C 4.45046153846242 168.492822580645  4.45046153846242 169.073306451613  5.02153846153927 169.653790322581  L 5.31692307692384 169.948951612903  L 8.21169230769312 173.136693548387  L 9.66892307692391 175.458629032258  L 10.249846153847 175.173306451613  L 10.5353846153854 176.039112903226  L 10.5353846153854 176.334274193549  L 10.5353846153854 177.200080645162  L 10.5353846153854 177.495241935484  L 11.1163076923086 179.236693548387  L 13.7255384615393 180.1025  L 24.1723076923085 182.424435483871  C 27.657846153847 182.424435483871  30.8381538461547 181.548790322581  34.3236923076931 180.1025  C 37.7993846153854 178.65620967742  40.9993846153854 178.361048387097  44.4750769230777 178.941532258065  L 45.0461538461546 176.914758064516  L 41.5704615384623 169.083145161291  L 41.2750769230778 168.502661290323  L 41.5704615384623 168.502661290323  L 58.0923076923077 145.548951612903  L 75.7858461538462 128.449274193548  L 76.0812307692308 128.449274193548  L 81.5950769230769 126.412661290323  L 84.4996923076924 123.224919354839  L 84.4996923076924 122.929758064516  C 86.8233846153847 121.19814516129  88.8516923076923 120.037177419355  91.1753846153846 119.161532258065  L 89.4326153846154 117.715241935484  L 85.6615384615385 113.947016129032  L 85.6615384615385 113.65185483871  L 85.376 113.65185483871  L 82.4713846153846 110.168951612903  L 82.176 109.588467741936  L 82.176 109.007983870968  L 83.6233846153847 107.266532258065  L 79.8523076923077 108.142177419355  L 71.7292307692308 106.115403225807  C 68.5390769230769 104.659274193548  66.5107692307693 102.917822580645  65.92 100.891048387097  C 64.1772307692308 95.6765322580646  63.6061538461539 91.0326612903227  63.8916923076924 86.9791129032259  C 62.7298461538463 88.4254032258066  61.2824615384617 88.7205645161291  59.835076923077 88.7205645161291  L 53.7403076923077 87.264435483871  L 49.6836923076923 84.3718548387097  L 44.7606153846154 83.2108870967742  L 42.4369230769231 83.2108870967742  C 40.9895384615385 83.2108870967742  39.2467692307692 82.6304032258065  38.0849230769231 81.4792741935484  C 36.3421538461539 80.318306451613  35.4756923076924 79.1573387096775  35.1803076923077 77.996370967742  C 34.5993846153846 75.674435483871  35.1803076923077 74.2281451612904  37.2086153846153 72.7818548387097  C 39.236923076923 71.335564516129  41.5606153846153 69.0136290322581  43.5889230769231 66.1112096774194  C 41.5606153846154 63.5039516129033  40.6843076923076 60.8966935483871  41.5606153846154 58.289435483871  L 41.8461538461538 57.9942741935484  C 42.1316923076923 56.5479838709678  44.4553846153846 55.3870161290323  48.8073846153847 53.9407258064517  C 49.0929230769231 52.494435483871  49.6738461538462 51.6187903225807  50.2547692307693 51.3334677419355  L 54.6067692307693 51.6187903225807  L 54.0258461538462 51.038306451613  C 51.1310769230769 49.2968548387098  50.2547692307692 47.2700806451614  51.712 44.9481451612904  L 54.0258461538462 43.2066935483872  C 56.6350769230769 42.3408870967743  59.8252307692308 42.6262096774195  63.0153846153846 44.3676612903227  L 69.6812307692308 49.0016935483872  L 75.776 49.0016935483872  L 77.8141538461539 50.7431451612904  L 78.395076923077 53.0650806451614  C 78.395076923077 54.5113709677421  77.5187692307694 55.3870161290324  76.3667692307694 55.3870161290324  C 74.9193846153848 55.3870161290324  74.3384615384618 56.8333064516131  74.0430769230771 58.5747580645163  L 76.9476923076925 65.5307258064517  C 78.6904615384617 62.9234677419356  80.4332307692309 61.477177419355  82.166153846154 61.1820161290324  C 83.0326153846155 61.1820161290324  84.1944615384616 61.7625000000001  85.0707692307694 62.9234677419356  C 85.937230769231 64.3697580645162  86.8135384615386 66.9770161290324  87.3944615384618 69.5842741935485  C 87.6800000000002 72.7720161290324  88.5464615384617 75.3891129032259  89.4227692307694 76.8354032258065  L 91.7464615384617 80.0231451612904  C 95.2320000000001 84.3718548387098  97.2603076923079 87.5595967741937  97.8313846153847 90.1668548387098  L 109.144615384616 88.7205645161291  L 114.077538461539 86.1034677419355  L 118.715076923077 80.3084677419355  L 120.743384615385 74.7987903225807  L 120.743384615385 74.5036290322581  L 120.743384615385 74.2183064516129  L 122.190769230769 68.4134677419355  L 122.190769230769 68.1281451612903  L 122.486153846154 67.5476612903226  L 122.771692307692 67.5476612903226  L 127.123692307692 64.6550806451613  L 127.990153846154 64.0745967741936  L 127.694769230769 63.779435483871  L 120.438153846154 61.4673387096774  L 119.857230769231 61.4673387096774  L 119.857230769231 61.1820161290323  L 118.409846153846 56.8333064516129  Z " fill-rule="evenodd" />
    </mask>
  </defs>
  <g transform="matrix(1 0 0 1 -1193 -367 )">
    <path d="M 118.409846153846 56.8333064516129  L 117.858461538462 55.3968548387097  L 115.534769230769 54.2358870967742  L 115.239384615385 54.2358870967742  L 113.496615384615 52.494435483871  L 105.373538461539 50.1725000000001  L 103.345230769231 50.1725000000001  L 101.897846153846 50.7529838709678  L 98.6978461538463 44.6726612903226  L 98.9932307692308 44.3775  L 101.316923076923 41.4849193548387  L 101.316923076923 38.0020161290323  L 101.602461538462 37.4215322580645  L 103.049846153846 35.0995967741936  L 101.897846153846 34.5191129032258  L 97.5458461538463 33.6533064516129  L 90.0036923076925 32.4923387096775  L 89.4227692307694 32.4923387096775  L 85.0707692307694 28.1436290322581  L 85.0707692307694 27.8583064516129  L 83.6135384615386 24.9558870967742  L 83.3280000000002 24.0900806451613  L 85.6516923076925 17.9999193548387  L 85.6516923076925 13.6512096774194  L 85.3661538461541 12.4902419354839  L 83.0424615384618 14.8121774193548  L 82.7569230769234 15.0975  L 82.1760000000003 15.9731451612903  L 81.5950769230772 15.0975  L 80.7286153846156 14.8121774193548  L 76.3766153846157 11.3391129032258  L 75.7956923076925 10.7586290322581  L 75.7956923076925 10.1781451612904  L 74.929230769231 3.80266129032265  L 72.9009230769234 0.614919354838766  L 68.5489230769234 0.900241935483947  L 65.9396923076927 5.54411290322591  L 65.6541538461542 6.12459677419363  L 65.3587692307697 6.40991935483881  L 58.3975384615389 4.96362903225814  L 57.2356923076928 11.3489516129033  L 57.2356923076928 17.7244354838711  L 56.9403076923082 18.0195967741937  L 53.1692307692312 23.8145967741936  L 53.1692307692312 24.3950806451614  L 52.5883076923081 24.690241935484  L 52.2929230769235 24.690241935484  L 47.9409230769236 24.9755645161291  L 43.5889230769236 28.4584677419356  L 43.0080000000005 29.0389516129033  L 42.4270769230774 29.0389516129033  L 42.141538461539 28.7437903225807  L 34.0184615384621 26.1365322580646  L 32.8566153846159 29.0389516129033  L 32.8566153846159 29.3341129032259  L 29.3809230769237 35.1291129032259  C 28.8000000000006 36.2900806451614  27.9236923076929 36.8705645161291  27.0670769230775 37.1558870967743  L 23.5815384615391 36.5754032258066  L 18.9341538461544 34.5486290322582  L 18.0676923076929 33.9681451612905  L 17.7723076923083 33.6828225806453  L 17.7723076923083 33.3876612903227  L 16.9058461538468 26.4316935483872  L 15.448615384616 21.2073387096775  L 14.5821538461545 19.7512096774195  L 12.5538461538468 23.8047580645162  L 9.07815384615454 28.4486290322582  L 6.17353846153912 35.1094354838711  L 6.17353846153912 35.3947580645163  L 6.17353846153912 35.6899193548389  L 5.88800000000069 35.6899193548389  L 3.2689230769238 39.4581451612905  C 3.2689230769238 40.6191129032259  2.40246153846226 42.3605645161292  0.659692307693051 44.9678225806453  L 2.40246153846226 51.6384677419356  L 11.1064615384623 61.2115322580647  L 14.0110769230777 67.2918548387098  L 14.0110769230777 67.8723387096776  L 13.7255384615393 68.4528225806453  L 13.4301538461547 68.4528225806453  L 11.1064615384624 71.355241935484  L 10.5255384615393 71.9357258064517  L 4.7261538461547 73.0966935483872  L 5.3070769230778 77.7405645161291  L 9.65907692307776 80.0625000000001  L 16.0393846153855 81.5087903225808  L 17.7821538461547 87.3037903225808  L 17.7821538461547 87.5989516129034  L 17.7821538461547 87.894112903226  L 16.33476923077 97.7525000000001  L 16.33476923077 98.0378225806453  L 14.0110769230777 102.386532258065  L 14.0110769230777 103.262177419355  L 13.4301538461546 103.262177419355  L 6.18338461538537 104.42314516129  L 6.18338461538537 107.315725806452  L 4.15507692307773 113.69120967742  L 3.27876923077005 120.942338709678  L 4.73600000000084 125.005725806452  L 13.7255384615393 130.515403225807  L 14.0110769230777 130.810564516129  L 17.7821538461547 137.186048387097  L 17.7821538461547 137.471370967742  L 18.0775384615393 137.756693548387  L 17.7821538461547 138.05185483871  L 13.1446153846162 148.205403225807  L 11.9827692307701 151.097983870968  L 9.0880000000008 157.768629032258  L 7.9261538461547 162.992983870968  L 7.64061538461627 163.573467741936  L 7.64061538461627 163.858790322581  C 6.18338461538548 165.019758064516  5.31692307692395 166.180725806452  4.73600000000084 167.912338709678  C 4.45046153846242 168.492822580645  4.45046153846242 169.073306451613  5.02153846153927 169.653790322581  L 5.31692307692384 169.948951612903  L 8.21169230769312 173.136693548387  L 9.66892307692391 175.458629032258  L 10.249846153847 175.173306451613  L 10.5353846153854 176.039112903226  L 10.5353846153854 176.334274193549  L 10.5353846153854 177.200080645162  L 10.5353846153854 177.495241935484  L 11.1163076923086 179.236693548387  L 13.7255384615393 180.1025  L 24.1723076923085 182.424435483871  C 27.657846153847 182.424435483871  30.8381538461547 181.548790322581  34.3236923076931 180.1025  C 37.7993846153854 178.65620967742  40.9993846153854 178.361048387097  44.4750769230777 178.941532258065  L 45.0461538461546 176.914758064516  L 41.5704615384623 169.083145161291  L 41.2750769230778 168.502661290323  L 41.5704615384623 168.502661290323  L 58.0923076923077 145.548951612903  L 75.7858461538462 128.449274193548  L 76.0812307692308 128.449274193548  L 81.5950769230769 126.412661290323  L 84.4996923076924 123.224919354839  L 84.4996923076924 122.929758064516  C 86.8233846153847 121.19814516129  88.8516923076923 120.037177419355  91.1753846153846 119.161532258065  L 89.4326153846154 117.715241935484  L 85.6615384615385 113.947016129032  L 85.6615384615385 113.65185483871  L 85.376 113.65185483871  L 82.4713846153846 110.168951612903  L 82.176 109.588467741936  L 82.176 109.007983870968  L 83.6233846153847 107.266532258065  L 79.8523076923077 108.142177419355  L 71.7292307692308 106.115403225807  C 68.5390769230769 104.659274193548  66.5107692307693 102.917822580645  65.92 100.891048387097  C 64.1772307692308 95.6765322580646  63.6061538461539 91.0326612903227  63.8916923076924 86.9791129032259  C 62.7298461538463 88.4254032258066  61.2824615384617 88.7205645161291  59.835076923077 88.7205645161291  L 53.7403076923077 87.264435483871  L 49.6836923076923 84.3718548387097  L 44.7606153846154 83.2108870967742  L 42.4369230769231 83.2108870967742  C 40.9895384615385 83.2108870967742  39.2467692307692 82.6304032258065  38.0849230769231 81.4792741935484  C 36.3421538461539 80.318306451613  35.4756923076924 79.1573387096775  35.1803076923077 77.996370967742  C 34.5993846153846 75.674435483871  35.1803076923077 74.2281451612904  37.2086153846153 72.7818548387097  C 39.236923076923 71.335564516129  41.5606153846153 69.0136290322581  43.5889230769231 66.1112096774194  C 41.5606153846154 63.5039516129033  40.6843076923076 60.8966935483871  41.5606153846154 58.289435483871  L 41.8461538461538 57.9942741935484  C 42.1316923076923 56.5479838709678  44.4553846153846 55.3870161290323  48.8073846153847 53.9407258064517  C 49.0929230769231 52.494435483871  49.6738461538462 51.6187903225807  50.2547692307693 51.3334677419355  L 54.6067692307693 51.6187903225807  L 54.0258461538462 51.038306451613  C 51.1310769230769 49.2968548387098  50.2547692307692 47.2700806451614  51.712 44.9481451612904  L 54.0258461538462 43.2066935483872  C 56.6350769230769 42.3408870967743  59.8252307692308 42.6262096774195  63.0153846153846 44.3676612903227  L 69.6812307692308 49.0016935483872  L 75.776 49.0016935483872  L 77.8141538461539 50.7431451612904  L 78.395076923077 53.0650806451614  C 78.395076923077 54.5113709677421  77.5187692307694 55.3870161290324  76.3667692307694 55.3870161290324  C 74.9193846153848 55.3870161290324  74.3384615384618 56.8333064516131  74.0430769230771 58.5747580645163  L 76.9476923076925 65.5307258064517  C 78.6904615384617 62.9234677419356  80.4332307692309 61.477177419355  82.166153846154 61.1820161290324  C 83.0326153846155 61.1820161290324  84.1944615384616 61.7625000000001  85.0707692307694 62.9234677419356  C 85.937230769231 64.3697580645162  86.8135384615386 66.9770161290324  87.3944615384618 69.5842741935485  C 87.6800000000002 72.7720161290324  88.5464615384617 75.3891129032259  89.4227692307694 76.8354032258065  L 91.7464615384617 80.0231451612904  C 95.2320000000001 84.3718548387098  97.2603076923079 87.5595967741937  97.8313846153847 90.1668548387098  L 109.144615384616 88.7205645161291  L 114.077538461539 86.1034677419355  L 118.715076923077 80.3084677419355  L 120.743384615385 74.7987903225807  L 120.743384615385 74.5036290322581  L 120.743384615385 74.2183064516129  L 122.190769230769 68.4134677419355  L 122.190769230769 68.1281451612903  L 122.486153846154 67.5476612903226  L 122.771692307692 67.5476612903226  L 127.123692307692 64.6550806451613  L 127.990153846154 64.0745967741936  L 127.694769230769 63.779435483871  L 120.438153846154 61.4673387096774  L 119.857230769231 61.4673387096774  L 119.857230769231 61.1820161290323  L 118.409846153846 56.8333064516129  Z " fill-rule="nonzero" fill="#20dbea" stroke="none" fill-opacity="0.4" transform="matrix(1 0 0 1 1193 367 )" />
    <path d="M 118.409846153846 56.8333064516129  L 117.858461538462 55.3968548387097  L 115.534769230769 54.2358870967742  L 115.239384615385 54.2358870967742  L 113.496615384615 52.494435483871  L 105.373538461539 50.1725000000001  L 103.345230769231 50.1725000000001  L 101.897846153846 50.7529838709678  L 98.6978461538463 44.6726612903226  L 98.9932307692308 44.3775  L 101.316923076923 41.4849193548387  L 101.316923076923 38.0020161290323  L 101.602461538462 37.4215322580645  L 103.049846153846 35.0995967741936  L 101.897846153846 34.5191129032258  L 97.5458461538463 33.6533064516129  L 90.0036923076925 32.4923387096775  L 89.4227692307694 32.4923387096775  L 85.0707692307694 28.1436290322581  L 85.0707692307694 27.8583064516129  L 83.6135384615386 24.9558870967742  L 83.3280000000002 24.0900806451613  L 85.6516923076925 17.9999193548387  L 85.6516923076925 13.6512096774194  L 85.3661538461541 12.4902419354839  L 83.0424615384618 14.8121774193548  L 82.7569230769234 15.0975  L 82.1760000000003 15.9731451612903  L 81.5950769230772 15.0975  L 80.7286153846156 14.8121774193548  L 76.3766153846157 11.3391129032258  L 75.7956923076925 10.7586290322581  L 75.7956923076925 10.1781451612904  L 74.929230769231 3.80266129032265  L 72.9009230769234 0.614919354838766  L 68.5489230769234 0.900241935483947  L 65.9396923076927 5.54411290322591  L 65.6541538461542 6.12459677419363  L 65.3587692307697 6.40991935483881  L 58.3975384615389 4.96362903225814  L 57.2356923076928 11.3489516129033  L 57.2356923076928 17.7244354838711  L 56.9403076923082 18.0195967741937  L 53.1692307692312 23.8145967741936  L 53.1692307692312 24.3950806451614  L 52.5883076923081 24.690241935484  L 52.2929230769235 24.690241935484  L 47.9409230769236 24.9755645161291  L 43.5889230769236 28.4584677419356  L 43.0080000000005 29.0389516129033  L 42.4270769230774 29.0389516129033  L 42.141538461539 28.7437903225807  L 34.0184615384621 26.1365322580646  L 32.8566153846159 29.0389516129033  L 32.8566153846159 29.3341129032259  L 29.3809230769237 35.1291129032259  C 28.8000000000006 36.2900806451614  27.9236923076929 36.8705645161291  27.0670769230775 37.1558870967743  L 23.5815384615391 36.5754032258066  L 18.9341538461544 34.5486290322582  L 18.0676923076929 33.9681451612905  L 17.7723076923083 33.6828225806453  L 17.7723076923083 33.3876612903227  L 16.9058461538468 26.4316935483872  L 15.448615384616 21.2073387096775  L 14.5821538461545 19.7512096774195  L 12.5538461538468 23.8047580645162  L 9.07815384615454 28.4486290322582  L 6.17353846153912 35.1094354838711  L 6.17353846153912 35.3947580645163  L 6.17353846153912 35.6899193548389  L 5.88800000000069 35.6899193548389  L 3.2689230769238 39.4581451612905  C 3.2689230769238 40.6191129032259  2.40246153846226 42.3605645161292  0.659692307693051 44.9678225806453  L 2.40246153846226 51.6384677419356  L 11.1064615384623 61.2115322580647  L 14.0110769230777 67.2918548387098  L 14.0110769230777 67.8723387096776  L 13.7255384615393 68.4528225806453  L 13.4301538461547 68.4528225806453  L 11.1064615384624 71.355241935484  L 10.5255384615393 71.9357258064517  L 4.7261538461547 73.0966935483872  L 5.3070769230778 77.7405645161291  L 9.65907692307776 80.0625000000001  L 16.0393846153855 81.5087903225808  L 17.7821538461547 87.3037903225808  L 17.7821538461547 87.5989516129034  L 17.7821538461547 87.894112903226  L 16.33476923077 97.7525000000001  L 16.33476923077 98.0378225806453  L 14.0110769230777 102.386532258065  L 14.0110769230777 103.262177419355  L 13.4301538461546 103.262177419355  L 6.18338461538537 104.42314516129  L 6.18338461538537 107.315725806452  L 4.15507692307773 113.69120967742  L 3.27876923077005 120.942338709678  L 4.73600000000084 125.005725806452  L 13.7255384615393 130.515403225807  L 14.0110769230777 130.810564516129  L 17.7821538461547 137.186048387097  L 17.7821538461547 137.471370967742  L 18.0775384615393 137.756693548387  L 17.7821538461547 138.05185483871  L 13.1446153846162 148.205403225807  L 11.9827692307701 151.097983870968  L 9.0880000000008 157.768629032258  L 7.9261538461547 162.992983870968  L 7.64061538461627 163.573467741936  L 7.64061538461627 163.858790322581  C 6.18338461538548 165.019758064516  5.31692307692395 166.180725806452  4.73600000000084 167.912338709678  C 4.45046153846242 168.492822580645  4.45046153846242 169.073306451613  5.02153846153927 169.653790322581  L 5.31692307692384 169.948951612903  L 8.21169230769312 173.136693548387  L 9.66892307692391 175.458629032258  L 10.249846153847 175.173306451613  L 10.5353846153854 176.039112903226  L 10.5353846153854 176.334274193549  L 10.5353846153854 177.200080645162  L 10.5353846153854 177.495241935484  L 11.1163076923086 179.236693548387  L 13.7255384615393 180.1025  L 24.1723076923085 182.424435483871  C 27.657846153847 182.424435483871  30.8381538461547 181.548790322581  34.3236923076931 180.1025  C 37.7993846153854 178.65620967742  40.9993846153854 178.361048387097  44.4750769230777 178.941532258065  L 45.0461538461546 176.914758064516  L 41.5704615384623 169.083145161291  L 41.2750769230778 168.502661290323  L 41.5704615384623 168.502661290323  L 58.0923076923077 145.548951612903  L 75.7858461538462 128.449274193548  L 76.0812307692308 128.449274193548  L 81.5950769230769 126.412661290323  L 84.4996923076924 123.224919354839  L 84.4996923076924 122.929758064516  C 86.8233846153847 121.19814516129  88.8516923076923 120.037177419355  91.1753846153846 119.161532258065  L 89.4326153846154 117.715241935484  L 85.6615384615385 113.947016129032  L 85.6615384615385 113.65185483871  L 85.376 113.65185483871  L 82.4713846153846 110.168951612903  L 82.176 109.588467741936  L 82.176 109.007983870968  L 83.6233846153847 107.266532258065  L 79.8523076923077 108.142177419355  L 71.7292307692308 106.115403225807  C 68.5390769230769 104.659274193548  66.5107692307693 102.917822580645  65.92 100.891048387097  C 64.1772307692308 95.6765322580646  63.6061538461539 91.0326612903227  63.8916923076924 86.9791129032259  C 62.7298461538463 88.4254032258066  61.2824615384617 88.7205645161291  59.835076923077 88.7205645161291  L 53.7403076923077 87.264435483871  L 49.6836923076923 84.3718548387097  L 44.7606153846154 83.2108870967742  L 42.4369230769231 83.2108870967742  C 40.9895384615385 83.2108870967742  39.2467692307692 82.6304032258065  38.0849230769231 81.4792741935484  C 36.3421538461539 80.318306451613  35.4756923076924 79.1573387096775  35.1803076923077 77.996370967742  C 34.5993846153846 75.674435483871  35.1803076923077 74.2281451612904  37.2086153846153 72.7818548387097  C 39.236923076923 71.335564516129  41.5606153846153 69.0136290322581  43.5889230769231 66.1112096774194  C 41.5606153846154 63.5039516129033  40.6843076923076 60.8966935483871  41.5606153846154 58.289435483871  L 41.8461538461538 57.9942741935484  C 42.1316923076923 56.5479838709678  44.4553846153846 55.3870161290323  48.8073846153847 53.9407258064517  C 49.0929230769231 52.494435483871  49.6738461538462 51.6187903225807  50.2547692307693 51.3334677419355  L 54.6067692307693 51.6187903225807  L 54.0258461538462 51.038306451613  C 51.1310769230769 49.2968548387098  50.2547692307692 47.2700806451614  51.712 44.9481451612904  L 54.0258461538462 43.2066935483872  C 56.6350769230769 42.3408870967743  59.8252307692308 42.6262096774195  63.0153846153846 44.3676612903227  L 69.6812307692308 49.0016935483872  L 75.776 49.0016935483872  L 77.8141538461539 50.7431451612904  L 78.395076923077 53.0650806451614  C 78.395076923077 54.5113709677421  77.5187692307694 55.3870161290324  76.3667692307694 55.3870161290324  C 74.9193846153848 55.3870161290324  74.3384615384618 56.8333064516131  74.0430769230771 58.5747580645163  L 76.9476923076925 65.5307258064517  C 78.6904615384617 62.9234677419356  80.4332307692309 61.477177419355  82.166153846154 61.1820161290324  C 83.0326153846155 61.1820161290324  84.1944615384616 61.7625000000001  85.0707692307694 62.9234677419356  C 85.937230769231 64.3697580645162  86.8135384615386 66.9770161290324  87.3944615384618 69.5842741935485  C 87.6800000000002 72.7720161290324  88.5464615384617 75.3891129032259  89.4227692307694 76.8354032258065  L 91.7464615384617 80.0231451612904  C 95.2320000000001 84.3718548387098  97.2603076923079 87.5595967741937  97.8313846153847 90.1668548387098  L 109.144615384616 88.7205645161291  L 114.077538461539 86.1034677419355  L 118.715076923077 80.3084677419355  L 120.743384615385 74.7987903225807  L 120.743384615385 74.5036290322581  L 120.743384615385 74.2183064516129  L 122.190769230769 68.4134677419355  L 122.190769230769 68.1281451612903  L 122.486153846154 67.5476612903226  L 122.771692307692 67.5476612903226  L 127.123692307692 64.6550806451613  L 127.990153846154 64.0745967741936  L 127.694769230769 63.779435483871  L 120.438153846154 61.4673387096774  L 119.857230769231 61.4673387096774  L 119.857230769231 61.1820161290323  L 118.409846153846 56.8333064516129  Z " stroke-width="2" stroke="#797979" fill="none" transform="matrix(1 0 0 1 1193 367 )" mask="url(#clip8)" />
  </g>
</svg>