<?xml version="1.0" encoding="utf-8"?>
<svg version="1.1" xmlns:xlink="http://www.w3.org/1999/xlink" width="456px" height="277px" xmlns="http://www.w3.org/2000/svg">
  <defs>
    <mask fill="white" id="clip10">
      <path d="M 55.9189655172414 1.43902482269501  L 55.9189655172414 1.45867021276603  L 55.9189655172414 1.74352836879442  C 54.7593103448276 4.35636524822706  52.7348275862069 6.08515957446819  50.4155172413793 8.11845744680861  C 48.6760344827586 8.98285460992917  48.0962068965517 10.4366134751774  48.0962068965517 12.175230496454  L 48.0962068965517 13.0396276595746  C 48.0962068965517 14.4835638297874  47.2313793103448 16.8017198581561  44.9120689655173 20.2691312056739  L 44.6172413793104 21.7130673758867  C 44.0374137931035 22.5872872340427  42.8777586206897 23.1668262411349  40.853275862069 23.1668262411349  L 24.3527586206897 21.1433510638299  L 24.3527586206897 21.4282092198583  L 23.1931034482759 25.1903014184399  L 23.1931034482759 25.4849822695037  L 22.898275862069 25.7698404255321  C 18.5544827586207 31.8500886524824  15.6553448275862 36.1917198581562  15.3703448275862 39.0795921985818  C 15.0755172413793 40.53335106383  16.815 45.7393794326243  20.5789655172414 54.7075000000002  L 23.1931034482759 60.7877482269506  C 24.3527586206897 63.6854432624116  23.4781034482759 67.1528546099293  20.8737931034483 70.9149468085108  L 15.6553448275862 76.1307978723405  L 6.96775862068967 76.1307978723405  L 5.22827586206898 66.5831382978724  L 2.90896551724139 78.4489539007093  L 6.67293103448277 84.2345212765958  C 6.96775862068967 85.0989184397164  6.96775862068967 85.6784574468086  6.67293103448277 85.9731382978724  L 6.09310344827587 86.5526773049647  C 4.93344827586208 87.4268971631207  3.20379310344829 90.3147695035463  1.4643103448276 95.2359397163122  C -0.275172413793098 99.5775709219859  0.589655172413802 103.91920212766  4.06862068965518 108.545691489362  L 11.016724137931 108.545691489362  C 13.3262068965517 109.125230496454  16.8051724137931 112.887322695036  21.7287931034483 119.547109929078  L 22.0236206896552 120.12664893617  C 22.0236206896552 122.150124113475  22.8884482758621 123.594060283688  24.3429310344828 124.753138297873  L 39.7034482758621 138.927287234043  L 39.7034482758621 139.212145390071  L 46.6515517241379 147.895407801418  L 50.7005172413793 147.895407801418  L 55.0443103448276 140.076542553192  L 55.6241379310345 139.497003546099  L 55.9189655172414 139.202322695035  L 66.6310344827586 141.815159574468  L 66.6310344827586 142.100017730496  L 66.6310344827586 142.679556737589  L 68.0756896551724 149.918882978723  L 80.8122413793104 164.672570921986  L 85.1560344827586 166.411187943262  L 85.4508620689655 166.705868794326  L 87.4753448275862 167.86494680851  L 87.7701724137931 168.159627659574  L 97.3225862068966 182.34359929078  L 105.145344827586 181.184521276596  L 105.725172413793 181.184521276596  L 106.010172413793 181.184521276596  L 106.59 181.764060283688  L 106.884827586207 182.34359929078  L 113.538103448276 196.232890070922  L 121.645862068966 201.154060283688  L 128.299137931035 202.892677304965  L 131.483275862069 211.870620567376  L 136.406896551724 211.870620567376  L 136.701724137931 212.155478723404  L 147.128793103448 217.950868794326  L 147.128793103448 218.235726950354  L 147.413793103448 218.520585106383  L 154.941724137931 227.783386524822  L 165.938793103448 225.759911347518  L 166.518620689655 225.759911347518  L 170.567586206897 227.498528368794  L 170.862413793104 227.498528368794  L 177.810517241379 233.578776595745  L 190.262068965517 234.443173758865  L 197.79 233.284095744681  C 207.932068965517 231.545478723404  214.300344827586 232.41969858156  216.609827586207 235.022712765957  C 218.054482758621 237.340868794326  217.189655172414 239.659024822695  213.710689655173 242.54689716312  L 210.811551724138 245.434769503546  C 209.946724137931 246.888528368794  211.096551724138 249.196861702128  214.870344827586 252.674095744681  L 215.155344827586 253.253634751773  L 214.870344827586 253.253634751773  L 217.189655172414 254.99225177305  L 218.054482758621 254.127854609929  C 225.297413793104 240.523421985816  231.085862068966 232.999237588652  235.134827586207 231.55530141844  C 239.478620689655 230.111365248227  248.451206896552 233.873457446808  262.64224137931 242.556719858156  L 280.017413793104 245.739273049645  L 279.732413793104 246.318812056738  L 279.732413793104 246.89835106383  L 278.867586206897 255.002074468085  L 287.555172413793 256.161152482269  L 287.270172413793 267.162570921986  C 289.874482758621 272.083741134752  291.898965517241 274.971613475177  293.058620689655 275.845833333333  C 294.798103448276 277.004911347518  303.485689655173 277.004911347518  318.826551724138 275.845833333333  L 327.799137931035 271.209521276596  L 336.486724137931 259.058847517731  L 346.618965517241 258.764166666667  L 351.542586206897 257.320230496454  L 370.65724137931 246.318812056738  L 370.94224137931 246.318812056738  L 371.237068965517 246.033953900709  C 382.243965517241 244.874875886525  388.61224137931 244.590017730496  390.351724137931 246.033953900709  L 402.803275862069 256.455833333333  L 406.56724137931 257.899769503546  L 407.147068965517 258.479308510638  L 412.070689655172 260.502783687943  L 412.355689655172 260.797464539007  L 412.355689655172 259.923244680851  L 412.355689655172 259.638386524823  L 412.355689655172 259.343705673759  L 412.355689655172 259.058847517731  L 414.380172413793 250.375585106383  C 413.515344827586 247.76274822695  413.515344827586 245.739273049645  414.380172413793 244.000656028369  C 414.96 242.556719858156  416.404655172414 241.6825  418.723965517241 241.102960992908  C 423.06775862069 240.238563829787  427.116724137931 244.000656028369  431.175517241379 252.104379432624  L 431.755344827586 252.389237588653  L 432.050172413793 252.389237588653  L 439.293103448276 249.206684397163  C 440.73775862069 248.912003546099  441.317586206897 247.468067375887  441.317586206897 246.024131205674  L 439.872931034483 240.81810283688  L 439.872931034483 240.523421985816  C 439.293103448276 238.205265957447  439.872931034483 236.181790780142  442.19224137931 235.317393617021  L 444.796551724138 233.293918439717  L 451.164827586207 226.349273049646  L 455.508620689655 216.791790780142  C 451.744655172414 210.711542553192  450.585 206.369911347518  451.744655172414 203.472216312057  L 452.609482758621 195.368492907802  C 450.87 191.891258865248  450.005172413793 189.582925531915  450.005172413793 187.549627659575  C 450.005172413793 186.685230496454  448.845517241379 184.082216312057  446.536034482759 180.604982269504  L 446.241206896552 180.604982269504  L 446.241206896552 179.740585106383  L 445.376379310345 169.318705673759  C 445.081551724138 167.580088652482  444.796551724138 165.271755319149  445.376379310345 162.374060283688  C 442.772068965517 160.340762411348  441.032586206897 158.317287234043  439.872931034483 156.293812056738  L 435.529137931034 150.498421985816  L 435.244137931034 150.213563829787  L 435.244137931034 149.643847517731  L 435.244137931034 149.349166666667  L 433.799482758621 142.109840425532  L 429.455689655172 138.632606382979  L 429.455689655172 138.927287234043  L 421.053103448276 132.2675  L 421.053103448276 132.847039007092  L 422.21275862069 141.824982269504  L 422.21275862069 142.109840425532  L 422.21275862069 142.974237588653  L 417.868965517241 145.007535460993  L 417.289137931034 150.508244680851  L 417.289137931034 151.382464539007  L 407.156896551724 155.429414893617  L 403.68775862069 147.325691489362  L 401.653448275862 146.74615248227  L 398.469310344827 149.928705673759  L 396.444827586207 155.714273049645  L 389.201896551724 157.73774822695  L 385.143103448276 154.840053191489  L 379.354655172414 153.101436170213  L 377.615172413793 144.997712765957  L 375.305689655172 140.076542553192  L 371.826724137931 138.622783687943  L 371.531896551724 138.043244680851  L 368.927586206896 134.860691489362  L 366.323275862069 130.23420212766  L 362.274310344828 125.028173758865  L 358.795344827586 125.028173758865  L 353.006896551724 127.05164893617  L 352.712068965517 127.346329787234  L 337.951034482759 126.481932624113  L 326.659137931034 124.163776595745  C 325.794310344828 123.584237588652  323.76 122.719840425532  320.575862068965 120.696365248227  L 311.888275862069 117.798670212766  C 305.225172413793 116.060053191489  301.461206896552 114.616117021276  300.586551724138 112.8775  L 299.141896551724 112.003280141844  L 297.117413793103 111.423741134752  L 291.908793103448 108.526046099291  L 291.328965517241 108.241187943262  C 290.464137931034 107.082109929078  289.589482758621 106.217712765957  289.009655172414 105.058634751773  L 287.85 102.44579787234  L 285.530689655172 98.9783865248226  L 281.766724137931 97.239769503546  L 280.322068965517 98.1041666666665  L 278.867586206896 99.2632446808509  L 278.00275862069 99.8427836879431  C 276.558103448276 101.001861702127  275.103620689655 101.58140070922  273.943965517241 101.866258865248  C 271.624655172414 102.44579787234  269.315172413793 101.286719858156  266.701034482759 98.3988475177303  L 261.207413793103 92.6034574468084  C 259.182931034483 90.0004432624112  257.738275862069 87.9671453900708  257.148620689655 86.523209219858  L 255.694137931034 84.2050531914892  C 253.669655172414 82.1815780141843  252.225 80.1581028368792  251.350344827586 78.4194858156026  C 250.485517241379 75.8164716312055  250.190689655172 73.4983156028367  251.065344827586 71.1801595744679  L 251.065344827586 70.8953014184396  L 254.829310344827 64.5301950354608  L 256.853793103448 57.8704078014183  L 257.728448275862 53.5287765957446  L 256.273965517241 46.8788120567376  L 251.930172413793 43.116719858156  L 252.795 37.6160106382978  C 252.795 33.5592375886524  254.239655172414 31.5357624113475  257.138793103448 30.9660460992908  C 258.013448275862 30.6713652482269  258.583448275862 30.0918262411347  258.298448275862 28.9327482269503  L 258.298448275862 28.647890070922  L 258.583448275862 22.8525  L 258.583448275862 22.5676418439716  L 258.583448275862 15.9078546099291  L 258.003620689655 15.9078546099291  L 257.718620689655 15.6131737588652  L 256.558965517241 15.0336347517731  L 256.558965517241 14.7487765957447  L 256.264137931034 14.7487765957447  L 251.055517241379 11.2715425531915  L 250.770517241379 11.2715425531915  L 246.711724137931 7.80413120567375  L 233.110344827586 5.20111702127661  L 228.766551724138 2.01856382978724  L 220.648965517241 2.01856382978724  C 219.489310344827 2.01856382978724  218.044655172414 2.8829609929078  216.020172413793 4.04203900709221  L 215.735172413793 4.04203900709221  L 209.366896551724 7  L 193.436379310345 7  C 191.126896551724 6.93973404255319  189.092586206896 7.51927304964542  187.932931034483 8.67835106382982  C 186.193448275862 10.1222872340426  183.009310344827 11.281365248227  178.665517241379 12.7253014184398  L 171.137586206896 14.4639184397163  L 171.137586206896 14.7487765957447  L 170.557758620689 14.7487765957447  L 159.835862068965 13.5896985815603  L 158.971034482758 13.2950177304965  L 159.265862068965 13.5896985815603  L 158.971034482758 13.2950177304965  L 155.207068965517 13.0101595744681  L 148.828965517241 15.0336347517731  L 136.092413793103 16.1927127659575  L 135.797586206896 16.1927127659575  L 135.512586206896 15.9078546099291  L 129.13448275862 13.5896985815603  L 123.925862068965 13.5896985815603  C 121.606551724138 13.0101595744681  119.00224137931 11.2715425531915  116.103103448276 7.80413120567375  L 115.808275862069 7.22459219858158  C 115.228448275862 4.62157801418444  114.363620689655 3.46250000000003  114.068793103448 2.8829609929078  L 112.614310344827 2.01856382978724  L 110.01 0.564804964538996  L 107.690689655172 2.8829609929078  L 107.395862068965 3.46249999999998  L 98.1284482758618 7.22459219858152  L 97.8434482758618 7.22459219858152  L 97.2636206896549 7.22459219858152  L 85.9717241379307 8.38367021276593  C 84.23224137931 8.38367021276593  81.0481034482756 7.51927304964536  76.7043103448273 6.36019503546096  L 66.8570689655169 4.62157801418438  L 66.5720689655169 4.62157801418438  L 60.773793103448 1.43902482269501  L 55.9189655172414 1.43902482269501  Z " fill-rule="evenodd" />
    </mask>
  </defs>
  <g transform="matrix(1 0 0 1 -416 -519 )">
    <path d="M 55.9189655172414 1.43902482269501  L 55.9189655172414 1.45867021276603  L 55.9189655172414 1.74352836879442  C 54.7593103448276 4.35636524822706  52.7348275862069 6.08515957446819  50.4155172413793 8.11845744680861  C 48.6760344827586 8.98285460992917  48.0962068965517 10.4366134751774  48.0962068965517 12.175230496454  L 48.0962068965517 13.0396276595746  C 48.0962068965517 14.4835638297874  47.2313793103448 16.8017198581561  44.9120689655173 20.2691312056739  L 44.6172413793104 21.7130673758867  C 44.0374137931035 22.5872872340427  42.8777586206897 23.1668262411349  40.853275862069 23.1668262411349  L 24.3527586206897 21.1433510638299  L 24.3527586206897 21.4282092198583  L 23.1931034482759 25.1903014184399  L 23.1931034482759 25.4849822695037  L 22.898275862069 25.7698404255321  C 18.5544827586207 31.8500886524824  15.6553448275862 36.1917198581562  15.3703448275862 39.0795921985818  C 15.0755172413793 40.53335106383  16.815 45.7393794326243  20.5789655172414 54.7075000000002  L 23.1931034482759 60.7877482269506  C 24.3527586206897 63.6854432624116  23.4781034482759 67.1528546099293  20.8737931034483 70.9149468085108  L 15.6553448275862 76.1307978723405  L 6.96775862068967 76.1307978723405  L 5.22827586206898 66.5831382978724  L 2.90896551724139 78.4489539007093  L 6.67293103448277 84.2345212765958  C 6.96775862068967 85.0989184397164  6.96775862068967 85.6784574468086  6.67293103448277 85.9731382978724  L 6.09310344827587 86.5526773049647  C 4.93344827586208 87.4268971631207  3.20379310344829 90.3147695035463  1.4643103448276 95.2359397163122  C -0.275172413793098 99.5775709219859  0.589655172413802 103.91920212766  4.06862068965518 108.545691489362  L 11.016724137931 108.545691489362  C 13.3262068965517 109.125230496454  16.8051724137931 112.887322695036  21.7287931034483 119.547109929078  L 22.0236206896552 120.12664893617  C 22.0236206896552 122.150124113475  22.8884482758621 123.594060283688  24.3429310344828 124.753138297873  L 39.7034482758621 138.927287234043  L 39.7034482758621 139.212145390071  L 46.6515517241379 147.895407801418  L 50.7005172413793 147.895407801418  L 55.0443103448276 140.076542553192  L 55.6241379310345 139.497003546099  L 55.9189655172414 139.202322695035  L 66.6310344827586 141.815159574468  L 66.6310344827586 142.100017730496  L 66.6310344827586 142.679556737589  L 68.0756896551724 149.918882978723  L 80.8122413793104 164.672570921986  L 85.1560344827586 166.411187943262  L 85.4508620689655 166.705868794326  L 87.4753448275862 167.86494680851  L 87.7701724137931 168.159627659574  L 97.3225862068966 182.34359929078  L 105.145344827586 181.184521276596  L 105.725172413793 181.184521276596  L 106.010172413793 181.184521276596  L 106.59 181.764060283688  L 106.884827586207 182.34359929078  L 113.538103448276 196.232890070922  L 121.645862068966 201.154060283688  L 128.299137931035 202.892677304965  L 131.483275862069 211.870620567376  L 136.406896551724 211.870620567376  L 136.701724137931 212.155478723404  L 147.128793103448 217.950868794326  L 147.128793103448 218.235726950354  L 147.413793103448 218.520585106383  L 154.941724137931 227.783386524822  L 165.938793103448 225.759911347518  L 166.518620689655 225.759911347518  L 170.567586206897 227.498528368794  L 170.862413793104 227.498528368794  L 177.810517241379 233.578776595745  L 190.262068965517 234.443173758865  L 197.79 233.284095744681  C 207.932068965517 231.545478723404  214.300344827586 232.41969858156  216.609827586207 235.022712765957  C 218.054482758621 237.340868794326  217.189655172414 239.659024822695  213.710689655173 242.54689716312  L 210.811551724138 245.434769503546  C 209.946724137931 246.888528368794  211.096551724138 249.196861702128  214.870344827586 252.674095744681  L 215.155344827586 253.253634751773  L 214.870344827586 253.253634751773  L 217.189655172414 254.99225177305  L 218.054482758621 254.127854609929  C 225.297413793104 240.523421985816  231.085862068966 232.999237588652  235.134827586207 231.55530141844  C 239.478620689655 230.111365248227  248.451206896552 233.873457446808  262.64224137931 242.556719858156  L 280.017413793104 245.739273049645  L 279.732413793104 246.318812056738  L 279.732413793104 246.89835106383  L 278.867586206897 255.002074468085  L 287.555172413793 256.161152482269  L 287.270172413793 267.162570921986  C 289.874482758621 272.083741134752  291.898965517241 274.971613475177  293.058620689655 275.845833333333  C 294.798103448276 277.004911347518  303.485689655173 277.004911347518  318.826551724138 275.845833333333  L 327.799137931035 271.209521276596  L 336.486724137931 259.058847517731  L 346.618965517241 258.764166666667  L 351.542586206897 257.320230496454  L 370.65724137931 246.318812056738  L 370.94224137931 246.318812056738  L 371.237068965517 246.033953900709  C 382.243965517241 244.874875886525  388.61224137931 244.590017730496  390.351724137931 246.033953900709  L 402.803275862069 256.455833333333  L 406.56724137931 257.899769503546  L 407.147068965517 258.479308510638  L 412.070689655172 260.502783687943  L 412.355689655172 260.797464539007  L 412.355689655172 259.923244680851  L 412.355689655172 259.638386524823  L 412.355689655172 259.343705673759  L 412.355689655172 259.058847517731  L 414.380172413793 250.375585106383  C 413.515344827586 247.76274822695  413.515344827586 245.739273049645  414.380172413793 244.000656028369  C 414.96 242.556719858156  416.404655172414 241.6825  418.723965517241 241.102960992908  C 423.06775862069 240.238563829787  427.116724137931 244.000656028369  431.175517241379 252.104379432624  L 431.755344827586 252.389237588653  L 432.050172413793 252.389237588653  L 439.293103448276 249.206684397163  C 440.73775862069 248.912003546099  441.317586206897 247.468067375887  441.317586206897 246.024131205674  L 439.872931034483 240.81810283688  L 439.872931034483 240.523421985816  C 439.293103448276 238.205265957447  439.872931034483 236.181790780142  442.19224137931 235.317393617021  L 444.796551724138 233.293918439717  L 451.164827586207 226.349273049646  L 455.508620689655 216.791790780142  C 451.744655172414 210.711542553192  450.585 206.369911347518  451.744655172414 203.472216312057  L 452.609482758621 195.368492907802  C 450.87 191.891258865248  450.005172413793 189.582925531915  450.005172413793 187.549627659575  C 450.005172413793 186.685230496454  448.845517241379 184.082216312057  446.536034482759 180.604982269504  L 446.241206896552 180.604982269504  L 446.241206896552 179.740585106383  L 445.376379310345 169.318705673759  C 445.081551724138 167.580088652482  444.796551724138 165.271755319149  445.376379310345 162.374060283688  C 442.772068965517 160.340762411348  441.032586206897 158.317287234043  439.872931034483 156.293812056738  L 435.529137931034 150.498421985816  L 435.244137931034 150.213563829787  L 435.244137931034 149.643847517731  L 435.244137931034 149.349166666667  L 433.799482758621 142.109840425532  L 429.455689655172 138.632606382979  L 429.455689655172 138.927287234043  L 421.053103448276 132.2675  L 421.053103448276 132.847039007092  L 422.21275862069 141.824982269504  L 422.21275862069 142.109840425532  L 422.21275862069 142.974237588653  L 417.868965517241 145.007535460993  L 417.289137931034 150.508244680851  L 417.289137931034 151.382464539007  L 407.156896551724 155.429414893617  L 403.68775862069 147.325691489362  L 401.653448275862 146.74615248227  L 398.469310344827 149.928705673759  L 396.444827586207 155.714273049645  L 389.201896551724 157.73774822695  L 385.143103448276 154.840053191489  L 379.354655172414 153.101436170213  L 377.615172413793 144.997712765957  L 375.305689655172 140.076542553192  L 371.826724137931 138.622783687943  L 371.531896551724 138.043244680851  L 368.927586206896 134.860691489362  L 366.323275862069 130.23420212766  L 362.274310344828 125.028173758865  L 358.795344827586 125.028173758865  L 353.006896551724 127.05164893617  L 352.712068965517 127.346329787234  L 337.951034482759 126.481932624113  L 326.659137931034 124.163776595745  C 325.794310344828 123.584237588652  323.76 122.719840425532  320.575862068965 120.696365248227  L 311.888275862069 117.798670212766  C 305.225172413793 116.060053191489  301.461206896552 114.616117021276  300.586551724138 112.8775  L 299.141896551724 112.003280141844  L 297.117413793103 111.423741134752  L 291.908793103448 108.526046099291  L 291.328965517241 108.241187943262  C 290.464137931034 107.082109929078  289.589482758621 106.217712765957  289.009655172414 105.058634751773  L 287.85 102.44579787234  L 285.530689655172 98.9783865248226  L 281.766724137931 97.239769503546  L 280.322068965517 98.1041666666665  L 278.867586206896 99.2632446808509  L 278.00275862069 99.8427836879431  C 276.558103448276 101.001861702127  275.103620689655 101.58140070922  273.943965517241 101.866258865248  C 271.624655172414 102.44579787234  269.315172413793 101.286719858156  266.701034482759 98.3988475177303  L 261.207413793103 92.6034574468084  C 259.182931034483 90.0004432624112  257.738275862069 87.9671453900708  257.148620689655 86.523209219858  L 255.694137931034 84.2050531914892  C 253.669655172414 82.1815780141843  252.225 80.1581028368792  251.350344827586 78.4194858156026  C 250.485517241379 75.8164716312055  250.190689655172 73.4983156028367  251.065344827586 71.1801595744679  L 251.065344827586 70.8953014184396  L 254.829310344827 64.5301950354608  L 256.853793103448 57.8704078014183  L 257.728448275862 53.5287765957446  L 256.273965517241 46.8788120567376  L 251.930172413793 43.116719858156  L 252.795 37.6160106382978  C 252.795 33.5592375886524  254.239655172414 31.5357624113475  257.138793103448 30.9660460992908  C 258.013448275862 30.6713652482269  258.583448275862 30.0918262411347  258.298448275862 28.9327482269503  L 258.298448275862 28.647890070922  L 258.583448275862 22.8525  L 258.583448275862 22.5676418439716  L 258.583448275862 15.9078546099291  L 258.003620689655 15.9078546099291  L 257.718620689655 15.6131737588652  L 256.558965517241 15.0336347517731  L 256.558965517241 14.7487765957447  L 256.264137931034 14.7487765957447  L 251.055517241379 11.2715425531915  L 250.770517241379 11.2715425531915  L 246.711724137931 7.80413120567375  L 233.110344827586 5.20111702127661  L 228.766551724138 2.01856382978724  L 220.648965517241 2.01856382978724  C 219.489310344827 2.01856382978724  218.044655172414 2.8829609929078  216.020172413793 4.04203900709221  L 215.735172413793 4.04203900709221  L 209.366896551724 7  L 193.436379310345 7  C 191.126896551724 6.93973404255319  189.092586206896 7.51927304964542  187.932931034483 8.67835106382982  C 186.193448275862 10.1222872340426  183.009310344827 11.281365248227  178.665517241379 12.7253014184398  L 171.137586206896 14.4639184397163  L 171.137586206896 14.7487765957447  L 170.557758620689 14.7487765957447  L 159.835862068965 13.5896985815603  L 158.971034482758 13.2950177304965  L 159.265862068965 13.5896985815603  L 158.971034482758 13.2950177304965  L 155.207068965517 13.0101595744681  L 148.828965517241 15.0336347517731  L 136.092413793103 16.1927127659575  L 135.797586206896 16.1927127659575  L 135.512586206896 15.9078546099291  L 129.13448275862 13.5896985815603  L 123.925862068965 13.5896985815603  C 121.606551724138 13.0101595744681  119.00224137931 11.2715425531915  116.103103448276 7.80413120567375  L 115.808275862069 7.22459219858158  C 115.228448275862 4.62157801418444  114.363620689655 3.46250000000003  114.068793103448 2.8829609929078  L 112.614310344827 2.01856382978724  L 110.01 0.564804964538996  L 107.690689655172 2.8829609929078  L 107.395862068965 3.46249999999998  L 98.1284482758618 7.22459219858152  L 97.8434482758618 7.22459219858152  L 97.2636206896549 7.22459219858152  L 85.9717241379307 8.38367021276593  C 84.23224137931 8.38367021276593  81.0481034482756 7.51927304964536  76.7043103448273 6.36019503546096  L 66.8570689655169 4.62157801418438  L 66.5720689655169 4.62157801418438  L 60.773793103448 1.43902482269501  L 55.9189655172414 1.43902482269501  Z " fill-rule="nonzero" fill="#20dbea" stroke="none" fill-opacity="0.4" transform="matrix(1 0 0 1 416 519 )" />
    <path d="M 55.9189655172414 1.43902482269501  L 55.9189655172414 1.45867021276603  L 55.9189655172414 1.74352836879442  C 54.7593103448276 4.35636524822706  52.7348275862069 6.08515957446819  50.4155172413793 8.11845744680861  C 48.6760344827586 8.98285460992917  48.0962068965517 10.4366134751774  48.0962068965517 12.175230496454  L 48.0962068965517 13.0396276595746  C 48.0962068965517 14.4835638297874  47.2313793103448 16.8017198581561  44.9120689655173 20.2691312056739  L 44.6172413793104 21.7130673758867  C 44.0374137931035 22.5872872340427  42.8777586206897 23.1668262411349  40.853275862069 23.1668262411349  L 24.3527586206897 21.1433510638299  L 24.3527586206897 21.4282092198583  L 23.1931034482759 25.1903014184399  L 23.1931034482759 25.4849822695037  L 22.898275862069 25.7698404255321  C 18.5544827586207 31.8500886524824  15.6553448275862 36.1917198581562  15.3703448275862 39.0795921985818  C 15.0755172413793 40.53335106383  16.815 45.7393794326243  20.5789655172414 54.7075000000002  L 23.1931034482759 60.7877482269506  C 24.3527586206897 63.6854432624116  23.4781034482759 67.1528546099293  20.8737931034483 70.9149468085108  L 15.6553448275862 76.1307978723405  L 6.96775862068967 76.1307978723405  L 5.22827586206898 66.5831382978724  L 2.90896551724139 78.4489539007093  L 6.67293103448277 84.2345212765958  C 6.96775862068967 85.0989184397164  6.96775862068967 85.6784574468086  6.67293103448277 85.9731382978724  L 6.09310344827587 86.5526773049647  C 4.93344827586208 87.4268971631207  3.20379310344829 90.3147695035463  1.4643103448276 95.2359397163122  C -0.275172413793098 99.5775709219859  0.589655172413802 103.91920212766  4.06862068965518 108.545691489362  L 11.016724137931 108.545691489362  C 13.3262068965517 109.125230496454  16.8051724137931 112.887322695036  21.7287931034483 119.547109929078  L 22.0236206896552 120.12664893617  C 22.0236206896552 122.150124113475  22.8884482758621 123.594060283688  24.3429310344828 124.753138297873  L 39.7034482758621 138.927287234043  L 39.7034482758621 139.212145390071  L 46.6515517241379 147.895407801418  L 50.7005172413793 147.895407801418  L 55.0443103448276 140.076542553192  L 55.6241379310345 139.497003546099  L 55.9189655172414 139.202322695035  L 66.6310344827586 141.815159574468  L 66.6310344827586 142.100017730496  L 66.6310344827586 142.679556737589  L 68.0756896551724 149.918882978723  L 80.8122413793104 164.672570921986  L 85.1560344827586 166.411187943262  L 85.4508620689655 166.705868794326  L 87.4753448275862 167.86494680851  L 87.7701724137931 168.159627659574  L 97.3225862068966 182.34359929078  L 105.145344827586 181.184521276596  L 105.725172413793 181.184521276596  L 106.010172413793 181.184521276596  L 106.59 181.764060283688  L 106.884827586207 182.34359929078  L 113.538103448276 196.232890070922  L 121.645862068966 201.154060283688  L 128.299137931035 202.892677304965  L 131.483275862069 211.870620567376  L 136.406896551724 211.870620567376  L 136.701724137931 212.155478723404  L 147.128793103448 217.950868794326  L 147.128793103448 218.235726950354  L 147.413793103448 218.520585106383  L 154.941724137931 227.783386524822  L 165.938793103448 225.759911347518  L 166.518620689655 225.759911347518  L 170.567586206897 227.498528368794  L 170.862413793104 227.498528368794  L 177.810517241379 233.578776595745  L 190.262068965517 234.443173758865  L 197.79 233.284095744681  C 207.932068965517 231.545478723404  214.300344827586 232.41969858156  216.609827586207 235.022712765957  C 218.054482758621 237.340868794326  217.189655172414 239.659024822695  213.710689655173 242.54689716312  L 210.811551724138 245.434769503546  C 209.946724137931 246.888528368794  211.096551724138 249.196861702128  214.870344827586 252.674095744681  L 215.155344827586 253.253634751773  L 214.870344827586 253.253634751773  L 217.189655172414 254.99225177305  L 218.054482758621 254.127854609929  C 225.297413793104 240.523421985816  231.085862068966 232.999237588652  235.134827586207 231.55530141844  C 239.478620689655 230.111365248227  248.451206896552 233.873457446808  262.64224137931 242.556719858156  L 280.017413793104 245.739273049645  L 279.732413793104 246.318812056738  L 279.732413793104 246.89835106383  L 278.867586206897 255.002074468085  L 287.555172413793 256.161152482269  L 287.270172413793 267.162570921986  C 289.874482758621 272.083741134752  291.898965517241 274.971613475177  293.058620689655 275.845833333333  C 294.798103448276 277.004911347518  303.485689655173 277.004911347518  318.826551724138 275.845833333333  L 327.799137931035 271.209521276596  L 336.486724137931 259.058847517731  L 346.618965517241 258.764166666667  L 351.542586206897 257.320230496454  L 370.65724137931 246.318812056738  L 370.94224137931 246.318812056738  L 371.237068965517 246.033953900709  C 382.243965517241 244.874875886525  388.61224137931 244.590017730496  390.351724137931 246.033953900709  L 402.803275862069 256.455833333333  L 406.56724137931 257.899769503546  L 407.147068965517 258.479308510638  L 412.070689655172 260.502783687943  L 412.355689655172 260.797464539007  L 412.355689655172 259.923244680851  L 412.355689655172 259.638386524823  L 412.355689655172 259.343705673759  L 412.355689655172 259.058847517731  L 414.380172413793 250.375585106383  C 413.515344827586 247.76274822695  413.515344827586 245.739273049645  414.380172413793 244.000656028369  C 414.96 242.556719858156  416.404655172414 241.6825  418.723965517241 241.102960992908  C 423.06775862069 240.238563829787  427.116724137931 244.000656028369  431.175517241379 252.104379432624  L 431.755344827586 252.389237588653  L 432.050172413793 252.389237588653  L 439.293103448276 249.206684397163  C 440.73775862069 248.912003546099  441.317586206897 247.468067375887  441.317586206897 246.024131205674  L 439.872931034483 240.81810283688  L 439.872931034483 240.523421985816  C 439.293103448276 238.205265957447  439.872931034483 236.181790780142  442.19224137931 235.317393617021  L 444.796551724138 233.293918439717  L 451.164827586207 226.349273049646  L 455.508620689655 216.791790780142  C 451.744655172414 210.711542553192  450.585 206.369911347518  451.744655172414 203.472216312057  L 452.609482758621 195.368492907802  C 450.87 191.891258865248  450.005172413793 189.582925531915  450.005172413793 187.549627659575  C 450.005172413793 186.685230496454  448.845517241379 184.082216312057  446.536034482759 180.604982269504  L 446.241206896552 180.604982269504  L 446.241206896552 179.740585106383  L 445.376379310345 169.318705673759  C 445.081551724138 167.580088652482  444.796551724138 165.271755319149  445.376379310345 162.374060283688  C 442.772068965517 160.340762411348  441.032586206897 158.317287234043  439.872931034483 156.293812056738  L 435.529137931034 150.498421985816  L 435.244137931034 150.213563829787  L 435.244137931034 149.643847517731  L 435.244137931034 149.349166666667  L 433.799482758621 142.109840425532  L 429.455689655172 138.632606382979  L 429.455689655172 138.927287234043  L 421.053103448276 132.2675  L 421.053103448276 132.847039007092  L 422.21275862069 141.824982269504  L 422.21275862069 142.109840425532  L 422.21275862069 142.974237588653  L 417.868965517241 145.007535460993  L 417.289137931034 150.508244680851  L 417.289137931034 151.382464539007  L 407.156896551724 155.429414893617  L 403.68775862069 147.325691489362  L 401.653448275862 146.74615248227  L 398.469310344827 149.928705673759  L 396.444827586207 155.714273049645  L 389.201896551724 157.73774822695  L 385.143103448276 154.840053191489  L 379.354655172414 153.101436170213  L 377.615172413793 144.997712765957  L 375.305689655172 140.076542553192  L 371.826724137931 138.622783687943  L 371.531896551724 138.043244680851  L 368.927586206896 134.860691489362  L 366.323275862069 130.23420212766  L 362.274310344828 125.028173758865  L 358.795344827586 125.028173758865  L 353.006896551724 127.05164893617  L 352.712068965517 127.346329787234  L 337.951034482759 126.481932624113  L 326.659137931034 124.163776595745  C 325.794310344828 123.584237588652  323.76 122.719840425532  320.575862068965 120.696365248227  L 311.888275862069 117.798670212766  C 305.225172413793 116.060053191489  301.461206896552 114.616117021276  300.586551724138 112.8775  L 299.141896551724 112.003280141844  L 297.117413793103 111.423741134752  L 291.908793103448 108.526046099291  L 291.328965517241 108.241187943262  C 290.464137931034 107.082109929078  289.589482758621 106.217712765957  289.009655172414 105.058634751773  L 287.85 102.44579787234  L 285.530689655172 98.9783865248226  L 281.766724137931 97.239769503546  L 280.322068965517 98.1041666666665  L 278.867586206896 99.2632446808509  L 278.00275862069 99.8427836879431  C 276.558103448276 101.001861702127  275.103620689655 101.58140070922  273.943965517241 101.866258865248  C 271.624655172414 102.44579787234  269.315172413793 101.286719858156  266.701034482759 98.3988475177303  L 261.207413793103 92.6034574468084  C 259.182931034483 90.0004432624112  257.738275862069 87.9671453900708  257.148620689655 86.523209219858  L 255.694137931034 84.2050531914892  C 253.669655172414 82.1815780141843  252.225 80.1581028368792  251.350344827586 78.4194858156026  C 250.485517241379 75.8164716312055  250.190689655172 73.4983156028367  251.065344827586 71.1801595744679  L 251.065344827586 70.8953014184396  L 254.829310344827 64.5301950354608  L 256.853793103448 57.8704078014183  L 257.728448275862 53.5287765957446  L 256.273965517241 46.8788120567376  L 251.930172413793 43.116719858156  L 252.795 37.6160106382978  C 252.795 33.5592375886524  254.239655172414 31.5357624113475  257.138793103448 30.9660460992908  C 258.013448275862 30.6713652482269  258.583448275862 30.0918262411347  258.298448275862 28.9327482269503  L 258.298448275862 28.647890070922  L 258.583448275862 22.8525  L 258.583448275862 22.5676418439716  L 258.583448275862 15.9078546099291  L 258.003620689655 15.9078546099291  L 257.718620689655 15.6131737588652  L 256.558965517241 15.0336347517731  L 256.558965517241 14.7487765957447  L 256.264137931034 14.7487765957447  L 251.055517241379 11.2715425531915  L 250.770517241379 11.2715425531915  L 246.711724137931 7.80413120567375  L 233.110344827586 5.20111702127661  L 228.766551724138 2.01856382978724  L 220.648965517241 2.01856382978724  C 219.489310344827 2.01856382978724  218.044655172414 2.8829609929078  216.020172413793 4.04203900709221  L 215.735172413793 4.04203900709221  L 209.366896551724 7  L 193.436379310345 7  C 191.126896551724 6.93973404255319  189.092586206896 7.51927304964542  187.932931034483 8.67835106382982  C 186.193448275862 10.1222872340426  183.009310344827 11.281365248227  178.665517241379 12.7253014184398  L 171.137586206896 14.4639184397163  L 171.137586206896 14.7487765957447  L 170.557758620689 14.7487765957447  L 159.835862068965 13.5896985815603  L 158.971034482758 13.2950177304965  L 159.265862068965 13.5896985815603  L 158.971034482758 13.2950177304965  L 155.207068965517 13.0101595744681  L 148.828965517241 15.0336347517731  L 136.092413793103 16.1927127659575  L 135.797586206896 16.1927127659575  L 135.512586206896 15.9078546099291  L 129.13448275862 13.5896985815603  L 123.925862068965 13.5896985815603  C 121.606551724138 13.0101595744681  119.00224137931 11.2715425531915  116.103103448276 7.80413120567375  L 115.808275862069 7.22459219858158  C 115.228448275862 4.62157801418444  114.363620689655 3.46250000000003  114.068793103448 2.8829609929078  L 112.614310344827 2.01856382978724  L 110.01 0.564804964538996  L 107.690689655172 2.8829609929078  L 107.395862068965 3.46249999999998  L 98.1284482758618 7.22459219858152  L 97.8434482758618 7.22459219858152  L 97.2636206896549 7.22459219858152  L 85.9717241379307 8.38367021276593  C 84.23224137931 8.38367021276593  81.0481034482756 7.51927304964536  76.7043103448273 6.36019503546096  L 66.8570689655169 4.62157801418438  L 66.5720689655169 4.62157801418438  L 60.773793103448 1.43902482269501  L 55.9189655172414 1.43902482269501  Z " stroke-width="2" stroke="#797979" fill="none" transform="matrix(1 0 0 1 416 519 )" mask="url(#clip10)" />
  </g>
</svg>