<?xml version="1.0" encoding="utf-8"?>
<svg version="1.1" xmlns:xlink="http://www.w3.org/1999/xlink" width="519px" height="442px" xmlns="http://www.w3.org/2000/svg">
  <defs>
    <mask fill="white" id="clip12">
      <path d="M 506.896565464895 55.3090645879734  L 508.029108159393 47.1975278396437  L 506.000379506641 40.8087082405346  L 500.770986717268 31.8210467706014  L 496.418083491461 29.4978396436526  L 492.065180265655 31.8210467706014  L 489.45540796964 37.0384187082406  L 489.159962049336 37.6192204899778  L 488.578918406072 37.6192204899778  L 488.283472485769 37.6192204899778  L 480.168557874763 39.066302895323  C 479.292068311196 39.6471046770602  478.425426944972 39.9424276169266  477.844383301708 40.8087082405346  L 476.101252371917 42.836592427617  L 471.74834914611 46.3115590200446  L 470.586261859583 46.8923608017818  L 466.824250474383 47.4830066815145  C 465.081119544592 47.1975278396437  462.471347248577 45.7406013363029  458.994933586338 43.1319153674833  L 458.699487666034 42.8464365256125  C 452.89889943074 37.0482628062361  449.993681214421 32.9826503340758  449.993681214421 30.6692873051225  L 449.993681214421 23.1287082405346  L 449.993681214421 22.8432293986638  L 449.993681214421 22.5577505567929  L 450.870170777989 21.1008240534522  L 442.459810246679 18.2066592427618  L 442.164364326376 21.1008240534522  C 442.164364326376 21.9671046770602  441.297722960152 23.1287082405346  439.840189753321 24.0048329621381  L 436.934971537002 25.1664365256125  L 435.782732447818 24.8809576837417  L 435.782732447818 24.5856347438753  L 431.429829222011 23.7193541202673  L 432.306318785579 26.9088418708241  L 424.762599620493 21.9769487750557  L 424.457305502846 21.9769487750557  L 424.171707779886 21.6816258351894  C 423.009620493359 18.4921380846326  422.428576850095 15.3026503340758  422.428576850095 11.8276837416482  C 422.428576850095 8.92367483296221  422.724022770399 7.18126948775063  423.876261859583 6.01966592427624  L 425.619392789374 2.83017817371945  L 425.03834914611 0.221492204899852  L 417.484781783681 1.38309576837424  C 413.712922201139 1.66857461024506  411.103149905123 3.99178173719384  409.655464895636 8.34287305122502  L 409.655464895636 8.63819599109139  L 405.302561669829 15.3124944320713  L 409.655464895636 15.017171492205  L 409.950910815939 15.017171492205  L 410.236508538899 14.7316926503342  L 410.531954459203 15.3124944320713  L 414.008368121442 16.7595768374166  L 414.589411764706 16.7595768374166  L 415.160607210626 17.0548997772829  L 415.160607210626 17.9211804008909  L 415.74165085389 24.0146770601337  L 417.484781783681 29.8226948775056  L 417.484781783681 30.1081737193765  L 417.484781783681 30.3936525612473  L 417.484781783681 30.6889755011137  L 407.912333965844 49.5404231625836  C 406.179051233397 52.1491091314032  405.302561669829 59.108886414254  404.721518026565 69.5534743875279  L 404.721518026565 70.4197550111359  L 400.949658444023 77.6748552338531  L 403.559430740038 80.578864142539  L 403.559430740038 81.1596659242763  C 403.854876660341 85.5107572383074  403.559430740038 88.119443207127  402.39734345351 88.7002449888642  L 401.530702087286 88.9857238307351  C 399.501973434535 90.1473273942094  392.824895635674 97.1071046770602  382.090360531309 110.160378619154  L 381.223719165085 111.036503340757  L 380.642675521822 110.751024498886  L 379.776034155598 110.170222717149  C 376.004174573055 107.56153674833  372.527760910816 105.238329621381  370.489184060721 102.915122494432  C 368.74605313093 101.753518930958  364.393149905123 100.88723830735  357.144876660342 100.88723830735  L 356.859278937381 114.225991091314  L 356.563833017078 114.511469933185  L 351.344288425048 139.741893095768  C 350.18220113852 142.931380846325  349.886755218216 148.739398663697  349.886755218216 157.431737193764  L 351.915483870968 160.040423162584  L 353.658614800759 156.565456570156  L 353.954060721063 156.565456570156  L 354.239658444023 155.984654788419  L 360.916736242884 152.509688195991  L 379.480588235294 155.403853006682  L 381.519165085389 153.090489977728  L 384.128937381404 148.444075723831  L 384.709981024668 148.15859688196  L 385.005426944971 147.863273942094  L 392.263548387097 146.416191536748  L 401.835996204934 145.835389755011  C 404.741214421252 146.416191536748  408.217628083491 150.186481069042  412.570531309298 155.984654788419  C 424.18155597723 161.782828507795  430.563187855787 167.01004454343  432.010872865275 171.646614699332  C 432.877514231499 173.969821826281  432.877514231499 175.712227171492  432.010872865275 177.740111358575  C 431.144231499051 179.767995545657  429.1155028463 180.929599109131  426.210284629981 181.215077951002  L 425.914838709677 181.215077951002  C 411.703889943074 180.634276169265  403.569278937381 180.634276169265  400.664060721063 181.510400890869  L 393.701385199241 186.146971046771  C 384.995578747628 192.525946547884  379.194990512334 195.715434298441  376.004174573055 195.715434298441  L 370.203586337761 196.591559020045  L 366.717324478178 211.091915367483  C 365.850683111954 215.443006681515  364.393149905123 218.3470155902  361.783377609108 220.374899777283  C 359.469051233397 222.698106904232  355.982789373814 224.145189309577  351.344288425047 225.02131403118  C 345.829297912713 225.887594654788  341.190796963947 227.925322939866  336.83789373814 230.534008908686  L 331.90394686907 240.97859688196  L 331.608500948767 241.273919821826  L 331.322903225807 241.273919821826  L 331.027457305503 241.273919821826  L 317.683149905124 246.786614699332  L 316.806660341556 246.786614699332  L 310.139430740038 245.339532293987  C 304.919886148008 244.463407572383  300.852580645162 243.016325167038  298.232960151803 241.273919821826  C 294.756546489564 239.531514476615  290.984686907021 239.246035634744  286.917381404175 240.397795100223  C 283.440967741936 245.329688195991  281.697836812144 251.423184855234  281.983434535105 258.087639198218  C 282.278880455408 261.562605790646  283.145521821632 263.885812917595  284.012163187856 264.466614699332  L 286.050740037951 264.181135857461  L 288.374914611006 262.734053452116  L 288.95595825427 272.017037861915  C 288.95595825427 275.196681514477  287.793870967742 277.519888641426  285.469696394687 279.262293986637  C 284.012163187856 280.423897550111  281.412239089184 281.585501113586  277.630531309298 282.737260579065  L 275.316204933587 283.318062360802  C 272.410986717268 284.479665924276  266.31495256167 292.305723830735  257.323548387097 306.520601336303  L 257.323548387097 306.815924276169  L 257.037950664137 306.815924276169  L 248.332144212524 312.043140311804  C 249.789677419355 312.043140311804  250.656318785579 312.623942093541  250.360872865275 313.785545657016  C 250.075275142315 314.94714922049  249.198785578748 315.232628062361  246.884459203036 315.527951002227  L 222.224573055028 314.94714922049  C 194.659468690702 314.071024498887  173.190398481973 321.62144766147  157.807514231499 337.283407572383  L 157.512068311195 337.568886414254  L 156.931024667932 337.854365256125  L 156.645426944972 337.854365256125  L 146.491935483871 339.015968819599  L 145.910891840607 339.30144766147  L 145.329848197344 339.30144766147  L 142.424629981025 332.341670378619  L 131.97569259962 334.950356347439  C 126.460702087286 335.23583518931  119.212428842505 333.788752783964  111.087666034156 329.723140311804  C 103.54394686907 326.533652561247  96.8668690702086 322.182561247216  90.1897912713472 316.965189309577  C 85.8368880455408 313.480378619154  80.3218975332068 311.157171492205  73.9402656546489 310.005412026726  L 64.6534155597723 309.129287305123  L 54.2044781783681 310.586213808463  C 46.6607590132827 311.737973273942  39.1170398481973 311.737973273942  32.1543643263757 311.167015590201  C 23.7440037950664 310.586213808463  13.5806641366224 308.27285077951  1.39844402277036 304.492717149221  L 0.521954459203009 306.235122494432  L 0.817400379506626 306.235122494432  L 1.1029981024668 306.235122494432  L 1.39844402277041 306.520601336303  L 1.39844402277041 306.815924276169  L 1.68404174573059 309.719933184855  L 4.30366223908924 315.232628062361  L 10.3898481973435 322.783051224945  L 10.6852941176471 323.649331848552  L 9.52320683111962 329.162026726058  L 9.52320683111962 329.457349665924  L 9.2376091081595 329.457349665924  L 5.75134724857694 334.093919821826  L 9.52320683111962 337.86420935412  C 10.9807400379508 339.311291759466  11.8375332068312 340.47289532294  11.8375332068312 341.634498886414  L 12.7140227703986 347.14719376392  L 17.066925996205 351.498285077951  L 17.066925996205 352.079086859688  L 17.6479696394688 355.849376391982  L 17.6479696394688 358.743541202673  L 20.2577419354839 360.781269487751  L 22.0008728652752 360.200467706014  L 22.2864705882353 359.32434298441  C 23.1531119544592 357.001135857461  24.6007969639469 355.839532293987  26.6393738140417 355.554053452116  L 28.9635483870967 354.687772828508  L 44.3464326375711 353.230846325167  L 50.4424667931689 350.907639198218  L 51.0235104364327 350.622160356348  L 51.8901518026566 350.04135857461  L 55.0809677419355 357.001135857461  L 55.3665654648957 357.001135857461  C 55.6620113851992 358.733697104677  55.3665654648957 360.190623608018  54.4999240986718 361.637706013363  L 46.0797153700191 373.539220489978  L 46.6607590132828 375.56710467706  L 50.4326185958256 379.337394209354  L 54.2044781783683 381.660601336303  L 54.4999240986719 381.660601336303  C 56.2430550284631 383.983808463252  57.6907400379508 385.430890868597  59.4240227703986 386.011692650334  C 61.45275142315 386.592494432071  63.4913282732449 388.334899777283  65.2344592030362 390.658106904232  L 65.5200569259963 391.52438752784  L 68.4252751423151 392.685991091314  L 69.291916508539 392.981314031181  L 69.5775142314991 392.981314031181  L 70.4540037950665 396.170801781737  L 70.7396015180266 399.360289532294  L 71.9016888045541 404.006703786192  L 79.1499620493359 405.168307349666  L 79.7310056925997 405.168307349666  L 80.0166034155598 405.463630289533  L 80.0166034155598 405.749109131403  L 80.3120493358633 406.329910913141  L 82.3506261859583 410.385679287305  L 88.1512144212524 412.413563474388  L 92.2086717267552 410.385679287305  L 91.6276280834914 408.072316258352  L 87.8557685009487 404.587505567929  L 88.4368121442125 404.006703786192  L 88.4368121442125 403.425902004455  L 91.6276280834914 397.332405345212  L 98.5903036053131 397.332405345212  L 98.8759013282732 397.627728285078  L 108.743795066414 401.102694877506  L 114.258785578748 400.236414253898  L 118.611688804554 396.170801781737  C 123.545635673624 390.077305122495  126.736451612903 387.468619153675  128.765180265655 388.925545657016  L 131.08935483871 388.630222717149  C 133.699127134725 388.630222717149  135.146812144212 388.925545657016  136.02330170778 389.211024498887  C 136.30889943074 389.791826280624  136.604345351044 390.372628062361  136.604345351044 390.953429844098  C 136.604345351044 392.105189309577  137.766432637571 394.428396436526  139.509563567362 397.617884187083  L 139.509563567362 397.903363028953  L 139.509563567362 398.19868596882  L 140.38605313093 402.254454342985  L 140.38605313093 403.130579064588  L 139.223965844402 407.76714922049  L 139.223965844402 408.062472160357  L 138.928519924099 408.347951002227  L 133.994573055029 414.146124721604  L 133.708975332068 414.431603563475  L 123.269886148008 419.068173719377  L 121.812352941177 421.972182628063  L 120.364667931689 430.379042316259  L 121.241157495256 434.444654788419  L 123.850929791271 438.79574610245  L 125.003168880455 439.662026726058  L 128.489430740038 441.985233853007  L 140.681499051233 441.985233853007  L 150.834990512334 440.538151447662  L 152.282675521822 439.081224944321  C 153.730360531309 437.338819599109  155.18789373814 436.758017817372  156.054535104364 436.758017817372  L 163.017210626186 437.919621380847  L 163.59825426945 436.758017817372  C 163.017210626186 434.73013363029  163.017210626186 432.987728285078  164.179297912714 431.245322939867  L 167.084516129032 426.313429844098  L 167.084516129032 417.030445434299  L 167.084516129032 416.735122494432  L 172.304060721063 401.653964365256  L 172.589658444023 401.368485523385  L 172.589658444023 401.073162583519  L 172.875256166983 401.073162583519  L 172.875256166983 400.787683741648  L 181.866660341556 393.532583518931  L 182.44770398482 392.951781737194  L 190.286869070209 396.436592427617  C 194.344326375712 399.330757238307  196.382903225807 401.653964365256  196.382903225807 403.110890868597  L 195.801859582543 409.489866369711  L 193.192087286528 413.555478841871  L 191.163358633776 419.363496659243  L 191.163358633776 425.742472160356  L 193.192087286528 428.646481069042  L 195.801859582543 428.351158129176  L 196.382903225807 428.065679287305  L 200.735806451613 428.351158129176  C 203.059981024668 429.51276169265  204.507666034156 431.550489977728  205.669753320683 434.444654788419  L 208.279525616698 435.310935412027  L 208.574971537002 435.310935412027  L 208.870417457305 435.310935412027  L 218.728462998102 439.957349665924  L 223.081366223909 441.40443207127  L 229.177400379507 440.538151447662  L 231.787172675522 437.053340757238  L 235.273434535104 422.838463251671  L 235.559032258064 415.002561247216  L 235.559032258064 414.421759465479  L 236.140075901328 414.136280623608  L 236.435521821632 413.840957683742  L 241.950512333966 409.20438752784  L 245.141328273245 405.138775055679  L 245.426925996205 404.853296213809  L 251.227514231499 402.234766146993  L 254.703927893738 400.206881959911  L 259.056831119544 398.464476614699  L 256.742504743833 389.762293986637  L 266.610398481973 390.923897550112  L 266.610398481973 391.209376391982  L 271.829943074003 393.237260579065  L 271.829943074003 392.941937639198  L 273.287476280835 387.439086859688  L 273.287476280835 386.562962138085  L 274.163965844402 386.848440979956  L 274.745009487666 386.848440979956  L 279.383510436432 388.01004454343  L 281.707685009487 388.01004454343  L 286.060588235294 383.078151447662  L 286.346185958254 383.078151447662  L 286.641631878558 382.782828507795  L 286.927229601518 382.782828507795  L 292.737666034155 381.621224944321  L 297.671612903225 376.974810690423  L 300.281385199241 373.204521158129  L 300.281385199241 368.567951002227  C 300.281385199241 366.825545657016  301.148026565464 365.663942093541  302.891157495256 364.797661469933  L 303.472201138519 364.797661469933  L 303.75779886148 364.797661469933  L 309.272789373814 365.378463251671  L 311.587115749525 363.931380846325  L 312.463605313093 359.865768374165  L 318.264193548387 358.123363028953  L 318.55963946869 358.123363028953  L 318.84523719165 358.123363028953  L 326.103358633775 358.999487750557  L 331.90394686907 357.542561247216  L 335.380360531309 354.067594654789  L 337.704535104364 349.421180400891  L 333.351631878557 344.784610244989  L 333.351631878557 344.499131403118  L 332.484990512333 341.014320712695  L 331.322903225806 335.796948775056  L 331.322903225806 335.511469933185  L 333.932675521821 330.874899777283  C 333.932675521821 329.427817371938  334.799316888045 327.39008908686  337.1234914611 325.076726057907  L 340.314307400379 318.697750556793  L 340.314307400379 318.402427616927  L 340.609753320683 318.402427616927  L 343.514971537001 313.756013363029  L 347.867874762808 305.053830734967  L 351.925332068311 310.852004454343  L 352.210929791271 311.147327394209  L 352.210929791271 311.43280623608  L 353.668462998102 317.240824053452  L 353.668462998102 317.526302895323  L 354.535104364326 323.334320712695  L 358.602409867172 325.076726057907  L 358.888007590132 325.076726057907  L 360.05009487666 325.657527839644  L 360.345540796963 325.362204899777  L 363.821954459202 319.27855233853  L 365.860531309297 313.480378619154  L 366.727172675521 313.765857461025  L 367.603662239088 314.051336302895  L 376.014022770398 316.955345211581  L 380.071480075901 313.765857461025  L 380.366925996204 313.480378619154  L 380.947969639468 313.480378619154  L 385.015275142314 313.185055679287  L 387.91064516129 308.253162583519  L 387.91064516129 302.159665924276  L 389.949222011385 292.876681514477  L 390.530265654648 293.172004454343  L 391.406755218216 293.172004454343  L 397.788387096774 294.619086859688  L 400.683757115749 289.401714922049  L 400.979203036053 289.401714922049  L 401.560246679316 289.401714922049  L 407.370683111954 288.820913140312  L 408.237324478178 288.820913140312  L 408.237324478178 289.106391982183  L 408.818368121442 289.391870824054  L 411.72358633776 293.447639198218  L 411.72358633776 293.742962138085  L 412.019032258064 294.028440979956  L 412.019032258064 294.609242761693  L 412.590227703984 300.417260579065  L 415.495445920303 303.025946547884  L 419.552903225806 299.25565701559  L 420.429392789373 300.417260579065  C 421.886925996204 301.86434298441  422.458121442125 303.321269487751  422.458121442125 305.053830734967  L 422.458121442125 310.271202672606  L 420.429392789373 315.498418708241  L 421.886925996204 317.821625835189  L 424.78229601518 321.011113585746  L 436.964516129032 322.753518930958  L 437.259962049335 323.038997772829  L 437.841005692599 323.334320712695  L 438.707647058823 324.200601336303  L 442.193908918406 319.268708240535  L 442.489354838709 319.268708240535  L 445.394573055028 316.364699331849  L 444.232485768501 312.013608017818  L 441.041669829222 293.447639198218  L 449.452030360531 297.513251670379  L 449.737628083491 297.513251670379  L 450.023225806451 297.513251670379  L 453.795085388994 302.149821826281  L 456.119259962049 304.463184855234  L 459.605521821631 302.149821826281  L 471.787741935483 288.811069042316  L 472.083187855787 288.811069042316  L 476.436091081593 285.611737193764  L 481.370037950664 278.651959910913  L 481.665483870967 278.071158129176  L 488.332713472485 279.813563474388  L 491.533377609108 279.813563474388  C 491.533377609108 277.204877505568  492.114421252371 275.462472160357  492.400018975331 274.300868596882  L 497.333965844402 268.502694877506  L 498.791499051233 267.626570155902  L 504.592087286527 269.654454342985  L 511.554762808349 268.788173719377  L 516.203111954459 263.856280623608  L 518.51743833017 259.505189309577  L 517.069753320682 257.181982182628  L 513.01229601518 259.219710467706  L 512.726698292219 258.934231625835  L 512.431252371916 258.638908685969  L 507.211707779886 254.002338530067  L 506.926110056925 253.707015590201  L 508.96468690702 245.871113585746  L 509.535882352941 240.07293986637  L 508.088197343453 235.141046770601  L 504.03074003795 233.693964365256  L 504.03074003795 233.39864142539  L 503.735294117647 233.103318485524  L 503.449696394687 232.817839643653  L 499.963434535104 225.848218262806  L 499.38239089184 224.981937639198  L 494.44844402277 230.78995545657  L 489.5144971537 233.979443207127  L 488.352409867172 234.560244988864  L 488.066812144212 234.274766146993  L 487.771366223909 233.693964365256  L 482.551821631878 228.762071269488  L 482.551821631878 228.476592427617  L 478.779962049336 220.355211581292  L 478.779962049336 220.069732739421  L 477.036831119544 214.271559020045  L 477.036831119544 213.986080178174  L 477.036831119544 205.283897550112  L 476.455787476281 200.066525612472  L 472.388481973434 198.609599109132  L 472.102884250474 198.609599109132  L 472.102884250474 198.324120267261  L 462.816034155598 191.069020044544  L 463.387229601518 190.19289532294  L 467.740132827324 185.556325167038  L 467.740132827324 185.261002227172  L 467.740132827324 184.975523385301  L 468.321176470588 184.975523385301  L 473.255123339658 184.394721603564  L 473.550569259962 184.394721603564  C 474.998254269449 184.394721603564  476.455787476281 185.261002227172  477.608026565465 186.717928730512  L 481.665483870968 189.907416481069  L 486.018387096774 186.432449888642  L 489.209203036053 182.08135857461  L 489.209203036053 178.311069042316  L 488.047115749525 169.028084632517  L 487.180474383302 165.257795100223  L 480.7889943074 164.096191536749  L 480.7889943074 160.325902004455  L 474.988406072106 153.080645879733  L 474.702808349146 152.785322939867  L 471.797590132827 147.567951002227  L 471.216546489563 146.98714922049  L 471.216546489563 146.406347438753  L 477.598178368121 137.989643652561  L 477.598178368121 137.704164810691  L 477.883776091081 137.408841870824  L 477.883776091081 137.113518930958  L 478.464819734345 137.113518930958  L 481.07459203036 136.828040089087  L 484.265407969639 134.219354120267  L 488.037267552182 122.613162583519  L 488.322865275142 122.613162583519  L 488.322865275142 122.317839643653  L 492.971214421252 117.100467706013  L 492.971214421252 116.814988864143  L 493.256812144212 116.814988864143  L 493.542409867172 116.814988864143  L 498.771802656546 115.358062360802  L 498.771802656546 115.938864142539  L 502.248216318785 118.842873051225  L 503.410303605313 119.138195991091  L 505.439032258064 110.140690423163  L 503.410303605313 103.761714922049  L 503.124705882353 103.466391982183  L 503.124705882353 102.885590200446  L 503.991347248577 95.6304899777284  L 503.991347248577 95.0496881959912  L 507.477609108159 91.2793986636972  L 509.801783681214 87.2236302895324  L 510.087381404174 83.7388195991092  C 510.087381404174 81.9964142538976  509.22074003795 79.1022494432072  507.477609108159 74.751158129176  L 507.477609108159 67.7913808463253  L 507.477609108159 67.4960579064589  L 508.93514231499 61.4025612472161  C 507.773055028463 58.7938752783965  506.896565464895 56.7659910913141  506.896565464895 55.3090645879734  Z " fill-rule="evenodd" />
    </mask>
  </defs>
  <g transform="matrix(1 0 0 1 -859 -76 )">
    <path d="M 506.896565464895 55.3090645879734  L 508.029108159393 47.1975278396437  L 506.000379506641 40.8087082405346  L 500.770986717268 31.8210467706014  L 496.418083491461 29.4978396436526  L 492.065180265655 31.8210467706014  L 489.45540796964 37.0384187082406  L 489.159962049336 37.6192204899778  L 488.578918406072 37.6192204899778  L 488.283472485769 37.6192204899778  L 480.168557874763 39.066302895323  C 479.292068311196 39.6471046770602  478.425426944972 39.9424276169266  477.844383301708 40.8087082405346  L 476.101252371917 42.836592427617  L 471.74834914611 46.3115590200446  L 470.586261859583 46.8923608017818  L 466.824250474383 47.4830066815145  C 465.081119544592 47.1975278396437  462.471347248577 45.7406013363029  458.994933586338 43.1319153674833  L 458.699487666034 42.8464365256125  C 452.89889943074 37.0482628062361  449.993681214421 32.9826503340758  449.993681214421 30.6692873051225  L 449.993681214421 23.1287082405346  L 449.993681214421 22.8432293986638  L 449.993681214421 22.5577505567929  L 450.870170777989 21.1008240534522  L 442.459810246679 18.2066592427618  L 442.164364326376 21.1008240534522  C 442.164364326376 21.9671046770602  441.297722960152 23.1287082405346  439.840189753321 24.0048329621381  L 436.934971537002 25.1664365256125  L 435.782732447818 24.8809576837417  L 435.782732447818 24.5856347438753  L 431.429829222011 23.7193541202673  L 432.306318785579 26.9088418708241  L 424.762599620493 21.9769487750557  L 424.457305502846 21.9769487750557  L 424.171707779886 21.6816258351894  C 423.009620493359 18.4921380846326  422.428576850095 15.3026503340758  422.428576850095 11.8276837416482  C 422.428576850095 8.92367483296221  422.724022770399 7.18126948775063  423.876261859583 6.01966592427624  L 425.619392789374 2.83017817371945  L 425.03834914611 0.221492204899852  L 417.484781783681 1.38309576837424  C 413.712922201139 1.66857461024506  411.103149905123 3.99178173719384  409.655464895636 8.34287305122502  L 409.655464895636 8.63819599109139  L 405.302561669829 15.3124944320713  L 409.655464895636 15.017171492205  L 409.950910815939 15.017171492205  L 410.236508538899 14.7316926503342  L 410.531954459203 15.3124944320713  L 414.008368121442 16.7595768374166  L 414.589411764706 16.7595768374166  L 415.160607210626 17.0548997772829  L 415.160607210626 17.9211804008909  L 415.74165085389 24.0146770601337  L 417.484781783681 29.8226948775056  L 417.484781783681 30.1081737193765  L 417.484781783681 30.3936525612473  L 417.484781783681 30.6889755011137  L 407.912333965844 49.5404231625836  C 406.179051233397 52.1491091314032  405.302561669829 59.108886414254  404.721518026565 69.5534743875279  L 404.721518026565 70.4197550111359  L 400.949658444023 77.6748552338531  L 403.559430740038 80.578864142539  L 403.559430740038 81.1596659242763  C 403.854876660341 85.5107572383074  403.559430740038 88.119443207127  402.39734345351 88.7002449888642  L 401.530702087286 88.9857238307351  C 399.501973434535 90.1473273942094  392.824895635674 97.1071046770602  382.090360531309 110.160378619154  L 381.223719165085 111.036503340757  L 380.642675521822 110.751024498886  L 379.776034155598 110.170222717149  C 376.004174573055 107.56153674833  372.527760910816 105.238329621381  370.489184060721 102.915122494432  C 368.74605313093 101.753518930958  364.393149905123 100.88723830735  357.144876660342 100.88723830735  L 356.859278937381 114.225991091314  L 356.563833017078 114.511469933185  L 351.344288425048 139.741893095768  C 350.18220113852 142.931380846325  349.886755218216 148.739398663697  349.886755218216 157.431737193764  L 351.915483870968 160.040423162584  L 353.658614800759 156.565456570156  L 353.954060721063 156.565456570156  L 354.239658444023 155.984654788419  L 360.916736242884 152.509688195991  L 379.480588235294 155.403853006682  L 381.519165085389 153.090489977728  L 384.128937381404 148.444075723831  L 384.709981024668 148.15859688196  L 385.005426944971 147.863273942094  L 392.263548387097 146.416191536748  L 401.835996204934 145.835389755011  C 404.741214421252 146.416191536748  408.217628083491 150.186481069042  412.570531309298 155.984654788419  C 424.18155597723 161.782828507795  430.563187855787 167.01004454343  432.010872865275 171.646614699332  C 432.877514231499 173.969821826281  432.877514231499 175.712227171492  432.010872865275 177.740111358575  C 431.144231499051 179.767995545657  429.1155028463 180.929599109131  426.210284629981 181.215077951002  L 425.914838709677 181.215077951002  C 411.703889943074 180.634276169265  403.569278937381 180.634276169265  400.664060721063 181.510400890869  L 393.701385199241 186.146971046771  C 384.995578747628 192.525946547884  379.194990512334 195.715434298441  376.004174573055 195.715434298441  L 370.203586337761 196.591559020045  L 366.717324478178 211.091915367483  C 365.850683111954 215.443006681515  364.393149905123 218.3470155902  361.783377609108 220.374899777283  C 359.469051233397 222.698106904232  355.982789373814 224.145189309577  351.344288425047 225.02131403118  C 345.829297912713 225.887594654788  341.190796963947 227.925322939866  336.83789373814 230.534008908686  L 331.90394686907 240.97859688196  L 331.608500948767 241.273919821826  L 331.322903225807 241.273919821826  L 331.027457305503 241.273919821826  L 317.683149905124 246.786614699332  L 316.806660341556 246.786614699332  L 310.139430740038 245.339532293987  C 304.919886148008 244.463407572383  300.852580645162 243.016325167038  298.232960151803 241.273919821826  C 294.756546489564 239.531514476615  290.984686907021 239.246035634744  286.917381404175 240.397795100223  C 283.440967741936 245.329688195991  281.697836812144 251.423184855234  281.983434535105 258.087639198218  C 282.278880455408 261.562605790646  283.145521821632 263.885812917595  284.012163187856 264.466614699332  L 286.050740037951 264.181135857461  L 288.374914611006 262.734053452116  L 288.95595825427 272.017037861915  C 288.95595825427 275.196681514477  287.793870967742 277.519888641426  285.469696394687 279.262293986637  C 284.012163187856 280.423897550111  281.412239089184 281.585501113586  277.630531309298 282.737260579065  L 275.316204933587 283.318062360802  C 272.410986717268 284.479665924276  266.31495256167 292.305723830735  257.323548387097 306.520601336303  L 257.323548387097 306.815924276169  L 257.037950664137 306.815924276169  L 248.332144212524 312.043140311804  C 249.789677419355 312.043140311804  250.656318785579 312.623942093541  250.360872865275 313.785545657016  C 250.075275142315 314.94714922049  249.198785578748 315.232628062361  246.884459203036 315.527951002227  L 222.224573055028 314.94714922049  C 194.659468690702 314.071024498887  173.190398481973 321.62144766147  157.807514231499 337.283407572383  L 157.512068311195 337.568886414254  L 156.931024667932 337.854365256125  L 156.645426944972 337.854365256125  L 146.491935483871 339.015968819599  L 145.910891840607 339.30144766147  L 145.329848197344 339.30144766147  L 142.424629981025 332.341670378619  L 131.97569259962 334.950356347439  C 126.460702087286 335.23583518931  119.212428842505 333.788752783964  111.087666034156 329.723140311804  C 103.54394686907 326.533652561247  96.8668690702086 322.182561247216  90.1897912713472 316.965189309577  C 85.8368880455408 313.480378619154  80.3218975332068 311.157171492205  73.9402656546489 310.005412026726  L 64.6534155597723 309.129287305123  L 54.2044781783681 310.586213808463  C 46.6607590132827 311.737973273942  39.1170398481973 311.737973273942  32.1543643263757 311.167015590201  C 23.7440037950664 310.586213808463  13.5806641366224 308.27285077951  1.39844402277036 304.492717149221  L 0.521954459203009 306.235122494432  L 0.817400379506626 306.235122494432  L 1.1029981024668 306.235122494432  L 1.39844402277041 306.520601336303  L 1.39844402277041 306.815924276169  L 1.68404174573059 309.719933184855  L 4.30366223908924 315.232628062361  L 10.3898481973435 322.783051224945  L 10.6852941176471 323.649331848552  L 9.52320683111962 329.162026726058  L 9.52320683111962 329.457349665924  L 9.2376091081595 329.457349665924  L 5.75134724857694 334.093919821826  L 9.52320683111962 337.86420935412  C 10.9807400379508 339.311291759466  11.8375332068312 340.47289532294  11.8375332068312 341.634498886414  L 12.7140227703986 347.14719376392  L 17.066925996205 351.498285077951  L 17.066925996205 352.079086859688  L 17.6479696394688 355.849376391982  L 17.6479696394688 358.743541202673  L 20.2577419354839 360.781269487751  L 22.0008728652752 360.200467706014  L 22.2864705882353 359.32434298441  C 23.1531119544592 357.001135857461  24.6007969639469 355.839532293987  26.6393738140417 355.554053452116  L 28.9635483870967 354.687772828508  L 44.3464326375711 353.230846325167  L 50.4424667931689 350.907639198218  L 51.0235104364327 350.622160356348  L 51.8901518026566 350.04135857461  L 55.0809677419355 357.001135857461  L 55.3665654648957 357.001135857461  C 55.6620113851992 358.733697104677  55.3665654648957 360.190623608018  54.4999240986718 361.637706013363  L 46.0797153700191 373.539220489978  L 46.6607590132828 375.56710467706  L 50.4326185958256 379.337394209354  L 54.2044781783683 381.660601336303  L 54.4999240986719 381.660601336303  C 56.2430550284631 383.983808463252  57.6907400379508 385.430890868597  59.4240227703986 386.011692650334  C 61.45275142315 386.592494432071  63.4913282732449 388.334899777283  65.2344592030362 390.658106904232  L 65.5200569259963 391.52438752784  L 68.4252751423151 392.685991091314  L 69.291916508539 392.981314031181  L 69.5775142314991 392.981314031181  L 70.4540037950665 396.170801781737  L 70.7396015180266 399.360289532294  L 71.9016888045541 404.006703786192  L 79.1499620493359 405.168307349666  L 79.7310056925997 405.168307349666  L 80.0166034155598 405.463630289533  L 80.0166034155598 405.749109131403  L 80.3120493358633 406.329910913141  L 82.3506261859583 410.385679287305  L 88.1512144212524 412.413563474388  L 92.2086717267552 410.385679287305  L 91.6276280834914 408.072316258352  L 87.8557685009487 404.587505567929  L 88.4368121442125 404.006703786192  L 88.4368121442125 403.425902004455  L 91.6276280834914 397.332405345212  L 98.5903036053131 397.332405345212  L 98.8759013282732 397.627728285078  L 108.743795066414 401.102694877506  L 114.258785578748 400.236414253898  L 118.611688804554 396.170801781737  C 123.545635673624 390.077305122495  126.736451612903 387.468619153675  128.765180265655 388.925545657016  L 131.08935483871 388.630222717149  C 133.699127134725 388.630222717149  135.146812144212 388.925545657016  136.02330170778 389.211024498887  C 136.30889943074 389.791826280624  136.604345351044 390.372628062361  136.604345351044 390.953429844098  C 136.604345351044 392.105189309577  137.766432637571 394.428396436526  139.509563567362 397.617884187083  L 139.509563567362 397.903363028953  L 139.509563567362 398.19868596882  L 140.38605313093 402.254454342985  L 140.38605313093 403.130579064588  L 139.223965844402 407.76714922049  L 139.223965844402 408.062472160357  L 138.928519924099 408.347951002227  L 133.994573055029 414.146124721604  L 133.708975332068 414.431603563475  L 123.269886148008 419.068173719377  L 121.812352941177 421.972182628063  L 120.364667931689 430.379042316259  L 121.241157495256 434.444654788419  L 123.850929791271 438.79574610245  L 125.003168880455 439.662026726058  L 128.489430740038 441.985233853007  L 140.681499051233 441.985233853007  L 150.834990512334 440.538151447662  L 152.282675521822 439.081224944321  C 153.730360531309 437.338819599109  155.18789373814 436.758017817372  156.054535104364 436.758017817372  L 163.017210626186 437.919621380847  L 163.59825426945 436.758017817372  C 163.017210626186 434.73013363029  163.017210626186 432.987728285078  164.179297912714 431.245322939867  L 167.084516129032 426.313429844098  L 167.084516129032 417.030445434299  L 167.084516129032 416.735122494432  L 172.304060721063 401.653964365256  L 172.589658444023 401.368485523385  L 172.589658444023 401.073162583519  L 172.875256166983 401.073162583519  L 172.875256166983 400.787683741648  L 181.866660341556 393.532583518931  L 182.44770398482 392.951781737194  L 190.286869070209 396.436592427617  C 194.344326375712 399.330757238307  196.382903225807 401.653964365256  196.382903225807 403.110890868597  L 195.801859582543 409.489866369711  L 193.192087286528 413.555478841871  L 191.163358633776 419.363496659243  L 191.163358633776 425.742472160356  L 193.192087286528 428.646481069042  L 195.801859582543 428.351158129176  L 196.382903225807 428.065679287305  L 200.735806451613 428.351158129176  C 203.059981024668 429.51276169265  204.507666034156 431.550489977728  205.669753320683 434.444654788419  L 208.279525616698 435.310935412027  L 208.574971537002 435.310935412027  L 208.870417457305 435.310935412027  L 218.728462998102 439.957349665924  L 223.081366223909 441.40443207127  L 229.177400379507 440.538151447662  L 231.787172675522 437.053340757238  L 235.273434535104 422.838463251671  L 235.559032258064 415.002561247216  L 235.559032258064 414.421759465479  L 236.140075901328 414.136280623608  L 236.435521821632 413.840957683742  L 241.950512333966 409.20438752784  L 245.141328273245 405.138775055679  L 245.426925996205 404.853296213809  L 251.227514231499 402.234766146993  L 254.703927893738 400.206881959911  L 259.056831119544 398.464476614699  L 256.742504743833 389.762293986637  L 266.610398481973 390.923897550112  L 266.610398481973 391.209376391982  L 271.829943074003 393.237260579065  L 271.829943074003 392.941937639198  L 273.287476280835 387.439086859688  L 273.287476280835 386.562962138085  L 274.163965844402 386.848440979956  L 274.745009487666 386.848440979956  L 279.383510436432 388.01004454343  L 281.707685009487 388.01004454343  L 286.060588235294 383.078151447662  L 286.346185958254 383.078151447662  L 286.641631878558 382.782828507795  L 286.927229601518 382.782828507795  L 292.737666034155 381.621224944321  L 297.671612903225 376.974810690423  L 300.281385199241 373.204521158129  L 300.281385199241 368.567951002227  C 300.281385199241 366.825545657016  301.148026565464 365.663942093541  302.891157495256 364.797661469933  L 303.472201138519 364.797661469933  L 303.75779886148 364.797661469933  L 309.272789373814 365.378463251671  L 311.587115749525 363.931380846325  L 312.463605313093 359.865768374165  L 318.264193548387 358.123363028953  L 318.55963946869 358.123363028953  L 318.84523719165 358.123363028953  L 326.103358633775 358.999487750557  L 331.90394686907 357.542561247216  L 335.380360531309 354.067594654789  L 337.704535104364 349.421180400891  L 333.351631878557 344.784610244989  L 333.351631878557 344.499131403118  L 332.484990512333 341.014320712695  L 331.322903225806 335.796948775056  L 331.322903225806 335.511469933185  L 333.932675521821 330.874899777283  C 333.932675521821 329.427817371938  334.799316888045 327.39008908686  337.1234914611 325.076726057907  L 340.314307400379 318.697750556793  L 340.314307400379 318.402427616927  L 340.609753320683 318.402427616927  L 343.514971537001 313.756013363029  L 347.867874762808 305.053830734967  L 351.925332068311 310.852004454343  L 352.210929791271 311.147327394209  L 352.210929791271 311.43280623608  L 353.668462998102 317.240824053452  L 353.668462998102 317.526302895323  L 354.535104364326 323.334320712695  L 358.602409867172 325.076726057907  L 358.888007590132 325.076726057907  L 360.05009487666 325.657527839644  L 360.345540796963 325.362204899777  L 363.821954459202 319.27855233853  L 365.860531309297 313.480378619154  L 366.727172675521 313.765857461025  L 367.603662239088 314.051336302895  L 376.014022770398 316.955345211581  L 380.071480075901 313.765857461025  L 380.366925996204 313.480378619154  L 380.947969639468 313.480378619154  L 385.015275142314 313.185055679287  L 387.91064516129 308.253162583519  L 387.91064516129 302.159665924276  L 389.949222011385 292.876681514477  L 390.530265654648 293.172004454343  L 391.406755218216 293.172004454343  L 397.788387096774 294.619086859688  L 400.683757115749 289.401714922049  L 400.979203036053 289.401714922049  L 401.560246679316 289.401714922049  L 407.370683111954 288.820913140312  L 408.237324478178 288.820913140312  L 408.237324478178 289.106391982183  L 408.818368121442 289.391870824054  L 411.72358633776 293.447639198218  L 411.72358633776 293.742962138085  L 412.019032258064 294.028440979956  L 412.019032258064 294.609242761693  L 412.590227703984 300.417260579065  L 415.495445920303 303.025946547884  L 419.552903225806 299.25565701559  L 420.429392789373 300.417260579065  C 421.886925996204 301.86434298441  422.458121442125 303.321269487751  422.458121442125 305.053830734967  L 422.458121442125 310.271202672606  L 420.429392789373 315.498418708241  L 421.886925996204 317.821625835189  L 424.78229601518 321.011113585746  L 436.964516129032 322.753518930958  L 437.259962049335 323.038997772829  L 437.841005692599 323.334320712695  L 438.707647058823 324.200601336303  L 442.193908918406 319.268708240535  L 442.489354838709 319.268708240535  L 445.394573055028 316.364699331849  L 444.232485768501 312.013608017818  L 441.041669829222 293.447639198218  L 449.452030360531 297.513251670379  L 449.737628083491 297.513251670379  L 450.023225806451 297.513251670379  L 453.795085388994 302.149821826281  L 456.119259962049 304.463184855234  L 459.605521821631 302.149821826281  L 471.787741935483 288.811069042316  L 472.083187855787 288.811069042316  L 476.436091081593 285.611737193764  L 481.370037950664 278.651959910913  L 481.665483870967 278.071158129176  L 488.332713472485 279.813563474388  L 491.533377609108 279.813563474388  C 491.533377609108 277.204877505568  492.114421252371 275.462472160357  492.400018975331 274.300868596882  L 497.333965844402 268.502694877506  L 498.791499051233 267.626570155902  L 504.592087286527 269.654454342985  L 511.554762808349 268.788173719377  L 516.203111954459 263.856280623608  L 518.51743833017 259.505189309577  L 517.069753320682 257.181982182628  L 513.01229601518 259.219710467706  L 512.726698292219 258.934231625835  L 512.431252371916 258.638908685969  L 507.211707779886 254.002338530067  L 506.926110056925 253.707015590201  L 508.96468690702 245.871113585746  L 509.535882352941 240.07293986637  L 508.088197343453 235.141046770601  L 504.03074003795 233.693964365256  L 504.03074003795 233.39864142539  L 503.735294117647 233.103318485524  L 503.449696394687 232.817839643653  L 499.963434535104 225.848218262806  L 499.38239089184 224.981937639198  L 494.44844402277 230.78995545657  L 489.5144971537 233.979443207127  L 488.352409867172 234.560244988864  L 488.066812144212 234.274766146993  L 487.771366223909 233.693964365256  L 482.551821631878 228.762071269488  L 482.551821631878 228.476592427617  L 478.779962049336 220.355211581292  L 478.779962049336 220.069732739421  L 477.036831119544 214.271559020045  L 477.036831119544 213.986080178174  L 477.036831119544 205.283897550112  L 476.455787476281 200.066525612472  L 472.388481973434 198.609599109132  L 472.102884250474 198.609599109132  L 472.102884250474 198.324120267261  L 462.816034155598 191.069020044544  L 463.387229601518 190.19289532294  L 467.740132827324 185.556325167038  L 467.740132827324 185.261002227172  L 467.740132827324 184.975523385301  L 468.321176470588 184.975523385301  L 473.255123339658 184.394721603564  L 473.550569259962 184.394721603564  C 474.998254269449 184.394721603564  476.455787476281 185.261002227172  477.608026565465 186.717928730512  L 481.665483870968 189.907416481069  L 486.018387096774 186.432449888642  L 489.209203036053 182.08135857461  L 489.209203036053 178.311069042316  L 488.047115749525 169.028084632517  L 487.180474383302 165.257795100223  L 480.7889943074 164.096191536749  L 480.7889943074 160.325902004455  L 474.988406072106 153.080645879733  L 474.702808349146 152.785322939867  L 471.797590132827 147.567951002227  L 471.216546489563 146.98714922049  L 471.216546489563 146.406347438753  L 477.598178368121 137.989643652561  L 477.598178368121 137.704164810691  L 477.883776091081 137.408841870824  L 477.883776091081 137.113518930958  L 478.464819734345 137.113518930958  L 481.07459203036 136.828040089087  L 484.265407969639 134.219354120267  L 488.037267552182 122.613162583519  L 488.322865275142 122.613162583519  L 488.322865275142 122.317839643653  L 492.971214421252 117.100467706013  L 492.971214421252 116.814988864143  L 493.256812144212 116.814988864143  L 493.542409867172 116.814988864143  L 498.771802656546 115.358062360802  L 498.771802656546 115.938864142539  L 502.248216318785 118.842873051225  L 503.410303605313 119.138195991091  L 505.439032258064 110.140690423163  L 503.410303605313 103.761714922049  L 503.124705882353 103.466391982183  L 503.124705882353 102.885590200446  L 503.991347248577 95.6304899777284  L 503.991347248577 95.0496881959912  L 507.477609108159 91.2793986636972  L 509.801783681214 87.2236302895324  L 510.087381404174 83.7388195991092  C 510.087381404174 81.9964142538976  509.22074003795 79.1022494432072  507.477609108159 74.751158129176  L 507.477609108159 67.7913808463253  L 507.477609108159 67.4960579064589  L 508.93514231499 61.4025612472161  C 507.773055028463 58.7938752783965  506.896565464895 56.7659910913141  506.896565464895 55.3090645879734  Z " fill-rule="nonzero" fill="#20dbea" stroke="none" fill-opacity="0.4" transform="matrix(1 0 0 1 859 76 )" />
    <path d="M 506.896565464895 55.3090645879734  L 508.029108159393 47.1975278396437  L 506.000379506641 40.8087082405346  L 500.770986717268 31.8210467706014  L 496.418083491461 29.4978396436526  L 492.065180265655 31.8210467706014  L 489.45540796964 37.0384187082406  L 489.159962049336 37.6192204899778  L 488.578918406072 37.6192204899778  L 488.283472485769 37.6192204899778  L 480.168557874763 39.066302895323  C 479.292068311196 39.6471046770602  478.425426944972 39.9424276169266  477.844383301708 40.8087082405346  L 476.101252371917 42.836592427617  L 471.74834914611 46.3115590200446  L 470.586261859583 46.8923608017818  L 466.824250474383 47.4830066815145  C 465.081119544592 47.1975278396437  462.471347248577 45.7406013363029  458.994933586338 43.1319153674833  L 458.699487666034 42.8464365256125  C 452.89889943074 37.0482628062361  449.993681214421 32.9826503340758  449.993681214421 30.6692873051225  L 449.993681214421 23.1287082405346  L 449.993681214421 22.8432293986638  L 449.993681214421 22.5577505567929  L 450.870170777989 21.1008240534522  L 442.459810246679 18.2066592427618  L 442.164364326376 21.1008240534522  C 442.164364326376 21.9671046770602  441.297722960152 23.1287082405346  439.840189753321 24.0048329621381  L 436.934971537002 25.1664365256125  L 435.782732447818 24.8809576837417  L 435.782732447818 24.5856347438753  L 431.429829222011 23.7193541202673  L 432.306318785579 26.9088418708241  L 424.762599620493 21.9769487750557  L 424.457305502846 21.9769487750557  L 424.171707779886 21.6816258351894  C 423.009620493359 18.4921380846326  422.428576850095 15.3026503340758  422.428576850095 11.8276837416482  C 422.428576850095 8.92367483296221  422.724022770399 7.18126948775063  423.876261859583 6.01966592427624  L 425.619392789374 2.83017817371945  L 425.03834914611 0.221492204899852  L 417.484781783681 1.38309576837424  C 413.712922201139 1.66857461024506  411.103149905123 3.99178173719384  409.655464895636 8.34287305122502  L 409.655464895636 8.63819599109139  L 405.302561669829 15.3124944320713  L 409.655464895636 15.017171492205  L 409.950910815939 15.017171492205  L 410.236508538899 14.7316926503342  L 410.531954459203 15.3124944320713  L 414.008368121442 16.7595768374166  L 414.589411764706 16.7595768374166  L 415.160607210626 17.0548997772829  L 415.160607210626 17.9211804008909  L 415.74165085389 24.0146770601337  L 417.484781783681 29.8226948775056  L 417.484781783681 30.1081737193765  L 417.484781783681 30.3936525612473  L 417.484781783681 30.6889755011137  L 407.912333965844 49.5404231625836  C 406.179051233397 52.1491091314032  405.302561669829 59.108886414254  404.721518026565 69.5534743875279  L 404.721518026565 70.4197550111359  L 400.949658444023 77.6748552338531  L 403.559430740038 80.578864142539  L 403.559430740038 81.1596659242763  C 403.854876660341 85.5107572383074  403.559430740038 88.119443207127  402.39734345351 88.7002449888642  L 401.530702087286 88.9857238307351  C 399.501973434535 90.1473273942094  392.824895635674 97.1071046770602  382.090360531309 110.160378619154  L 381.223719165085 111.036503340757  L 380.642675521822 110.751024498886  L 379.776034155598 110.170222717149  C 376.004174573055 107.56153674833  372.527760910816 105.238329621381  370.489184060721 102.915122494432  C 368.74605313093 101.753518930958  364.393149905123 100.88723830735  357.144876660342 100.88723830735  L 356.859278937381 114.225991091314  L 356.563833017078 114.511469933185  L 351.344288425048 139.741893095768  C 350.18220113852 142.931380846325  349.886755218216 148.739398663697  349.886755218216 157.431737193764  L 351.915483870968 160.040423162584  L 353.658614800759 156.565456570156  L 353.954060721063 156.565456570156  L 354.239658444023 155.984654788419  L 360.916736242884 152.509688195991  L 379.480588235294 155.403853006682  L 381.519165085389 153.090489977728  L 384.128937381404 148.444075723831  L 384.709981024668 148.15859688196  L 385.005426944971 147.863273942094  L 392.263548387097 146.416191536748  L 401.835996204934 145.835389755011  C 404.741214421252 146.416191536748  408.217628083491 150.186481069042  412.570531309298 155.984654788419  C 424.18155597723 161.782828507795  430.563187855787 167.01004454343  432.010872865275 171.646614699332  C 432.877514231499 173.969821826281  432.877514231499 175.712227171492  432.010872865275 177.740111358575  C 431.144231499051 179.767995545657  429.1155028463 180.929599109131  426.210284629981 181.215077951002  L 425.914838709677 181.215077951002  C 411.703889943074 180.634276169265  403.569278937381 180.634276169265  400.664060721063 181.510400890869  L 393.701385199241 186.146971046771  C 384.995578747628 192.525946547884  379.194990512334 195.715434298441  376.004174573055 195.715434298441  L 370.203586337761 196.591559020045  L 366.717324478178 211.091915367483  C 365.850683111954 215.443006681515  364.393149905123 218.3470155902  361.783377609108 220.374899777283  C 359.469051233397 222.698106904232  355.982789373814 224.145189309577  351.344288425047 225.02131403118  C 345.829297912713 225.887594654788  341.190796963947 227.925322939866  336.83789373814 230.534008908686  L 331.90394686907 240.97859688196  L 331.608500948767 241.273919821826  L 331.322903225807 241.273919821826  L 331.027457305503 241.273919821826  L 317.683149905124 246.786614699332  L 316.806660341556 246.786614699332  L 310.139430740038 245.339532293987  C 304.919886148008 244.463407572383  300.852580645162 243.016325167038  298.232960151803 241.273919821826  C 294.756546489564 239.531514476615  290.984686907021 239.246035634744  286.917381404175 240.397795100223  C 283.440967741936 245.329688195991  281.697836812144 251.423184855234  281.983434535105 258.087639198218  C 282.278880455408 261.562605790646  283.145521821632 263.885812917595  284.012163187856 264.466614699332  L 286.050740037951 264.181135857461  L 288.374914611006 262.734053452116  L 288.95595825427 272.017037861915  C 288.95595825427 275.196681514477  287.793870967742 277.519888641426  285.469696394687 279.262293986637  C 284.012163187856 280.423897550111  281.412239089184 281.585501113586  277.630531309298 282.737260579065  L 275.316204933587 283.318062360802  C 272.410986717268 284.479665924276  266.31495256167 292.305723830735  257.323548387097 306.520601336303  L 257.323548387097 306.815924276169  L 257.037950664137 306.815924276169  L 248.332144212524 312.043140311804  C 249.789677419355 312.043140311804  250.656318785579 312.623942093541  250.360872865275 313.785545657016  C 250.075275142315 314.94714922049  249.198785578748 315.232628062361  246.884459203036 315.527951002227  L 222.224573055028 314.94714922049  C 194.659468690702 314.071024498887  173.190398481973 321.62144766147  157.807514231499 337.283407572383  L 157.512068311195 337.568886414254  L 156.931024667932 337.854365256125  L 156.645426944972 337.854365256125  L 146.491935483871 339.015968819599  L 145.910891840607 339.30144766147  L 145.329848197344 339.30144766147  L 142.424629981025 332.341670378619  L 131.97569259962 334.950356347439  C 126.460702087286 335.23583518931  119.212428842505 333.788752783964  111.087666034156 329.723140311804  C 103.54394686907 326.533652561247  96.8668690702086 322.182561247216  90.1897912713472 316.965189309577  C 85.8368880455408 313.480378619154  80.3218975332068 311.157171492205  73.9402656546489 310.005412026726  L 64.6534155597723 309.129287305123  L 54.2044781783681 310.586213808463  C 46.6607590132827 311.737973273942  39.1170398481973 311.737973273942  32.1543643263757 311.167015590201  C 23.7440037950664 310.586213808463  13.5806641366224 308.27285077951  1.39844402277036 304.492717149221  L 0.521954459203009 306.235122494432  L 0.817400379506626 306.235122494432  L 1.1029981024668 306.235122494432  L 1.39844402277041 306.520601336303  L 1.39844402277041 306.815924276169  L 1.68404174573059 309.719933184855  L 4.30366223908924 315.232628062361  L 10.3898481973435 322.783051224945  L 10.6852941176471 323.649331848552  L 9.52320683111962 329.162026726058  L 9.52320683111962 329.457349665924  L 9.2376091081595 329.457349665924  L 5.75134724857694 334.093919821826  L 9.52320683111962 337.86420935412  C 10.9807400379508 339.311291759466  11.8375332068312 340.47289532294  11.8375332068312 341.634498886414  L 12.7140227703986 347.14719376392  L 17.066925996205 351.498285077951  L 17.066925996205 352.079086859688  L 17.6479696394688 355.849376391982  L 17.6479696394688 358.743541202673  L 20.2577419354839 360.781269487751  L 22.0008728652752 360.200467706014  L 22.2864705882353 359.32434298441  C 23.1531119544592 357.001135857461  24.6007969639469 355.839532293987  26.6393738140417 355.554053452116  L 28.9635483870967 354.687772828508  L 44.3464326375711 353.230846325167  L 50.4424667931689 350.907639198218  L 51.0235104364327 350.622160356348  L 51.8901518026566 350.04135857461  L 55.0809677419355 357.001135857461  L 55.3665654648957 357.001135857461  C 55.6620113851992 358.733697104677  55.3665654648957 360.190623608018  54.4999240986718 361.637706013363  L 46.0797153700191 373.539220489978  L 46.6607590132828 375.56710467706  L 50.4326185958256 379.337394209354  L 54.2044781783683 381.660601336303  L 54.4999240986719 381.660601336303  C 56.2430550284631 383.983808463252  57.6907400379508 385.430890868597  59.4240227703986 386.011692650334  C 61.45275142315 386.592494432071  63.4913282732449 388.334899777283  65.2344592030362 390.658106904232  L 65.5200569259963 391.52438752784  L 68.4252751423151 392.685991091314  L 69.291916508539 392.981314031181  L 69.5775142314991 392.981314031181  L 70.4540037950665 396.170801781737  L 70.7396015180266 399.360289532294  L 71.9016888045541 404.006703786192  L 79.1499620493359 405.168307349666  L 79.7310056925997 405.168307349666  L 80.0166034155598 405.463630289533  L 80.0166034155598 405.749109131403  L 80.3120493358633 406.329910913141  L 82.3506261859583 410.385679287305  L 88.1512144212524 412.413563474388  L 92.2086717267552 410.385679287305  L 91.6276280834914 408.072316258352  L 87.8557685009487 404.587505567929  L 88.4368121442125 404.006703786192  L 88.4368121442125 403.425902004455  L 91.6276280834914 397.332405345212  L 98.5903036053131 397.332405345212  L 98.8759013282732 397.627728285078  L 108.743795066414 401.102694877506  L 114.258785578748 400.236414253898  L 118.611688804554 396.170801781737  C 123.545635673624 390.077305122495  126.736451612903 387.468619153675  128.765180265655 388.925545657016  L 131.08935483871 388.630222717149  C 133.699127134725 388.630222717149  135.146812144212 388.925545657016  136.02330170778 389.211024498887  C 136.30889943074 389.791826280624  136.604345351044 390.372628062361  136.604345351044 390.953429844098  C 136.604345351044 392.105189309577  137.766432637571 394.428396436526  139.509563567362 397.617884187083  L 139.509563567362 397.903363028953  L 139.509563567362 398.19868596882  L 140.38605313093 402.254454342985  L 140.38605313093 403.130579064588  L 139.223965844402 407.76714922049  L 139.223965844402 408.062472160357  L 138.928519924099 408.347951002227  L 133.994573055029 414.146124721604  L 133.708975332068 414.431603563475  L 123.269886148008 419.068173719377  L 121.812352941177 421.972182628063  L 120.364667931689 430.379042316259  L 121.241157495256 434.444654788419  L 123.850929791271 438.79574610245  L 125.003168880455 439.662026726058  L 128.489430740038 441.985233853007  L 140.681499051233 441.985233853007  L 150.834990512334 440.538151447662  L 152.282675521822 439.081224944321  C 153.730360531309 437.338819599109  155.18789373814 436.758017817372  156.054535104364 436.758017817372  L 163.017210626186 437.919621380847  L 163.59825426945 436.758017817372  C 163.017210626186 434.73013363029  163.017210626186 432.987728285078  164.179297912714 431.245322939867  L 167.084516129032 426.313429844098  L 167.084516129032 417.030445434299  L 167.084516129032 416.735122494432  L 172.304060721063 401.653964365256  L 172.589658444023 401.368485523385  L 172.589658444023 401.073162583519  L 172.875256166983 401.073162583519  L 172.875256166983 400.787683741648  L 181.866660341556 393.532583518931  L 182.44770398482 392.951781737194  L 190.286869070209 396.436592427617  C 194.344326375712 399.330757238307  196.382903225807 401.653964365256  196.382903225807 403.110890868597  L 195.801859582543 409.489866369711  L 193.192087286528 413.555478841871  L 191.163358633776 419.363496659243  L 191.163358633776 425.742472160356  L 193.192087286528 428.646481069042  L 195.801859582543 428.351158129176  L 196.382903225807 428.065679287305  L 200.735806451613 428.351158129176  C 203.059981024668 429.51276169265  204.507666034156 431.550489977728  205.669753320683 434.444654788419  L 208.279525616698 435.310935412027  L 208.574971537002 435.310935412027  L 208.870417457305 435.310935412027  L 218.728462998102 439.957349665924  L 223.081366223909 441.40443207127  L 229.177400379507 440.538151447662  L 231.787172675522 437.053340757238  L 235.273434535104 422.838463251671  L 235.559032258064 415.002561247216  L 235.559032258064 414.421759465479  L 236.140075901328 414.136280623608  L 236.435521821632 413.840957683742  L 241.950512333966 409.20438752784  L 245.141328273245 405.138775055679  L 245.426925996205 404.853296213809  L 251.227514231499 402.234766146993  L 254.703927893738 400.206881959911  L 259.056831119544 398.464476614699  L 256.742504743833 389.762293986637  L 266.610398481973 390.923897550112  L 266.610398481973 391.209376391982  L 271.829943074003 393.237260579065  L 271.829943074003 392.941937639198  L 273.287476280835 387.439086859688  L 273.287476280835 386.562962138085  L 274.163965844402 386.848440979956  L 274.745009487666 386.848440979956  L 279.383510436432 388.01004454343  L 281.707685009487 388.01004454343  L 286.060588235294 383.078151447662  L 286.346185958254 383.078151447662  L 286.641631878558 382.782828507795  L 286.927229601518 382.782828507795  L 292.737666034155 381.621224944321  L 297.671612903225 376.974810690423  L 300.281385199241 373.204521158129  L 300.281385199241 368.567951002227  C 300.281385199241 366.825545657016  301.148026565464 365.663942093541  302.891157495256 364.797661469933  L 303.472201138519 364.797661469933  L 303.75779886148 364.797661469933  L 309.272789373814 365.378463251671  L 311.587115749525 363.931380846325  L 312.463605313093 359.865768374165  L 318.264193548387 358.123363028953  L 318.55963946869 358.123363028953  L 318.84523719165 358.123363028953  L 326.103358633775 358.999487750557  L 331.90394686907 357.542561247216  L 335.380360531309 354.067594654789  L 337.704535104364 349.421180400891  L 333.351631878557 344.784610244989  L 333.351631878557 344.499131403118  L 332.484990512333 341.014320712695  L 331.322903225806 335.796948775056  L 331.322903225806 335.511469933185  L 333.932675521821 330.874899777283  C 333.932675521821 329.427817371938  334.799316888045 327.39008908686  337.1234914611 325.076726057907  L 340.314307400379 318.697750556793  L 340.314307400379 318.402427616927  L 340.609753320683 318.402427616927  L 343.514971537001 313.756013363029  L 347.867874762808 305.053830734967  L 351.925332068311 310.852004454343  L 352.210929791271 311.147327394209  L 352.210929791271 311.43280623608  L 353.668462998102 317.240824053452  L 353.668462998102 317.526302895323  L 354.535104364326 323.334320712695  L 358.602409867172 325.076726057907  L 358.888007590132 325.076726057907  L 360.05009487666 325.657527839644  L 360.345540796963 325.362204899777  L 363.821954459202 319.27855233853  L 365.860531309297 313.480378619154  L 366.727172675521 313.765857461025  L 367.603662239088 314.051336302895  L 376.014022770398 316.955345211581  L 380.071480075901 313.765857461025  L 380.366925996204 313.480378619154  L 380.947969639468 313.480378619154  L 385.015275142314 313.185055679287  L 387.91064516129 308.253162583519  L 387.91064516129 302.159665924276  L 389.949222011385 292.876681514477  L 390.530265654648 293.172004454343  L 391.406755218216 293.172004454343  L 397.788387096774 294.619086859688  L 400.683757115749 289.401714922049  L 400.979203036053 289.401714922049  L 401.560246679316 289.401714922049  L 407.370683111954 288.820913140312  L 408.237324478178 288.820913140312  L 408.237324478178 289.106391982183  L 408.818368121442 289.391870824054  L 411.72358633776 293.447639198218  L 411.72358633776 293.742962138085  L 412.019032258064 294.028440979956  L 412.019032258064 294.609242761693  L 412.590227703984 300.417260579065  L 415.495445920303 303.025946547884  L 419.552903225806 299.25565701559  L 420.429392789373 300.417260579065  C 421.886925996204 301.86434298441  422.458121442125 303.321269487751  422.458121442125 305.053830734967  L 422.458121442125 310.271202672606  L 420.429392789373 315.498418708241  L 421.886925996204 317.821625835189  L 424.78229601518 321.011113585746  L 436.964516129032 322.753518930958  L 437.259962049335 323.038997772829  L 437.841005692599 323.334320712695  L 438.707647058823 324.200601336303  L 442.193908918406 319.268708240535  L 442.489354838709 319.268708240535  L 445.394573055028 316.364699331849  L 444.232485768501 312.013608017818  L 441.041669829222 293.447639198218  L 449.452030360531 297.513251670379  L 449.737628083491 297.513251670379  L 450.023225806451 297.513251670379  L 453.795085388994 302.149821826281  L 456.119259962049 304.463184855234  L 459.605521821631 302.149821826281  L 471.787741935483 288.811069042316  L 472.083187855787 288.811069042316  L 476.436091081593 285.611737193764  L 481.370037950664 278.651959910913  L 481.665483870967 278.071158129176  L 488.332713472485 279.813563474388  L 491.533377609108 279.813563474388  C 491.533377609108 277.204877505568  492.114421252371 275.462472160357  492.400018975331 274.300868596882  L 497.333965844402 268.502694877506  L 498.791499051233 267.626570155902  L 504.592087286527 269.654454342985  L 511.554762808349 268.788173719377  L 516.203111954459 263.856280623608  L 518.51743833017 259.505189309577  L 517.069753320682 257.181982182628  L 513.01229601518 259.219710467706  L 512.726698292219 258.934231625835  L 512.431252371916 258.638908685969  L 507.211707779886 254.002338530067  L 506.926110056925 253.707015590201  L 508.96468690702 245.871113585746  L 509.535882352941 240.07293986637  L 508.088197343453 235.141046770601  L 504.03074003795 233.693964365256  L 504.03074003795 233.39864142539  L 503.735294117647 233.103318485524  L 503.449696394687 232.817839643653  L 499.963434535104 225.848218262806  L 499.38239089184 224.981937639198  L 494.44844402277 230.78995545657  L 489.5144971537 233.979443207127  L 488.352409867172 234.560244988864  L 488.066812144212 234.274766146993  L 487.771366223909 233.693964365256  L 482.551821631878 228.762071269488  L 482.551821631878 228.476592427617  L 478.779962049336 220.355211581292  L 478.779962049336 220.069732739421  L 477.036831119544 214.271559020045  L 477.036831119544 213.986080178174  L 477.036831119544 205.283897550112  L 476.455787476281 200.066525612472  L 472.388481973434 198.609599109132  L 472.102884250474 198.609599109132  L 472.102884250474 198.324120267261  L 462.816034155598 191.069020044544  L 463.387229601518 190.19289532294  L 467.740132827324 185.556325167038  L 467.740132827324 185.261002227172  L 467.740132827324 184.975523385301  L 468.321176470588 184.975523385301  L 473.255123339658 184.394721603564  L 473.550569259962 184.394721603564  C 474.998254269449 184.394721603564  476.455787476281 185.261002227172  477.608026565465 186.717928730512  L 481.665483870968 189.907416481069  L 486.018387096774 186.432449888642  L 489.209203036053 182.08135857461  L 489.209203036053 178.311069042316  L 488.047115749525 169.028084632517  L 487.180474383302 165.257795100223  L 480.7889943074 164.096191536749  L 480.7889943074 160.325902004455  L 474.988406072106 153.080645879733  L 474.702808349146 152.785322939867  L 471.797590132827 147.567951002227  L 471.216546489563 146.98714922049  L 471.216546489563 146.406347438753  L 477.598178368121 137.989643652561  L 477.598178368121 137.704164810691  L 477.883776091081 137.408841870824  L 477.883776091081 137.113518930958  L 478.464819734345 137.113518930958  L 481.07459203036 136.828040089087  L 484.265407969639 134.219354120267  L 488.037267552182 122.613162583519  L 488.322865275142 122.613162583519  L 488.322865275142 122.317839643653  L 492.971214421252 117.100467706013  L 492.971214421252 116.814988864143  L 493.256812144212 116.814988864143  L 493.542409867172 116.814988864143  L 498.771802656546 115.358062360802  L 498.771802656546 115.938864142539  L 502.248216318785 118.842873051225  L 503.410303605313 119.138195991091  L 505.439032258064 110.140690423163  L 503.410303605313 103.761714922049  L 503.124705882353 103.466391982183  L 503.124705882353 102.885590200446  L 503.991347248577 95.6304899777284  L 503.991347248577 95.0496881959912  L 507.477609108159 91.2793986636972  L 509.801783681214 87.2236302895324  L 510.087381404174 83.7388195991092  C 510.087381404174 81.9964142538976  509.22074003795 79.1022494432072  507.477609108159 74.751158129176  L 507.477609108159 67.7913808463253  L 507.477609108159 67.4960579064589  L 508.93514231499 61.4025612472161  C 507.773055028463 58.7938752783965  506.896565464895 56.7659910913141  506.896565464895 55.3090645879734  Z " stroke-width="2" stroke="#797979" fill="none" transform="matrix(1 0 0 1 859 76 )" mask="url(#clip12)" />
  </g>
</svg>