<?xml version="1.0" encoding="utf-8"?>
<svg version="1.1" xmlns:xlink="http://www.w3.org/1999/xlink" width="98px" height="126px" xmlns="http://www.w3.org/2000/svg">
  <defs>
    <mask fill="white" id="clip67">
      <path d="M 0 125.04222972973  L 98 125.04222972973  L 98 1  L 61.9242476255869 1  L 0 0.530216828569518  L 0 125.04222972973  Z M 86.1130564137771 11.444991232221  L 89.1991198085564 3.00101351351394  L 95 3.00101351351394  L 95 123  L 3 123  L 3 3.46804388064699  L 9.96933287561516 16.3745654382499  L 21.5086394324288 16.5339052105656  L 43.3761299919901 10.4789938625545  L 58.8627989472483 3  L 78.7974037072689 3  L 84.8795056642636 11.753712041083  L 86.1130564137771 11.444991232221  Z M 78.8505747126433 40.0135135135134  L 78.8505747126433 49.0165540540541  L 81.1034482758625 49.0165540540541  L 81.1034482758625 40.0135135135134  L 78.8505747126433 40.0135135135134  Z M 75.6727314338031 69.5442557129741  L 80.685433115917 63.0810361984026  L 78.4089712781789 62.8619440114679  L 72.8692070030893 69.5940493918226  L 75.6727314338031 69.5442557129741  Z M 81.4704199565168 31.561637487127  L 85.0589312278294 25.4270562529575  L 83.5338139375221 25.3473863667997  L 79.1603158256094 31.1732467921065  L 81.4704199565168 31.561637487127  Z M 22.1478430026324 22.3697243716424  L 17.8864858679475 32.577428535642  L 24.7158713811649 30.2470843655186  L 29.4370065224848 21.7024890750691  L 22.1478430026324 22.3697243716424  Z M 91.0921158027227 18.8244144376097  L 94.6806270740364 11.9628454922479  L 93.155509783728 11.0366830656613  L 87.3802494564594 18.7049096083726  L 91.0921158027227 18.8244144376097  Z M 26.2409886714733 64.2362495476934  L 19.2658198878584 72.4721240292815  L 21.6095663119352 72.5219177081307  L 28.2707403593096 64.6246402427138  L 26.2409886714733 64.2362495476934  Z M 24.6934431857188 52.6144049043896  L 21.0152191326237 44.5378701951178  L 18.7163290994396 44.1893144431766  L 22.7421901819434 52.6144049043896  L 24.6934431857188 52.6144049043896  Z M 13.7148415150479 95.4469274501071  L 13.2887058015794 87.0616719319734  L 11.4944501659225 87.4401038912239  L 11.9205858793916 95.8353181451282  L 13.7148415150479 95.4469274501071  Z M 55.9807758324747 96.3033787263064  L 58.5263760155628 96.1042040109109  L 67.4527978029517 84.7711627049292  L 65.2548346492731 84.8010389122383  L 55.9807758324747 96.3033787263064  Z M 37.4214441011559 111.351028474407  L 46.8749284815195 108.243902914243  L 45.0358164549723 107.457162788433  L 35.5823320746081 110.564288348596  L 37.4214441011559 111.351028474407  Z " fill-rule="evenodd" />
    </mask>
  </defs>
  <g transform="matrix(1 0 0 1 -1448 -915 )">
    <path d="M 0 125.04222972973  L 98 125.04222972973  L 98 1  L 61.9242476255869 1  L 0 0.530216828569518  L 0 125.04222972973  Z M 86.1130564137771 11.444991232221  L 89.1991198085564 3.00101351351394  L 95 3.00101351351394  L 95 123  L 3 123  L 3 3.46804388064699  L 9.96933287561516 16.3745654382499  L 21.5086394324288 16.5339052105656  L 43.3761299919901 10.4789938625545  L 58.8627989472483 3  L 78.7974037072689 3  L 84.8795056642636 11.753712041083  L 86.1130564137771 11.444991232221  Z M 78.8505747126433 40.0135135135134  L 78.8505747126433 49.0165540540541  L 81.1034482758625 49.0165540540541  L 81.1034482758625 40.0135135135134  L 78.8505747126433 40.0135135135134  Z M 75.6727314338031 69.5442557129741  L 80.685433115917 63.0810361984026  L 78.4089712781789 62.8619440114679  L 72.8692070030893 69.5940493918226  L 75.6727314338031 69.5442557129741  Z M 81.4704199565168 31.561637487127  L 85.0589312278294 25.4270562529575  L 83.5338139375221 25.3473863667997  L 79.1603158256094 31.1732467921065  L 81.4704199565168 31.561637487127  Z M 22.1478430026324 22.3697243716424  L 17.8864858679475 32.577428535642  L 24.7158713811649 30.2470843655186  L 29.4370065224848 21.7024890750691  L 22.1478430026324 22.3697243716424  Z M 91.0921158027227 18.8244144376097  L 94.6806270740364 11.9628454922479  L 93.155509783728 11.0366830656613  L 87.3802494564594 18.7049096083726  L 91.0921158027227 18.8244144376097  Z M 26.2409886714733 64.2362495476934  L 19.2658198878584 72.4721240292815  L 21.6095663119352 72.5219177081307  L 28.2707403593096 64.6246402427138  L 26.2409886714733 64.2362495476934  Z M 24.6934431857188 52.6144049043896  L 21.0152191326237 44.5378701951178  L 18.7163290994396 44.1893144431766  L 22.7421901819434 52.6144049043896  L 24.6934431857188 52.6144049043896  Z M 13.7148415150479 95.4469274501071  L 13.2887058015794 87.0616719319734  L 11.4944501659225 87.4401038912239  L 11.9205858793916 95.8353181451282  L 13.7148415150479 95.4469274501071  Z M 55.9807758324747 96.3033787263064  L 58.5263760155628 96.1042040109109  L 67.4527978029517 84.7711627049292  L 65.2548346492731 84.8010389122383  L 55.9807758324747 96.3033787263064  Z M 37.4214441011559 111.351028474407  L 46.8749284815195 108.243902914243  L 45.0358164549723 107.457162788433  L 35.5823320746081 110.564288348596  L 37.4214441011559 111.351028474407  Z " fill-rule="nonzero" fill="#1dedd3" stroke="none" transform="matrix(1 0 0 1 1448 915 )" />
    <path d="M 0 125.04222972973  L 98 125.04222972973  L 98 1  L 61.9242476255869 1  L 0 0.530216828569518  L 0 125.04222972973  Z " stroke-width="2" stroke="#797979" fill="none" transform="matrix(1 0 0 1 1448 915 )" mask="url(#clip67)" />
    <path d="M 86.1130564137771 11.444991232221  L 89.1991198085564 3.00101351351394  L 95 3.00101351351394  L 95 123  L 3 123  L 3 3.46804388064699  L 9.96933287561516 16.3745654382499  L 21.5086394324288 16.5339052105656  L 43.3761299919901 10.4789938625545  L 58.8627989472483 3  L 78.7974037072689 3  L 84.8795056642636 11.753712041083  L 86.1130564137771 11.444991232221  Z " stroke-width="2" stroke="#797979" fill="none" transform="matrix(1 0 0 1 1448 915 )" mask="url(#clip67)" />
    <path d="M 78.8505747126433 40.0135135135134  L 78.8505747126433 49.0165540540541  L 81.1034482758625 49.0165540540541  L 81.1034482758625 40.0135135135134  L 78.8505747126433 40.0135135135134  Z " stroke-width="2" stroke="#797979" fill="none" transform="matrix(1 0 0 1 1448 915 )" mask="url(#clip67)" />
    <path d="M 75.6727314338031 69.5442557129741  L 80.685433115917 63.0810361984026  L 78.4089712781789 62.8619440114679  L 72.8692070030893 69.5940493918226  L 75.6727314338031 69.5442557129741  Z " stroke-width="2" stroke="#797979" fill="none" transform="matrix(1 0 0 1 1448 915 )" mask="url(#clip67)" />
    <path d="M 81.4704199565168 31.561637487127  L 85.0589312278294 25.4270562529575  L 83.5338139375221 25.3473863667997  L 79.1603158256094 31.1732467921065  L 81.4704199565168 31.561637487127  Z " stroke-width="2" stroke="#797979" fill="none" transform="matrix(1 0 0 1 1448 915 )" mask="url(#clip67)" />
    <path d="M 22.1478430026324 22.3697243716424  L 17.8864858679475 32.577428535642  L 24.7158713811649 30.2470843655186  L 29.4370065224848 21.7024890750691  L 22.1478430026324 22.3697243716424  Z " stroke-width="2" stroke="#797979" fill="none" transform="matrix(1 0 0 1 1448 915 )" mask="url(#clip67)" />
    <path d="M 91.0921158027227 18.8244144376097  L 94.6806270740364 11.9628454922479  L 93.155509783728 11.0366830656613  L 87.3802494564594 18.7049096083726  L 91.0921158027227 18.8244144376097  Z " stroke-width="2" stroke="#797979" fill="none" transform="matrix(1 0 0 1 1448 915 )" mask="url(#clip67)" />
    <path d="M 26.2409886714733 64.2362495476934  L 19.2658198878584 72.4721240292815  L 21.6095663119352 72.5219177081307  L 28.2707403593096 64.6246402427138  L 26.2409886714733 64.2362495476934  Z " stroke-width="2" stroke="#797979" fill="none" transform="matrix(1 0 0 1 1448 915 )" mask="url(#clip67)" />
    <path d="M 24.6934431857188 52.6144049043896  L 21.0152191326237 44.5378701951178  L 18.7163290994396 44.1893144431766  L 22.7421901819434 52.6144049043896  L 24.6934431857188 52.6144049043896  Z " stroke-width="2" stroke="#797979" fill="none" transform="matrix(1 0 0 1 1448 915 )" mask="url(#clip67)" />
    <path d="M 13.7148415150479 95.4469274501071  L 13.2887058015794 87.0616719319734  L 11.4944501659225 87.4401038912239  L 11.9205858793916 95.8353181451282  L 13.7148415150479 95.4469274501071  Z " stroke-width="2" stroke="#797979" fill="none" transform="matrix(1 0 0 1 1448 915 )" mask="url(#clip67)" />
    <path d="M 55.9807758324747 96.3033787263064  L 58.5263760155628 96.1042040109109  L 67.4527978029517 84.7711627049292  L 65.2548346492731 84.8010389122383  L 55.9807758324747 96.3033787263064  Z " stroke-width="2" stroke="#797979" fill="none" transform="matrix(1 0 0 1 1448 915 )" mask="url(#clip67)" />
    <path d="M 37.4214441011559 111.351028474407  L 46.8749284815195 108.243902914243  L 45.0358164549723 107.457162788433  L 35.5823320746081 110.564288348596  L 37.4214441011559 111.351028474407  Z " stroke-width="2" stroke="#797979" fill="none" transform="matrix(1 0 0 1 1448 915 )" mask="url(#clip67)" />
  </g>
</svg>