<?xml version="1.0" encoding="utf-8"?>
<svg version="1.1" xmlns:xlink="http://www.w3.org/1999/xlink" width="68px" height="28px" xmlns="http://www.w3.org/2000/svg">
  <defs>
    <mask fill="white" id="clip81">
      <path d="M 68 24  L 68 4  C 68 1.76  66.13 0  63.75 0  L 0 0  L 0 28  L 63.75 28  C 66.13 28  68 26.24  68 24  Z " fill-rule="evenodd" />
    </mask>
  </defs>
  <g transform="matrix(1 0 0 1 -441 -259 )">
    <path d="M 68 24  L 68 4  C 68 1.76  66.13 0  63.75 0  L 0 0  L 0 28  L 63.75 28  C 66.13 28  68 26.24  68 24  Z " fill-rule="nonzero" fill="#ffffff" stroke="none" transform="matrix(1 0 0 1 441 259 )" />
    <path d="M 68 24  L 68 4  C 68 1.76  66.13 0  63.75 0  L 0 0  L 0 28  L 63.75 28  C 66.13 28  68 26.24  68 24  Z " stroke-width="2" stroke="#d9d9d9" fill="none" transform="matrix(1 0 0 1 441 259 )" mask="url(#clip81)" />
  </g>
</svg>