<?xml version="1.0" encoding="utf-8"?>
<svg version="1.1" xmlns:xlink="http://www.w3.org/1999/xlink" width="12px" height="12px" viewBox="850 353.5  12 12" xmlns="http://www.w3.org/2000/svg">
  <path d="M 856 353.5  C 859.36 353.5  862 356.14  862 359.5  C 862 362.86  859.36 365.5  856 365.5  C 852.64 365.5  850 362.86  850 359.5  C 850 356.14  852.64 353.5  856 353.5  Z " fill-rule="nonzero" fill="#ffffff" stroke="none" />
  <path d="M 856 354  C 859.08 354  861.5 356.42  861.5 359.5  C 861.5 362.58  859.08 365  856 365  C 852.92 365  850.5 362.58  850.5 359.5  C 850.5 356.42  852.92 354  856 354  Z " stroke-width="1" stroke="#797979" fill="none" />
  <path d="M 856 362.5  C 854.32 362.5  853 361.18  853 359.5  C 853 357.82  854.32 356.5  856 356.5  C 857.68 356.5  859 357.82  859 359.5  C 859 361.18  857.68 362.5  856 362.5  " fill-rule="nonzero" fill="#797979" stroke="none" />
</svg>