<?xml version="1.0" encoding="utf-8"?>
<svg version="1.1" xmlns:xlink="http://www.w3.org/1999/xlink" width="12px" height="12px" viewBox="925 353.5  12 12" xmlns="http://www.w3.org/2000/svg">
  <path d="M 931 353.5  C 934.36 353.5  937 356.14  937 359.5  C 937 362.86  934.36 365.5  931 365.5  C 927.64 365.5  925 362.86  925 359.5  C 925 356.14  927.64 353.5  931 353.5  Z " fill-rule="nonzero" fill="#ffffff" stroke="none" />
  <path d="M 931 354  C 934.08 354  936.5 356.42  936.5 359.5  C 936.5 362.58  934.08 365  931 365  C 927.92 365  925.5 362.58  925.5 359.5  C 925.5 356.42  927.92 354  931 354  Z " stroke-width="1" stroke="#797979" fill="none" />
  <path d="M 931 362.5  C 929.32 362.5  928 361.18  928 359.5  C 928 357.82  929.32 356.5  931 356.5  C 932.68 356.5  934 357.82  934 359.5  C 934 361.18  932.68 362.5  931 362.5  " fill-rule="nonzero" fill="#797979" stroke="none" />
</svg>