<?xml version="1.0" encoding="utf-8"?>
<svg version="1.1" xmlns:xlink="http://www.w3.org/1999/xlink" width="144px" height="75px" xmlns="http://www.w3.org/2000/svg">
  <defs>
    <mask fill="white" id="clip76">
      <path d="M 0 63.4107142857144  L 0 3.58928571428555  C 0 1.57928571428579  2.63999999999987 0  6 0  L 130 0  C 133.36 0  136 1.57928571428579  136 3.58928571428555  L 136 63.4107142857144  C 136 65.4207142857144  133.36 67  130 67  L 6 67  C 2.63999999999987 67  0 65.4207142857144  0 63.4107142857144  Z " fill-rule="evenodd" />
    </mask>
    <filter x="1248px" y="966px" width="144px" height="75px" filterUnits="userSpaceOnUse" id="filter77">
      <feOffset dx="0" dy="0" in="SourceAlpha" result="shadowOffsetInner" />
      <feGaussianBlur stdDeviation="2" in="shadowOffsetInner" result="shadowGaussian" />
      <feComposite in2="shadowGaussian" operator="atop" in="SourceAlpha" result="shadowComposite" />
      <feColorMatrix type="matrix" values="0 0 0 0 0  0 0 0 0 0  0 0 0 0 0  0 0 0 0.149019607843137 0  " in="shadowComposite" />
    </filter>
    <g id="widget78">
      <path d="M 0 63.4107142857144  L 0 3.58928571428555  C 0 1.57928571428579  2.63999999999987 0  6 0  L 130 0  C 133.36 0  136 1.57928571428579  136 3.58928571428555  L 136 63.4107142857144  C 136 65.4207142857144  133.36 67  130 67  L 6 67  C 2.63999999999987 67  0 65.4207142857144  0 63.4107142857144  Z " fill-rule="nonzero" fill="#ffffff" stroke="none" transform="matrix(1 0 0 1 1252 970 )" />
      <path d="M 0 63.4107142857144  L 0 3.58928571428555  C 0 1.57928571428579  2.63999999999987 0  6 0  L 130 0  C 133.36 0  136 1.57928571428579  136 3.58928571428555  L 136 63.4107142857144  C 136 65.4207142857144  133.36 67  130 67  L 6 67  C 2.63999999999987 67  0 65.4207142857144  0 63.4107142857144  Z " stroke-width="2" stroke="#ebebeb" fill="none" transform="matrix(1 0 0 1 1252 970 )" mask="url(#clip76)" />
    </g>
  </defs>
  <g transform="matrix(1 0 0 1 -1248 -966 )">
    <use xlink:href="#widget78" filter="url(#filter77)" />
    <use xlink:href="#widget78" />
  </g>
</svg>