<?xml version="1.0" encoding="utf-8"?>
<svg version="1.1" xmlns:xlink="http://www.w3.org/1999/xlink" width="12px" height="12px" viewBox="1044 304.5  12 12" xmlns="http://www.w3.org/2000/svg">
  <path d="M 1050 304.5  C 1053.36 304.5  1056 307.14  1056 310.5  C 1056 313.86  1053.36 316.5  1050 316.5  C 1046.64 316.5  1044 313.86  1044 310.5  C 1044 307.14  1046.64 304.5  1050 304.5  Z " fill-rule="nonzero" fill="#ffffff" stroke="none" />
  <path d="M 1050 305  C 1053.08 305  1055.5 307.42  1055.5 310.5  C 1055.5 313.58  1053.08 316  1050 316  C 1046.92 316  1044.5 313.58  1044.5 310.5  C 1044.5 307.42  1046.92 305  1050 305  Z " stroke-width="1" stroke="#797979" fill="none" />
  <path d="M 1050 313.5  C 1048.32 313.5  1047 312.18  1047 310.5  C 1047 308.82  1048.32 307.5  1050 307.5  C 1051.68 307.5  1053 308.82  1053 310.5  C 1053 312.18  1051.68 313.5  1050 313.5  " fill-rule="nonzero" fill="#797979" stroke="none" />
</svg>