<?xml version="1.0" encoding="utf-8"?>
<svg version="1.1" xmlns:xlink="http://www.w3.org/1999/xlink" width="12px" height="12px" viewBox="969 344.5  12 12" xmlns="http://www.w3.org/2000/svg">
  <path d="M 975 344.5  C 978.36 344.5  981 347.14  981 350.5  C 981 353.86  978.36 356.5  975 356.5  C 971.64 356.5  969 353.86  969 350.5  C 969 347.14  971.64 344.5  975 344.5  Z " fill-rule="nonzero" fill="#ffffff" stroke="none" />
  <path d="M 975 345  C 978.08 345  980.5 347.42  980.5 350.5  C 980.5 353.58  978.08 356  975 356  C 971.92 356  969.5 353.58  969.5 350.5  C 969.5 347.42  971.92 345  975 345  Z " stroke-width="1" stroke="#797979" fill="none" />
  <path d="M 975 353.5  C 973.32 353.5  972 352.18  972 350.5  C 972 348.82  973.32 347.5  975 347.5  C 976.68 347.5  978 348.82  978 350.5  C 978 352.18  976.68 353.5  975 353.5  " fill-rule="nonzero" fill="#797979" stroke="none" />
</svg>