<?xml version="1.0" encoding="utf-8"?>
<svg version="1.1" xmlns:xlink="http://www.w3.org/1999/xlink" width="201px" height="28px" xmlns="http://www.w3.org/2000/svg">
  <defs>
    <mask fill="white" id="clip82">
      <path d="M 0 28  L 0 0  L 165.677824267782 0  L 174.928870292887 0  L 201 0  L 201 28  L 0 28  Z " fill-rule="evenodd" />
    </mask>
  </defs>
  <g transform="matrix(1 0 0 1 -302 -193 )">
    <path d="M 0 28  L 0 0  L 165.677824267782 0  L 174.928870292887 0  L 201 0  L 201 28  L 0 28  Z " fill-rule="nonzero" fill="#d7d7d7" stroke="none" transform="matrix(1 0 0 1 302 193 )" />
    <path d="M 0 28  L 0 0  L 165.677824267782 0  L 174.928870292887 0  L 201 0  L 201 28  L 0 28  Z " stroke-width="2" stroke="#797979" fill="none" transform="matrix(1 0 0 1 302 193 )" mask="url(#clip82)" />
  </g>
</svg>