<?xml version="1.0" encoding="utf-8"?>
<svg version="1.1" xmlns:xlink="http://www.w3.org/1999/xlink" width="12px" height="12px" viewBox="456 183.5  12 12" xmlns="http://www.w3.org/2000/svg">
  <path d="M 462 183.5  C 465.36 183.5  468 186.14  468 189.5  C 468 192.86  465.36 195.5  462 195.5  C 458.64 195.5  456 192.86  456 189.5  C 456 186.14  458.64 183.5  462 183.5  Z " fill-rule="nonzero" fill="#ffffff" stroke="none" />
  <path d="M 462 184  C 465.08 184  467.5 186.42  467.5 189.5  C 467.5 192.58  465.08 195  462 195  C 458.92 195  456.5 192.58  456.5 189.5  C 456.5 186.42  458.92 184  462 184  Z " stroke-width="1" stroke="#797979" fill="none" />
  <path d="M 462 192.5  C 460.32 192.5  459 191.18  459 189.5  C 459 187.82  460.32 186.5  462 186.5  C 463.68 186.5  465 187.82  465 189.5  C 465 191.18  463.68 192.5  462 192.5  " fill-rule="nonzero" fill="#797979" stroke="none" />
</svg>