<?xml version="1.0" encoding="utf-8"?>
<svg version="1.1" xmlns:xlink="http://www.w3.org/1999/xlink" width="25px" height="27px" xmlns="http://www.w3.org/2000/svg">
  <g transform="matrix(1 0 0 1 -747 -214 )">
    <path d="M 24.1586538461538 9.68052930056711  C 24.7195512820513 9.78260869565218  25 10.0434782608696  25 10.4631379962193  C 25 10.7126654064272  24.8697916666667 10.9848771266541  24.609375 11.2797731568998  L 19.1556490384615 17.3024574669187  L 20.4477163461538 25.8090737240076  C 20.4577323717949 25.8884688090737  20.4627403846154 26.0018903591682  20.4627403846154 26.1493383742911  C 20.4627403846154 26.3875236294896  20.41015625 26.5888468809074  20.3049879807692 26.7533081285444  C 20.1998197115385 26.9177693761815  20.0470753205128 27  19.8467548076923 27  C 19.6564503205128 27  19.4561298076923 26.9319470699433  19.2457932692308 26.7958412098299  L 12.5 22.7807183364839  L 5.75420673076923 26.7958412098299  C 5.53385416666667 26.9319470699433  5.33353365384615 27  5.15324519230769 27  C 4.94290865384615 27  4.78515625 26.9177693761815  4.67998798076923 26.7533081285444  C 4.57481971153846 26.5888468809074  4.52223557692308 26.3875236294896  4.52223557692308 26.1493383742911  C 4.52223557692308 26.0812854442344  4.5322516025641 25.9678638941399  4.55228365384615 25.8090737240076  L 5.84435096153846 17.3024574669187  L 0.375600961538462 11.2797731568998  C 0.125200320512821 10.9735349716446  0 10.7013232514178  0 10.4631379962193  C 0 10.0434782608696  0.280448717948718 9.78260869565218  0.841346153846154 9.68052930056711  L 8.38341346153846 8.43856332703214  L 11.7638221153846 0.697542533081284  C 11.9541266025641 0.23251417769376  12.1995192307692 0  12.5 0  C 12.8004807692308 0  13.0458733974359 0.23251417769376  13.2361778846154 0.697542533081284  L 16.6165865384615 8.43856332703214  L 24.1586538461538 9.68052930056711  Z " fill-rule="nonzero" fill="#000000" stroke="none" transform="matrix(1 0 0 1 747 214 )" />
  </g>
</svg>