<?xml version="1.0" encoding="utf-8"?>
<svg version="1.1" xmlns:xlink="http://www.w3.org/1999/xlink" width="29px" height="27px" xmlns="http://www.w3.org/2000/svg">
  <g transform="matrix(1 0 0 1 -957 -214 )">
    <path d="M 21.0703125 23.6994328922495  L 19.8155048076923 16.5368620037807  L 25.1484375 11.4839319470699  L 17.7938701923077 10.4291115311909  L 14.5 3.93005671077505  L 11.2061298076923 10.4291115311909  L 3.8515625 11.4839319470699  L 9.18449519230769 16.5368620037807  L 7.91225961538462 23.6994328922495  L 14.5 20.3137996219282  L 21.0703125 23.6994328922495  Z M 28.0240384615385 9.68052930056711  C 28.6746794871795 9.78260869565218  29 10.0434782608696  29 10.4631379962193  C 29 10.7126654064272  28.8489583333333 10.9848771266541  28.546875 11.2797731568998  L 22.2205528846154 17.3024574669187  L 23.7193509615385 25.8090737240076  C 23.7309695512821 25.8884688090737  23.7367788461538 26.0018903591682  23.7367788461538 26.1493383742911  C 23.7367788461538 26.7164461247637  23.4985977564103 27  23.0222355769231 27  C 22.8014823717949 27  22.5691105769231 26.9319470699433  22.3251201923077 26.7958412098299  L 14.5 22.7807183364839  L 6.67487980769231 26.7958412098299  C 6.41927083333333 26.9319470699433  6.18689903846154 27  5.97776442307692 27  C 5.73377403846154 27  5.55078125 26.9177693761815  5.42878605769231 26.7533081285444  C 5.30679086538462 26.5888468809074  5.24579326923077 26.3875236294896  5.24579326923077 26.1493383742911  C 5.24579326923077 26.0812854442344  5.25741185897436 25.9678638941399  5.28064903846154 25.8090737240076  L 6.77944711538462 17.3024574669187  L 0.435697115384615 11.2797731568998  C 0.145232371794872 10.9735349716446  0 10.7013232514178  0 10.4631379962193  C 0 10.0434782608696  0.325320512820513 9.78260869565218  0.975961538461538 9.68052930056711  L 9.72475961538462 8.43856332703214  L 13.6460336538462 0.697542533081284  C 13.8667868589744 0.23251417769376  14.1514423076923 0  14.5 0  C 14.8485576923077 0  15.1332131410256 0.23251417769376  15.3539663461538 0.697542533081284  L 19.2752403846154 8.43856332703214  L 28.0240384615385 9.68052930056711  Z " fill-rule="nonzero" fill="#000000" stroke="none" transform="matrix(1 0 0 1 957 214 )" />
  </g>
</svg>