<?xml version="1.0" encoding="utf-8"?>
<svg version="1.1" xmlns:xlink="http://www.w3.org/1999/xlink" width="473px" height="359px" xmlns="http://www.w3.org/2000/svg">
  <g transform="matrix(1 0 0 1 -364 -181 )">
    <path d="M 471.66261954262 193.166589041096  L 471.692120582121 193.166589041096  L 471.977297297297 192.871520547945  L 472.272307692308 192.871520547945  L 472.272307692308 192.586287671233  L 462.999147609148 166.217  L 457.20711018711 161.584424657534  L 457.20711018711 161.004123287671  L 455.751725571726 150.273465753425  L 443.587463617464 148.542397260274  L 443.292453222453 148.542397260274  L 442.712266112266 148.542397260274  L 442.712266112266 148.247328767123  L 442.427089397089 147.66702739726  L 442.427089397089 147.381794520548  C 440.981538461538 143.329520547945  437.215239085239 138.972342465754  431.423201663202 134.339767123288  C 428.237089397089 131.733328767123  425.041143451143 129.992424657534  422.435218295218 129.412123287671  C 420.40948024948 128.251520547945  418.383742203742 127.38598630137  416.928357588358 126.225383561644  C 413.162058212058 123.61894520548  400.122598752599 121.592808219178  377.239625779626 121.012506849315  L 376.374261954262 121.012506849315  L 373.768336798337 116.960232876712  C 372.607962577963 114.353794520548  371.732765072765 112.032589041096  371.447588357588 109.426150684932  C 371.447588357588 106.239410958904  375.213887733888 95.8038219178083  383.326673596674 78.7095205479453  L 379.275197505198 65.9527260273973  L 374.928711018711 45.6716849315069  C 374.348523908524 42.7701780821918  369.42185031185 40.1637397260275  360.738711018711 37.5573013698631  C 358.99814968815 36.9770000000001  357.257588357588 36.396698630137  355.517027027027 35.236095890411  C 352.330914760915 33.7902602739726  350.010166320166 31.1838219178083  348.849792099792 27.9970821917809  C 347.109230769231 24.2300410958904  344.218128898129 21.0433013698631  340.156819126819 19.302397260274  L 339.861808731809 19.0171643835617  L 339.576632016632 18.7319315068494  L 336.105343035343 0.762260273972664  L 322.190686070686 2.20809589041102  L 320.745135135135 5.97513698630143  C 319.004573804574 12.0633835616439  317.273846153846 14.9550547945206  315.238274428274 14.9550547945206  L 306.260124740125 17.8467260273973  C 300.753264033264 19.882698630137  297.272141372141 22.1940684931507  295.541413721414 24.8103424657535  C 294.666216216216 25.9709452054795  293.800852390852 29.4527534246576  293.220665280665 34.0853287671233  C 292.345467775468 39.2982054794521  291.480103950104 43.0652465753425  290.31972972973 45.3864520547946  C 288.579168399168 49.153493150685  285.973243243243 52.0550000000001  281.921767151767 53.5008356164384  C 274.389168399168 56.4023424657535  261.644719334719 51.474698630137  243.963762993763 39.0129726027398  L 220.205592515593 69.4443698630138  L 223.106528066528 81.906095890411  L 223.391704781705 81.906095890411  L 223.686715176715 82.4765616438357  L 223.106528066528 82.761794520548  L 223.106528066528 83.0568630136987  C 221.946153846154 84.7977671232878  220.205592515593 85.9485342465754  218.179854469854 86.2436027397261  C 215.86893970894 86.8239041095891  213.548191268191 85.9485342465754  210.942266112266 84.2076301369864  C 208.631351351351 82.4667260273973  201.964116424116 81.020890410959  191.245405405405 80.440589041096  L 186.318731808732 80.1553561643836  L 179.081143451143 79.5750547945206  L 171.253534303534 81.020890410959  L 174.724823284823 85.9386986301371  C 177.625758835759 89.7057397260275  178.776299376299 92.0269452054795  178.491122661123 93.4826164383562  L 175.30501039501 112.317821917808  L 176.760395010395 122.458342465754  L 177.045571725572 122.458342465754  L 177.045571725572 122.743575342466  L 176.760395010395 123.038643835617  L 170.958523908524 141.873849315069  C 170.673347193347 143.614753424658  170.09316008316 144.480287671233  169.512972972973 144.195054794521  L 168.932785862786 144.195054794521  L 168.932785862786 143.89998630137  L 168.057588357588 142.159082191781  C 166.897214137214 139.837876712329  166.317027027027 138.972342465754  165.451663201663 139.267410958904  C 164.871476091476 139.552643835617  164.006112266112 140.713246575343  163.711101871102 143.319684931507  C 162.550727650728 148.532561643836  159.364615384615 152.879904109589  154.437941787942 157.522315068493  L 149.226091476091 161.584424657534  L 146.620166320166 163.030260273973  L 146.33498960499 163.030260273973  L 127.503492723493 163.315493150685  L 120.256070686071 170.269273972603  L 119.96106029106 170.269273972603  L 119.380873180873 170.269273972603  L 119.095696465696 170.269273972603  L 99.1038253638253 167.367767123288  C 95.917713097713 170.849575342466  92.7316008316008 172.000342465754  89.5454885654885 171.429876712329  C 86.6445530145529 170.554506849315  81.7178794178794 171.715109589041  74.7753014553014 174.331383561644  L 66.6625155925155 183.901438356165  L 66.3675051975051 184.481739726028  L 54 184.76697260274  L 54 174.046150684932  L 45.5004365904365 174.046150684932  L 44.0548856548856 178.688561643836  L 37.9776715176715 180.134397260274  L 37.3974844074843 180.134397260274  L 37.1123076923076 179.849164383562  L 36.8172972972972 179.849164383562  C 33.0509979209979 177.52795890411  28.4193347193347 175.787054794521  23.7778378378378 175.206753424658  C 21.1719126819126 174.921520547945  17.9858004158004 176.652589041096  13.3443035343035 180.714698630137  C 8.41762993762988 184.76697260274  4.9463409563409 188.53401369863  3.20577962577957 192.015821917808  C 4.08097713097707 192.596123287671  4.66116424116419 193.756726027397  4.66116424116419 195.497630136987  C 5.2413513513513 197.523767123288  5.52652806652801 199.264671232877  5.52652806652801 201.585876712329  C 5.2413513513513 203.907082191781  4.36615384615379 205.352917808219  3.20577962577957 206.513520547945  C 1.76022869022863 207.379054794521  0.88503118503113 209.995328767124  0.0196673596673038 214.627904109589  L 4.65133056133051 217.814643835617  L 11.023555093555 211.146095890411  L 19.1363409563409 220.135849315069  L 19.1363409563409 220.706315068493  L 20.8769022869022 236.649849315069  L 20.8769022869022 236.944917808219  L 20.5818918918918 236.944917808219  L 15.9502286902286 258.966863013699  L 14.7898544698544 258.966863013699  C 8.13245322245317 258.966863013699  3.78596673596668 259.26193150685  2.04540540540535 260.412698630137  C 2.34041580041574 261.868369863014  5.24135135135129 264.179739726028  10.1680249480249 267.376315068493  L 14.219501039501 266.79601369863  L 15.0946985446985 266.79601369863  L 15.3798752598752 267.081246575343  L 24.9480457380457 276.356232876713  C 28.7143451143451 279.54297260274  28.4193347193347 285.050917808219  23.5024948024947 293.165301369863  L 24.9480457380457 302.155054794521  L 28.7143451143451 303  L 43.4648648648649 303  L 35.9224324324324 309.974369863014  L 40.2689189189189 312.295575342466  L 46.0609563409563 315.482315068493  L 61.706340956341 322.141027397261  L 61.9915176715177 322.436095890411  L 62.5717047817048 322.436095890411  L 64.0172557172557 346.19894520548  C 64.3024324324324 350.831520547946  67.7835550935551 354.313328767124  74.7359667359668 356.634534246576  L 75.896340956341 356.054232876713  L 76.1815176715177 356.054232876713  L 76.4765280665281 356.054232876713  L 92.7020997920998 358.365602739726  L 93.8526403326403 358.365602739726  L 93.8526403326403 358.080369863014  L 94.1476507276507 357.500068493151  C 95.8783783783784 354.313328767124  97.0387525987526 352.00195890411  97.0387525987526 351.421657534247  L 97.0387525987526 350.841356164384  C 96.7437422037422 348.23491780822  97.9041164241164 345.913712328767  100.224864864865 344.172808219178  C 102.545613305613 342.431904109589  103.991164241164 340.691  104.856528066528 338.664863013699  L 105.151538461538 338.379630136987  C 106.026735966736 336.068260273973  108.917837837838 335.48795890411  113.844511434511 336.933794520548  L 114.129688149688 336.933794520548  L 119.636548856549 340.120534246576  L 137.887858627859 343.602342465754  L 149.186756756757 342.736808219178  L 157.299542619543 339.255  C 158.745093555094 337.228863013699  159.905467775468 336.363328767124  160.770831600832 335.773191780822  C 162.226216216216 335.48795890411  164.242120582121 336.068260273973  166.562869022869 338.084561643836  L 167.723243243243 338.664863013699  C 168.883617463617 339.530397260274  169.748981288981 341.271301369863  170.909355509356 344.458041095891  L 176.711226611227 348.805383561644  L 181.057713097713 348.805383561644  L 181.34288981289 348.805383561644  L 181.923076923077 348.805383561644  L 182.208253638254 348.805383561644  L 188.295301455301 351.411821917808  L 199.5941995842 350.546287671233  L 205.966424116424 348.510315068493  L 222.487006237006 349.96598630137  L 229.734428274428 347.93001369863  L 238.132390852391 344.448205479452  C 239.872952182952 343.287602739726  241.89869022869 342.422068493151  244.799625779626 341  L 260.730187110187 341  L 266.522224532224 339.520561643836  C 268.833139293139 338.074726027398  270.868711018711 337.209191780822  272.609272349272 337.209191780822  L 281.882432432432 337.209191780822  L 286.228918918919 340.39593150685  L 298.688191268191 343.002369863014  C 300.428752598753 343.002369863014  302.15948024948 344.448205479452  305.060415800416 347.064479452055  L 310.2820997921 350.546287671233  L 310.862286902287 351.116753424658  L 322.741372141372 351.411821917808  L 323.036382536383 351.411821917808  L 328.543243243243 354.303493150685  L 335.780831600832 355.749328767124  L 336.075841995842 355.749328767124  L 342.16288981289 356.624698630137  L 343.903451143451 353.142890410959  L 341.297525987526 347.339876712329  L 340.137151767152 341.546698630137  L 340.137151767152 341.251630136987  L 339.842141372141 341.251630136987  L 340.707505197505 340.386095890411  L 344.768814968815 334.878150684932  L 344.768814968815 334.583082191781  L 345.053991683992 334.583082191781  L 345.053991683992 334.297849315069  L 349.105467775468 331.396342465754  L 348.240103950104 329.655438356165  L 346.509376299376 323.862260273973  C 346.509376299376 322.996726027398  345.644012474013 322.416424657535  343.903451143451 321.255821917809  L 339.556964656965 316.623246575343  L 334.050103950104 311.980835616439  L 333.764927234927 311.400534246576  L 333.18474012474 311.105465753425  L 333.469916839917 310.820232876713  L 333.469916839917 310.23993150685  L 334.335280665281 304.73198630137  L 334.335280665281 300.679712328767  L 331.729355509356 293.716095890411  L 338.386756756757 292.270260273973  L 341.572869022869 289.083520547946  L 349.685654885655 289.083520547946  L 357.798440748441 287.922917808219  L 358.083617463618 287.922917808219  L 363.590478170478 288.503219178082  L 369.962702702703 286.18201369863  L 377.210124740125 285.316479452055  L 381.841787941788 283.280506849315  L 382.136798336799 283.280506849315  L 394.596070686071 280.959301369863  L 396.621808731809 278.933164383562  L 396.041621621622 276.61195890411  L 393.720873180873 272.549849315069  L 393.720873180873 272.264616438356  L 393.435696465697 271.969547945206  L 393.435696465697 271.684315068493  L 394.015883575884 267.33697260274  L 394.30106029106 267.041904109589  L 394.30106029106 260.953657534247  L 393.140686070686 255.740780821918  L 393.140686070686 255.445712328767  L 396.031787941788 249.652534246575  C 397.192162162162 247.046095890411  398.637713097713 245.600260273973  400.378274428275 245.600260273973  L 407.910873180873 246.180561643836  C 409.071247401248 246.180561643836  410.516798336798 245.600260273973  411.972182952183 244.439657534247  L 423.271081081081 229.076424657534  L 423.271081081081 228.791191780822  L 423.566091476092 228.496123287671  L 429.653139293139 223.568479452055  L 430.233326403327 222.988178082192  C 432.544241164241 222.407876712329  433.999625779626 221.542342465754  434.86498960499 220.962041095891  L 436.310540540541 219.516205479452  C 438.336278586279 216.909767123288  440.07683991684 215.749164383562  441.237214137214 215.749164383562  L 451.090561330561 217.775301369863  L 459.498357588358 213.72302739726  L 459.783534303534 213.72302739726  L 460.068711018711 213.72302739726  L 464.995384615385 213.142726027397  L 469.046860706861 211.401821917808  L 469.046860706861 204.733273972603  L 470.207234927235 196.333657534247  L 470.207234927235 196.038589041096  L 470.207234927235 195.743520547945  L 471.66261954262 193.422315068493  L 471.66261954262 193.166589041096  Z " fill-rule="nonzero" fill="#0533aa" stroke="none" fill-opacity="0.482352941176471" transform="matrix(1 0 0 1 364 181 )" />
  </g>
</svg>