<?xml version="1.0" encoding="utf-8"?>
<svg version="1.1" xmlns:xlink="http://www.w3.org/1999/xlink" width="207px" height="216px" xmlns="http://www.w3.org/2000/svg">
  <g transform="matrix(1 0 0 1 -831 -750 )">
    <path d="M 4.03157142857208 129.24  L 1.40957142857144 132.465205479452  L 0.246428571428571 136.242739726028  C 1.99114285714284 136.242739726028  4.30757142857143 135.078904109589  6.6437142857143 133.333150684932  L 6.92957142857146 133.037260273973  L 7.51114285714286 133.037260273973  L 19.1327142857143 131.587397260274  L 26.6832857142858 127.809863013699  L 29.5911428571429 131.873424657534  L 30.1727142857143 132.169315068493  L 26.6832857142857 137.692602739726  L 30.7444285714286 141.756164383562  L 30.7444285714286 142.052054794521  L 30.7444285714286 142.92  L 27.8365714285714 155.130410958904  L 35.3871428571429 160.653698630137  L 49.0392857142857 161.235616438356  L 47.0087142857143 163.849315068493  C 38.295 174.6  34.224 181.001095890411  34.5197142857143 183.032876712329  L 39.7538571428572 184.196712328767  C 46.7228571428572 184.778630136986  50.7840000000001 186.810410958904  52.2428571428571 189.424109589041  C 53.9875714285714 192.915616438356  55.7322857142857 196.397260273973  57.1812857142857 200.470684931507  L 65.0275714285715 204.830136986301  L 69.966 205.707945205479  L 80.1287142857143 196.98904109589  L 85.3529999999999 204.830136986301  L 85.3529999999999 205.116164383562  L 85.6487142857142 205.41205479452  L 87.3835714285713 212.671232876712  L 91.7404285714284 213.539178082192  L 98.4235714285712 215.866849315068  L 100.168285714285 215.284931506849  L 100.168285714285 214.998904109589  L 99.0051428571427 207.443835616438  L 98.7192857142856 207.157808219178  L 94.9439999999998 190.00602739726  L 94.9439999999998 189.424109589041  L 97.2702857142855 177.509589041096  L 97.851857142857 177.795616438356  L 98.7192857142856 177.795616438356  L 106.555714285714 178.377534246575  L 116.432571428571 171.108493150685  L 117.309857142857 171.690410958904  C 122.534142857143 175.75397260274  126.023571428571 178.949589041096  127.758428571428 181.277260273973  C 129.503142857143 180.695342465753  132.696857142857 177.499726027397  137.053714285714 172.558356164383  L 137.349428571428 172.262465753425  L 137.931 171.680547945205  L 152.450571428571 175.458082191781  L 158.847857142857 170.230684931507  L 159.143571428571 169.934794520548  L 159.429428571428 169.648767123288  L 159.725142857143 169.648767123288  L 160.011 169.934794520548  L 166.112571428571 171.098630136986  L 185.866285714285 153.660821917808  L 191.958 155.406575342466  L 192.243857142857 155.702465753425  L 192.529714285714 155.988493150685  L 192.825428571428 156.284383561644  L 194.274428571428 158.898082191781  L 195.723428571428 157.152328767123  L 196.019142857142 157.152328767123  L 196.019142857142 156.856438356164  L 196.305 156.856438356164  L 202.110857142857 153.660821917808  L 206.467714285714 149.587397260274  L 205.304571428571 140.582465753425  L 204.437142857142 139.418630136986  L 198.926999999999 141.746301369863  C 197.182285714285 142.328219178082  195.723428571428 142.910136986301  193.692857142857 142.910136986301  L 187.285714285714 142.910136986301  C 185.255142857143 142.624109589041  184.092 142.042191780822  183.224571428571 140.878356164384  L 182.643 131.577534246575  C 180.612428571429 130.413698630137  179.735142857143 129.831780821918  178.867714285714 129.831780821918  L 177.418714285714 130.413698630137  L 175.388142857143 131.577534246575  L 171.327 132.445479452055  L 170.163857142857 132.445479452055  L 169.878 131.863561643836  L 167.551714285714 127.8  L 167.256 124.022465753425  L 169.572428571429 112.975890410959  L 169.868142857143 112.975890410959  L 169.868142857143 112.689863013699  L 172.480285714286 107.166575342466  L 164.348142857143 99.8975342465753  L 164.062285714286 99.6115068493151  L 163.776428571429 99.3156164383562  L 163.776428571429 90.8926027397261  L 164.062285714286 90.6065753424659  L 168.714857142857 77.2421917808221  L 165.807 69.9731506849317  L 163.194857142857 69.3912328767125  L 159.991285714286 69.6772602739727  L 156.797571428571 74.6186301369864  L 152.736428571429 71.7090410958904  L 148.675285714286 69.3813698630137  L 145.471714285714 61.2443835616439  L 144.318428571429 55.4350684931507  L 144.318428571429 54.8531506849315  L 144.022714285714 54.5671232876713  L 144.890142857143 53.9852054794521  L 148.665428571429 48.7578082191781  L 149.532857142857 48.1758904109589  L 149.818714285714 48.1758904109589  L 152.716714285714 47.5939726027397  L 155.910428571429 46.7260273972603  L 171.011571428572 46.1441095890411  L 171.297428571429 46.1441095890411  L 173.328 47.0120547945205  L 173.909571428572 47.3079452054794  L 176.235857142857 48.1758904109588  L 180.306857142857 46.4301369863013  L 183.786428571429 43.8164383561643  L 185.531142857143 40.9068493150684  L 185.826857142857 39.4569863013697  L 185.531142857143 33.0657534246574  L 182.327571428572 32.4838356164382  L 176.226 34.5254794520547  C 174.481285714286 36.5572602739724  172.450714285714 38.0071232876711  170.420142857143 38.0071232876711  C 168.389571428572 38.0071232876711  166.644857142857 36.2613698630136  164.900142857143 33.0657534246574  L 164.614285714286 33.0657534246574  L 164.614285714286 32.7797260273972  L 164.318571428572 28.7063013698629  L 164.318571428572 28.1243835616437  L 164.614285714286 24.3468493150683  L 161.420571428572 16.4958904109587  L 155.319 18.2416438356162  L 152.706857142857 20.5693150684929  L 153.574285714286 29.288219178082  L 143.993142857143 24.9287671232875  L 146.319428571429 30.1561643835615  L 146.605285714286 30.4421917808217  L 146.605285714286 31.0241095890409  L 145.737857142857 36.8334246575341  L 145.737857142857 37.4153424657533  L 145.442142857143 37.4153424657533  L 139.922142857143 45.2564383561643  L 130.922571428571 50.7797260273972  L 130.055142857143 56.0169863013697  C 129.759428571429 56.8849315068492  130.922571428571 59.2126027397259  132.371571428572 62.1123287671231  L 132.667285714286 62.408219178082  L 132.667285714286 62.7041095890408  L 133.248857142857 70.2591780821915  L 133.248857142857 71.1271232876709  L 132.963 71.4230136986298  L 129.473571428572 76.0684931506846  L 129.187714285714 76.3643835616435  L 128.901857142857 76.3643835616435  L 126.289714285715 78.110136986301  L 126.003857142857 78.110136986301  L 125.718 78.110136986301  L 125.422285714286 78.110136986301  L 125.126571428572 78.110136986301  L 118.453285714286 76.6504109589037  C 117.290142857143 76.6504109589037  115.831285714286 77.2323287671229  114.382285714286 78.3961643835612  L 111.474428571429 81.5917808219174  L 109.148142857143 84.5013698630133  C 107.699142857143 87.1150684931503  105.668571428572 87.6969863013695  102.474857142858 87.1150684931503  C 100.444285714286 86.82904109589  99.8627142857147 84.7873972602736  100.444285714286 82.1736986301366  L 100.444285714286 80.1419178082188  L 100.158428571429 78.1101369863011  L 98.9952857142862 79.5599999999997  C 98.1278571428577 80.723835616438  97.250571428572 81.0098630136984  96.087428571429 81.0098630136984  C 94.9242857142862 80.7238356164382  94.0568571428577 79.5599999999997  93.4752857142862 77.528219178082  L 93.4752857142862 77.2421917808218  L 92.8937142857147 70.5550684931505  L 91.4348571428576 64.1638356164382  L 88.5270000000004 61.2542465753423  L 88.2411428571433 60.9583561643834  L 82.1494285714291 47.0120547945204  L 81.8537142857148 46.7260273972602  L 80.1090000000005 42.6526027397259  L 80.1090000000005 42.3665753424657  L 79.8231428571434 42.3665753424657  L 79.8231428571434 42.0706849315068  L 78.6600000000006 34.5156164383562  L 77.7925714285721 33.3517808219179  L 76.6294285714292 34.2197260273973  C 74.5890000000006 36.547397260274  73.1400000000007 37.9972602739727  72.5584285714293 37.9972602739727  C 71.6811428571436 37.9972602739727  70.2321428571435 36.8334246575344  67.9157142857149 35.0876712328768  L 63.5588571428578 33.0460273972603  L 62.9772857142864 32.76  L 62.6914285714293 32.4641095890412  L 62.6914285714293 32.1780821917809  L 62.395714285715 31.5961643835617  L 62.1098571428579 25.7868493150686  L 61.2325714285722 21.4273972602741  L 58.9161428571436 15.618082191781  L 56.5898571428579 15.618082191781  C 56.875714285715 17.9457534246577  56.5898571428579 19.9775342465754  56.0082857142864 21.4273972602741  C 55.426714285715 23.1731506849316  54.2635714285722 24.33698630137  52.5188571428579 25.7868493150686  C 51.9372857142864 27.8284931506851  51.0698571428579 29.2783561643836  49.9067142857151 30.4323287671234  C 48.1620000000008 32.1780821917809  46.7130000000008 32.1780821917809  44.9682857142865 31.0142465753426  L 44.1008571428579 30.7183561643838  C 42.3561428571437 30.1364383561646  42.0702857142866 28.1046575342468  42.3561428571437 24.3271232876714  L 42.3561428571437 22.8772602739728  L 38.5808571428579 20.5594520547947  C 37.1220000000008 19.9775342465754  36.2545714285722 18.2317808219179  35.9588571428579 15.618082191781  L 37.417714285715 2.53972602739742  L 36.8361428571435 0.49808219178093  L 32.1934285714293 5.73534246575348  L 28.999714285715 8.0630136986302  L 28.1224285714293 10.094794520548  C 29.2855714285721 12.7183561643835  29.8671428571435 14.7501369863014  29.8671428571435 16.2000000000001  C 29.8671428571435 19.109589041096  28.4181428571435 21.427397260274  25.8060000000007 22.3052054794522  L 20.5718571428578 24.3369863013699  L 19.1228571428578 25.2049315068494  L 18.8271428571435 27.2465753424659  L 18.8271428571435 35.3835616438357  C 19.1228571428578 37.9972602739727  19.4087142857149 39.4471232876713  20.2860000000007 39.4471232876713  C 22.0208571428578 40.3249315068494  24.0612857142864 40.3249315068494  25.8060000000007 38.8652054794521  L 27.5507142857149 37.9972602739727  L 33.070714285715 50.7797260273974  L 33.070714285715 51.0756164383562  L 33.070714285715 51.6575342465755  C 31.0302857142864 74.6087671232878  28.999714285715 87.6871232876713  26.3875714285721 91.1786301369865  C 25.2244285714293 92.3424657534248  24.3570000000007 92.9145205479454  22.6122857142864 93.2104109589042  C 20.5718571428579 93.2104109589042  19.1228571428579 92.9145205479454  17.0922857142864 91.7506849315069  C 9.54171428571497 106.860821917808  4.6032857142864 114.711780821918  2.28685714285786 115.875616438356  L 2.57271428571503 115.875616438356  C 1.40957142857216 116.171506849315  0.82800000000076 119.949041095891  1.123714285715 126.626301369863  L 2.86842857142927 128.076164383562  L 3.45000000000067 128.658082191781  L 4.03157142857208 129.24  Z " fill-rule="nonzero" fill="#20dbea" stroke="none" fill-opacity="0.4" transform="matrix(1 0 0 1 831 750 )" />
  </g>
</svg>