<?xml version="1.0" encoding="utf-8"?>
<svg version="1.1" xmlns:xlink="http://www.w3.org/1999/xlink" width="117px" height="211px" xmlns="http://www.w3.org/2000/svg">
  <g transform="matrix(1 0 0 1 -1027 -465 )">
    <path d="M 43.8504201680671 50.792827102804  L 38.9541176470588 48.4264719626169  L 37.2138655462185 48.1306775700935  L 34.3134453781512 65.8586214953272  L 39.239243697479 71.6660514018692  L 43.8700840336134 73.7070327102804  L 44.1552100840336 73.7070327102804  L 44.4501680672268 73.9929672897197  L 50.5361344537815 78.9327336448599  L 58.9326050420167 80.9737149532711  L 59.2177310924369 80.9737149532711  L 63.5634453781511 83.8823598130842  L 63.8584033613444 83.8823598130842  L 63.8584033613444 84.4640887850468  L 67.0439495798318 89.1080607476635  L 67.6240336134452 89.6897897196261  L 67.329075630252 90.2715186915887  L 64.4286554621847 94.9253504672897  C 63.8485714285713 95.5070794392523  63.8485714285713 96.9564719626168  63.8485714285713 99.2833878504673  L 64.1435294117645 99.2833878504673  L 64.1435294117645 104.795023364486  L 63.8485714285713 105.080957943925  L 61.2431092436973 113.79703271028  L 60.9579831932772 115.246425233645  L 60.3778991596637 115.246425233645  L 59.5126890756301 114.960490654206  L 55.7470588235292 114.08296728972  L 50.8212605042015 114.378761682243  L 46.4755462184873 115.828154205607  L 41.5497478991595 119.890397196262  L 40.3994117647058 121.053855140187  L 46.7705042016806 124.248434579439  L 46.1904201680671 125.411892523364  C 45.8954621848739 126.861285046729  44.4501680672268 128.320537383178  42.129831932773 129.188200934579  L 38.079075630252 129.483995327103  L 31.413025210084 126.871144859813  L 25.3270588235293 123.390630841121  L 22.7215966386554 123.390630841121  L 15.4754621848738 133.851892523364  L 14.0203361344537 137.332406542056  L 14.0203361344537 143.435630841122  L 16.9207563025209 148.375397196262  L 16.9207563025209 148.661331775701  L 18.6610084033613 153.305303738318  L 18.6610084033613 153.88703271028  L 18.9461344537814 160.562126168224  L 18.9461344537814 161.429789719626  L 19.2312605042015 162.011518691589  L 14.600420168067 162.889042056075  L 5.90899159663842 162.889042056075  L 1.84840336134431 165.501892523365  L 0.108151260503992 168.410537383178  L 0.393277310924124 168.696471962617  L 2.13352941176444 177.412546728972  L 2.42848739495767 177.412546728972  L 2.42848739495767 180.902920560748  L 4.45386554621813 184.965163551402  L 10.5398319327728 189.03726635514  L 19.5163865546215 187.006144859813  L 23.8621008403358 184.0975  L 24.4520168067224 183.801705607477  L 28.5027731092434 183.801705607477  L 30.8231092436972 189.32320093458  C 32.2782352941174 190.772593457944  33.4285714285711 192.221985981309  34.0086554621846 193.967172897196  L 36.0438655462182 193.681238317757  L 36.6239495798317 193.681238317757  L 37.2040336134452 193.681238317757  L 37.4989915966384 193.099509345795  L 41.5497478991594 189.904929906542  L 45.3153781512603 196.58988317757  L 49.3759663865544 199.20273364486  L 55.1768067226889 199.20273364486  L 59.5225210084031 198.621004672897  L 60.3877310924367 198.621004672897  L 70.8194117647056 200.070397196262  L 71.1143697478989 200.070397196262  L 71.1143697478989 200.366191588785  L 75.4600840336131 202.979042056075  L 75.4600840336131 203.264976635514  L 79.225714285714 206.163761682243  L 79.225714285714 206.449696261682  L 81.8311764705879 209.358341121495  L 84.7315966386552 210.521799065421  L 89.3624369747897 209.940070093458  L 89.3624369747897 203.846705607477  L 87.0421008403359 199.774602803738  L 86.7569747899158 199.774602803738  L 86.7569747899158 199.478808411215  L 85.0167226890754 191.926191588785  L 89.0674789915964 187.863948598131  L 89.3526050420166 187.568154205608  L 89.6475630252098 187.568154205608  L 93.1182352941174 186.986425233645  L 96.8838655462182 186.986425233645  L 98.0440336134451 185.53703271028  L 95.7236974789913 182.342453271028  L 87.327226890756 176.820957943925  L 85.3018487394956 173.626378504673  L 85.0068907563023 173.340443925234  L 84.7217647058822 173.054509345794  L 85.0068907563023 172.472780373832  L 87.3272268907561 168.114742990654  L 87.9073109243696 168.686612149533  L 93.6983193277309 170.145864485981  L 109.055798319328 169.564135514019  L 109.340924369748 169.850070093458  L 109.626050420168 169.850070093458  L 113.971764705882 171.299462616823  L 116.872184873949 168.686612149533  L 115.417058823529 159.684602803738  L 109.911176470588 156.194228971963  C 105.280336134453 153.581378504673  103.825210084033 147.192219626168  104.70025210084 136.730957943925  L 100.069411764706 134.404042056075  L 99.4893277310922 134.118107476636  L 98.9092436974787 134.118107476636  L 98.9092436974787 133.536378504673  L 98.9092436974787 133.250443925234  L 98.0440336134451 125.68796728972  L 104.41512605042 96.0592289719629  C 101.809663865546 87.3431542056078  100.364369747899 81.5357242990657  100.364369747899 78.6270794392526  L 99.7842857142854 69.9110046728975  L 100.364369747899 60.3272663551405  L 100.364369747899 59.7455373831779  L 100.944453781512 59.1736682242994  L 106.745294117647 54.8156308411218  L 106.745294117647 50.171658878505  C 106.745294117647 49.0082009345798  106.165210084033 47.2630140186919  104.719915966386 44.9459579439255  L 100.954285714285 40.8738551401872  L 100.374201680672 40.8738551401872  L 100.374201680672 40.0061915887854  L 99.7941176470585 33.0353037383181  L 99.7941176470585 32.7493691588788  L 99.4991596638653 32.4535747663554  L 100.079243697479 32.1577803738321  L 100.079243697479 31.8718457943928  L 107.61050420168 22.2881074766358  L 107.61050420168 18.2258644859815  L 105.290168067227 13.867827102804  L 105.290168067227 13.5818925233647  L 104.995210084033 13.0001635514021  L 108.760840336134 8.35619158878529  L 108.760840336134 8.06039719626192  L 109.055798319327 8.06039719626192  L 113.116386554622 4.86581775700957  L 112.536302521008 1.08950934579463  L 110.501092436974 1.08950934579463  L 107.315546218487 0.507780373832042  L 105.575294117647 7.47866822429932  L 104.70025210084 7.19273364486005  L 97.1689915966384 4.28408878504698  L 92.5381512605039 3.41642523364512  L 94.2784033613442 10.6831074766358  L 87.9073109243694 12.724088785047  L 78.6357983193274 17.6638551401872  L 75.7353781512601 21.4401635514021  L 75.7353781512601 21.7359579439255  L 75.4404201680669 21.7359579439255  L 70.5146218487392 26.0939953271031  L 69.6494117647056 33.0648831775703  L 69.6494117647056 33.6466121495329  L 67.0341176470586 43.5261448598133  L 67.3192436974787 43.5261448598133  L 66.1590756302518 48.1701168224301  L 66.1590756302518 48.4659112149535  L 65.8641176470586 48.7518457943927  L 62.6785714285712 53.1098831775703  L 62.3934453781511 53.1098831775703  L 62.3934453781511 53.3958177570096  L 62.0984873949578 53.6817523364489  L 61.8133613445377 53.6817523364489  L 54.8621848739494 54.5592757009348  L 54.8621848739494 54.8452102803741  L 54.5672268907562 54.5592757009348  L 44.1355462184873 51.0787616822433  L 43.8504201680671 50.792827102804  Z " fill-rule="nonzero" fill="#0533aa" stroke="none" fill-opacity="0.482352941176471" transform="matrix(1 0 0 1 1027 465 )" />
  </g>
</svg>