<?xml version="1.0" encoding="utf-8"?>
<svg version="1.1" xmlns:xlink="http://www.w3.org/1999/xlink" width="80px" height="172px" xmlns="http://www.w3.org/2000/svg">
  <g transform="matrix(1 0 0 1 -1127 -427 )">
    <path d="M 66.7061728395068 10.4526857142856  L 74.2814814814815 8.70320000000007  L 75.4469135802469 7.24857142857148  L 73.4024691358024 2.61931428571436  L 71.3679012345679 0.299771428571491  L 69.037037037037 4.06411428571433  L 69.037037037037 4.34914285714292  L 65.2543209876543 8.69337142857151  L 64.9679012345679 8.9784000000001  L 64.3851851851851 8.9784000000001  L 57.4024691358024 11.0030857142858  L 56.8197530864196 11.0030857142858  L 50.1234567901233 9.85314285714295  L 46.3407407407406 11.0030857142858  L 45.4617283950616 14.1973714285715  L 45.1753086419752 14.7772571428572  L 41.9753086419752 16.8019428571429  L 41.3925925925925 17.0968000000001  L 40.8098765432097 17.0968000000001  L 34.9925925925924 16.5169142857144  L 34.706172839506 17.0968000000001  L 34.706172839506 22.8858285714287  L 34.4098765432098 23.1708571428572  L 31.2098765432098 27.2202285714287  L 31.2098765432098 27.5150857142858  L 30.9135802469135 27.5150857142858  L 25.3827160493826 33.0190857142859  L 25.0962962962963 33.0190857142859  L 24.8098765432099 33.3041142857144  L 18.9925925925926 34.4638857142859  L 15.2098765432099 38.5132571428573  L 16.0888888888889 43.4373714285716  L 16.0888888888889 44.597142857143  L 15.2098765432099 44.8920000000002  L 10.8444444444445 48.9512000000002  L 8.51358024691358 51.8506285714287  L 10.2617283950617 55.6149714285716  L 10.2617283950617 55.9000000000002  L 10.2617283950617 56.1948571428573  L 10.2617283950617 61.6890285714287  L 10.2617283950617 61.9838857142859  L 7.06172839506171 66.6229714285716  L 7.06172839506171 66.9080000000002  L 2.69629629629631 71.8321142857145  L 3.27901234567906 77.621142857143  L 7.06172839506182 81.1004571428574  L 7.06172839506182 81.3953142857145  C 8.80000000000008 84.2947428571431  9.67901234567908 86.6142857142859  9.67901234567908 88.6389714285717  L 9.67901234567908 95.0078857142859  L 9.38271604938283 95.0078857142859  L 9.09629629629644 95.2929142857146  L 3.27901234567917 99.6371428571431  L 2.69629629629643 108.3256  L 3.27901234567917 117.014057142857  C 3.27901234567917 119.913485714286  4.44444444444456 125.407657142857  7.35802469135818 133.526057142857  L 7.35802469135818 133.811085714286  L 7.35802469135818 134.390971428572  L 0.958024691358164 163.925828571429  L 1.54074074074091 169.724685714286  L 5.9061728395063 171.749371428572  L 12.8888888888891 164.800571428571  L 13.1753086419755 164.800571428571  L 35.5851851851854 156.112114285714  L 41.4123456790125 150.893142857143  L 41.9950617283953 150.313257142857  L 42.2814814814816 150.598285714286  L 42.8641975308644 150.598285714286  L 55.6641975308644 151.758057142857  C 57.4123456790126 151.758057142857  61.1950617283953 150.313257142857  66.7259259259262 147.993714285714  L 66.7259259259262 141.909828571428  L 67.0222222222225 141.6248  L 67.3086419753088 141.6248  L 70.8049382716051 138.440342857143  L 69.9259259259261 134.676  L 69.9259259259261 134.390971428571  L 69.9259259259261 134.096114285714  L 69.9259259259261 133.526057142857  L 70.2123456790125 133.2312  C 71.3777777777779 132.071428571428  71.3777777777779 130.911657142857  70.5086419753087 130.046742857143  C 69.6395061728396 128.307085714286  69.925925925926 125.987542857143  71.3777777777779 123.3928  L 72.8395061728396 121.358285714286  L 72.5432098765434 117.308914285714  L 68.177777777778 112.099771428571  C 66.1333333333335 110.654971428571  65.8469135802471 108.620457142857  67.0123456790126 106.595771428571  C 67.5950617283953 104.856114285714  68.4641975308645 103.126285714286  69.9259259259262 101.671657142857  L 71.0913580246916 96.7475428571428  L 74.2913580246916 89.7987428571428  L 75.1604938271607 86.6142857142856  L 79.8123456790126 77.9258285714285  L 76.6123456790126 72.4218285714285  L 67.5851851851855 66.9178285714284  L 67.0024691358027 66.9178285714284  L 67.0024691358027 66.3379428571428  L 65.2543209876546 61.698857142857  L 65.2543209876546 61.4138285714284  L 65.2543209876546 60.8339428571427  L 66.1234567901237 53.0202285714285  L 66.1234567901237 52.7351999999999  L 68.1679012345682 46.9363428571427  C 67.8814814814818 44.911657142857  68.1679012345682 43.4570285714284  69.0370370370374 42.297257142857  C 69.6197530864201 41.7173714285713  70.4987654320991 41.1374857142856  71.3679012345682 41.1374857142856  L 76.8987654320991 40.2725714285713  L 78.350617283951 37.0881142857141  L 79.8024691358029 27.5347428571427  L 78.6370370370375 24.065257142857  L 73.6987654320992 22.9054857142856  L 73.402469135803 22.9054857142856  L 67.5851851851857 20.0158857142856  L 67.2888888888894 19.7210285714284  L 67.2888888888894 19.1411428571427  L 67.0024691358031 18.8462857142856  L 66.7061728395068 11.8974857142856  L 66.7061728395068 11.3175999999999  L 66.7061728395068 10.4526857142856  Z " fill-rule="nonzero" fill="#0533aa" stroke="none" fill-opacity="0.482352941176471" transform="matrix(1 0 0 1 1127 427 )" />
  </g>
</svg>