<?xml version="1.0" encoding="utf-8"?>
<svg version="1.1" xmlns:xlink="http://www.w3.org/1999/xlink" width="178px" height="111px" xmlns="http://www.w3.org/2000/svg">
  <g transform="matrix(1 0 0 1 -1094 -636 )">
    <path d="M 27.2605524861878 1.83199115044126  L 22.9039779005524 0.329070796460213  L 22.6187845303867 1.48818584070795  L 24.0644198895028 3.22685840707961  L 31.5974585635359 8.43305309734506  L 31.5974585635359 8.71792035398219  L 31.8826519337016 8.71792035398219  L 36.5244198895028 13.9339380530972  L 35.9441988950276 14.5134955752211  L 33.0430939226518 17.9908407079644  L 32.7579005524861 18.2855309734511  L 32.4628729281768 18.8552654867255  L 27.5359116022099 18.8552654867255  L 24.6446408839779 19.1499557522122  L 22.6187845303867 21.173495575221  L 23.4841988950276 23.7765929203537  L 23.4841988950276 24.0712831858404  L 23.779226519337 26.9690707964599  L 26.3853038674032 30.7312831858405  L 26.3853038674032 31.0259734513271  L 26.3853038674032 39.1299557522121  L 28.7061878453038 40.0042035398227  L 32.7677348066298 41.1534955752209  L 33.0529281767955 41.1534955752209  L 33.3479558011048 41.4481858407076  L 33.6331491712705 41.7330530973447  L 37.3996685082872 46.9392477876101  L 37.3996685082872 47.2339380530968  L 39.435359116022 52.4401327433623  L 39.435359116022 52.7348230088489  L 39.435359116022 56.2023451327427  C 39.1403314917127 58.2357079646012  38.5601104972375 59.9645575221233  37.9798895027623 61.123672566371  C 36.5342541436463 63.1472123893798  33.92817679558 64.8858849557516  29.866629834254 66.6245575221233  L 20.0127071823204 72.4103097345126  L 19.7275138121546 72.4103097345126  L 1.76033149171267 73.5694247787604  L 0.599889502762444 77.9111946902648  L 3.78618784530389 83.7067699115037  L 3.78618784530389 83.9916371681408  L 3.78618784530389 84.2765044247779  L 4.65160220994477 91.800929203539  L 14.4956906077348 103.382256637167  L 14.7907182320442 103.382256637167  L 14.7907182320442 103.676946902654  L 18.8424309392265 110.336946902654  L 19.1276243093922 109.472522123893  L 19.1276243093922 109.177831858406  L 22.3139226519336 100.20942477876  L 22.608950276243 99.924557522123  L 28.4013259668507 92.400132743362  L 28.6865193370164 92.1152654867249  L 35.9343646408838 88.6379203539815  L 36.514585635359 88.6379203539815  L 41.1465193370165 91.535707964601  L 47.2339226519337 90.9561504424771  L 45.1982320441988 80.8286283185834  L 46.358674033149 80.5437610619462  L 51.8658563535911 79.9642035398223  L 57.6680662983424 80.2490707964594  L 58.2482872928176 80.2490707964594  L 58.2482872928176 80.5437610619461  L 69.833038674033 85.7499557522116  L 79.6771270718231 87.78331858407  L 79.9721546961324 87.78331858407  L 80.2573480662981 87.78331858407  L 83.4436464088396 90.1015486725656  L 88.0755801104971 91.8303982300877  L 88.0755801104971 92.1250884955744  L 90.9766850828728 94.7281858407071  L 92.7173480662982 95.307743362831  L 95.9036464088396 92.4099557522115  L 95.9036464088396 92.1250884955744  L 100.830607734806 88.3628761061938  L 103.446519337016 83.4513716814151  L 108.078453038674 86.0544690265478  L 108.078453038674 86.3393362831849  L 108.078453038674 86.6242035398221  L 109.238895027624 90.3864159292026  L 109.238895027624 91.2508407079637  L 108.658674033149 93.5690707964593  L 108.953701657458 94.1486283185832  L 111.84497237569 92.7046460176982  L 115.896685082873 88.6575663716805  L 119.673038674033 88.6575663716805  L 119.673038674033 88.9424336283177  L 119.977900552486 88.9424336283177  L 122.583977900552 90.6811061946893  C 124.324640883978 92.4099557522114  124.904861878453 93.863761061946  124.324640883978 95.3077433628309  L 124.039447513812 101.673053097344  L 125.780110497238 104.855707964601  L 126.360331491713 105.150398230088  C 133.313149171271 97.6259734513265  137.945082872928 93.863761061946  140.846187845304 93.863761061946  L 148.664419889503 93.863761061946  L 150.405082872928 90.1015486725654  L 156.492486187845 87.2037610619459  L 156.777679558011 87.2037610619459  L 164.310718232044 86.6242035398219  L 172.138784530387 82.5771238938042  L 172.138784530387 82.2922566371671  L 177.065745856354 82.2922566371671  L 176.190497237569 79.9740265486715  L 176.485524861878 79.3944690265476  L 177.645966850829 78.2353539822999  L 166.926629834254 55.3772123893795  L 166.926629834254 54.7976548672556  L 166.631602209945 54.5127876106185  L 171.273370165746 48.1474778761052  L 169.82773480663 46.7034955752202  L 161.999668508287 45.2496902654857  L 161.134254143646 45.2496902654857  L 161.134254143646 44.6701327433617  L 156.20729281768 39.4639380530963  L 156.502320441989 38.3048230088486  L 156.20729281768 38.5896902654857  L 155.91226519337 38.8843805309724  L 151.565524861879 35.9865929203529  C 149.539668508287 38.5896902654856  147.513812154696 40.3283628318572  145.192928176796 40.9079203539812  C 143.167071823205 41.7723451327422  139.970939226519 39.4639380530962  135.634033149171 34.2479203539812  L 133.313149171271 31.3599557522112  C 133.027955801105 30.7803982300873  131.002099447514 31.3599557522112  127.805966850829 32.519070796459  C 122.879005524862 34.2577433628306  119.69270718232 34.5426106194678  118.247071823204 33.6781858407067  C 116.801436464088 32.2342035398217  116.221215469613 29.3364159292023  116.801436464088 25.5742035398217  C 117.086629834254 22.3817256637156  116.801436464088 20.6528761061934  116.221215469613 19.7786283185828  L 78.5461878453038 17.755088495574  C 75.0746961325966 16.3111061946891  72.1735911602209 14.8671238938041  70.7279558011048 13.4133185840697  L 64.9355801104971 11.9693362831847  C 62.6146961325965 11.1049115044236  58.2777900552485 7.33287610619349  52.4755801104971 0.103141592919143  L 48.7090607734805 3.28579646017579  L 42.9068508287292 1.54712389380413  L 27.2605524861878 1.83199115044126  Z " fill-rule="nonzero" fill="#20dbea" stroke="none" fill-opacity="0.4" transform="matrix(1 0 0 1 1094 636 )" />
  </g>
</svg>