<?xml version="1.0" encoding="utf-8"?>
<svg version="1.1" xmlns:xlink="http://www.w3.org/1999/xlink" width="185px" height="147px" xmlns="http://www.w3.org/2000/svg">
  <g transform="matrix(1 0 0 1 -1132 -840 )">
    <path d="M 166.765691489361 57.7591610738258  C 166.805053191489 53.3688926174497  169.117553191489 51.0405704697987  172.896276595745 49.8764093959732  C 175.503989361702 49.5804362416108  176.950531914894 48.4162751677853  177.531117021277 46.9660067114094  L 177.531117021277 46.6798993288591  L 177.826329787234 45.801845637584  L 178.9875 45.801845637584  L 184.212765957447 45.5157382550337  L 184.212765957447 41.7371476510068  C 182.766223404255 41.7371476510068  181.309840425532 41.155067114094  179.86329787234 39.9909060402685  L 171.164361702128 32.1476174496645  L 171.164361702128 31.8516442953021  L 167.395478723404 20.8019798657718  L 162.170212765957 15.5731208053692  C 155.793617021277 15.2870134228189  150.863563829787 15.2870134228189  147.389893617021 15.5731208053692  L 146.228723404255 15.8690939597316  L 146.523936170213 19.351711409396  L 146.523936170213 19.9337919463088  L 146.523936170213 20.8019798657718  L 145.648138297872 20.8019798657718  L 141.01329787234 22.8343288590604  L 140.1375 22.2522483221476  C 136.368617021277 18.4736577181207  134.046276595745 17.023389261745  132.599734042553 17.891577181208  C 122.454255319149 22.8343288590604  116.658244680851 25.1626510067114  114.916489361702 23.998489932886  C 113.755319148936 24.2944630872483  112.298936170213 25.4586241610739  110.271808510638 27.4909731543624  L 109.396010638298 28.6551342281879  L 108.234840425532 27.4909731543624  C 105.331914893617 24.8765436241611  103.885372340426 22.5482214765101  103.885372340426 20.8019798657718  C 103.885372340426 19.6378187919464  105.9125 17.3193624161074  109.386170212766 13.5407718120806  C 113.450265957447 8.88412751677852  115.477393617021 6.2696979865772  115.477393617021 5.68761744966442  L 114.611436170213 4.23734899328855  C 113.450265957447 3.65526845637577  111.137765957447 4.81942953020133  108.234840425532 7.14775167785235  C 105.331914893617 9.18996644295308  103.6 10.0581543624162  102.438829787234 9.77204697986575  C 101.858244680851 9.77204697986575  101.277659574468 8.89399328859059  100.992287234043 7.44372483221472  L 100.697074468085 6.86164429530194  L 98.0893617021278 2.2049999999999  L 92.5787234042555 5.69748322147638  L 91.9981382978725 6.27956375838916  L 91.7029255319151 5.69748322147638  L 91.4175531914896 5.69748322147638  C 87.3632978723406 3.36916107382536  83.5944148936172 1.91889261744949  79.8255319148938 0.468624161073736  C 77.2178191489364 -0.399563758389347  74.6002659574471 0.754731543624035  71.9925531914895 3.96110738255021  L 74.600265957447 8.32177852348977  C 76.3420212765959 12.6824496644293  77.2079787234044 15.5928523489931  76.3420212765959 17.6252013422817  C 76.0468085106385 18.4933892617447  75.18085106383 19.3615771812078  74.019680851064 19.3615771812078  C 72.277925531915 19.9436577181206  69.6702127659576 19.3615771812078  66.4819148936172 16.7471476510065  C 63.8742021276598 15.0009060402683  61.8470744680852 13.5506375838924  60.1053191489363 12.6824496644293  L 56.6218085106385 11.2321812080535  L 56.6218085106385 11.5182885906038  L 56.9170212765959 12.1003691275165  L 56.9170212765959 18.4933892617447  L 52.272340425532 23.7222483221474  L 52.272340425532 28.6649999999997  L 54.2994680851064 33.8938590604024  L 54.5848404255319 34.1799664429527  L 51.3965425531915 39.122718120805  L 49.3595744680851 43.779362416107  L 49.3595744680851 44.0654697986573  L 45.0101063829787 48.4261409395969  L 37.7577127659575 65.0006375838922  L 38.0430851063829 74.0080872483217  L 37.7577127659575 74.3040604026841  L 22.1015957446809 83.3213758389257  L 21.2257978723405 85.0676174496639  L 23.2529255319149 89.7242617449659  L 23.2529255319149 90.0103691275162  L 23.2529255319149 90.3063422818786  L 21.8063829787234 96.4132550335565  L 15.4297872340425 95.5352013422814  L 13.983244680851 103.378489932885  L 5.8648936170212 103.378489932885  L 4.12313829787228 106.288892617449  L 1.81063829787226 111.231644295302  L 0.364095744680744 129.542516778523  L 2.10585106382966 133.32110738255  L 2.40106382978706 133.903187919463  L 2.40106382978706 137.68177852349  L 5.87473404255299 142.042449664429  L 6.1699468085104 142.624530201342  L 6.1699468085104 146.107147651006  L 15.4494680851061 145.525067114094  L 16.0300531914891 144.647013422818  L 16.0300531914891 144.360906040268  L 16.3154255319146 144.360906040268  L 16.3154255319146 144.064932885906  L 18.923138297872 140.582315436241  L 13.1172872340423 135.353456375839  L 12.5367021276592 134.771375838926  L 9.34840425531881 132.156946308725  L 9.06303191489332 131.870838926174  L 8.76781914893592 131.584731543624  L 8.76781914893592 125.763926174496  L 13.6978723404253 125.763926174496  L 14.2784574468083 123.731577181208  L 12.2513297872339 118  L 23.5579787234041 118  L 43.5635638297871 108.321241610738  L 46.1712765957445 103.960570469799  L 46.7518617021275 102.510302013423  L 50.8061170212765 104.256543624161  L 51.091489361702 104.256543624161  L 51.3867021276594 105.124731543624  L 53.1284574468083 107.157080536913  L 55.1555851063827 106.870973154362  L 54.5749999999997 102.510302013423  L 61.246808510638 102.510302013423  L 67.6234042553188 103.674463087248  L 70.2311170212763 99.3137919463086  L 70.5164893617018 99.0276845637583  L 70.5164893617018 98.7317114093959  L 71.0970744680848 98.4456040268456  L 78.0542553191487 96.4132550335571  L 79.2154255319146 86.2416442953021  L 86.4678191489358 92.6346644295303  L 89.3609042553189 93.2167449664431  L 90.8074468085104 91.4705033557048  L 89.93164893617 69.3810402684565  L 89.93164893617 68.7989597315437  L 89.93164893617 67.6347986577183  L 94.8617021276593 68.5128523489934  L 95.1470744680848 68.5128523489934  C 95.1470744680848 68.5128523489934  95.589893617021 68.7101677852351  95.7276595744678 68.7989597315437  C 95.8162234042551 68.8581543624162  95.9539893617019 69.0061409395975  96.0130319148933 69.085067114094  C 98.4534574468082 72.3407718120806  103.846010638298 83.3312416107384  103.846010638298 83.3312416107384  L 113.696276595744 82.1670805369129  L 115.438031914893 81.5850000000002  L 116.884574468085 78.0925167785237  L 113.98164893617 75.7740604026847  L 113.115691489361 74.6098993288593  L 119.7875 72.2815771812083  L 120.368085106383 71.9856040268459  L 120.66329787234 71.6994966442956  L 123.271010638298 74.6098993288594  L 125.593351063829 73.4457382550339  L 125.593351063829 69.0850671140944  L 127.039893617021 68.7989597315441  L 131.96994680851 68.7989597315441  C 135.443617021276 69.0850671140944  138.061170212766 70.8313087248326  140.08829787234 73.4556040268461  L 140.668882978723 74.6197651006716  L 142.696010638298 67.6446644295306  C 143.857180851063 65.8984228187924  146.179521276595 65.6123154362421  149.663031914893 67.0625838926178  L 150.243617021276 67.3486912751681  L 150.243617021276 67.6347986577184  L 150.528989361702 67.9307718120808  C 150.814361702127 68.2267449664432  151.39494680851 68.5128523489936  151.690159574468 68.5128523489936  C 153.136702127659 67.9307718120808  158.361968085106 64.4481543624164  166.765691489361 57.7591610738258  Z " fill-rule="nonzero" fill="#20dbea" stroke="none" fill-opacity="0.4" transform="matrix(1 0 0 1 1132 840 )" />
  </g>
</svg>