<?xml version="1.0" encoding="utf-8"?>
<svg version="1.1" xmlns:xlink="http://www.w3.org/1999/xlink" width="103px" height="127px" xmlns="http://www.w3.org/2000/svg">
  <g transform="matrix(1 0 0 1 -1277 -753 )">
    <path d="M 54.2760952380954 5.98081395348808  L 53.9818095238095 6.27616279069767  L 53.4030476190476 6.57151162790693  L 48.4884761904761 10.0467829457364  L 44.1526666666667 14.9791085271317  L 43.858380952381 14.9791085271317  L 43.858380952381 15.55996124031  L 37.5018095238095 15.55996124031  L 34.0292380952381 13.5318992248062  C 29.6934285714287 14.6936046511627  27.3881904761905 17.5978682170543  26.5151428571429 23.1012015503876  L 26.2306666666668 28.033527131783  L 29.6934285714287 24.8437596899225  L 27.3881904761905 34.4130620155039  L 27.3881904761905 34.6985658914729  L 27.3881904761905 34.9939147286821  L 17.8435238095239 43.4015116279069  C 16.4015238095238 45.1440697674418  15.822761904762 46.6011240310077  16.4015238095238 47.467480620155  L 18.1378095238095 49.4955426356588  C 20.1585714285714 51.2381007751936  21.3160952380953 52.6853100775193  21.0218095238096 53.8470155038758  C 21.0218095238096 54.7133720930231  20.7275238095239 55.5797286821704  20.1585714285715 56.170426356589  L 14.0864761904762 61.3882558139533  C 14.3709523809524 62.8354651162789  14.3709523809524 65.1588759689921  14.0864761904762 67.7776356589145  L 14.0864761904762 68.6439922480618  L 13.802 68.9393410852711  L 11.4967619047619 69.8056976744184  C 11.4967619047619 71.252906976744  10.918 72.1192635658912  9.46619047619045 73.5763178294572  L 6.28790476190473 76.7660852713176  L 6.28790476190473 77.0614341085269  C 6.86666666666667 78.5086434108525  6.86666666666667 80.2512015503874  5.70914285714279 82.8699612403098  C 7.15114285714282 85.764379844961  7.15114285714282 87.8022868217051  5.70914285714279 88.6686434108524  L 2.81533333333323 91.572906976744  L 2.23657142857129 91.8584108527129  L 0.794571428571264 92.4392635658912  L 0.794571428571264 93.0201162790696  L 2.81533333333311 99.9805038759688  L 3.39409523809505 99.9805038759688  C 8.30866666666647 99.3996511627905  13.5175238095237 99.3996511627905  19.2855238095237 99.9805038759688  L 19.8642857142856 99.9805038759688  L 19.8642857142856 100.266007751938  L 26.2306666666666 106.645542635659  L 26.2306666666666 106.931046511628  L 26.5151428571427 106.931046511628  L 30.2721904761904 117.671899224806  L 38.0707619047619 124.917790697674  L 41.2490476190476 126.079496124031  L 41.5335238095237 117.091046511628  L 48.7533333333333 124.346782945736  L 49.910857142857 123.18507751938  L 55.1197142857141 112.454069767442  L 55.9829523809522 106.36003875969  L 56.8461904761903 106.655387596899  L 57.4249523809522 106.655387596899  L 62.9182857142856 106.940891472868  L 62.6239999999999 102.589418604651  L 62.6239999999999 101.723062015504  L 62.6239999999999 101.142209302325  L 63.487238095238 101.142209302325  L 70.7168571428571 101.427713178294  C 74.4739047619047 97.6570930232554  76.2101904761904 94.4673255813949  76.2101904761904 91.8485658914725  L 75.0526666666667 81.4129069767438  L 81.4092380952381 83.450813953488  L 83.1455238095238 80.5465503875965  L 80.2517142857142 77.642286821705  L 79.3786666666666 76.4805813953485  L 85.1662857142857 70.6818992248058  L 85.4507619047618 71.2627519379841  L 86.0295238095237 71.2627519379841  L 89.5020952380951 73.290813953488  L 89.5020952380951 72.4146124031004  L 87.1870476190475 67.1967829457361  L 88.0600952380951 66.3304263565888  L 89.5020952380951 65.4640697674415  L 88.9233333333332 63.4261627906973  L 86.0295238095236 57.9129844961236  L 86.6082857142856 57.6274806201547  L 87.1870476190475 57.0466279069763  L 94.9954285714285 52.6951550387593  L 95.2897142857142 49.5053875968989  C 88.638857142857 46.0202713178291  85.1760952380952 43.1258527131779  85.7450476190475 41.668798449612  C 86.0393333333331 40.5070930232555  86.6180952380951 40.2215891472864  88.0600952380951 40.2215891472864  L 96.7317142857142 41.668798449612  L 97.0161904761903 36.4509689922477  L 97.0161904761903 35.8701162790694  L 101.352 31.5186434108524  L 102.509523809524 28.3288759689919  C 100.773238095238 27.7480232558136  99.6157142857142 26.586317829457  98.4680000000001 25.4344573643407  L 98.183523809524 24.8536046511624  L 98.183523809524 24.272751937984  L 98.4680000000001 22.8156976744181  L 98.183523809524 22.2348449612398  L 97.6047619047621 21.9493410852708  L 97.320285714286 22.2348449612398  C 96.7415238095242 23.3965503875963  95.2995238095241 24.272751937984  93.2787619047622 24.272751937984  C 90.1004761904764 24.272751937984  87.5009523809527 22.8156976744181  85.4801904761907 20.7876356589143  L 85.4801904761907 20.492286821705  L 85.1957142857145 20.492286821705  L 82.8806666666669 16.4361627906973  L 82.301904761905 17.0170155038756  C 82.0076190476193 18.7497286821702  80.8599047619049 20.492286821705  78.8391428571431 21.9493410852709  C 75.0820952380954 23.6918992248058  71.609523809524 24.2727519379841  68.1467619047621 22.8156976744182  C 65.8317142857145 21.9493410852709  64.3897142857145 20.2067829457361  63.5166666666669 17.5978682170539  L 62.6534285714288 11.789341085271  C 61.7901904761907 6.27616279069734  60.632666666667 3.08639534883686  58.8963809523811 2.21019379844928  C 57.1600952380954 1.04848837209274  55.4238095238098 0.762984496123673  53.9818095238097 1.04848837209274  L 54.2760952380954 5.98081395348808  Z " fill-rule="nonzero" fill="#20dbea" stroke="none" fill-opacity="0.4" transform="matrix(1 0 0 1 1277 753 )" />
  </g>
</svg>