<?xml version="1.0" encoding="utf-8"?>
<svg version="1.1" xmlns:xlink="http://www.w3.org/1999/xlink" width="112px" height="137px" xmlns="http://www.w3.org/2000/svg">
  <g transform="matrix(1 0 0 1 -1237 -587 )">
    <path d="M 70.5501754385963 39.5673741007191  L 70.2063157894737 39.271690647482  L 69.921403508772 39.271690647482  L 69.921403508772 38.9858633093526  C 66.7382456140352 27.9470143884892  63.84 21.8460791366907  61.8161403508773 20.9787410071943  L 51.6870175438598 17.4896762589929  C 45.9003508771931 15.7550000000001  41.842807017544 14.5919784172662  40.1136842105265 13.4289568345325  C 37.2154385964913 11.6844244604318  33.462456140351 7.62370503597135  29.1200000000001 0.941258992805908  L 27.3810526315791 0.941258992805908  L 27.6659649122808 1.23694244604327  C 28.2456140350878 3.56298561151091  30.5642105263159 7.62370503597135  35.4764912280703 13.4388129496404  L 35.7712280701755 13.7246402877699  L 36.0659649122807 14.3061510791368  L 31.4385964912281 22.723273381295  C 29.699649122807 25.9166546762591  27.9705263157895 27.3655035971224  26.2315789473685 26.7839928057555  C 25.0722807017545 26.2024820143885  22.7536842105264 23.5906115107914  18.9908771929825 18.6526978417267  L 14.0687719298246 17.2038489208633  C 14.0687719298246 18.6526978417267  14.9431578947369 21.5602517985612  16.9571929824562 26.2024820143885  L 16.9571929824562 26.4981654676259  L 16.9571929824562 26.7839928057554  L 16.9571929824562 27.0796762589927  L 16.9571929824562 27.3655035971222  L 16.0926315789475 30.5588848920862  L 10.8757894736844 32.8849280575539  L 9.14666666666684 33.4664388489208  C 8.27228070175457 34.3337769784172  8.27228070175457 35.7924820143884  8.56701754385979 37.5370143884891  C 9.14666666666684 41.8934172661869  8.86175438596501 44.5052877697841  7.98736842105274 45.6683093525179  C 7.41754385964919 46.2498201438848  7.12280701754397 46.2498201438848  6.54315789473692 46.2498201438848  L 6.2582456140352 46.2498201438848  L 0.471578947368551 45.0867985611511  C 0.756491228070269 46.2498201438848  1.62105263157904 47.4029856115108  3.07508771929835 48.2801798561151  C 5.97333333333349 50.8920503597122  8.28210526315796 54.6669424460432  10.6105263157895 59.023345323741  L 10.8954385964913 59.9005395683453  L 13.5087719298246 59.3190287769784  C 16.6919298245614 58.7375179856114  19.5803508771929 59.3190287769784  22.4785964912281 61.3592446043165  L 25.6715789473684 65.1341366906475  L 25.9564912280701 65.419964028777  L 25.9564912280701 65.7156474820143  L 25.6715789473684 65.7156474820143  L 25.3768421052632 73.2654316546762  C 26.2512280701755 74.42845323741  26.8308771929825 75.8773021582733  26.2512280701755 77.0403237410072  C 25.6715789473684 78.4891726618705  24.5122807017544 79.3663669064748  22.4785964912281 79.6521942446043  C 20.1698245614035 79.6521942446043  19.0105263157895 81.1010431654676  18.4308771929824 84.008597122302  L 18.4308771929824 84.3042805755394  L 16.1221052631579 89.2421942446042  L 19.5901754385964 92.7214028776977  L 27.1157894736841 94.1801079136689  L 27.6954385964912 94.1801079136689  L 31.4582456140351 98.2408273381293  L 26.8308771929824 105.209100719424  L 37.5396491228069 128.439964028777  L 37.8343859649122 129.021474820144  L 36.0954385964911 131.051834532374  L 36.6750877192982 132.796366906475  L 36.9599999999999 132.796366906475  L 56.6484210526314 120.308669064748  L 53.4652631578946 126.123776978417  C 50.8617543859648 130.480179856115  49.417543859649 134.255071942446  48.8378947368419 136.866942446043  C 52.3059649122805 135.41809352518  55.2042105263156 132.806223021583  56.9431578947367 128.154136690647  L 57.2280701754384 127.57262589928  L 57.5228070175436 127.57262589928  L 63.0245614035085 124.665071942446  L 63.3094736842102 124.083561151079  L 71.1199999999998 131.061690647482  L 79.8049122807015 131.347517985611  L 80.0996491228068 131.643201438849  L 84.1473684210524 134.255071942446  L 94.8561403508769 124.960755395683  C 95.7305263157892 124.083561151079  96.595087719298 122.348884892086  97.7543859649121 119.441330935252  L 98.913684210526 117.115287769784  C 99.1985964912278 115.95226618705  97.7543859649121 113.044712230216  94.8561403508769 108.106798561151  L 92.2526315789471 104.33190647482  L 104.985263157895 108.688309352518  L 108.757894736842 106.648093525179  L 104.985263157895 98.5167985611507  L 104.700350877193 98.2211151079133  L 111.066666666667 89.8039928057551  L 108.463157894737 85.7334172661867  C 105.859649122807 82.8357194244601  104.120701754386 81.3770143884889  102.961403508772 81.3770143884889  L 102.381754385965 81.6726978417263  L 99.1985964912279 84.8660791366903  L 98.6189473684208 84.5802517985609  L 98.0392982456138 84.5802517985609  L 92.8224561403507 82.8357194244602  L 91.3782456140349 78.1836330935249  C 89.3445614035085 77.8978057553954  87.3305263157892 76.7347841726615  85.5915789473682 74.7044244604314  L 82.4084210526313 72.6642086330932  C 79.8049122807015 71.5011870503594  78.3607017543857 70.0523381294961  78.3607017543857 68.6034892086328  C 77.7810526315787 66.8589568345321  78.3607017543857 64.8285971223018  80.0996491228068 62.2167266187047  C 83.2828070175436 57.5646402877694  85.0119298245612 53.7897482014386  85.0119298245612 50.8920503597119  L 85.0119298245612 47.1171582733809  L 87.0456140350875 47.4029856115104  L 93.7066666666665 47.6986690647477  C 94.2863157894735 47.1171582733808  95.1508771929823 44.2096043165463  96.3101754385962 38.985863309352  L 94.2863157894735 38.6901798561147  C 89.6491228070173 41.8835611510787  86.1810526315788 43.9237769784168  83.5775438596489 44.7911151079133  C 80.3845614035086 45.6584532374097  76.336842105263 43.9237769784169  70.5501754385963 39.8532014388485  L 70.5501754385963 39.5673741007191  Z " fill-rule="nonzero" fill="#20dbea" stroke="none" fill-opacity="0.4" transform="matrix(1 0 0 1 1237 587 )" />
  </g>
</svg>