<?xml version="1.0" encoding="utf-8"?>
<svg version="1.1" xmlns:xlink="http://www.w3.org/1999/xlink" width="30px" height="44px" xmlns="http://www.w3.org/2000/svg">
  <g transform="matrix(1 0 0 1 -1259 -430 )">
    <path d="M 19.3900000000003 7.02500000000009  C 18.8200000000001 4.38500000000005  17.93 2.61500000000007  17.34 1.43500000000006  L 16.46 0.845000000000084  C 14.99 0.845000000000084  13.51 2.3250000000001  12.0400000000001 5.55500000000006  L 11.1500000000001 4.96500000000009  L 10.8600000000001 5.25500000000011  L 11.1500000000001 5.54500000000013  L 8.50000000000011 8.19500000000011  L 7.32000000000016 8.78500000000008  L 4.08000000000015 10.5550000000001  L 3.7800000000002 12.6150000000001  C 4.08000000000015 15.8550000000001  3.19000000000017 18.2150000000001  1.72000000000025 19.0950000000001  L 0.540000000000305 22.6350000000001  C 0.24000000000035 23.5150000000001  -0.0499999999997272 25.8750000000001  0.24000000000035 29.1150000000001  L 2.01000000000033 37.9550000000001  C 2.60000000000036 39.1350000000001  4.07000000000028 40.6050000000001  7.02000000000032 41.7850000000001  L 13.7900000000003 43.5550000000001  C 15.5500000000003 43.5550000000001  17.9100000000003 42.6750000000001  20.5700000000003 40.9050000000001  L 18.8000000000003 37.6650000000001  L 18.8000000000003 37.0850000000001  L 18.8000000000003 36.7850000000001  L 19.3900000000003 34.1350000000001  L 19.3900000000003 33.8350000000001  L 22.6300000000003 27.9450000000001  L 28.2300000000004 27.9450000000001  L 29.7100000000004 27.6550000000001  C 29.1200000000003 25.8850000000001  27.3500000000004 22.6450000000001  24.1100000000004 18.5150000000001  L 22.0400000000003 15.5650000000001  C 20.8600000000004 13.2150000000001  19.6900000000003 10.5550000000001  19.3900000000003 7.02500000000009  Z " fill-rule="nonzero" fill="#20dbea" stroke="none" fill-opacity="0.4" transform="matrix(1 0 0 1 1259 430 )" />
  </g>
</svg>