<?xml version="1.0" encoding="utf-8"?>
<svg version="1.1" xmlns:xlink="http://www.w3.org/1999/xlink" width="26px" height="23px" xmlns="http://www.w3.org/2000/svg">
  <g transform="matrix(1 0 0 1 -1380 -652 )">
    <path d="M 19.8600000000001 20.0050000000001  C 20.1500000000001 15.865  21.6300000000001 13.505  23.4000000000001 12.325  L 25.46 9.97500000000002  L 25.46 9.67500000000007  L 18.0900000000001 3.78500000000008  C 14.2600000000002 1.1350000000001  11.0200000000002 0.255000000000109  8.66000000000008 0.545000000000073  L 5.42000000000007 1.72500000000002  L 5.42000000000007 7.91500000000008  C 4.83000000000015 9.98500000000013  3.95000000000005 12.335  1.8900000000001 14.1050000000001  L 0.710000000000036 15.2850000000001  L 3.65000000000009 18.825  L 3.95000000000005 18.825  L 4.83000000000015 21.1850000000001  L 8.37000000000012 22.6550000000001  C 10.4300000000001 21.1850000000001  11.9000000000001 20.5950000000001  13.3700000000001 20.8850000000001  L 19.5600000000002 22.0650000000001  L 19.8600000000001 20.0050000000001  Z " fill-rule="nonzero" fill="#0533aa" stroke="none" fill-opacity="0.482352941176471" transform="matrix(1 0 0 1 1380 652 )" />
  </g>
</svg>