<?xml version="1.0" encoding="utf-8"?>
<svg version="1.1" xmlns:xlink="http://www.w3.org/1999/xlink" width="331px" height="281px" xmlns="http://www.w3.org/2000/svg">
  <g transform="matrix(1 0 0 1 -761 -374 )">
    <path d="M 206.146011904762 105.46833916084  L 196.570654761905 102.000052447552  L 191.920892857143 102.000052447552  L 190.472767857143 105.183409090909  L 193.083333333333 107.78708041958  L 193.083333333333 108.072010489511  L 193.083333333333 108.366765734266  L 194.245773809524 112.129807692308  L 194.531458333333 112.424562937063  L 194.531458333333 113.289178321678  L 193.950238095238 113.583933566434  L 187.566666666666 116.76729020979  L 187.271130952381 117.062045454546  L 186.985446428571 117.062045454546  L 186.699761904762 117.062045454546  C 181.76431547619 116.48236013986  179.15375 115.03805944056  178.286845238095 113.004248251748  L 176.543184523809 109.535961538462  L 167.834732142857 107.796905594406  L 165.509851190476 96.79270979021  C 163.776041666667 96.4979545454547  162.31806547619 95.6333391608393  161.451160714286 94.4739685314687  L 161.155625 93.8942832167834  C 159.7075 91.8702972027974  158.545059523809 90.7109265734267  156.801398809524 90.4259965034967  C 154.486369047619 89.5613811188813  152.447172619048 87.8223251748254  150.703511904762 85.218653846154  L 147.226041666667 83.1848426573429  L 146.930505952381 83.1848426573429  L 142.280744047619 78.5473601398603  L 141.118303571429 74.4993881118883  L 141.118303571429 74.204632867133  L 150.407976190476 61.4613811188812  C 150.703511904762 60.5967657342659  150.989196428571 60.0170804195805  150.703511904762 59.7223251748253  L 148.959851190476 55.6743531468533  L 144.024404761905 57.6983391608393  L 143.728869047619 57.6983391608393  L 143.728869047619 57.9832692307694  L 143.44318452381 57.9832692307694  L 130.676041666667 58.8577097902099  L 125.740595238095 60.0170804195806  L 123.99693452381 61.7561363636365  L 123.120178571429 63.4951923076924  C 121.957738095238 64.9394930069931  120.223928571429 65.8041083916085  117.603511904762 65.2244230769232  L 117.317827380952 64.9394930069931  L 112.963601190476 61.7561363636364  L 112.677916666667 54.5149825174826  C 110.353035714286 52.7759265734267  108.904910714286 51.0368706293707  108.323690476191 49.59256993007  L 107.16125 43.2258566433567  L 104.255148809524 39.75756993007  L 101.063363095238 37.1538986013987  L 99.605386904762 36.2794580419582  L 104.826517857143 29.6179895104897  L 105.988958333333 25.8549475524477  L 100.176755952381 18.623618881119  L 99.8910714285716 18.623618881119  L 99.8910714285716 18.3288636363638  L 97.2805059523811 12.5320104895107  L 97.2805059523811 12.2470804195806  L 96.6992857142859 9.348653846154  L 92.9164285714288 6.4600524475526  L 92.9164285714288 6.16529720279735  L 88.8577380952383 1.82256993007006  L 83.6366071428573 0.95795454545468  L 77.8342559523812 2.69701048951061  L 76.9673511904764 3.85638111888124  L 76.1004464285717 11.9621503496505  L 76.1004464285717 20.9423601398602  L 75.2236904761907 21.2272902097903  L 69.707023809524 23.2611013986015  L 69.707023809524 23.5460314685316  L 64.4858928571431 23.8407867132869  C 61.8753273809526 25.2850874125876  58.9692261904764 26.7293881118883  55.7774404761907 27.8887587412589  L 55.1962202380955 28.1835139860142  L 54.9105357142859 28.1835139860142  L 45.0396428571431 25.8647727272729  L 40.9809523809526 30.2075000000002  C 40.1140476190479 31.3668706293708  38.0847023809526 32.5262412587414  35.4741369047622 33.1059265734267  L 29.3762500000003 38.0283391608393  L 26.1844642857146 42.9507517482519  L 26.1844642857146 43.235681818182  L 25.898779761905 43.5206118881121  C 24.1551190476193 46.1341083916086  22.7069940476193 48.1580944055946  21.5445535714288 49.02270979021  L 18.0670833333336 53.3654370629373  L 18.0670833333336 53.6503671328674  L 17.7715476190479 53.9352972027975  L 15.7422023809526 55.3795979020982  C 14.2842261904764 55.9592832167835  12.8361011904764 56.2540384615387  11.673660714286 56.2540384615387  L 4.41333333333358 55.6743531468534  L 2.66967261904788 58.2780244755248  L 0.0591071428574251 62.9155069930073  L 1.22154761904791 67.5431643356646  L 0.640327380952695 78.8322902097905  L 2.66967261904794 82.3104020979024  L 2.66967261904794 82.5953321678325  L 3.54642857142887 85.208828671329  L 7.60511904761935 85.208828671329  L 14.569910714286 86.6531293706297  L 23.5640476190479 87.232814685315  L 27.6227380952384 86.6531293706297  L 28.2039583333336 86.6531293706297  L 28.4896428571432 86.6531293706297  L 36.3213392857146 89.5515559440563  L 36.6168750000003 89.5515559440563  L 40.6755654761908 92.734912587413  L 49.3840178571431 95.9182692307696  L 49.6795535714289 95.9182692307696  L 55.481904761905 99.3963811188815  L 69.7070238095241 112.424562937063  L 76.0905952380955 115.313164335665  L 78.701160714286 114.163618881119  L 81.3117261904764 109.241206293707  L 79.8636011904764 101.420367132868  C 79.8636011904764 99.1114510489514  81.6072619047621 97.6573251748256  85.0847321428574 96.2130244755249  L 85.6659523809526 95.9182692307696  L 103.398095238095 106.34277972028  L 105.42744047619 105.763094405594  L 109.495982142857 103.444353146853  L 110.077202380952 103.444353146853  L 112.402083333333 103.729283216783  L 115.879553571429 100.830856643357  L 116.460773809524 100.545926573427  L 117.327678571429 101.125611888112  L 127.769940476191 108.366765734266  L 128.065476190476 108.651695804196  L 134.744583333333 114.153793706294  C 136.478392857143 115.303339160839  138.803273809524 117.33715034965  140.832619047619 120.235576923077  L 144.024404761905 123.713688811189  L 146.634970238095 123.418933566434  L 149.541071428571 117.916835664336  L 155.638958333333 122.259562937063  L 155.934494047619 122.259562937063  L 156.220178571429 122.259562937063  L 161.155625 128.331520979021  L 174.218303571428 138.176346153846  L 177.991309523809 142.519073426574  L 189.320178571429 139.325891608392  L 189.891547619048 147.726416083916  L 194.826994047619 152.648828671329  L 194.826994047619 152.933758741259  L 198.88568452381 159.015541958042  L 198.88568452381 159.300472027972  L 198.88568452381 159.585402097902  L 198.88568452381 159.880157342658  L 203.239910714286 179.844912587413  L 207.594136904762 187.960506993007  L 201.781934523809 202.71791958042  L 201.781934523809 203.61201048951  L 196.846488095238 204.771381118881  L 196.846488095238 209.114108391608  L 196.560803571429 209.399038461538  L 191.625357142857 217.504807692308  L 191.044136904762 217.504807692308  L 184.079345238095 218.084493006993  L 177.114553571428 223.871520979021  C 177.991309523809 224.745961538461  179.15375 225.315821678322  181.173244047619 226.190262237762  C 184.079345238095 227.064702797203  184.365029761905 229.373618881119  182.916904761905 233.421590909091  L 182.916904761905 233.716346153846  L 177.981458333333 238.638758741259  L 177.695773809524 238.638758741259  L 177.400238095238 239.218444055944  L 177.104702380952 239.218444055944  L 176.819017857143 239.218444055944  L 162.88943452381 237.194458041958  L 162.60375 242.116870629371  L 164.051875 252.541381118881  L 175.656577380952 257.463793706294  L 175.656577380952 258.043479020979  L 180.010803571429 256.599178321678  L 180.306339285714 256.314248251748  L 180.88755952381 256.029318181818  L 181.173244047619 256.609003496504  L 181.458928571429 256.609003496504  L 184.650714285714 258.34805944056  L 189.586160714286 258.34805944056  L 191.329821428571 258.053304195804  L 189.586160714286 252.551206293706  L 188.423720238095 246.754353146853  L 188.423720238095 246.469423076923  L 188.423720238095 245.889737762238  L 188.709404761905 245.594982517483  L 188.709404761905 245.310052447553  L 190.45306547619 243.286066433567  L 191.034285714286 242.706381118881  L 191.319970238095 242.421451048951  L 194.511755952381 238.078723776224  L 194.807291666667 237.783968531469  L 200.028422619047 233.735996503497  L 200.314107142857 233.735996503497  L 200.314107142857 233.441241258742  L 200.609642857143 233.441241258742  L 206.993214285714 232.576625874126  L 206.993214285714 234.315681818182  C 206.993214285714 236.339667832168  207.278898809524 237.783968531469  207.574434523809 238.658409090909  L 208.736875 241.262080419581  L 210.480535714285 245.025122377623  L 216.282886904762 248.208479020979  L 232.251666666666 249.65277972028  L 232.832886904762 249.65277972028  L 233.699791666666 249.65277972028  L 233.699791666666 250.517395104895  L 233.699791666666 251.097080419581  L 233.118571428571 256.304423076923  L 237.768333333333 261.226835664336  L 241.245803571428 262.671136363637  L 241.827023809524 262.956066433567  L 241.827023809524 263.250821678322  L 242.112708333333 263.830506993007  L 242.112708333333 265.854493006993  L 242.112708333333 268.75291958042  L 240.664583333333 274.539947552448  L 242.693928571428 275.994073426574  C 245.018809523809 275.699318181819  247.048154761904 275.699318181819  249.087351190476 277.153444055944  L 255.766458333333 280.336800699301  L 259.825148809523 277.153444055944  L 264.179375 272.515961538462  L 264.474910714285 270.491975524476  L 264.760595238095 269.91229020979  L 265.34181547619 269.617534965035  L 265.923035714285 269.03784965035  L 265.923035714285 268.458164335665  L 264.465059523809 262.376381118881  L 264.169523809523 259.193024475525  L 263.883839285714 258.908094405595  L 263.883839285714 258.613339160839  L 264.169523809523 258.328409090909  L 264.169523809523 258.033653846154  L 266.494404761904 254.270611888112  L 266.78994047619 253.975856643357  L 271.429851190476 250.7925  L 271.715535714285 250.7925  L 281.300744047619 250.7925  L 282.748869047619 250.212814685315  L 282.453333333333 245.290402097902  L 280.995357142857 240.947674825175  L 277.803571428571 235.740332167833  L 277.517886904762 235.445576923077  L 277.517886904762 235.150821678322  L 277.517886904762 227.919493006993  L 277.517886904762 227.624737762238  L 279.261547619047 223.282010489511  L 279.557083333333 222.997080419581  L 287.398630952381 211.707954545455  L 287.694166666666 211.4131993007  L 287.979851190476 211.4131993007  L 288.561071428571 211.12826923077  L 290.304732142857 211.12826923077  L 293.200982142857 211.4131993007  L 299.880089285714 215.176241258742  L 304.23431547619 216.335611888113  L 304.815535714285 214.311625874127  L 303.938779761904 213.731940559441  L 303.938779761904 212.867325174826  C 303.938779761904 211.138094405595  304.815535714285 209.683968531469  306.559196428571 208.239667832168  L 311.780327380952 204.476625874126  L 312.066011904761 204.191695804196  L 312.066011904761 203.896940559441  C 314.972113095238 203.032325174826  316.715773809523 202.45263986014  317.868363095238 202.45263986014  L 322.508273809523 201.872954545455  L 323.119047619048 201.872954545455  L 326.015297619048 202.45263986014  L 328.044642857143 195.211486013987  L 328.044642857143 190.289073426574  C 328.044642857143 187.095891608392  328.044642857143 185.071905594406  328.921398809524 184.492220279721  L 330.950744047619 180.729178321679  L 328.340178571429 177.260891608392  L 324.862708333333 174.942150349651  L 317.602380952381 172.918164335665  C 316.154255952381 172.918164335665  313.533839285714 171.473863636364  309.179613095238 167.710821678322  L 304.825386904762 165.686835664336  L 304.539702380953 165.686835664336  L 304.244166666667 165.392080419581  L 299.023035714286 159.025367132868  L 294.087589285715 159.025367132868  L 293.801904761905 158.730611888113  L 293.506369047619 158.730611888113  L 289.152142857143 156.421695804196  L 286.541577380953 159.899807692308  L 285.960357142857 173.507674825176  L 286.827261904762 178.715017482518  L 288.856607142857 178.715017482518  L 289.152142857143 178.999947552448  L 293.210833333334 180.159318181819  L 293.210833333334 180.444248251749  L 293.210833333334 180.739003496504  L 295.240178571429 185.661416083917  L 295.525863095238 185.661416083917  L 295.525863095238 185.956171328672  L 295.525863095238 186.241101398602  L 294.363422619048 195.211486013987  L 294.363422619048 195.791171328672  L 294.363422619048 196.076101398602  L 294.067886904762 196.361031468532  C 292.619761904762 197.225646853148  291.457321428572 197.805332167833  290.009196428572 198.679772727273  L 289.427976190476 198.974527972029  L 289.142291666667 198.679772727273  L 288.846755952381 198.679772727273  L 286.817410714286 198.100087412588  L 282.167648809524 199.839143356644  L 281.881964285715 199.839143356644  L 282.167648809524 200.703758741259  L 282.46318452381 200.998513986015  L 283.330089285715 208.809527972029  C 283.330089285715 209.968898601399  282.748869047619 210.548583916085  281.586428571429 210.84333916084  L 278.108958333334 210.84333916084  C 276.365297619048 210.55840909091  275.498392857143 209.968898601399  274.621636904762 209.104283216784  L 271.144166666667 206.500611888113  L 270.858482142858 206.205856643357  L 270.562946428572 206.205856643357  L 270.562946428572 205.920926573427  L 268.533601190477 200.998513986015  C 267.952380952381 200.418828671329  266.494404761905 199.544388111889  263.598154761905 198.679772727274  L 263.30261904762 198.679772727274  L 263.01693452381 198.679772727274  L 258.948392857143 195.781346153847  L 258.367172619048 195.781346153847  L 258.367172619048 195.201660839162  L 257.204732142858 190.279248251749  L 257.785952380953 186.516206293707  L 258.10119047619 186.516206293707  L 258.10119047619 186.221451048952  L 259.844851190476 184.197465034966  L 259.844851190476 182.74333916084  L 258.10119047619 177.535996503497  L 254.0425 173.772954545455  L 254.0425 173.19326923077  L 252.88005952381 161.324458041959  L 249.973958333333 158.435856643357  L 249.678422619048 158.435856643357  L 249.392738095238 158.141101398602  L 247.067857142857 152.639003496504  L 236.625595238095 151.479632867134  C 234.015029761905 150.615017482518  232.271369047619 148.875961538462  231.108928571429 146.557220279721  L 226.459166666667 146.557220279721  C 224.725357142857 145.977534965036  222.981696428571 144.818164335665  220.952351190476 142.794178321679  L 220.371130952381 142.214493006994  C 219.20869047619 141.055122377623  218.04625 139.316066433567  216.893660714286 136.997325174826  L 216.598125 136.712395104896  L 215.731220238095 132.074912587413  L 215.731220238095 131.789982517483  L 215.731220238095 131.505052447553  L 217.474880952381 122.534667832169  L 217.474880952381 122.249737762238  L 219.218541666667 118.486695804197  L 219.218541666667 118.191940559441  L 219.218541666667 117.907010489511  L 219.514077380952 117.907010489511  L 230.53755952381 113.269527972029  L 234.891785714286 108.062185314686  L 235.75869047619 103.719458041959  L 235.177470238095 100.536101398602  C 233.433809523809 96.7730594405601  232.271369047619 94.4543181818188  232.271369047619 93.0100174825181  L 229.956339285714 93.3047727272734  L 225.887797619047 93.0100174825181  C 225.011041666667 93.3047727272734  222.696011904762 95.9084440559447  219.504226190476 99.6714860139866  L 214.568779761905 104.299143356644  L 214.283095238095 104.299143356644  L 213.987559523809 104.593898601399  C 210.214553571428 105.46833916084  207.603988095238 106.0381993007  206.146011904762 105.46833916084  Z " fill-rule="nonzero" fill="#20dbea" stroke="none" fill-opacity="0.4" transform="matrix(1 0 0 1 761 374 )" />
  </g>
</svg>