<?xml version="1.0" encoding="utf-8"?>
<svg version="1.1" xmlns:xlink="http://www.w3.org/1999/xlink" width="67px" height="111px" xmlns="http://www.w3.org/2000/svg">
  <g transform="matrix(1 0 0 1 -995 -471 )">
    <path d="M 47.1660294117642 0.682699115044241  L 39.3230882352941 7.33287610619478  L 34.1010294117647 21.802168141593  L 34.1010294117647 31.3599557522125  L 34.1010294117647 31.6448230088497  L 31.1944117647059 36.566150442478  L 30.6130882352941 40.0434955752214  C 31.1944117647059 42.0670353982302  30.3175 43.8057079646019  28.287794117647 44.9648230088497  L 27.7064705882352 45.2595132743364  L 27.4108823529411 45.2595132743364  L 27.1251470588235 44.9648230088497  L 19.8733823529411 44.1003982300886  L 16.0997058823529 47.5679203539824  L 5.07426470588222 49.3065929203541  L 0.423676470588074 49.3065929203541  L 3.33029411764694 51.3399557522125  L 13.7744117647058 52.4990707964603  L 14.3557352941176 52.4990707964603  L 14.9370588235294 52.4990707964603  L 15.222794117647 52.7839380530975  L 15.222794117647 53.0786283185842  L 17.8436764705881 59.4439380530975  L 20.750294117647 61.4674778761064  C 21.6173529411764 62.6265929203541  22.1986764705882 64.3652654867258  22.1986764705882 67.5479203539824  L 22.4844117647058 75.3572123893807  L 25.9624999999999 78.5496902654869  L 26.258088235294 78.5496902654869  L 26.258088235294 78.8149115044248  L 26.5438235294116 78.8149115044248  L 28.2877941176469 84.6006637168142  L 28.2877941176469 87.7833185840709  L 26.258088235294 90.6811061946903  L 25.6767647058822 93.284203539823  L 26.5438235294116 96.1819911504425  L 30.0219117647057 98.500221238938  C 33.795588235294 99.944203539823  35.8252941176468 100.818451327434  36.7022058823527 102.262433628319  L 38.7319117647056 106.604203539823  C 41.0473529411762 107.763318584071  42.2099999999997 108.922433628319  42.7913235294115 110.071725663717  L 45.4023529411762 110.945973451327  L 45.6979411764703 110.945973451327  L 44.5352941176468 104.580663716814  C 44.2495588235292 103.136681415929  44.2495588235292 101.682876106195  44.8308823529408 101.103318584071  C 45.4122058823526 100.23889380531  45.9935294117643 99.6593362831858  47.1561764705879 99.3646460176991  L 51.5111764705879 97.9206637168141  L 51.7969117647055 97.6259734513274  L 52.0924999999996 97.6259734513274  L 52.3782352941172 97.9206637168141  L 54.4079411764701 98.500221238938  L 57.0288235294112 97.0562389380531  L 57.0288235294112 96.4865044247788  L 57.8958823529406 89.2469469026549  L 56.1519117647053 85.7696017699115  L 53.8364705882347 84.6104867256637  L 50.9397058823523 84.315796460177  L 50.3583823529405 84.315796460177  L 49.7770588235287 84.0211061946902  L 48.6144117647052 76.4966814159291  L 48.9001470588229 61.7425221238938  L 49.4814705882347 61.1629646017699  L 53.8364705882346 55.0825221238938  L 60.2211764705876 58.5598672566372  L 63.9948529411758 58.5598672566372  L 66.9014705882347 39.7488053097345  C 66.0344117647053 37.7252654867257  65.1574999999994 36.2812831858408  63.4135294117642 35.4070353982301  L 61.6695588235289 35.1221681415929  L 61.6695588235289 35.4070353982301  L 60.792647058823 35.4070353982301  L 56.1519117647053 36.2812831858407  L 55.8661764705877 35.7017256637168  L 55.5804411764701 35.4070353982301  L 52.3880882352936 31.3599557522124  L 52.3880882352936 31.0652654867257  L 52.102352941176 30.7803982300885  L 52.102352941176 23.5506637168141  L 53.2649999999995 19.4937610619469  L 54.427647058823 17.7550884955752  C 54.427647058823 16.5959734513274  54.7232352941171 15.4368584070796  55.8760294117642 13.9928761061947  L 57.0386764705877 12.5488938053097  L 57.3244117647053 7.6275663716814  L 52.9694117647053 3.57066371681415  L 47.1660294117642 0.682699115044241  Z " fill-rule="nonzero" fill="#0533aa" stroke="none" fill-opacity="0.482352941176471" transform="matrix(1 0 0 1 995 471 )" />
  </g>
</svg>