<?xml version="1.0" encoding="utf-8"?>
<svg version="1.1" xmlns:xlink="http://www.w3.org/1999/xlink" width="12px" height="12px" xmlns="http://www.w3.org/2000/svg">
  <g transform="matrix(1 0 0 1 -1390 -654 )">
    <path d="M 1396 655  C 1398.8 655  1401 657.2  1401 660  C 1401 662.8  1398.8 665  1396 665  C 1393.2 665  1391 662.8  1391 660  C 1391 657.2  1393.2 655  1396 655  Z " fill-rule="nonzero" fill="#34e0a8" stroke="none" fill-opacity="0.298039215686275" />
    <path d="M 1396 655  C 1398.8 655  1401 657.2  1401 660  C 1401 662.8  1398.8 665  1396 665  C 1393.2 665  1391 662.8  1391 660  C 1391 657.2  1393.2 655  1396 655  Z " stroke-width="2" stroke="#34e0a8" fill="none" />
  </g>
</svg>