<?xml version="1.0" encoding="utf-8"?>
<svg version="1.1" xmlns:xlink="http://www.w3.org/1999/xlink" width="10px" height="10px" xmlns="http://www.w3.org/2000/svg">
  <g transform="matrix(1 0 0 1 -332 -316 )">
    <path d="M 337 317  C 339.24 317  341 318.76  341 321  C 341 323.24  339.24 325  337 325  C 334.76 325  333 323.24  333 321  C 333 318.76  334.76 317  337 317  Z " fill-rule="nonzero" fill="#ffffff" stroke="none" />
    <path d="M 337 317  C 339.24 317  341 318.76  341 321  C 341 323.24  339.24 325  337 325  C 334.76 325  333 323.24  333 321  C 333 318.76  334.76 317  337 317  Z " stroke-width="2" stroke="#d9d9d9" fill="none" />
  </g>
</svg>