<?xml version="1.0" encoding="utf-8"?>
<svg version="1.1" xmlns:xlink="http://www.w3.org/1999/xlink" width="10px" height="10px" xmlns="http://www.w3.org/2000/svg">
  <g transform="matrix(1 0 0 1 -332 -462 )">
    <path d="M 337 463  C 339.24 463  341 464.76  341 467  C 341 469.24  339.24 471  337 471  C 334.76 471  333 469.24  333 467  C 333 464.76  334.76 463  337 463  Z " fill-rule="nonzero" fill="#ffffff" stroke="none" />
    <path d="M 337 463  C 339.24 463  341 464.76  341 467  C 341 469.24  339.24 471  337 471  C 334.76 471  333 469.24  333 467  C 333 464.76  334.76 463  337 463  Z " stroke-width="2" stroke="#ff6600" fill="none" />
  </g>
</svg>