<?xml version="1.0" encoding="utf-8"?>
<svg version="1.1" xmlns:xlink="http://www.w3.org/1999/xlink" width="28px" height="28px" xmlns="http://www.w3.org/2000/svg">
  <g transform="matrix(1 0 0 1 -744 -183 )">
    <path d="M 758 184  C 765.28 184  771 189.72  771 197  C 771 204.28  765.28 210  758 210  C 750.72 210  745 204.28  745 197  C 745 189.72  750.72 184  758 184  Z " fill-rule="nonzero" fill="#ffffff" stroke="none" />
    <path d="M 758 184  C 765.28 184  771 189.72  771 197  C 771 204.28  765.28 210  758 210  C 750.72 210  745 204.28  745 197  C 745 189.72  750.72 184  758 184  Z " stroke-width="2" stroke="#108ee9" fill="none" />
  </g>
</svg>