<?xml version="1.0" encoding="utf-8"?>
<svg version="1.1" xmlns:xlink="http://www.w3.org/1999/xlink" width="28px" height="28px" xmlns="http://www.w3.org/2000/svg">
  <g transform="matrix(1 0 0 1 -1065 -183 )">
    <path d="M 1079 184  C 1086.28 184  1092 189.72  1092 197  C 1092 204.28  1086.28 210  1079 210  C 1071.72 210  1066 204.28  1066 197  C 1066 189.72  1071.72 184  1079 184  Z " fill-rule="nonzero" fill="#108ee9" stroke="none" />
    <path d="M 1079 184  C 1086.28 184  1092 189.72  1092 197  C 1092 204.28  1086.28 210  1079 210  C 1071.72 210  1066 204.28  1066 197  C 1066 189.72  1071.72 184  1079 184  Z " stroke-width="2" stroke="#108ee9" fill="none" />
  </g>
</svg>