<?xml version="1.0" encoding="utf-8"?>
<svg version="1.1" xmlns:xlink="http://www.w3.org/1999/xlink" width="28px" height="28px" xmlns="http://www.w3.org/2000/svg">
  <g transform="matrix(1 0 0 1 -1385 -183 )">
    <path d="M 1399 184  C 1406.28 184  1412 189.72  1412 197  C 1412 204.28  1406.28 210  1399 210  C 1391.72 210  1386 204.28  1386 197  C 1386 189.72  1391.72 184  1399 184  Z " fill-rule="nonzero" fill="#ffffff" stroke="none" fill-opacity="0" />
    <path d="M 1399 184  C 1406.28 184  1412 189.72  1412 197  C 1412 204.28  1406.28 210  1399 210  C 1391.72 210  1386 204.28  1386 197  C 1386 189.72  1391.72 184  1399 184  Z " stroke-width="2" stroke="#cccccc" fill="none" />
  </g>
</svg>