<?xml version="1.0" encoding="utf-8"?>
<svg version="1.1" xmlns:xlink="http://www.w3.org/1999/xlink" width="22px" height="22px" xmlns="http://www.w3.org/2000/svg">
  <g transform="matrix(1 0 0 1 -744 -247 )">
    <path d="M 755 248  C 760.6 248  765 252.4  765 258  C 765 263.6  760.6 268  755 268  C 749.4 268  745 263.6  745 258  C 745 252.4  749.4 248  755 248  Z " fill-rule="nonzero" fill="#ffffff" stroke="none" />
    <path d="M 755 248  C 760.6 248  765 252.4  765 258  C 765 263.6  760.6 268  755 268  C 749.4 268  745 263.6  745 258  C 745 252.4  749.4 248  755 248  Z " stroke-width="2" stroke="#108ee9" fill="none" />
  </g>
</svg>