<?xml version="1.0" encoding="utf-8"?>
<svg version="1.1" xmlns:xlink="http://www.w3.org/1999/xlink" width="22px" height="22px" xmlns="http://www.w3.org/2000/svg">
  <g transform="matrix(1 0 0 1 -1052 -247 )">
    <path d="M 1063 248  C 1068.6 248  1073 252.4  1073 258  C 1073 263.6  1068.6 268  1063 268  C 1057.4 268  1053 263.6  1053 258  C 1053 252.4  1057.4 248  1063 248  Z " fill-rule="nonzero" fill="#108ee9" stroke="none" />
    <path d="M 1063 248  C 1068.6 248  1073 252.4  1073 258  C 1073 263.6  1068.6 268  1063 268  C 1057.4 268  1053 263.6  1053 258  C 1053 252.4  1057.4 248  1063 248  Z " stroke-width="2" stroke="#108ee9" fill="none" />
  </g>
</svg>