<?xml version="1.0" encoding="utf-8"?>
<svg version="1.1" xmlns:xlink="http://www.w3.org/1999/xlink" width="22px" height="22px" xmlns="http://www.w3.org/2000/svg">
  <g transform="matrix(1 0 0 1 -1355 -247 )">
    <path d="M 1366 248  C 1371.6 248  1376 252.4  1376 258  C 1376 263.6  1371.6 268  1366 268  C 1360.4 268  1356 263.6  1356 258  C 1356 252.4  1360.4 248  1366 248  Z " fill-rule="nonzero" fill="#ffffff" stroke="none" fill-opacity="0" />
    <path d="M 1366 248  C 1371.6 248  1376 252.4  1376 258  C 1376 263.6  1371.6 268  1366 268  C 1360.4 268  1356 263.6  1356 258  C 1356 252.4  1360.4 248  1366 248  Z " stroke-width="2" stroke="#cccccc" fill="none" />
  </g>
</svg>