<?xml version="1.0" encoding="utf-8"?>
<svg version="1.1" xmlns:xlink="http://www.w3.org/1999/xlink" width="12px" height="12px" viewBox="850 221.5  12 12" xmlns="http://www.w3.org/2000/svg">
  <path d="M 856 221.5  C 859.36 221.5  862 224.14  862 227.5  C 862 230.86  859.36 233.5  856 233.5  C 852.64 233.5  850 230.86  850 227.5  C 850 224.14  852.64 221.5  856 221.5  Z " fill-rule="nonzero" fill="#ffffff" stroke="none" />
  <path d="M 856 222  C 859.08 222  861.5 224.42  861.5 227.5  C 861.5 230.58  859.08 233  856 233  C 852.92 233  850.5 230.58  850.5 227.5  C 850.5 224.42  852.92 222  856 222  Z " stroke-width="1" stroke="#797979" fill="none" />
  <path d="M 856 230.5  C 854.32 230.5  853 229.18  853 227.5  C 853 225.82  854.32 224.5  856 224.5  C 857.68 224.5  859 225.82  859 227.5  C 859 229.18  857.68 230.5  856 230.5  " fill-rule="nonzero" fill="#797979" stroke="none" />
</svg>