<?xml version="1.0" encoding="utf-8"?>
<svg version="1.1" xmlns:xlink="http://www.w3.org/1999/xlink" width="12px" height="12px" viewBox="925 221.5  12 12" xmlns="http://www.w3.org/2000/svg">
  <path d="M 931 221.5  C 934.36 221.5  937 224.14  937 227.5  C 937 230.86  934.36 233.5  931 233.5  C 927.64 233.5  925 230.86  925 227.5  C 925 224.14  927.64 221.5  931 221.5  Z " fill-rule="nonzero" fill="#ffffff" stroke="none" />
  <path d="M 931 222  C 934.08 222  936.5 224.42  936.5 227.5  C 936.5 230.58  934.08 233  931 233  C 927.92 233  925.5 230.58  925.5 227.5  C 925.5 224.42  927.92 222  931 222  Z " stroke-width="1" stroke="#797979" fill="none" />
  <path d="M 931 230.5  C 929.32 230.5  928 229.18  928 227.5  C 928 225.82  929.32 224.5  931 224.5  C 932.68 224.5  934 225.82  934 227.5  C 934 229.18  932.68 230.5  931 230.5  " fill-rule="nonzero" fill="#797979" stroke="none" />
</svg>