<?xml version="1.0" encoding="utf-8"?>
<svg version="1.1" xmlns:xlink="http://www.w3.org/1999/xlink" width="12px" height="12px" viewBox="1000 221.5  12 12" xmlns="http://www.w3.org/2000/svg">
  <path d="M 1006 221.5  C 1009.36 221.5  1012 224.14  1012 227.5  C 1012 230.86  1009.36 233.5  1006 233.5  C 1002.64 233.5  1000 230.86  1000 227.5  C 1000 224.14  1002.64 221.5  1006 221.5  Z " fill-rule="nonzero" fill="#ffffff" stroke="none" />
  <path d="M 1006 222  C 1009.08 222  1011.5 224.42  1011.5 227.5  C 1011.5 230.58  1009.08 233  1006 233  C 1002.92 233  1000.5 230.58  1000.5 227.5  C 1000.5 224.42  1002.92 222  1006 222  Z " stroke-width="1" stroke="#797979" fill="none" />
  <path d="M 1006 230.5  C 1004.32 230.5  1003 229.18  1003 227.5  C 1003 225.82  1004.32 224.5  1006 224.5  C 1007.68 224.5  1009 225.82  1009 227.5  C 1009 229.18  1007.68 230.5  1006 230.5  " fill-rule="nonzero" fill="#797979" stroke="none" />
</svg>