<?xml version="1.0" encoding="utf-8"?>
<svg version="1.1" xmlns:xlink="http://www.w3.org/1999/xlink" width="12px" height="12px" viewBox="381 260.5  12 12" xmlns="http://www.w3.org/2000/svg">
  <path d="M 387 260.5  C 390.36 260.5  393 263.14  393 266.5  C 393 269.86  390.36 272.5  387 272.5  C 383.64 272.5  381 269.86  381 266.5  C 381 263.14  383.64 260.5  387 260.5  Z " fill-rule="nonzero" fill="#ffffff" stroke="none" />
  <path d="M 387 261  C 390.08 261  392.5 263.42  392.5 266.5  C 392.5 269.58  390.08 272  387 272  C 383.92 272  381.5 269.58  381.5 266.5  C 381.5 263.42  383.92 261  387 261  Z " stroke-width="1" stroke="#797979" fill="none" />
  <path d="M 387 269.5  C 385.32 269.5  384 268.18  384 266.5  C 384 264.82  385.32 263.5  387 263.5  C 388.68 263.5  390 264.82  390 266.5  C 390 268.18  388.68 269.5  387 269.5  " fill-rule="nonzero" fill="#797979" stroke="none" />
</svg>