<?xml version="1.0" encoding="utf-8"?>
<svg version="1.1" xmlns:xlink="http://www.w3.org/1999/xlink" width="12px" height="12px" viewBox="925 449.5  12 12" xmlns="http://www.w3.org/2000/svg">
  <path d="M 931 449.5  C 934.36 449.5  937 452.14  937 455.5  C 937 458.86  934.36 461.5  931 461.5  C 927.64 461.5  925 458.86  925 455.5  C 925 452.14  927.64 449.5  931 449.5  Z " fill-rule="nonzero" fill="#ffffff" stroke="none" />
  <path d="M 931 450  C 934.08 450  936.5 452.42  936.5 455.5  C 936.5 458.58  934.08 461  931 461  C 927.92 461  925.5 458.58  925.5 455.5  C 925.5 452.42  927.92 450  931 450  Z " stroke-width="1" stroke="#797979" fill="none" />
  <path d="M 931 458.5  C 929.32 458.5  928 457.18  928 455.5  C 928 453.82  929.32 452.5  931 452.5  C 932.68 452.5  934 453.82  934 455.5  C 934 457.18  932.68 458.5  931 458.5  " fill-rule="nonzero" fill="#797979" stroke="none" />
</svg>