<?xml version="1.0" encoding="utf-8"?>
<svg version="1.1" xmlns:xlink="http://www.w3.org/1999/xlink" width="12px" height="12px" viewBox="381 264.5  12 12" xmlns="http://www.w3.org/2000/svg">
  <path d="M 387 264.5  C 390.36 264.5  393 267.14  393 270.5  C 393 273.86  390.36 276.5  387 276.5  C 383.64 276.5  381 273.86  381 270.5  C 381 267.14  383.64 264.5  387 264.5  Z " fill-rule="nonzero" fill="#ffffff" stroke="none" />
  <path d="M 387 265  C 390.08 265  392.5 267.42  392.5 270.5  C 392.5 273.58  390.08 276  387 276  C 383.92 276  381.5 273.58  381.5 270.5  C 381.5 267.42  383.92 265  387 265  Z " stroke-width="1" stroke="#797979" fill="none" />
  <path d="M 387 273.5  C 385.32 273.5  384 272.18  384 270.5  C 384 268.82  385.32 267.5  387 267.5  C 388.68 267.5  390 268.82  390 270.5  C 390 272.18  388.68 273.5  387 273.5  " fill-rule="nonzero" fill="#797979" stroke="none" />
</svg>