<?xml version="1.0" encoding="utf-8"?>
<svg version="1.1" xmlns:xlink="http://www.w3.org/1999/xlink" width="12px" height="12px" viewBox="456 264.5  12 12" xmlns="http://www.w3.org/2000/svg">
  <path d="M 462 264.5  C 465.36 264.5  468 267.14  468 270.5  C 468 273.86  465.36 276.5  462 276.5  C 458.64 276.5  456 273.86  456 270.5  C 456 267.14  458.64 264.5  462 264.5  Z " fill-rule="nonzero" fill="#ffffff" stroke="none" />
  <path d="M 462 265  C 465.08 265  467.5 267.42  467.5 270.5  C 467.5 273.58  465.08 276  462 276  C 458.92 276  456.5 273.58  456.5 270.5  C 456.5 267.42  458.92 265  462 265  Z " stroke-width="1" stroke="#797979" fill="none" />
  <path d="M 462 273.5  C 460.32 273.5  459 272.18  459 270.5  C 459 268.82  460.32 267.5  462 267.5  C 463.68 267.5  465 268.82  465 270.5  C 465 272.18  463.68 273.5  462 273.5  " fill-rule="nonzero" fill="#797979" stroke="none" />
</svg>