<?xml version="1.0" encoding="utf-8"?>
<svg version="1.1" xmlns:xlink="http://www.w3.org/1999/xlink" width="12px" height="12px" viewBox="1339 338.5  12 12" xmlns="http://www.w3.org/2000/svg">
  <path d="M 1345 338.5  C 1348.36 338.5  1351 341.14  1351 344.5  C 1351 347.86  1348.36 350.5  1345 350.5  C 1341.64 350.5  1339 347.86  1339 344.5  C 1339 341.14  1341.64 338.5  1345 338.5  Z " fill-rule="nonzero" fill="#ffffff" stroke="none" />
  <path d="M 1345 339  C 1348.08 339  1350.5 341.42  1350.5 344.5  C 1350.5 347.58  1348.08 350  1345 350  C 1341.92 350  1339.5 347.58  1339.5 344.5  C 1339.5 341.42  1341.92 339  1345 339  Z " stroke-width="1" stroke="#797979" fill="none" />
  <path d="M 1345 347.5  C 1343.32 347.5  1342 346.18  1342 344.5  C 1342 342.82  1343.32 341.5  1345 341.5  C 1346.68 341.5  1348 342.82  1348 344.5  C 1348 346.18  1346.68 347.5  1345 347.5  " fill-rule="nonzero" fill="#797979" stroke="none" />
</svg>