<?xml version="1.0" encoding="utf-8"?>
<svg version="1.1" xmlns:xlink="http://www.w3.org/1999/xlink" width="12px" height="12px" viewBox="1264 380.5  12 12" xmlns="http://www.w3.org/2000/svg">
  <path d="M 1270 380.5  C 1273.36 380.5  1276 383.14  1276 386.5  C 1276 389.86  1273.36 392.5  1270 392.5  C 1266.64 392.5  1264 389.86  1264 386.5  C 1264 383.14  1266.64 380.5  1270 380.5  Z " fill-rule="nonzero" fill="#ffffff" stroke="none" />
  <path d="M 1270 381  C 1273.08 381  1275.5 383.42  1275.5 386.5  C 1275.5 389.58  1273.08 392  1270 392  C 1266.92 392  1264.5 389.58  1264.5 386.5  C 1264.5 383.42  1266.92 381  1270 381  Z " stroke-width="1" stroke="#797979" fill="none" />
  <path d="M 1270 389.5  C 1268.32 389.5  1267 388.18  1267 386.5  C 1267 384.82  1268.32 383.5  1270 383.5  C 1271.68 383.5  1273 384.82  1273 386.5  C 1273 388.18  1271.68 389.5  1270 389.5  " fill-rule="nonzero" fill="#797979" stroke="none" />
</svg>