<?xml version="1.0" encoding="utf-8"?>
<svg version="1.1" xmlns:xlink="http://www.w3.org/1999/xlink" width="12px" height="12px" viewBox="1339 380.5  12 12" xmlns="http://www.w3.org/2000/svg">
  <path d="M 1345 380.5  C 1348.36 380.5  1351 383.14  1351 386.5  C 1351 389.86  1348.36 392.5  1345 392.5  C 1341.64 392.5  1339 389.86  1339 386.5  C 1339 383.14  1341.64 380.5  1345 380.5  Z " fill-rule="nonzero" fill="#ffffff" stroke="none" />
  <path d="M 1345 381  C 1348.08 381  1350.5 383.42  1350.5 386.5  C 1350.5 389.58  1348.08 392  1345 392  C 1341.92 392  1339.5 389.58  1339.5 386.5  C 1339.5 383.42  1341.92 381  1345 381  Z " stroke-width="1" stroke="#797979" fill="none" />
  <path d="M 1345 389.5  C 1343.32 389.5  1342 388.18  1342 386.5  C 1342 384.82  1343.32 383.5  1345 383.5  C 1346.68 383.5  1348 384.82  1348 386.5  C 1348 388.18  1346.68 389.5  1345 389.5  " fill-rule="nonzero" fill="#797979" stroke="none" />
</svg>