<?xml version="1.0" encoding="utf-8"?>
<svg version="1.1" xmlns:xlink="http://www.w3.org/1999/xlink" width="80px" height="28px" xmlns="http://www.w3.org/2000/svg">
  <defs>
    <mask fill="white" id="clip80">
      <path d="M 80 24  L 80 4  C 80 1.76  77.8 0  75 0  L 0 0  L 0 28  L 75 28  C 77.8 28  80 26.24  80 24  Z " fill-rule="evenodd" />
    </mask>
  </defs>
  <g transform="matrix(1 0 0 1 -432 -259 )">
    <path d="M 80 24  L 80 4  C 80 1.76  77.8 0  75 0  L 0 0  L 0 28  L 75 28  C 77.8 28  80 26.24  80 24  Z " fill-rule="nonzero" fill="#ffffff" stroke="none" transform="matrix(1 0 0 1 432 259 )" />
    <path d="M 80 24  L 80 4  C 80 1.76  77.8 0  75 0  L 0 0  L 0 28  L 75 28  C 77.8 28  80 26.24  80 24  Z " stroke-width="2" stroke="#d9d9d9" fill="none" transform="matrix(1 0 0 1 432 259 )" mask="url(#clip80)" />
  </g>
</svg>